<?xml version="1.0" encoding="utf-8"?>
<!-- Generator: Adobe Illustrator 29.6.0, SVG Export Plug-In . SVG Version: 9.03 Build 0)  -->
<svg version="1.1" baseProfile="basic" xmlns="http://www.w3.org/2000/svg" xmlns:xlink="http://www.w3.org/1999/xlink" x="0px"
	 y="0px" viewBox="0 0 253.5 397.815" xml:space="preserve">
<g id="Layer_9">
	
		<line fill="none" stroke="#BCBEC0" stroke-width="0.75" stroke-miterlimit="2.5" x1="113.086" y1="350.675" x2="113.086" y2="5.856"/>
</g>
<g id="Layer_4">
	<line fill="none" stroke="#00A651" stroke-width="4" stroke-miterlimit="2.5" x1="82.75" y1="322.66" x2="208.426" y2="322.66"/>
	<line fill="none" stroke="#00BDF2" stroke-width="4" stroke-miterlimit="2.5" x1="92.181" y1="301.53" x2="241.406" y2="301.53"/>
	
		<line fill="none" stroke="#D3BB7B" stroke-width="4" stroke-miterlimit="2.5" x1="140.873" y1="280.401" x2="178.577" y2="280.401"/>
	
		<line fill="none" stroke="#007DC5" stroke-width="4" stroke-miterlimit="2.5" x1="113.54" y1="259.271" x2="126.736" y2="259.271"/>
	
		<line fill="none" stroke="#F287B7" stroke-width="4" stroke-miterlimit="2.5" x1="100.037" y1="238.142" x2="117.305" y2="238.142"/>
	<line fill="none" stroke="#ED1C24" stroke-width="4" stroke-miterlimit="2.5" x1="108.2" y1="217.012" x2="114.789" y2="217.012"/>
	<line fill="none" stroke="#FFCB05" stroke-width="4" stroke-miterlimit="2.5" x1="82.75" y1="195.883" x2="129.885" y2="195.883"/>
	
		<line fill="none" stroke="#F37021" stroke-width="4" stroke-miterlimit="2.5" x1="142.448" y1="174.754" x2="169.925" y2="174.754"/>
	
		<line fill="none" stroke="#76CED9" stroke-width="4" stroke-miterlimit="2.5" x1="113.377" y1="153.624" x2="143.226" y2="153.624"/>
	
		<line fill="none" stroke="#A3238E" stroke-width="4" stroke-miterlimit="2.5" x1="136.945" y1="132.495" x2="184.062" y2="132.495"/>
	
		<line fill="none" stroke="#FCAF17" stroke-width="4" stroke-miterlimit="2.5" x1="101.449" y1="111.365" x2="116.69" y2="111.365"/>
	<line fill="none" stroke="#F7941D" stroke-width="4" stroke-miterlimit="2.5" x1="136.166" y1="90.236" x2="175.428" y2="90.236"/>
	<rect x="144.943" y="317.8" fill="#00A651" width="1.296" height="9.72"/>
	<rect x="158.292" y="296.67" fill="#00BDF2" width="1.296" height="9.72"/>
	<rect x="159.077" y="275.541" fill="#D3BB7B" width="1.296" height="9.72"/>
	<rect x="119.491" y="254.411" fill="#007DC5" width="1.296" height="9.72"/>
	<rect x="108.022" y="233.282" fill="#F287B7" width="1.296" height="9.72"/>
	<rect x="110.858" y="212.152" fill="#ED1C24" width="1.296" height="9.72"/>
	<rect x="105.66" y="191.023" fill="#FFCB05" width="1.296" height="9.72"/>
	<rect x="155.146" y="169.894" fill="#F37021" width="1.296" height="9.72"/>
	<rect x="127.656" y="148.764" fill="#76CED9" width="1.296" height="9.72"/>
	<rect x="159.854" y="127.635" fill="#A3238E" width="1.296" height="9.72"/>
	<rect x="108.41" y="106.505" fill="#FCAF17" width="1.296" height="9.72"/>
	<rect x="155.146" y="85.376" fill="#F7941D" width="1.296" height="9.72"/>
	<line fill="none" stroke="#8DC63F" stroke-width="4" stroke-miterlimit="2.5" x1="59.04" y1="69.106" x2="208.271" y2="69.106"/>
	<line fill="none" stroke="#C7544D" stroke-width="4" stroke-miterlimit="2.5" x1="145.43" y1="47.977" x2="161.773" y2="47.977"/>
	<rect x="113.371" y="64.246" fill="#8DC63F" width="1.296" height="9.72"/>
	<rect x="152.957" y="43.117" fill="#C7544D" width="1.296" height="9.72"/>
	<line fill="none" stroke="#DD2A26" stroke-width="4" stroke-miterlimit="2.5" x1="120.453" y1="25.909" x2="179.349" y2="25.909"/>
	<rect x="148.068" y="21.049" fill="#DD2A26" width="1.296" height="9.72"/>
</g>
<g id="Layer_3">
	<text transform="matrix(1 0 0 1 12.0649 334.6086)" font-family="'Helvetica'" font-size="9px">HST_Key_Project 2001</text>
	<text transform="matrix(1 0 0 1 12.0649 313.4397)" font-family="'Helvetica'" font-size="9px">CHANDRA+tSZ 2006</text>
	<text transform="matrix(1 0 0 1 12.0649 292.3101)" font-family="'Helvetica'" font-size="9px">Cepheids+SNIa 2011</text>
	<text transform="matrix(1 0 0 1 12.0649 271.1814)" font-family="'Helvetica'" font-size="9px">WMAP9++ 2013</text>
	<text transform="matrix(1 0 0 1 12.0649 250.0518)" font-family="'Helvetica'" font-size="9px">Inv_Dist_Ladder 2015</text>
	<text transform="matrix(1 0 0 1 12.0649 81.0166)" font-family="'Helvetica'" font-size="9px">LIGO+Virgo+KAGRA 2021</text>
	<text transform="matrix(1 0 0 1 12.0649 228.9221)" font-family="'Helvetica'" font-size="9px">Planck_PR3++ 2018</text>
	<text transform="matrix(1 0 0 1 12.0649 207.7929)" font-family="'Helvetica'" font-size="9px">XMM+Planck_tSZ 2018</text>
	<text transform="matrix(1 0 0 1 12.0649 186.6638)" font-family="'Helvetica'" font-size="9px">GravLens_Time_Delay 2019</text>
	<text transform="matrix(1 0 0 1 12.0649 165.5336)" font-family="'Helvetica'" font-size="9px">TRGB_Dist_Ladder 2019</text>
	<text transform="matrix(1 0 0 1 12.0649 144.4047)" font-family="'Helvetica'" font-size="9px">Megamasers 2020</text>
	<text transform="matrix(1 0 0 1 12.0649 123.2756)" font-family="'Helvetica'" font-size="9px">eBOSS_BBN+BAO 2020</text>
	<text transform="matrix(1 0 0 1 12.0649 102.1462)" font-family="'Helvetica'" font-size="9px">SBF_distances 2021</text>
	<path fill="none" stroke="#000000" stroke-width="0.5669" stroke-linecap="round" stroke-miterlimit="2.5" d="M247.687,187.09
		L247.687,187.09"/>
	<text transform="matrix(1 0 0 1 184.856 334.6082)" fill="#ED1C24" font-family="'Helvetica'" font-size="9px">72 </text>
	<text transform="matrix(1 0 0 1 197.5608 334.6082)" fill="#ED1C24" font-family="'Symbol'" font-size="9px">±</text>
	<text transform="matrix(1 0 0 1 202.8586 334.6089)" fill="#ED1C24" font-family="'Helvetica'" font-size="9px"> 8</text>
	<text transform="matrix(1 0 0 1 184.856 313.4396)" fill="#ED1C24" font-family="'Helvetica'" font-size="9px">73.7</text>
	<text transform="matrix(1 0 0 1 203.6484 309.5171)"><tspan x="0" y="0" fill="#ED1C24" font-family="'Helvetica-Light'" font-size="8px"> +</tspan><tspan x="7.504" y="0" fill="#ED1C24" font-family="'Helvetica'" font-size="7px">10.5</tspan></text>
	<text transform="matrix(1 0 0 1 209.363 315.6371)" fill="#ED1C24" font-family="'Helvetica'" font-size="7px">– 8.5</text>
	<text transform="matrix(1 0 0 1 184.856 292.2716)" fill="#ED1C24" font-family="'Helvetica'" font-size="9px">73.8 </text>
	<text transform="matrix(1 0 0 1 205.6125 292.2714)" fill="#ED1C24" font-family="'Symbol'" font-size="9px">±</text>
	<text transform="matrix(1 0 0 1 210.9104 292.2716)" fill="#ED1C24" font-family="'Helvetica'" font-size="9px"> 2.4</text>
	<text transform="matrix(1 0 0 1 184.856 271.1017)" fill="#ED1C24" font-family="'Helvetica'" font-size="9px">68.76 </text>
	<text transform="matrix(1 0 0 1 210.9802 271.1021)" fill="#ED1C24" font-family="'Symbol'" font-size="9px">±</text>
	<text transform="matrix(1 0 0 1 216.2785 271.1017)" fill="#ED1C24" font-family="'Helvetica'" font-size="9px"> 0.84</text>
	<text transform="matrix(1 0 0 1 184.856 249.9337)" fill="#ED1C24" font-family="'Helvetica'" font-size="9px">67.3 </text>
	<text transform="matrix(1 0 0 1 205.6125 249.9338)" fill="#ED1C24" font-family="'Symbol'" font-size="9px">±</text>
	<text transform="matrix(1 0 0 1 210.9104 249.9337)" fill="#ED1C24" font-family="'Helvetica'" font-size="9px"> 1.1</text>
	<text transform="matrix(1 0 0 1 184.856 80.8509)" fill="#ED1C24" font-family="'Helvetica'" font-size="9px">68</text>
	<text transform="matrix(1 0 0 1 196.5007 77.3729)"><tspan x="0" y="0" fill="#ED1C24" font-family="'Helvetica'" font-size="7px"> </tspan><tspan x="1.945" y="0" fill="#ED1C24" font-family="'Helvetica-Light'" font-size="8px">+</tspan><tspan x="7.225" y="0" fill="#ED1C24" font-family="'Helvetica'" font-size="7px">12.0</tspan></text>
	<text transform="matrix(1 0 0 1 203.7207 83.7177)" fill="#ED1C24" font-family="'Helvetica'" font-size="7px">–7.0</text>
	<text transform="matrix(1 0 0 1 184.856 228.4575)" fill="#ED1C24" font-family="'Helvetica'" font-size="9px">67.66 </text>
	<text transform="matrix(1 0 0 1 210.9802 228.4575)" fill="#ED1C24" font-family="'Symbol'" font-size="9px">±</text>
	<text transform="matrix(1 0 0 1 216.2785 228.4575)" fill="#ED1C24" font-family="'Helvetica'" font-size="9px"> 0.42</text>
	<text transform="matrix(1 0 0 1 184.856 207.5435)" fill="#ED1C24" font-family="'Helvetica'" font-size="9px">67 </text>
	<text transform="matrix(1 0 0 1 197.3648 207.7358)" fill="#ED1C24" font-family="'Symbol'" font-size="9px">±</text>
	<text transform="matrix(1 0 0 1 202.6627 207.5435)" fill="#ED1C24" font-family="'Helvetica'" font-size="9px"> 3</text>
	<text transform="matrix(1 0 0 1 184.856 186.3745)" fill="#ED1C24" font-family="'Helvetica'" font-size="9px">73.3</text>
	<text transform="matrix(1 0 0 1 203.6484 182.133)"><tspan x="0" y="0" fill="#ED1C24" font-family="'Helvetica'" font-size="7px"> </tspan><tspan x="1.945" y="0" fill="#ED1C24" font-family="'Helvetica-Light'" font-size="8px">+</tspan><tspan x="7.225" y="0" fill="#ED1C24" font-family="'Helvetica'" font-size="7px">1.8</tspan></text>
	<text transform="matrix(1 0 0 1 206.8204 188.6828)" fill="#ED1C24" font-family="'Helvetica'" font-size="7px">–1.7</text>
	<text transform="matrix(1 0 0 1 184.856 165.2056)" fill="#ED1C24" font-family="'Helvetica'" font-size="9px">69.8 </text>
	<text transform="matrix(1 0 0 1 205.6125 165.3975)" fill="#ED1C24" font-family="'Symbol'" font-size="9px">±</text>
	<text transform="matrix(1 0 0 1 210.9104 165.2056)" fill="#ED1C24" font-family="'Helvetica'" font-size="9px"> 1.9</text>
	<text transform="matrix(1 0 0 1 184.856 144.0366)" fill="#ED1C24" font-family="'Helvetica'" font-size="9px">73.9 </text>
	<text transform="matrix(1 0 0 1 205.6125 144.229)" fill="#ED1C24" font-family="'Symbol'" font-size="9px">±</text>
	<text transform="matrix(1 0 0 1 210.9104 144.0366)" fill="#ED1C24" font-family="'Helvetica'" font-size="9px"> 3.0</text>
	<text transform="matrix(1 0 0 1 184.856 122.8677)" fill="#ED1C24" font-family="'Helvetica'" font-size="9px">67.35 </text>
	<text transform="matrix(1 0 0 1 210.9802 123.0601)" fill="#ED1C24" font-family="'Symbol'" font-size="9px">±</text>
	<text transform="matrix(1 0 0 1 216.2785 122.8677)" fill="#ED1C24" font-family="'Helvetica'" font-size="9px"> 0.97</text>
	<text transform="matrix(1 0 0 1 12.0649 59.8876)" font-family="'Helvetica'" font-size="9px">Cepheids+SNIa 2021</text>
	<text transform="matrix(1 0 0 1 184.856 59.8878)" fill="#ED1C24" font-family="'Helvetica'" font-size="9px">73.04  </text>
	<text transform="matrix(1 0 0 1 210.4106 60.0797)" fill="#ED1C24" font-family="'Symbol'" font-size="9px">±</text>
	<text transform="matrix(1 0 0 1 217.4104 59.8878)" fill="#ED1C24" font-family="'Helvetica'" font-size="9px">1.04</text>
	<text transform="matrix(1 0 0 1 184.856 101.6185)" fill="#ED1C24" font-family="'Helvetica'" font-size="9px">73.3 </text>
	<text transform="matrix(1 0 0 1 205.6125 101.8104)" fill="#ED1C24" font-family="'Symbol'" font-size="9px">±</text>
	<text transform="matrix(1 0 0 1 210.9104 101.6185)" fill="#ED1C24" font-family="'Helvetica'" font-size="9px"> 2.5</text>
	<text transform="matrix(0.9316 0 0 1 12.0713 37.877)" font-family="'Helvetica'" font-size="9px">GravLens_Time_Delay 2025</text>
	<text transform="matrix(1 0 0 1 184.8535 37.877)" fill="#ED1C24" font-family="'Helvetica'" font-size="9px">72.4</text>
	<text transform="matrix(1 0 0 1 203.6401 33.3534)"><tspan x="0" y="0" fill="#EC2027" font-family="'Helvetica-Light'" font-size="8px"> +</tspan><tspan x="7.504" y="0" fill="#EC2027" font-family="'Helvetica'" font-size="7px">3.9</tspan></text>
	<text transform="matrix(1 0 0 1 184.8535 37.877)" fill="#ED1C24" font-family="'Helvetica'" font-size="9px">72.4</text>
	<text transform="matrix(1 0 0 1 205.5401 39.8302)" fill="#EC2027" font-family="'Helvetica'" font-size="7px">– 3.6</text>
</g>
<g id="Layer_7" display="none">
</g>
<g id="Layer_6">
	<text transform="matrix(1 0 0 1 7.0764 362.4812)" font-family="'Helvetica'" font-size="9px">55</text>
	<text transform="matrix(1 0 0 1 46.3577 362.4812)" font-family="'Helvetica'" font-size="9px">60</text>
	<text transform="matrix(1 0 0 1 85.6194 362.4812)" font-family="'Helvetica'" font-size="9px">65</text>
	<text transform="matrix(1 0 0 1 124.9007 362.4812)" font-family="'Helvetica'" font-size="9px">70</text>
	<text transform="matrix(1 0 0 1 164.156 362.4812)" font-family="'Helvetica'" font-size="9px">75</text>
	<text transform="matrix(1 0 0 1 203.4373 362.4812)" font-family="'Helvetica'" font-size="9px">80</text>
	<text transform="matrix(1 0 0 1 242.6951 362.4812)" font-family="'Helvetica'" font-size="9px">85</text>
	<text transform="matrix(1 0 0 1 43.7779 377.153)" font-family="'Helvetica'" font-size="11px">Hubble Constant, H</text>
	<text transform="matrix(0.583 0 0 0.583 139.7755 380.8161)" font-family="'Helvetica'" font-size="11px">0</text>
	<text transform="matrix(1 0 0 1 143.3419 377.153)" font-family="'Helvetica'" font-size="11px">, km/s/Mpc</text>
	
		<line fill="none" stroke="#000000" stroke-width="0.75" stroke-miterlimit="2.5" x1="12.073" y1="350.397" x2="12.073" y2="345.564"/>
	
		<line fill="none" stroke="#000000" stroke-width="0.75" stroke-miterlimit="2.5" x1="51.352" y1="350.397" x2="51.352" y2="345.564"/>
	
		<line fill="none" stroke="#000000" stroke-width="0.75" stroke-miterlimit="2.5" x1="90.613" y1="350.397" x2="90.613" y2="345.564"/>
	
		<line fill="none" stroke="#000000" stroke-width="0.75" stroke-miterlimit="2.5" x1="129.891" y1="350.397" x2="129.891" y2="345.564"/>
	
		<line fill="none" stroke="#000000" stroke-width="0.75" stroke-miterlimit="2.5" x1="169.152" y1="350.397" x2="169.152" y2="345.564"/>
	
		<line fill="none" stroke="#000000" stroke-width="0.75" stroke-miterlimit="2.5" x1="208.431" y1="350.397" x2="208.431" y2="345.564"/>
	
		<line fill="none" stroke="#000000" stroke-width="0.75" stroke-miterlimit="2.5" x1="19.929" y1="350.397" x2="19.929" y2="347.971"/>
	
		<line fill="none" stroke="#000000" stroke-width="0.75" stroke-miterlimit="2.5" x1="27.785" y1="350.397" x2="27.785" y2="347.971"/>
	
		<line fill="none" stroke="#000000" stroke-width="0.75" stroke-miterlimit="2.5" x1="35.641" y1="350.397" x2="35.641" y2="347.971"/>
	
		<line fill="none" stroke="#000000" stroke-width="0.75" stroke-miterlimit="2.5" x1="43.496" y1="350.397" x2="43.496" y2="347.971"/>
	
		<line fill="none" stroke="#000000" stroke-width="0.75" stroke-miterlimit="2.5" x1="59.19" y1="350.397" x2="59.19" y2="347.971"/>
	
		<line fill="none" stroke="#000000" stroke-width="0.75" stroke-miterlimit="2.5" x1="67.045" y1="350.397" x2="67.045" y2="347.971"/>
	
		<line fill="none" stroke="#000000" stroke-width="0.75" stroke-miterlimit="2.5" x1="74.901" y1="350.397" x2="74.901" y2="347.971"/>
	
		<line fill="none" stroke="#000000" stroke-width="0.75" stroke-miterlimit="2.5" x1="82.757" y1="350.397" x2="82.757" y2="347.971"/>
	
		<line fill="none" stroke="#000000" stroke-width="0.75" stroke-miterlimit="2.5" x1="98.468" y1="350.397" x2="98.468" y2="347.971"/>
	
		<line fill="none" stroke="#000000" stroke-width="0.75" stroke-miterlimit="2.5" x1="106.324" y1="350.397" x2="106.324" y2="347.971"/>
	
		<line fill="none" stroke="#000000" stroke-width="0.75" stroke-miterlimit="2.5" x1="114.18" y1="350.397" x2="114.18" y2="347.971"/>
	
		<line fill="none" stroke="#000000" stroke-width="0.75" stroke-miterlimit="2.5" x1="122.036" y1="350.397" x2="122.036" y2="347.971"/>
	
		<line fill="none" stroke="#000000" stroke-width="0.75" stroke-miterlimit="2.5" x1="137.729" y1="350.397" x2="137.729" y2="347.971"/>
	
		<line fill="none" stroke="#000000" stroke-width="0.75" stroke-miterlimit="2.5" x1="145.585" y1="350.397" x2="145.585" y2="347.971"/>
	
		<line fill="none" stroke="#000000" stroke-width="0.75" stroke-miterlimit="2.5" x1="153.441" y1="350.397" x2="153.441" y2="347.971"/>
	
		<line fill="none" stroke="#000000" stroke-width="0.75" stroke-miterlimit="2.5" x1="161.296" y1="350.397" x2="161.296" y2="347.971"/>
	
		<line fill="none" stroke="#000000" stroke-width="0.75" stroke-miterlimit="2.5" x1="177.008" y1="350.397" x2="177.008" y2="347.971"/>
	
		<line fill="none" stroke="#000000" stroke-width="0.75" stroke-miterlimit="2.5" x1="184.864" y1="350.397" x2="184.864" y2="347.971"/>
	
		<line fill="none" stroke="#000000" stroke-width="0.75" stroke-miterlimit="2.5" x1="192.719" y1="350.397" x2="192.719" y2="347.971"/>
	
		<line fill="none" stroke="#000000" stroke-width="0.75" stroke-miterlimit="2.5" x1="200.575" y1="350.397" x2="200.575" y2="347.971"/>
	
		<line fill="none" stroke="#000000" stroke-width="0.75" stroke-miterlimit="2.5" x1="216.268" y1="350.397" x2="216.268" y2="347.971"/>
	
		<line fill="none" stroke="#000000" stroke-width="0.75" stroke-miterlimit="2.5" x1="224.124" y1="350.397" x2="224.124" y2="347.971"/>
	
		<line fill="none" stroke="#000000" stroke-width="0.75" stroke-miterlimit="2.5" x1="231.98" y1="350.397" x2="231.98" y2="347.971"/>
	
		<line fill="none" stroke="#000000" stroke-width="0.75" stroke-miterlimit="2.5" x1="239.836" y1="350.397" x2="239.836" y2="347.971"/>
	<line fill="none" stroke="#000000" stroke-width="0.75" stroke-miterlimit="2.5" x1="12.073" y1="5.856" x2="12.073" y2="10.689"/>
	<line fill="none" stroke="#000000" stroke-width="0.75" stroke-miterlimit="2.5" x1="51.352" y1="5.856" x2="51.352" y2="10.689"/>
	<line fill="none" stroke="#000000" stroke-width="0.75" stroke-miterlimit="2.5" x1="90.613" y1="5.856" x2="90.613" y2="10.689"/>
	
		<line fill="none" stroke="#000000" stroke-width="0.75" stroke-miterlimit="2.5" x1="129.891" y1="5.856" x2="129.891" y2="10.689"/>
	
		<line fill="none" stroke="#000000" stroke-width="0.75" stroke-miterlimit="2.5" x1="169.152" y1="5.856" x2="169.152" y2="10.689"/>
	
		<line fill="none" stroke="#000000" stroke-width="0.75" stroke-miterlimit="2.5" x1="208.431" y1="5.856" x2="208.431" y2="10.689"/>
	<line fill="none" stroke="#000000" stroke-width="0.75" stroke-miterlimit="2.5" x1="19.929" y1="5.856" x2="19.929" y2="8.263"/>
	<line fill="none" stroke="#000000" stroke-width="0.75" stroke-miterlimit="2.5" x1="27.785" y1="5.856" x2="27.785" y2="8.263"/>
	<line fill="none" stroke="#000000" stroke-width="0.75" stroke-miterlimit="2.5" x1="35.641" y1="5.856" x2="35.641" y2="8.263"/>
	<line fill="none" stroke="#000000" stroke-width="0.75" stroke-miterlimit="2.5" x1="43.496" y1="5.856" x2="43.496" y2="8.263"/>
	<line fill="none" stroke="#000000" stroke-width="0.75" stroke-miterlimit="2.5" x1="59.19" y1="5.856" x2="59.19" y2="8.263"/>
	<line fill="none" stroke="#000000" stroke-width="0.75" stroke-miterlimit="2.5" x1="67.045" y1="5.856" x2="67.045" y2="8.263"/>
	<line fill="none" stroke="#000000" stroke-width="0.75" stroke-miterlimit="2.5" x1="74.901" y1="5.856" x2="74.901" y2="8.263"/>
	<line fill="none" stroke="#000000" stroke-width="0.75" stroke-miterlimit="2.5" x1="82.757" y1="5.856" x2="82.757" y2="8.263"/>
	<line fill="none" stroke="#000000" stroke-width="0.75" stroke-miterlimit="2.5" x1="98.468" y1="5.856" x2="98.468" y2="8.263"/>
	
		<line fill="none" stroke="#000000" stroke-width="0.75" stroke-miterlimit="2.5" x1="106.324" y1="5.856" x2="106.324" y2="8.263"/>
	<line fill="none" stroke="#000000" stroke-width="0.75" stroke-miterlimit="2.5" x1="114.18" y1="5.856" x2="114.18" y2="8.263"/>
	
		<line fill="none" stroke="#000000" stroke-width="0.75" stroke-miterlimit="2.5" x1="122.036" y1="5.856" x2="122.036" y2="8.263"/>
	
		<line fill="none" stroke="#000000" stroke-width="0.75" stroke-miterlimit="2.5" x1="137.729" y1="5.856" x2="137.729" y2="8.263"/>
	
		<line fill="none" stroke="#000000" stroke-width="0.75" stroke-miterlimit="2.5" x1="145.585" y1="5.856" x2="145.585" y2="8.263"/>
	
		<line fill="none" stroke="#000000" stroke-width="0.75" stroke-miterlimit="2.5" x1="153.441" y1="5.856" x2="153.441" y2="8.263"/>
	
		<line fill="none" stroke="#000000" stroke-width="0.75" stroke-miterlimit="2.5" x1="161.296" y1="5.856" x2="161.296" y2="8.263"/>
	
		<line fill="none" stroke="#000000" stroke-width="0.75" stroke-miterlimit="2.5" x1="177.008" y1="5.856" x2="177.008" y2="8.263"/>
	
		<line fill="none" stroke="#000000" stroke-width="0.75" stroke-miterlimit="2.5" x1="184.864" y1="5.856" x2="184.864" y2="8.263"/>
	
		<line fill="none" stroke="#000000" stroke-width="0.75" stroke-miterlimit="2.5" x1="192.719" y1="5.856" x2="192.719" y2="8.263"/>
	
		<line fill="none" stroke="#000000" stroke-width="0.75" stroke-miterlimit="2.5" x1="200.575" y1="5.856" x2="200.575" y2="8.263"/>
	
		<line fill="none" stroke="#000000" stroke-width="0.75" stroke-miterlimit="2.5" x1="216.268" y1="5.856" x2="216.268" y2="8.263"/>
	
		<line fill="none" stroke="#000000" stroke-width="0.75" stroke-miterlimit="2.5" x1="224.124" y1="5.856" x2="224.124" y2="8.263"/>
	<line fill="none" stroke="#000000" stroke-width="0.75" stroke-miterlimit="2.5" x1="231.98" y1="5.856" x2="231.98" y2="8.263"/>
	
		<line fill="none" stroke="#000000" stroke-width="0.75" stroke-miterlimit="2.5" x1="239.836" y1="5.856" x2="239.836" y2="8.263"/>
	
		<rect x="4.218" y="5.856" fill="none" stroke="#000000" stroke-width="0.75" stroke-miterlimit="10" width="243.457" height="344.529"/>
	<text transform="matrix(1 0 0 1 198.9283 392.9545)" fill="#8E9295" font-family="'MyriadPro-Cond'" font-size="8px">LAMBDA - July 2025</text>
</g>
</svg>
