<?xml version="1.0" encoding="utf-8"?>
<!-- Generator: Adobe Illustrator 29.6.0, SVG Export Plug-In . SVG Version: 9.03 Build 0)  -->
<svg version="1.1" baseProfile="basic" xmlns="http://www.w3.org/2000/svg" xmlns:xlink="http://www.w3.org/1999/xlink" x="0px"
	 y="0px" viewBox="0 0 253.5 310.574" xml:space="preserve">
<g id="Layer_5">
	
		<line fill="none" stroke="#C7C8CA" stroke-width="0.75" stroke-miterlimit="2.5" x1="113.198" y1="264.57" x2="113.198" y2="5.509"/>
	<g>
		
			<line fill="none" stroke="#00A651" stroke-width="4" stroke-miterlimit="2.5" x1="141.612" y1="237.876" x2="196.583" y2="237.876"/>
		
			<line fill="none" stroke="#00A7E1" stroke-width="4" stroke-miterlimit="2.5" x1="112.57" y1="211.211" x2="147.112" y2="211.211"/>
		
			<line fill="none" stroke="#72BF44" stroke-width="4" stroke-miterlimit="2.5" x1="122.775" y1="184.494" x2="155.744" y2="184.494"/>
		
			<line fill="none" stroke="#ED1C24" stroke-width="4" stroke-miterlimit="2.5" x1="104.879" y1="157.765" x2="113.348" y2="157.765"/>
		
			<line fill="none" stroke="#B455A0" stroke-width="4" stroke-miterlimit="2.5" x1="101.568" y1="130.764" x2="125.127" y2="130.764"/>
		
			<line fill="none" stroke="#0091D0" stroke-width="4" stroke-miterlimit="2.5" x1="108.643" y1="106.195" x2="132.202" y2="106.195"/>
		<line fill="none" stroke="#F7941D" stroke-width="4" stroke-miterlimit="2.5" x1="109.421" y1="75.523" x2="129.85" y2="75.523"/>
		<rect x="168.464" y="232.993" fill="#00A450" width="1.285" height="9.767"/>
		<rect x="129.199" y="206.328" fill="#00A7E1" width="1.285" height="9.885"/>
		<rect x="138.626" y="179.493" fill="#72BF44" width="1.285" height="10.002"/>
		<rect x="108.48" y="152.764" fill="#ED1C24" width="1.285" height="10.002"/>
		<rect x="112.714" y="125.763" fill="#B455A0" width="1.285" height="10.002"/>
		<rect x="119.771" y="101.234" fill="#0091D0" width="1.285" height="10.002"/>
		<rect x="118.993" y="70.55" fill="#F7941D" width="1.285" height="10.002"/>
	</g>
	<line fill="none" stroke="#92278F" stroke-width="4" stroke-miterlimit="2.5" x1="107.258" y1="51.717" x2="115.114" y2="51.717"/>
	<line fill="none" stroke="#007DC5" stroke-width="4" stroke-miterlimit="2.5" x1="98.933" y1="24.446" x2="108.362" y2="24.446"/>
	<rect x="110.534" y="47.212" fill="#92278F" width="1.285" height="9.028"/>
	<rect x="103.005" y="19.923" fill="#007DC5" width="1.285" height="9.046"/>
</g>
<g id="Layer_6">
	<text transform="matrix(1 0 0 1 184.4717 250.8535)" fill="#E11B22" font-family="'Helvetica'" font-size="9px">75.0 </text>
	<text transform="matrix(1 0 0 1 205.5515 250.8535)" fill="#E11B22" font-family="'Helvetica'" font-size="9px">±</text>
	<text transform="matrix(1 0 0 1 210.8474 250.8535)" fill="#E11B22" font-family="'Helvetica'" font-size="9px"> 3.5</text>
	<text transform="matrix(1 0 0 1 184.4717 223.9512)" fill="#E11B22" font-family="'Helvetica'" font-size="9px">70.0 </text>
	<text transform="matrix(1 0 0 1 205.5515 223.9512)" fill="#E11B22" font-family="'Helvetica'" font-size="9px">±</text>
	<text transform="matrix(1 0 0 1 210.8474 223.9512)" fill="#E11B22" font-family="'Helvetica'" font-size="9px"> 2.2</text>
	<text transform="matrix(1 0 0 1 184.4717 197.0476)" fill="#E11B22" font-family="'Helvetica'" font-size="9px">71.2 </text>
	<text transform="matrix(1 0 0 1 205.5515 197.0476)" fill="#E11B22" font-family="'Helvetica'" font-size="9px">±</text>
	<text transform="matrix(1 0 0 1 210.8474 197.0476)" fill="#E11B22" font-family="'Helvetica'" font-size="9px"> 2.1</text>
	<text transform="matrix(1 0 0 1 184.4717 170.016)" fill="#E11B22" font-family="'Helvetica'" font-size="9px">67.36 </text>
	<text transform="matrix(1 0 0 1 210.1977 170.016)" fill="#E11B22" font-family="'Helvetica'" font-size="9px">±</text>
	<text transform="matrix(1 0 0 1 215.4936 170.016)" fill="#E11B22" font-family="'Helvetica'" font-size="9px"> 0.54</text>
	<text transform="matrix(1 0 0 1 184.8687 142.8457)" fill="#E11B22" font-family="'Helvetica'" font-size="9px">67.9 </text>
	<text transform="matrix(1 0 0 1 205.9485 142.8458)" fill="#E11B22" font-family="'Helvetica'" font-size="9px">±</text>
	<text transform="matrix(1 0 0 1 211.2444 142.8457)" fill="#E11B22" font-family="'Helvetica'" font-size="9px"> 1.5</text>
	<text transform="matrix(1 0 0 1 184.4717 115.6618)" fill="#E11B22" font-family="'Helvetica'" font-size="9px">68.8 </text>
	<text transform="matrix(1 0 0 1 205.5515 115.6614)" fill="#E11B22" font-family="'Helvetica'" font-size="9px">±</text>
	<text transform="matrix(1 0 0 1 210.8474 115.6618)" fill="#E11B22" font-family="'Helvetica'" font-size="9px"> 1.5</text>
	<text transform="matrix(1 0 0 1 184.4719 88.8343)" fill="#E11B22" font-family="'Helvetica'" font-size="9px">68.7 </text>
	<text transform="matrix(1 0 0 1 12.0713 250.8535)" font-family="'Helvetica'" font-size="9px">SPT 2013</text>
	<text transform="matrix(1 0 0 1 12.0713 223.8499)" font-family="'Helvetica'" font-size="9px">WMAP9 2013</text>
	<text transform="matrix(1 0 0 1 12.0713 196.846)" font-family="'Helvetica'" font-size="9px">SPTPol 2017</text>
	<text transform="matrix(1 0 0 1 12.0713 169.8444)" font-family="'Helvetica'" font-size="9px">Planck_PR3 2018</text>
	<text transform="matrix(1 0 0 1 12.0713 142.8406)" font-family="'Helvetica'" font-size="9px">ACTPol_DR4 2020</text>
	<text transform="matrix(1 0 0 1 12.0713 115.8377)" font-family="'Helvetica'" font-size="9px">SPT-3G_TE+EE 2021</text>
	<text transform="matrix(1 0 0 1 12.0713 88.8342)" font-family="'Helvetica'" font-size="9px">Planck+ACTPol+SPTpol_EE 2021</text>
	<text transform="matrix(1 0 0 1 205.5488 88.834)" fill="#E11B22" font-family="'Helvetica'" font-size="9px">±</text>
	<text transform="matrix(1 0 0 1 210.8447 88.834)" fill="#E11B22" font-family="'Helvetica'" font-size="9px"> 1.3</text>
	<text transform="matrix(1.0004 0 0 1 12.0723 61.831)" font-family="'Helvetica'" font-size="9px">Planck+ACT_DR6 2025</text>
	<text transform="matrix(1.0004 0 0 1 12.0723 34.8279)" font-family="'Helvetica'" font-size="9px">SPT-3G_D1 2025</text>
	<text transform="matrix(1.0004 0 0 1 184.4717 61.8308)" fill="#E11B22" font-family="'Helvetica'" font-size="9px">67.62 </text>
	<text transform="matrix(1.0004 0 0 1 210.0919 61.8308)" fill="#E11B22" font-family="'Helvetica'" font-size="9px">±</text>
	<text transform="matrix(1.0004 0 0 1 215.3897 61.8308)" fill="#E11B22" font-family="'Helvetica'" font-size="9px"> 0.50</text>
	<text transform="matrix(1.0004 0 0 1 184.4717 34.8277)" fill="#E11B22" font-family="'Helvetica'" font-size="9px">66.66 </text>
	<text transform="matrix(1.0004 0 0 1 210.0919 34.8277)" fill="#E11B22" font-family="'Helvetica'" font-size="9px">±</text>
	<text transform="matrix(1.0004 0 0 1 215.3897 34.8277)" fill="#E11B22" font-family="'Helvetica'" font-size="9px"> 0.60</text>
</g>
<g id="Layer_3">
	<text transform="matrix(1 0 0 1 7.0764 276.1619)" font-family="'Helvetica'" font-size="9px">55</text>
	<text transform="matrix(1 0 0 1 46.3577 276.1619)" font-family="'Helvetica'" font-size="9px">60</text>
	<text transform="matrix(1 0 0 1 85.6194 276.1619)" font-family="'Helvetica'" font-size="9px">65</text>
	<text transform="matrix(1 0 0 1 124.9007 276.1619)" font-family="'Helvetica'" font-size="9px">70</text>
	<text transform="matrix(1 0 0 1 164.157 276.1619)" font-family="'Helvetica'" font-size="9px">75</text>
	<text transform="matrix(1 0 0 1 203.4383 276.1619)" font-family="'Helvetica'" font-size="9px">80</text>
	<text transform="matrix(1 0 0 1 242.0961 276.1619)" font-family="'Helvetica'" font-size="9px">85</text>
	<text transform="matrix(1 0 0 1 52.2012 290.848)" font-family="'Helvetica'" font-size="11px">Hubble Constant, H</text>
	<text transform="matrix(0.583 0 0 0.583 148.1988 294.5111)" font-family="'Helvetica'" font-size="11px">0</text>
	<text transform="matrix(1 0 0 1 151.7652 290.848)" font-family="'Helvetica'" font-size="11px">, km/s/Mpc</text>
	
		<line fill="none" stroke="#000000" stroke-width="0.75" stroke-miterlimit="2.5" x1="12.073" y1="265.158" x2="12.073" y2="260.325"/>
	
		<line fill="none" stroke="#000000" stroke-width="0.75" stroke-miterlimit="2.5" x1="51.352" y1="265.158" x2="51.352" y2="260.325"/>
	
		<line fill="none" stroke="#000000" stroke-width="0.75" stroke-miterlimit="2.5" x1="90.613" y1="265.158" x2="90.613" y2="260.325"/>
	
		<line fill="none" stroke="#000000" stroke-width="0.75" stroke-miterlimit="2.5" x1="129.891" y1="265.158" x2="129.891" y2="260.325"/>
	
		<line fill="none" stroke="#000000" stroke-width="0.75" stroke-miterlimit="2.5" x1="169.152" y1="265.158" x2="169.152" y2="260.325"/>
	
		<line fill="none" stroke="#000000" stroke-width="0.75" stroke-miterlimit="2.5" x1="208.431" y1="265.158" x2="208.431" y2="260.325"/>
	
		<line fill="none" stroke="#000000" stroke-width="0.75" stroke-miterlimit="2.5" x1="19.929" y1="265.158" x2="19.929" y2="262.732"/>
	
		<line fill="none" stroke="#000000" stroke-width="0.75" stroke-miterlimit="2.5" x1="27.785" y1="265.158" x2="27.785" y2="262.732"/>
	
		<line fill="none" stroke="#000000" stroke-width="0.75" stroke-miterlimit="2.5" x1="35.641" y1="265.158" x2="35.641" y2="262.732"/>
	
		<line fill="none" stroke="#000000" stroke-width="0.75" stroke-miterlimit="2.5" x1="43.496" y1="265.158" x2="43.496" y2="262.732"/>
	
		<line fill="none" stroke="#000000" stroke-width="0.75" stroke-miterlimit="2.5" x1="59.19" y1="265.158" x2="59.19" y2="262.732"/>
	
		<line fill="none" stroke="#000000" stroke-width="0.75" stroke-miterlimit="2.5" x1="67.045" y1="265.158" x2="67.045" y2="262.732"/>
	
		<line fill="none" stroke="#000000" stroke-width="0.75" stroke-miterlimit="2.5" x1="74.901" y1="265.158" x2="74.901" y2="262.732"/>
	
		<line fill="none" stroke="#000000" stroke-width="0.75" stroke-miterlimit="2.5" x1="82.757" y1="265.158" x2="82.757" y2="262.732"/>
	
		<line fill="none" stroke="#000000" stroke-width="0.75" stroke-miterlimit="2.5" x1="98.468" y1="265.158" x2="98.468" y2="262.732"/>
	
		<line fill="none" stroke="#000000" stroke-width="0.75" stroke-miterlimit="2.5" x1="106.324" y1="265.158" x2="106.324" y2="262.732"/>
	
		<line fill="none" stroke="#000000" stroke-width="0.75" stroke-miterlimit="2.5" x1="114.18" y1="265.158" x2="114.18" y2="262.732"/>
	
		<line fill="none" stroke="#000000" stroke-width="0.75" stroke-miterlimit="2.5" x1="122.036" y1="265.158" x2="122.036" y2="262.732"/>
	
		<line fill="none" stroke="#000000" stroke-width="0.75" stroke-miterlimit="2.5" x1="137.729" y1="265.158" x2="137.729" y2="262.732"/>
	
		<line fill="none" stroke="#000000" stroke-width="0.75" stroke-miterlimit="2.5" x1="145.585" y1="265.158" x2="145.585" y2="262.732"/>
	
		<line fill="none" stroke="#000000" stroke-width="0.75" stroke-miterlimit="2.5" x1="153.441" y1="265.158" x2="153.441" y2="262.732"/>
	
		<line fill="none" stroke="#000000" stroke-width="0.75" stroke-miterlimit="2.5" x1="161.296" y1="265.158" x2="161.296" y2="262.732"/>
	
		<line fill="none" stroke="#000000" stroke-width="0.75" stroke-miterlimit="2.5" x1="177.008" y1="265.158" x2="177.008" y2="262.732"/>
	
		<line fill="none" stroke="#000000" stroke-width="0.75" stroke-miterlimit="2.5" x1="184.864" y1="265.158" x2="184.864" y2="262.732"/>
	
		<line fill="none" stroke="#000000" stroke-width="0.75" stroke-miterlimit="2.5" x1="192.719" y1="265.158" x2="192.719" y2="262.732"/>
	
		<line fill="none" stroke="#000000" stroke-width="0.75" stroke-miterlimit="2.5" x1="200.575" y1="265.158" x2="200.575" y2="262.732"/>
	
		<line fill="none" stroke="#000000" stroke-width="0.75" stroke-miterlimit="2.5" x1="216.268" y1="265.158" x2="216.268" y2="262.732"/>
	
		<line fill="none" stroke="#000000" stroke-width="0.75" stroke-miterlimit="2.5" x1="224.124" y1="265.158" x2="224.124" y2="262.732"/>
	
		<line fill="none" stroke="#000000" stroke-width="0.75" stroke-miterlimit="2.5" x1="231.98" y1="265.158" x2="231.98" y2="262.732"/>
	
		<line fill="none" stroke="#000000" stroke-width="0.75" stroke-miterlimit="2.5" x1="239.836" y1="265.158" x2="239.836" y2="262.732"/>
	<line fill="none" stroke="#000000" stroke-width="0.75" stroke-miterlimit="2.5" x1="12.073" y1="5.509" x2="12.073" y2="10.342"/>
	<line fill="none" stroke="#000000" stroke-width="0.75" stroke-miterlimit="2.5" x1="51.352" y1="5.509" x2="51.352" y2="10.342"/>
	<line fill="none" stroke="#000000" stroke-width="0.75" stroke-miterlimit="2.5" x1="90.613" y1="5.509" x2="90.613" y2="10.342"/>
	
		<line fill="none" stroke="#000000" stroke-width="0.75" stroke-miterlimit="2.5" x1="129.891" y1="5.509" x2="129.891" y2="10.342"/>
	
		<line fill="none" stroke="#000000" stroke-width="0.75" stroke-miterlimit="2.5" x1="169.152" y1="5.509" x2="169.152" y2="10.342"/>
	
		<line fill="none" stroke="#000000" stroke-width="0.75" stroke-miterlimit="2.5" x1="208.431" y1="5.509" x2="208.431" y2="10.342"/>
	<line fill="none" stroke="#000000" stroke-width="0.75" stroke-miterlimit="2.5" x1="19.929" y1="5.509" x2="19.929" y2="7.917"/>
	<line fill="none" stroke="#000000" stroke-width="0.75" stroke-miterlimit="2.5" x1="27.785" y1="5.509" x2="27.785" y2="7.917"/>
	<line fill="none" stroke="#000000" stroke-width="0.75" stroke-miterlimit="2.5" x1="35.641" y1="5.509" x2="35.641" y2="7.917"/>
	<line fill="none" stroke="#000000" stroke-width="0.75" stroke-miterlimit="2.5" x1="43.496" y1="5.509" x2="43.496" y2="7.917"/>
	<line fill="none" stroke="#000000" stroke-width="0.75" stroke-miterlimit="2.5" x1="59.19" y1="5.509" x2="59.19" y2="7.917"/>
	<line fill="none" stroke="#000000" stroke-width="0.75" stroke-miterlimit="2.5" x1="67.045" y1="5.509" x2="67.045" y2="7.917"/>
	<line fill="none" stroke="#000000" stroke-width="0.75" stroke-miterlimit="2.5" x1="74.901" y1="5.509" x2="74.901" y2="7.917"/>
	<line fill="none" stroke="#000000" stroke-width="0.75" stroke-miterlimit="2.5" x1="82.757" y1="5.509" x2="82.757" y2="7.917"/>
	<line fill="none" stroke="#000000" stroke-width="0.75" stroke-miterlimit="2.5" x1="98.468" y1="5.509" x2="98.468" y2="7.917"/>
	
		<line fill="none" stroke="#000000" stroke-width="0.75" stroke-miterlimit="2.5" x1="106.324" y1="5.509" x2="106.324" y2="7.917"/>
	<line fill="none" stroke="#000000" stroke-width="0.75" stroke-miterlimit="2.5" x1="114.18" y1="5.509" x2="114.18" y2="7.917"/>
	
		<line fill="none" stroke="#000000" stroke-width="0.75" stroke-miterlimit="2.5" x1="122.036" y1="5.509" x2="122.036" y2="7.917"/>
	
		<line fill="none" stroke="#000000" stroke-width="0.75" stroke-miterlimit="2.5" x1="137.729" y1="5.509" x2="137.729" y2="7.917"/>
	
		<line fill="none" stroke="#000000" stroke-width="0.75" stroke-miterlimit="2.5" x1="145.585" y1="5.509" x2="145.585" y2="7.917"/>
	
		<line fill="none" stroke="#000000" stroke-width="0.75" stroke-miterlimit="2.5" x1="153.441" y1="5.509" x2="153.441" y2="7.917"/>
	
		<line fill="none" stroke="#000000" stroke-width="0.75" stroke-miterlimit="2.5" x1="161.296" y1="5.509" x2="161.296" y2="7.917"/>
	
		<line fill="none" stroke="#000000" stroke-width="0.75" stroke-miterlimit="2.5" x1="177.008" y1="5.509" x2="177.008" y2="7.917"/>
	
		<line fill="none" stroke="#000000" stroke-width="0.75" stroke-miterlimit="2.5" x1="184.864" y1="5.509" x2="184.864" y2="7.917"/>
	
		<line fill="none" stroke="#000000" stroke-width="0.75" stroke-miterlimit="2.5" x1="192.719" y1="5.509" x2="192.719" y2="7.917"/>
	
		<line fill="none" stroke="#000000" stroke-width="0.75" stroke-miterlimit="2.5" x1="200.575" y1="5.509" x2="200.575" y2="7.917"/>
	
		<line fill="none" stroke="#000000" stroke-width="0.75" stroke-miterlimit="2.5" x1="216.268" y1="5.509" x2="216.268" y2="7.917"/>
	
		<line fill="none" stroke="#000000" stroke-width="0.75" stroke-miterlimit="2.5" x1="224.124" y1="5.509" x2="224.124" y2="7.917"/>
	<line fill="none" stroke="#000000" stroke-width="0.75" stroke-miterlimit="2.5" x1="231.98" y1="5.509" x2="231.98" y2="7.917"/>
	
		<line fill="none" stroke="#000000" stroke-width="0.75" stroke-miterlimit="2.5" x1="239.836" y1="5.509" x2="239.836" y2="7.917"/>
	
		<rect x="4.218" y="5.509" fill="none" stroke="#000000" stroke-width="0.75" stroke-miterlimit="10" width="243.457" height="259.636"/>
	<text transform="matrix(1 0 0 1 198.3894 306.0842)" fill="#8E9295" font-family="'MyriadPro-Cond'" font-size="8px">LAMBDA - July 2025</text>
</g>
</svg>
