<?xml version="1.0" encoding="utf-8" standalone="no"?>
<!DOCTYPE svg PUBLIC "-//W3C//DTD SVG 1.1//EN"
  "http://www.w3.org/Graphics/SVG/1.1/DTD/svg11.dtd">
<svg xmlns:xlink="http://www.w3.org/1999/xlink" width="648pt" height="360pt" viewBox="0 0 648 360" xmlns="http://www.w3.org/2000/svg" version="1.1">
 <metadata>
  <rdf:RDF xmlns:dc="http://purl.org/dc/elements/1.1/" xmlns:cc="http://creativecommons.org/ns#" xmlns:rdf="http://www.w3.org/1999/02/22-rdf-syntax-ns#">
   <cc:Work>
    <dc:type rdf:resource="http://purl.org/dc/dcmitype/StillImage"/>
    <dc:date>2026-06-09T14:29:43.976439</dc:date>
    <dc:format>image/svg+xml</dc:format>
    <dc:creator>
     <cc:Agent>
      <dc:title>Matplotlib v3.10.9, https://matplotlib.org/</dc:title>
     </cc:Agent>
    </dc:creator>
   </cc:Work>
  </rdf:RDF>
 </metadata>
 <defs>
  <style type="text/css">*{stroke-linejoin: round; stroke-linecap: butt}</style>
 </defs>
 <g id="figure_1">
  <g id="patch_1">
   <path d="M 0 360
L 648 360
L 648 0
L 0 0
z
" style="fill: #ffffff"/>
  </g>
  <g id="axes_1">
   <g id="patch_2">
    <path d="M 39.58149 326.64351
L 641.81851 326.64351
L 641.81851 18.118365
L 39.58149 18.118365
z
" style="fill: #ffffff"/>
   </g>
   <g id="matplotlib.axis_1">
    <g id="xtick_1">
     <g id="line2d_1">
      <defs>
       <path id="m3ab12efdd0" d="M 0 0
L 0 3.5
" style="stroke: #000000; stroke-width: 0.8"/>
      </defs>
      <g>
       <use xlink:href="#m3ab12efdd0" x="641.81851" y="326.64351" style="stroke: #000000; stroke-width: 0.8"/>
      </g>
     </g>
     <g id="text_1">
      <!-- 0 -->
      <g transform="translate(638.63726 341.241947) scale(0.1 -0.1)">
       <defs>
        <path id="DejaVuSans-30" d="M 2034 4250
Q 1547 4250 1301 3770
Q 1056 3291 1056 2328
Q 1056 1369 1301 889
Q 1547 409 2034 409
Q 2525 409 2770 889
Q 3016 1369 3016 2328
Q 3016 3291 2770 3770
Q 2525 4250 2034 4250
z
M 2034 4750
Q 2819 4750 3233 4129
Q 3647 3509 3647 2328
Q 3647 1150 3233 529
Q 2819 -91 2034 -91
Q 1250 -91 836 529
Q 422 1150 422 2328
Q 422 3509 836 4129
Q 1250 4750 2034 4750
z
" transform="scale(0.015625)"/>
       </defs>
       <use xlink:href="#DejaVuSans-30"/>
      </g>
     </g>
    </g>
    <g id="xtick_2">
     <g id="line2d_2">
      <g>
       <use xlink:href="#m3ab12efdd0" x="566.538882" y="326.64351" style="stroke: #000000; stroke-width: 0.8"/>
      </g>
     </g>
     <g id="text_2">
      <!-- 1 -->
      <g transform="translate(563.357633 341.241947) scale(0.1 -0.1)">
       <defs>
        <path id="DejaVuSans-31" d="M 794 531
L 1825 531
L 1825 4091
L 703 3866
L 703 4441
L 1819 4666
L 2450 4666
L 2450 531
L 3481 531
L 3481 0
L 794 0
L 794 531
z
" transform="scale(0.015625)"/>
       </defs>
       <use xlink:href="#DejaVuSans-31"/>
      </g>
     </g>
    </g>
    <g id="xtick_3">
     <g id="line2d_3">
      <g>
       <use xlink:href="#m3ab12efdd0" x="491.259255" y="326.64351" style="stroke: #000000; stroke-width: 0.8"/>
      </g>
     </g>
     <g id="text_3">
      <!-- 2 -->
      <g transform="translate(488.078005 341.241947) scale(0.1 -0.1)">
       <defs>
        <path id="DejaVuSans-32" d="M 1228 531
L 3431 531
L 3431 0
L 469 0
L 469 531
Q 828 903 1448 1529
Q 2069 2156 2228 2338
Q 2531 2678 2651 2914
Q 2772 3150 2772 3378
Q 2772 3750 2511 3984
Q 2250 4219 1831 4219
Q 1534 4219 1204 4116
Q 875 4013 500 3803
L 500 4441
Q 881 4594 1212 4672
Q 1544 4750 1819 4750
Q 2544 4750 2975 4387
Q 3406 4025 3406 3419
Q 3406 3131 3298 2873
Q 3191 2616 2906 2266
Q 2828 2175 2409 1742
Q 1991 1309 1228 531
z
" transform="scale(0.015625)"/>
       </defs>
       <use xlink:href="#DejaVuSans-32"/>
      </g>
     </g>
    </g>
    <g id="xtick_4">
     <g id="line2d_4">
      <g>
       <use xlink:href="#m3ab12efdd0" x="415.979628" y="326.64351" style="stroke: #000000; stroke-width: 0.8"/>
      </g>
     </g>
     <g id="text_4">
      <!-- 3 -->
      <g transform="translate(412.798378 341.241947) scale(0.1 -0.1)">
       <defs>
        <path id="DejaVuSans-33" d="M 2597 2516
Q 3050 2419 3304 2112
Q 3559 1806 3559 1356
Q 3559 666 3084 287
Q 2609 -91 1734 -91
Q 1441 -91 1130 -33
Q 819 25 488 141
L 488 750
Q 750 597 1062 519
Q 1375 441 1716 441
Q 2309 441 2620 675
Q 2931 909 2931 1356
Q 2931 1769 2642 2001
Q 2353 2234 1838 2234
L 1294 2234
L 1294 2753
L 1863 2753
Q 2328 2753 2575 2939
Q 2822 3125 2822 3475
Q 2822 3834 2567 4026
Q 2313 4219 1838 4219
Q 1578 4219 1281 4162
Q 984 4106 628 3988
L 628 4550
Q 988 4650 1302 4700
Q 1616 4750 1894 4750
Q 2613 4750 3031 4423
Q 3450 4097 3450 3541
Q 3450 3153 3228 2886
Q 3006 2619 2597 2516
z
" transform="scale(0.015625)"/>
       </defs>
       <use xlink:href="#DejaVuSans-33"/>
      </g>
     </g>
    </g>
    <g id="xtick_5">
     <g id="line2d_5">
      <g>
       <use xlink:href="#m3ab12efdd0" x="340.7" y="326.64351" style="stroke: #000000; stroke-width: 0.8"/>
      </g>
     </g>
     <g id="text_5">
      <!-- 4 -->
      <g transform="translate(337.51875 341.241947) scale(0.1 -0.1)">
       <defs>
        <path id="DejaVuSans-34" d="M 2419 4116
L 825 1625
L 2419 1625
L 2419 4116
z
M 2253 4666
L 3047 4666
L 3047 1625
L 3713 1625
L 3713 1100
L 3047 1100
L 3047 0
L 2419 0
L 2419 1100
L 313 1100
L 313 1709
L 2253 4666
z
" transform="scale(0.015625)"/>
       </defs>
       <use xlink:href="#DejaVuSans-34"/>
      </g>
     </g>
    </g>
    <g id="xtick_6">
     <g id="line2d_6">
      <g>
       <use xlink:href="#m3ab12efdd0" x="265.420373" y="326.64351" style="stroke: #000000; stroke-width: 0.8"/>
      </g>
     </g>
     <g id="text_6">
      <!-- 5 -->
      <g transform="translate(262.239123 341.241947) scale(0.1 -0.1)">
       <defs>
        <path id="DejaVuSans-35" d="M 691 4666
L 3169 4666
L 3169 4134
L 1269 4134
L 1269 2991
Q 1406 3038 1543 3061
Q 1681 3084 1819 3084
Q 2600 3084 3056 2656
Q 3513 2228 3513 1497
Q 3513 744 3044 326
Q 2575 -91 1722 -91
Q 1428 -91 1123 -41
Q 819 9 494 109
L 494 744
Q 775 591 1075 516
Q 1375 441 1709 441
Q 2250 441 2565 725
Q 2881 1009 2881 1497
Q 2881 1984 2565 2268
Q 2250 2553 1709 2553
Q 1456 2553 1204 2497
Q 953 2441 691 2322
L 691 4666
z
" transform="scale(0.015625)"/>
       </defs>
       <use xlink:href="#DejaVuSans-35"/>
      </g>
     </g>
    </g>
    <g id="xtick_7">
     <g id="line2d_7">
      <g>
       <use xlink:href="#m3ab12efdd0" x="190.140745" y="326.64351" style="stroke: #000000; stroke-width: 0.8"/>
      </g>
     </g>
     <g id="text_7">
      <!-- 6 -->
      <g transform="translate(186.959495 341.241947) scale(0.1 -0.1)">
       <defs>
        <path id="DejaVuSans-36" d="M 2113 2584
Q 1688 2584 1439 2293
Q 1191 2003 1191 1497
Q 1191 994 1439 701
Q 1688 409 2113 409
Q 2538 409 2786 701
Q 3034 994 3034 1497
Q 3034 2003 2786 2293
Q 2538 2584 2113 2584
z
M 3366 4563
L 3366 3988
Q 3128 4100 2886 4159
Q 2644 4219 2406 4219
Q 1781 4219 1451 3797
Q 1122 3375 1075 2522
Q 1259 2794 1537 2939
Q 1816 3084 2150 3084
Q 2853 3084 3261 2657
Q 3669 2231 3669 1497
Q 3669 778 3244 343
Q 2819 -91 2113 -91
Q 1303 -91 875 529
Q 447 1150 447 2328
Q 447 3434 972 4092
Q 1497 4750 2381 4750
Q 2619 4750 2861 4703
Q 3103 4656 3366 4563
z
" transform="scale(0.015625)"/>
       </defs>
       <use xlink:href="#DejaVuSans-36"/>
      </g>
     </g>
    </g>
    <g id="xtick_8">
     <g id="line2d_8">
      <g>
       <use xlink:href="#m3ab12efdd0" x="114.861118" y="326.64351" style="stroke: #000000; stroke-width: 0.8"/>
      </g>
     </g>
     <g id="text_8">
      <!-- 7 -->
      <g transform="translate(111.679868 341.241947) scale(0.1 -0.1)">
       <defs>
        <path id="DejaVuSans-37" d="M 525 4666
L 3525 4666
L 3525 4397
L 1831 0
L 1172 0
L 2766 4134
L 525 4134
L 525 4666
z
" transform="scale(0.015625)"/>
       </defs>
       <use xlink:href="#DejaVuSans-37"/>
      </g>
     </g>
    </g>
    <g id="xtick_9">
     <g id="line2d_9">
      <g>
       <use xlink:href="#m3ab12efdd0" x="39.58149" y="326.64351" style="stroke: #000000; stroke-width: 0.8"/>
      </g>
     </g>
     <g id="text_9">
      <!-- 8 -->
      <g transform="translate(36.40024 341.241947) scale(0.1 -0.1)">
       <defs>
        <path id="DejaVuSans-38" d="M 2034 2216
Q 1584 2216 1326 1975
Q 1069 1734 1069 1313
Q 1069 891 1326 650
Q 1584 409 2034 409
Q 2484 409 2743 651
Q 3003 894 3003 1313
Q 3003 1734 2745 1975
Q 2488 2216 2034 2216
z
M 1403 2484
Q 997 2584 770 2862
Q 544 3141 544 3541
Q 544 4100 942 4425
Q 1341 4750 2034 4750
Q 2731 4750 3128 4425
Q 3525 4100 3525 3541
Q 3525 3141 3298 2862
Q 3072 2584 2669 2484
Q 3125 2378 3379 2068
Q 3634 1759 3634 1313
Q 3634 634 3220 271
Q 2806 -91 2034 -91
Q 1263 -91 848 271
Q 434 634 434 1313
Q 434 1759 690 2068
Q 947 2378 1403 2484
z
M 1172 3481
Q 1172 3119 1398 2916
Q 1625 2713 2034 2713
Q 2441 2713 2670 2916
Q 2900 3119 2900 3481
Q 2900 3844 2670 4047
Q 2441 4250 2034 4250
Q 1625 4250 1398 4047
Q 1172 3844 1172 3481
z
" transform="scale(0.015625)"/>
       </defs>
       <use xlink:href="#DejaVuSans-38"/>
      </g>
     </g>
    </g>
    <g id="text_10">
     <!-- z -->
     <g transform="translate(338.075781 354.920073) scale(0.1 -0.1)">
      <defs>
       <path id="DejaVuSans-7a" d="M 353 3500
L 3084 3500
L 3084 2975
L 922 459
L 3084 459
L 3084 0
L 275 0
L 275 525
L 2438 3041
L 353 3041
L 353 3500
z
" transform="scale(0.015625)"/>
      </defs>
      <use xlink:href="#DejaVuSans-7a"/>
     </g>
    </g>
   </g>
   <g id="matplotlib.axis_2">
    <g id="ytick_1">
     <g id="line2d_10">
      <defs>
       <path id="m94babd95b0" d="M 0 0
L -3.5 0
" style="stroke: #000000; stroke-width: 0.8"/>
      </defs>
      <g>
       <use xlink:href="#m94babd95b0" x="39.58149" y="318.304993" style="stroke: #000000; stroke-width: 0.8"/>
      </g>
     </g>
     <g id="text_11">
      <!-- 0.0 -->
      <g transform="translate(16.678365 322.104211) scale(0.1 -0.1)">
       <defs>
        <path id="DejaVuSans-2e" d="M 684 794
L 1344 794
L 1344 0
L 684 0
L 684 794
z
" transform="scale(0.015625)"/>
       </defs>
       <use xlink:href="#DejaVuSans-30"/>
       <use xlink:href="#DejaVuSans-2e" transform="translate(63.623047 0)"/>
       <use xlink:href="#DejaVuSans-30" transform="translate(95.410156 0)"/>
      </g>
     </g>
    </g>
    <g id="ytick_2">
     <g id="line2d_11">
      <g>
       <use xlink:href="#m94babd95b0" x="39.58149" y="262.714876" style="stroke: #000000; stroke-width: 0.8"/>
      </g>
     </g>
     <g id="text_12">
      <!-- 0.2 -->
      <g transform="translate(16.678365 266.514095) scale(0.1 -0.1)">
       <use xlink:href="#DejaVuSans-30"/>
       <use xlink:href="#DejaVuSans-2e" transform="translate(63.623047 0)"/>
       <use xlink:href="#DejaVuSans-32" transform="translate(95.410156 0)"/>
      </g>
     </g>
    </g>
    <g id="ytick_3">
     <g id="line2d_12">
      <g>
       <use xlink:href="#m94babd95b0" x="39.58149" y="207.12476" style="stroke: #000000; stroke-width: 0.8"/>
      </g>
     </g>
     <g id="text_13">
      <!-- 0.4 -->
      <g transform="translate(16.678365 210.923979) scale(0.1 -0.1)">
       <use xlink:href="#DejaVuSans-30"/>
       <use xlink:href="#DejaVuSans-2e" transform="translate(63.623047 0)"/>
       <use xlink:href="#DejaVuSans-34" transform="translate(95.410156 0)"/>
      </g>
     </g>
    </g>
    <g id="ytick_4">
     <g id="line2d_13">
      <g>
       <use xlink:href="#m94babd95b0" x="39.58149" y="151.534644" style="stroke: #000000; stroke-width: 0.8"/>
      </g>
     </g>
     <g id="text_14">
      <!-- 0.6 -->
      <g transform="translate(16.678365 155.333863) scale(0.1 -0.1)">
       <use xlink:href="#DejaVuSans-30"/>
       <use xlink:href="#DejaVuSans-2e" transform="translate(63.623047 0)"/>
       <use xlink:href="#DejaVuSans-36" transform="translate(95.410156 0)"/>
      </g>
     </g>
    </g>
    <g id="ytick_5">
     <g id="line2d_14">
      <g>
       <use xlink:href="#m94babd95b0" x="39.58149" y="95.944528" style="stroke: #000000; stroke-width: 0.8"/>
      </g>
     </g>
     <g id="text_15">
      <!-- 0.8 -->
      <g transform="translate(16.678365 99.743746) scale(0.1 -0.1)">
       <use xlink:href="#DejaVuSans-30"/>
       <use xlink:href="#DejaVuSans-2e" transform="translate(63.623047 0)"/>
       <use xlink:href="#DejaVuSans-38" transform="translate(95.410156 0)"/>
      </g>
     </g>
    </g>
    <g id="ytick_6">
     <g id="line2d_15">
      <g>
       <use xlink:href="#m94babd95b0" x="39.58149" y="40.354411" style="stroke: #000000; stroke-width: 0.8"/>
      </g>
     </g>
     <g id="text_16">
      <!-- 1.0 -->
      <g transform="translate(16.678365 44.15363) scale(0.1 -0.1)">
       <use xlink:href="#DejaVuSans-31"/>
       <use xlink:href="#DejaVuSans-2e" transform="translate(63.623047 0)"/>
       <use xlink:href="#DejaVuSans-30" transform="translate(95.410156 0)"/>
      </g>
     </g>
    </g>
    <g id="text_17">
     <!-- normalized timing shape -->
     <g transform="translate(10.598678 234.3825) rotate(-90) scale(0.1 -0.1)">
      <defs>
       <path id="DejaVuSans-6e" d="M 3513 2113
L 3513 0
L 2938 0
L 2938 2094
Q 2938 2591 2744 2837
Q 2550 3084 2163 3084
Q 1697 3084 1428 2787
Q 1159 2491 1159 1978
L 1159 0
L 581 0
L 581 3500
L 1159 3500
L 1159 2956
Q 1366 3272 1645 3428
Q 1925 3584 2291 3584
Q 2894 3584 3203 3211
Q 3513 2838 3513 2113
z
" transform="scale(0.015625)"/>
       <path id="DejaVuSans-6f" d="M 1959 3097
Q 1497 3097 1228 2736
Q 959 2375 959 1747
Q 959 1119 1226 758
Q 1494 397 1959 397
Q 2419 397 2687 759
Q 2956 1122 2956 1747
Q 2956 2369 2687 2733
Q 2419 3097 1959 3097
z
M 1959 3584
Q 2709 3584 3137 3096
Q 3566 2609 3566 1747
Q 3566 888 3137 398
Q 2709 -91 1959 -91
Q 1206 -91 779 398
Q 353 888 353 1747
Q 353 2609 779 3096
Q 1206 3584 1959 3584
z
" transform="scale(0.015625)"/>
       <path id="DejaVuSans-72" d="M 2631 2963
Q 2534 3019 2420 3045
Q 2306 3072 2169 3072
Q 1681 3072 1420 2755
Q 1159 2438 1159 1844
L 1159 0
L 581 0
L 581 3500
L 1159 3500
L 1159 2956
Q 1341 3275 1631 3429
Q 1922 3584 2338 3584
Q 2397 3584 2469 3576
Q 2541 3569 2628 3553
L 2631 2963
z
" transform="scale(0.015625)"/>
       <path id="DejaVuSans-6d" d="M 3328 2828
Q 3544 3216 3844 3400
Q 4144 3584 4550 3584
Q 5097 3584 5394 3201
Q 5691 2819 5691 2113
L 5691 0
L 5113 0
L 5113 2094
Q 5113 2597 4934 2840
Q 4756 3084 4391 3084
Q 3944 3084 3684 2787
Q 3425 2491 3425 1978
L 3425 0
L 2847 0
L 2847 2094
Q 2847 2600 2669 2842
Q 2491 3084 2119 3084
Q 1678 3084 1418 2786
Q 1159 2488 1159 1978
L 1159 0
L 581 0
L 581 3500
L 1159 3500
L 1159 2956
Q 1356 3278 1631 3431
Q 1906 3584 2284 3584
Q 2666 3584 2933 3390
Q 3200 3197 3328 2828
z
" transform="scale(0.015625)"/>
       <path id="DejaVuSans-61" d="M 2194 1759
Q 1497 1759 1228 1600
Q 959 1441 959 1056
Q 959 750 1161 570
Q 1363 391 1709 391
Q 2188 391 2477 730
Q 2766 1069 2766 1631
L 2766 1759
L 2194 1759
z
M 3341 1997
L 3341 0
L 2766 0
L 2766 531
Q 2569 213 2275 61
Q 1981 -91 1556 -91
Q 1019 -91 701 211
Q 384 513 384 1019
Q 384 1609 779 1909
Q 1175 2209 1959 2209
L 2766 2209
L 2766 2266
Q 2766 2663 2505 2880
Q 2244 3097 1772 3097
Q 1472 3097 1187 3025
Q 903 2953 641 2809
L 641 3341
Q 956 3463 1253 3523
Q 1550 3584 1831 3584
Q 2591 3584 2966 3190
Q 3341 2797 3341 1997
z
" transform="scale(0.015625)"/>
       <path id="DejaVuSans-6c" d="M 603 4863
L 1178 4863
L 1178 0
L 603 0
L 603 4863
z
" transform="scale(0.015625)"/>
       <path id="DejaVuSans-69" d="M 603 3500
L 1178 3500
L 1178 0
L 603 0
L 603 3500
z
M 603 4863
L 1178 4863
L 1178 4134
L 603 4134
L 603 4863
z
" transform="scale(0.015625)"/>
       <path id="DejaVuSans-65" d="M 3597 1894
L 3597 1613
L 953 1613
Q 991 1019 1311 708
Q 1631 397 2203 397
Q 2534 397 2845 478
Q 3156 559 3463 722
L 3463 178
Q 3153 47 2828 -22
Q 2503 -91 2169 -91
Q 1331 -91 842 396
Q 353 884 353 1716
Q 353 2575 817 3079
Q 1281 3584 2069 3584
Q 2775 3584 3186 3129
Q 3597 2675 3597 1894
z
M 3022 2063
Q 3016 2534 2758 2815
Q 2500 3097 2075 3097
Q 1594 3097 1305 2825
Q 1016 2553 972 2059
L 3022 2063
z
" transform="scale(0.015625)"/>
       <path id="DejaVuSans-64" d="M 2906 2969
L 2906 4863
L 3481 4863
L 3481 0
L 2906 0
L 2906 525
Q 2725 213 2448 61
Q 2172 -91 1784 -91
Q 1150 -91 751 415
Q 353 922 353 1747
Q 353 2572 751 3078
Q 1150 3584 1784 3584
Q 2172 3584 2448 3432
Q 2725 3281 2906 2969
z
M 947 1747
Q 947 1113 1208 752
Q 1469 391 1925 391
Q 2381 391 2643 752
Q 2906 1113 2906 1747
Q 2906 2381 2643 2742
Q 2381 3103 1925 3103
Q 1469 3103 1208 2742
Q 947 2381 947 1747
z
" transform="scale(0.015625)"/>
       <path id="DejaVuSans-20" transform="scale(0.015625)"/>
       <path id="DejaVuSans-74" d="M 1172 4494
L 1172 3500
L 2356 3500
L 2356 3053
L 1172 3053
L 1172 1153
Q 1172 725 1289 603
Q 1406 481 1766 481
L 2356 481
L 2356 0
L 1766 0
Q 1100 0 847 248
Q 594 497 594 1153
L 594 3053
L 172 3053
L 172 3500
L 594 3500
L 594 4494
L 1172 4494
z
" transform="scale(0.015625)"/>
       <path id="DejaVuSans-67" d="M 2906 1791
Q 2906 2416 2648 2759
Q 2391 3103 1925 3103
Q 1463 3103 1205 2759
Q 947 2416 947 1791
Q 947 1169 1205 825
Q 1463 481 1925 481
Q 2391 481 2648 825
Q 2906 1169 2906 1791
z
M 3481 434
Q 3481 -459 3084 -895
Q 2688 -1331 1869 -1331
Q 1566 -1331 1297 -1286
Q 1028 -1241 775 -1147
L 775 -588
Q 1028 -725 1275 -790
Q 1522 -856 1778 -856
Q 2344 -856 2625 -561
Q 2906 -266 2906 331
L 2906 616
Q 2728 306 2450 153
Q 2172 0 1784 0
Q 1141 0 747 490
Q 353 981 353 1791
Q 353 2603 747 3093
Q 1141 3584 1784 3584
Q 2172 3584 2450 3431
Q 2728 3278 2906 2969
L 2906 3500
L 3481 3500
L 3481 434
z
" transform="scale(0.015625)"/>
       <path id="DejaVuSans-73" d="M 2834 3397
L 2834 2853
Q 2591 2978 2328 3040
Q 2066 3103 1784 3103
Q 1356 3103 1142 2972
Q 928 2841 928 2578
Q 928 2378 1081 2264
Q 1234 2150 1697 2047
L 1894 2003
Q 2506 1872 2764 1633
Q 3022 1394 3022 966
Q 3022 478 2636 193
Q 2250 -91 1575 -91
Q 1294 -91 989 -36
Q 684 19 347 128
L 347 722
Q 666 556 975 473
Q 1284 391 1588 391
Q 1994 391 2212 530
Q 2431 669 2431 922
Q 2431 1156 2273 1281
Q 2116 1406 1581 1522
L 1381 1569
Q 847 1681 609 1914
Q 372 2147 372 2553
Q 372 3047 722 3315
Q 1072 3584 1716 3584
Q 2034 3584 2315 3537
Q 2597 3491 2834 3397
z
" transform="scale(0.015625)"/>
       <path id="DejaVuSans-68" d="M 3513 2113
L 3513 0
L 2938 0
L 2938 2094
Q 2938 2591 2744 2837
Q 2550 3084 2163 3084
Q 1697 3084 1428 2787
Q 1159 2491 1159 1978
L 1159 0
L 581 0
L 581 4863
L 1159 4863
L 1159 2956
Q 1366 3272 1645 3428
Q 1925 3584 2291 3584
Q 2894 3584 3203 3211
Q 3513 2838 3513 2113
z
" transform="scale(0.015625)"/>
       <path id="DejaVuSans-70" d="M 1159 525
L 1159 -1331
L 581 -1331
L 581 3500
L 1159 3500
L 1159 2969
Q 1341 3281 1617 3432
Q 1894 3584 2278 3584
Q 2916 3584 3314 3078
Q 3713 2572 3713 1747
Q 3713 922 3314 415
Q 2916 -91 2278 -91
Q 1894 -91 1617 61
Q 1341 213 1159 525
z
M 3116 1747
Q 3116 2381 2855 2742
Q 2594 3103 2138 3103
Q 1681 3103 1420 2742
Q 1159 2381 1159 1747
Q 1159 1113 1420 752
Q 1681 391 2138 391
Q 2594 391 2855 752
Q 3116 1113 3116 1747
z
" transform="scale(0.015625)"/>
      </defs>
      <use xlink:href="#DejaVuSans-6e"/>
      <use xlink:href="#DejaVuSans-6f" transform="translate(63.378906 0)"/>
      <use xlink:href="#DejaVuSans-72" transform="translate(124.560547 0)"/>
      <use xlink:href="#DejaVuSans-6d" transform="translate(163.923828 0)"/>
      <use xlink:href="#DejaVuSans-61" transform="translate(261.335938 0)"/>
      <use xlink:href="#DejaVuSans-6c" transform="translate(322.615234 0)"/>
      <use xlink:href="#DejaVuSans-69" transform="translate(350.398438 0)"/>
      <use xlink:href="#DejaVuSans-7a" transform="translate(378.181641 0)"/>
      <use xlink:href="#DejaVuSans-65" transform="translate(430.671875 0)"/>
      <use xlink:href="#DejaVuSans-64" transform="translate(492.195312 0)"/>
      <use xlink:href="#DejaVuSans-20" transform="translate(555.671875 0)"/>
      <use xlink:href="#DejaVuSans-74" transform="translate(587.458984 0)"/>
      <use xlink:href="#DejaVuSans-69" transform="translate(626.667969 0)"/>
      <use xlink:href="#DejaVuSans-6d" transform="translate(654.451172 0)"/>
      <use xlink:href="#DejaVuSans-69" transform="translate(751.863281 0)"/>
      <use xlink:href="#DejaVuSans-6e" transform="translate(779.646484 0)"/>
      <use xlink:href="#DejaVuSans-67" transform="translate(843.025391 0)"/>
      <use xlink:href="#DejaVuSans-20" transform="translate(906.501953 0)"/>
      <use xlink:href="#DejaVuSans-73" transform="translate(938.289062 0)"/>
      <use xlink:href="#DejaVuSans-68" transform="translate(990.388672 0)"/>
      <use xlink:href="#DejaVuSans-61" transform="translate(1053.767578 0)"/>
      <use xlink:href="#DejaVuSans-70" transform="translate(1115.046875 0)"/>
      <use xlink:href="#DejaVuSans-65" transform="translate(1178.523438 0)"/>
     </g>
    </g>
   </g>
   <g id="line2d_16">
    <path d="M -1 311.270676
L 13.23784 309.783633
L 23.968862 308.484572
L 34.536281 307.041405
L 44.942588 305.445859
L 55.190242 303.690088
L 65.28166 301.766776
L 75.219225 299.669231
L 85.005283 297.391482
L 94.642142 294.92836
L 104.132079 292.275578
L 113.477332 289.429797
L 122.680108 286.388683
L 131.742579 283.150957
L 140.666884 279.716425
L 149.455129 276.086006
L 158.109389 272.261737
L 166.631707 268.246779
L 175.024094 264.045396
L 183.28853 259.662938
L 191.426968 255.105802
L 199.441327 250.381389
L 207.3335 245.498049
L 215.105349 240.465023
L 222.758709 235.29237
L 230.295386 229.990895
L 237.717159 224.572071
L 248.638199 216.250317
L 259.31044 207.734475
L 269.739552 199.069115
L 279.931072 190.300016
L 289.890414 181.473522
L 302.817494 169.695525
L 318.427661 155.10902
L 367.233421 109.112091
L 377.820142 99.567681
L 388.086515 90.646038
L 395.581909 84.392133
L 402.906545 78.53128
L 410.064316 73.076517
L 417.059021 68.037914
L 423.894376 63.422712
L 430.574011 59.235474
L 437.101473 55.478264
L 443.48023 52.150822
L 449.713669 49.250757
L 455.8051 46.773737
L 459.788763 45.35448
L 463.71169 44.11838
L 467.574808 43.062959
L 471.37903 42.18548
L 475.125253 41.482972
L 478.81436 40.952247
L 482.447224 40.589929
L 486.024702 40.39247
L 489.547637 40.35617
L 493.016862 40.4772
L 496.433195 40.751616
L 499.797443 41.175381
L 503.1104 41.744373
L 507.985371 42.861003
L 512.749283 44.280658
L 517.404666 45.98887
L 521.953992 47.971101
L 526.399677 50.212824
L 530.744083 52.699593
L 534.989517 55.417098
L 539.138232 58.351218
L 543.192434 61.488059
L 547.154275 64.813995
L 551.025859 68.315686
L 554.809242 71.980108
L 559.720018 77.097243
L 564.482197 82.45199
L 569.100275 88.016298
L 573.578612 93.763228
L 577.921437 99.666954
L 583.16564 107.229547
L 588.21224 114.952695
L 593.068683 122.793127
L 598.655477 132.299369
L 603.990619 141.850673
L 609.911986 152.97107
L 615.523359 163.985539
L 621.577552 176.347698
L 628.640397 191.325266
L 636.429916 208.418874
L 641.81851 220.51926
L 641.81851 220.51926
" clip-path="url(#p7f93a77866)" style="fill: none; stroke: #1f77b4; stroke-width: 2.4; stroke-linecap: square"/>
   </g>
   <g id="line2d_17">
    <path d="M -1 40.354411
L 641.81851 40.354411
L 641.81851 40.354411
" clip-path="url(#p7f93a77866)" style="fill: none; stroke: #ff7f0e; stroke-width: 1.5; stroke-linecap: square"/>
   </g>
   <g id="line2d_18">
    <path d="M -1 211.724127
L 39.759419 209.044539
L 80.131047 206.153312
L 118.096393 203.185579
L 149.455129 200.524462
L 179.172183 197.80183
L 207.3335 195.016261
L 234.020525 192.166301
L 259.31044 189.250461
L 283.276386 186.267218
L 305.987675 183.215014
L 327.509991 180.092255
L 347.905577 176.897309
L 367.233421 173.628509
L 385.549419 170.284146
L 402.906545 166.862475
L 419.354997 163.361708
L 432.766567 160.296712
L 445.574024 157.171086
L 457.804582 153.983631
L 469.484225 150.733123
L 480.637769 147.418316
L 491.288912 144.037937
L 501.460284 140.59069
L 511.173495 137.075251
L 520.449184 133.490272
L 529.307058 129.834377
L 537.765936 126.106163
L 545.843793 122.3042
L 553.557789 118.427028
L 560.924316 114.473161
L 567.959024 110.441081
L 574.67686 106.32924
L 581.092098 102.136062
L 587.218366 97.859936
L 593.068683 93.499223
L 598.655477 89.052249
L 603.990619 84.517307
L 609.085445 79.892658
L 613.950779 75.176527
L 618.596958 70.367104
L 623.033854 65.462544
L 627.270895 60.460964
L 631.317081 55.360447
L 635.181011 50.159034
L 638.870894 44.85473
L 641.81851 40.354411
L 641.81851 40.354411
" clip-path="url(#p7f93a77866)" style="fill: none; stroke: #2ca02c; stroke-width: 1.5; stroke-linecap: square"/>
   </g>
   <g id="line2d_19">
    <path d="M -1 276.60816
L 18.623959 273.835516
L 34.536281 271.401546
L 50.086095 268.84854
L 65.28166 266.172338
L 80.131047 263.368832
L 94.642142 260.434005
L 108.822652 257.363957
L 122.680108 254.154949
L 136.22187 250.803442
L 149.455129 247.306142
L 162.386914 243.660053
L 175.024094 239.862527
L 187.373378 235.911327
L 199.441327 231.804685
L 211.23435 227.541372
L 222.758709 223.120766
L 234.020525 218.542924
L 245.02578 213.808663
L 255.780318 208.919637
L 266.289851 203.878413
L 276.559961 198.688559
L 286.596102 193.35472
L 296.403604 187.882699
L 305.987675 182.279534
L 315.353407 176.553568
L 324.505773 170.714515
L 333.449634 164.773521
L 342.18974 158.743205
L 350.730733 152.637702
L 361.816817 144.407373
L 372.567443 136.112792
L 382.992759 127.800126
L 395.581909 117.461598
L 412.413817 103.282062
L 437.101473 82.426289
L 447.651796 73.83571
L 455.8051 67.487418
L 461.75776 63.074193
L 467.574808 58.988156
L 473.259336 55.253953
L 478.81436 51.89464
L 484.242833 48.931396
L 489.547637 46.383245
L 493.016862 44.923396
L 496.433195 43.659752
L 499.797443 42.596049
L 503.1104 41.735448
L 506.372847 41.080522
L 509.585556 40.633237
L 512.749283 40.39494
L 515.864777 40.36635
L 518.932772 40.547552
L 521.953992 40.938001
L 524.929151 41.53652
L 527.858951 42.34131
L 530.744083 43.349963
L 533.585229 44.559475
L 536.383058 45.966265
L 539.138232 47.5662
L 541.851401 49.354615
L 544.523205 51.326349
L 547.154275 53.475769
L 549.745232 55.796808
L 553.557789 59.585906
L 557.283491 63.723193
L 560.924316 68.183811
L 564.482197 72.941657
L 567.959024 77.969696
L 571.356644 83.240252
L 574.67686 88.725311
L 578.986453 96.323894
L 583.16564 104.188056
L 587.218366 112.25357
L 592.112259 122.524931
L 596.821749 132.901606
L 602.239489 145.347747
L 609.085445 161.678323
L 619.350714 186.874419
L 630.655601 214.536792
L 637.04721 229.628781
L 641.81851 240.448395
L 641.81851 240.448395
" clip-path="url(#p7f93a77866)" style="fill: none; stroke: #d62728; stroke-width: 1.5; stroke-linecap: square"/>
   </g>
   <g id="line2d_20">
    <path d="M -1 286.028252
L 13.23784 283.775522
L 29.272865 281.03396
L 44.942588 278.132039
L 60.255331 275.065863
L 75.219225 271.831966
L 89.842219 268.427363
L 104.132079 264.849604
L 118.096393 261.096829
L 131.742579 257.167818
L 145.077884 253.062047
L 158.109389 248.779738
L 170.844017 244.321905
L 183.28853 239.690403
L 195.449539 234.887969
L 207.3335 229.918263
L 218.946727 224.785902
L 230.295386 219.49649
L 241.385505 214.05664
L 252.222974 208.473998
L 262.813549 202.757248
L 273.162854 196.916125
L 283.276386 190.961403
L 293.159517 184.904894
L 302.817494 178.759425
L 312.255447 172.53881
L 324.505773 164.153423
L 336.385411 155.698313
L 347.905577 147.213632
L 359.077149 138.741915
L 372.567443 128.2386
L 390.604196 113.858574
L 423.894376 87.197062
L 434.942345 78.664799
L 443.48023 72.315145
L 451.759763 66.436427
L 457.804582 62.361436
L 463.71169 58.591048
L 469.484225 55.140572
L 475.125253 52.024156
L 480.637769 49.254687
L 486.024702 46.843707
L 491.288912 44.801328
L 496.433195 43.136164
L 499.797443 42.23917
L 503.1104 41.51469
L 506.372847 40.964098
L 509.585556 40.588437
L 512.749283 40.388421
L 515.864777 40.364429
L 518.932772 40.516508
L 521.953992 40.844367
L 524.929151 41.347385
L 527.858951 42.024607
L 530.744083 42.874751
L 533.585229 43.896209
L 536.383058 45.087053
L 539.138232 46.445044
L 541.851401 47.967635
L 544.523205 49.65198
L 547.154275 51.494945
L 551.025859 54.549259
L 554.809242 57.940069
L 558.506434 61.653451
L 562.119398 65.674299
L 565.650053 69.986428
L 569.100275 74.572686
L 572.471895 79.415062
L 575.766704 84.494807
L 578.986453 89.792554
L 583.16564 97.160942
L 587.218366 104.833475
L 591.14846 112.76143
L 594.95963 120.89593
L 599.561831 131.28063
L 603.990619 141.819349
L 609.085445 154.543212
L 614.740089 169.310791
L 621.577552 187.854343
L 641.81851 243.493444
L 641.81851 243.493444
" clip-path="url(#p7f93a77866)" style="fill: none; stroke: #9467bd; stroke-width: 1.5; stroke-linecap: square"/>
   </g>
   <g id="line2d_21">
    <path d="M -1 305.242694
L 44.942588 301.747619
L 75.219225 299.310926
L 80.131047 297.906239
L 99.405335 289.291781
L 118.096393 280.677322
L 136.22187 272.062864
L 153.798879 263.448405
L 170.844017 254.833947
L 187.373378 246.219488
L 203.40257 237.60503
L 218.946727 228.990571
L 234.020525 220.376113
L 248.638199 211.761654
L 262.813549 203.147195
L 269.739552 198.772768
L 283.276386 188.276763
L 296.403604 177.780758
L 309.133598 167.284753
L 321.47839 156.788748
L 333.449634 146.292743
L 345.058635 135.796738
L 356.316354 125.300733
L 367.233421 114.804728
L 377.820142 104.308723
L 388.086515 93.812719
L 398.042233 83.316714
L 402.906545 78.068711
L 405.31082 76.746475
L 419.354997 71.937296
L 432.766567 67.128117
L 445.574024 62.318938
L 457.804582 57.509759
L 469.484225 52.70058
L 480.637769 47.891401
L 491.288912 43.082222
L 496.433195 40.677633
L 498.12178 40.354411
L 507.985371 45.58971
L 517.404666 50.825009
L 526.399677 56.060308
L 534.989517 61.295606
L 543.192434 66.530905
L 551.025859 71.766204
L 558.506434 77.001502
L 563.305335 80.491701
L 565.650053 83.464602
L 572.471895 92.666642
L 578.986453 101.868682
L 585.207569 111.070723
L 591.14846 120.272763
L 596.821749 129.474803
L 602.239489 138.676843
L 607.413193 147.878884
L 617.071963 165.717148
L 622.3085 176.032786
L 627.270895 186.348424
L 631.9735 196.664062
L 636.429916 206.9797
L 640.653031 217.295338
L 641.81851 220.242663
L 641.81851 220.242663
" clip-path="url(#p7f93a77866)" style="fill: none; stroke: #8c564b; stroke-width: 1.5; stroke-linecap: square"/>
   </g>
   <g id="patch_3">
    <path d="M 39.58149 326.64351
L 39.58149 18.118365
" style="fill: none; stroke: #000000; stroke-width: 0.8; stroke-linejoin: miter; stroke-linecap: square"/>
   </g>
   <g id="patch_4">
    <path d="M 641.81851 326.64351
L 641.81851 18.118365
" style="fill: none; stroke: #000000; stroke-width: 0.8; stroke-linejoin: miter; stroke-linecap: square"/>
   </g>
   <g id="patch_5">
    <path d="M 39.58149 326.64351
L 641.81851 326.64351
" style="fill: none; stroke: #000000; stroke-width: 0.8; stroke-linejoin: miter; stroke-linecap: square"/>
   </g>
   <g id="patch_6">
    <path d="M 39.58149 18.118365
L 641.81851 18.118365
" style="fill: none; stroke: #000000; stroke-width: 0.8; stroke-linejoin: miter; stroke-linecap: square"/>
   </g>
   <g id="text_18">
    <!-- Exp 005 retained timing prior vs reference families -->
    <g transform="translate(187.73 12.118365) scale(0.12 -0.12)">
     <defs>
      <path id="DejaVuSans-45" d="M 628 4666
L 3578 4666
L 3578 4134
L 1259 4134
L 1259 2753
L 3481 2753
L 3481 2222
L 1259 2222
L 1259 531
L 3634 531
L 3634 0
L 628 0
L 628 4666
z
" transform="scale(0.015625)"/>
      <path id="DejaVuSans-78" d="M 3513 3500
L 2247 1797
L 3578 0
L 2900 0
L 1881 1375
L 863 0
L 184 0
L 1544 1831
L 300 3500
L 978 3500
L 1906 2253
L 2834 3500
L 3513 3500
z
" transform="scale(0.015625)"/>
      <path id="DejaVuSans-76" d="M 191 3500
L 800 3500
L 1894 563
L 2988 3500
L 3597 3500
L 2284 0
L 1503 0
L 191 3500
z
" transform="scale(0.015625)"/>
      <path id="DejaVuSans-66" d="M 2375 4863
L 2375 4384
L 1825 4384
Q 1516 4384 1395 4259
Q 1275 4134 1275 3809
L 1275 3500
L 2222 3500
L 2222 3053
L 1275 3053
L 1275 0
L 697 0
L 697 3053
L 147 3053
L 147 3500
L 697 3500
L 697 3744
Q 697 4328 969 4595
Q 1241 4863 1831 4863
L 2375 4863
z
" transform="scale(0.015625)"/>
      <path id="DejaVuSans-63" d="M 3122 3366
L 3122 2828
Q 2878 2963 2633 3030
Q 2388 3097 2138 3097
Q 1578 3097 1268 2742
Q 959 2388 959 1747
Q 959 1106 1268 751
Q 1578 397 2138 397
Q 2388 397 2633 464
Q 2878 531 3122 666
L 3122 134
Q 2881 22 2623 -34
Q 2366 -91 2075 -91
Q 1284 -91 818 406
Q 353 903 353 1747
Q 353 2603 823 3093
Q 1294 3584 2113 3584
Q 2378 3584 2631 3529
Q 2884 3475 3122 3366
z
" transform="scale(0.015625)"/>
     </defs>
     <use xlink:href="#DejaVuSans-45"/>
     <use xlink:href="#DejaVuSans-78" transform="translate(63.183594 0)"/>
     <use xlink:href="#DejaVuSans-70" transform="translate(122.363281 0)"/>
     <use xlink:href="#DejaVuSans-20" transform="translate(185.839844 0)"/>
     <use xlink:href="#DejaVuSans-30" transform="translate(217.626953 0)"/>
     <use xlink:href="#DejaVuSans-30" transform="translate(281.25 0)"/>
     <use xlink:href="#DejaVuSans-35" transform="translate(344.873047 0)"/>
     <use xlink:href="#DejaVuSans-20" transform="translate(408.496094 0)"/>
     <use xlink:href="#DejaVuSans-72" transform="translate(440.283203 0)"/>
     <use xlink:href="#DejaVuSans-65" transform="translate(479.146484 0)"/>
     <use xlink:href="#DejaVuSans-74" transform="translate(540.669922 0)"/>
     <use xlink:href="#DejaVuSans-61" transform="translate(579.878906 0)"/>
     <use xlink:href="#DejaVuSans-69" transform="translate(641.158203 0)"/>
     <use xlink:href="#DejaVuSans-6e" transform="translate(668.941406 0)"/>
     <use xlink:href="#DejaVuSans-65" transform="translate(732.320312 0)"/>
     <use xlink:href="#DejaVuSans-64" transform="translate(793.84375 0)"/>
     <use xlink:href="#DejaVuSans-20" transform="translate(857.320312 0)"/>
     <use xlink:href="#DejaVuSans-74" transform="translate(889.107422 0)"/>
     <use xlink:href="#DejaVuSans-69" transform="translate(928.316406 0)"/>
     <use xlink:href="#DejaVuSans-6d" transform="translate(956.099609 0)"/>
     <use xlink:href="#DejaVuSans-69" transform="translate(1053.511719 0)"/>
     <use xlink:href="#DejaVuSans-6e" transform="translate(1081.294922 0)"/>
     <use xlink:href="#DejaVuSans-67" transform="translate(1144.673828 0)"/>
     <use xlink:href="#DejaVuSans-20" transform="translate(1208.150391 0)"/>
     <use xlink:href="#DejaVuSans-70" transform="translate(1239.9375 0)"/>
     <use xlink:href="#DejaVuSans-72" transform="translate(1303.414062 0)"/>
     <use xlink:href="#DejaVuSans-69" transform="translate(1344.527344 0)"/>
     <use xlink:href="#DejaVuSans-6f" transform="translate(1372.310547 0)"/>
     <use xlink:href="#DejaVuSans-72" transform="translate(1433.492188 0)"/>
     <use xlink:href="#DejaVuSans-20" transform="translate(1474.605469 0)"/>
     <use xlink:href="#DejaVuSans-76" transform="translate(1506.392578 0)"/>
     <use xlink:href="#DejaVuSans-73" transform="translate(1565.572266 0)"/>
     <use xlink:href="#DejaVuSans-20" transform="translate(1617.671875 0)"/>
     <use xlink:href="#DejaVuSans-72" transform="translate(1649.458984 0)"/>
     <use xlink:href="#DejaVuSans-65" transform="translate(1688.322266 0)"/>
     <use xlink:href="#DejaVuSans-66" transform="translate(1749.845703 0)"/>
     <use xlink:href="#DejaVuSans-65" transform="translate(1785.050781 0)"/>
     <use xlink:href="#DejaVuSans-72" transform="translate(1846.574219 0)"/>
     <use xlink:href="#DejaVuSans-65" transform="translate(1885.4375 0)"/>
     <use xlink:href="#DejaVuSans-6e" transform="translate(1946.960938 0)"/>
     <use xlink:href="#DejaVuSans-63" transform="translate(2010.339844 0)"/>
     <use xlink:href="#DejaVuSans-65" transform="translate(2065.320312 0)"/>
     <use xlink:href="#DejaVuSans-20" transform="translate(2126.84375 0)"/>
     <use xlink:href="#DejaVuSans-66" transform="translate(2158.630859 0)"/>
     <use xlink:href="#DejaVuSans-61" transform="translate(2193.835938 0)"/>
     <use xlink:href="#DejaVuSans-6d" transform="translate(2255.115234 0)"/>
     <use xlink:href="#DejaVuSans-69" transform="translate(2352.527344 0)"/>
     <use xlink:href="#DejaVuSans-6c" transform="translate(2380.310547 0)"/>
     <use xlink:href="#DejaVuSans-69" transform="translate(2408.09375 0)"/>
     <use xlink:href="#DejaVuSans-65" transform="translate(2435.876953 0)"/>
     <use xlink:href="#DejaVuSans-73" transform="translate(2497.400391 0)"/>
    </g>
   </g>
   <g id="legend_1">
    <g id="line2d_22">
     <path d="M 484.81226 256.26726
L 492.81226 256.26726
L 500.81226 256.26726
" style="fill: none; stroke: #1f77b4; stroke-width: 2.4; stroke-linecap: square"/>
    </g>
    <g id="text_19">
     <!-- retained normalized Gamma(a) -->
     <g transform="translate(507.21226 259.06726) scale(0.08 -0.08)">
      <defs>
       <path id="DejaVuSans-47" d="M 3809 666
L 3809 1919
L 2778 1919
L 2778 2438
L 4434 2438
L 4434 434
Q 4069 175 3628 42
Q 3188 -91 2688 -91
Q 1594 -91 976 548
Q 359 1188 359 2328
Q 359 3472 976 4111
Q 1594 4750 2688 4750
Q 3144 4750 3555 4637
Q 3966 4525 4313 4306
L 4313 3634
Q 3963 3931 3569 4081
Q 3175 4231 2741 4231
Q 1884 4231 1454 3753
Q 1025 3275 1025 2328
Q 1025 1384 1454 906
Q 1884 428 2741 428
Q 3075 428 3337 486
Q 3600 544 3809 666
z
" transform="scale(0.015625)"/>
       <path id="DejaVuSans-28" d="M 1984 4856
Q 1566 4138 1362 3434
Q 1159 2731 1159 2009
Q 1159 1288 1364 580
Q 1569 -128 1984 -844
L 1484 -844
Q 1016 -109 783 600
Q 550 1309 550 2009
Q 550 2706 781 3412
Q 1013 4119 1484 4856
L 1984 4856
z
" transform="scale(0.015625)"/>
       <path id="DejaVuSans-29" d="M 513 4856
L 1013 4856
Q 1481 4119 1714 3412
Q 1947 2706 1947 2009
Q 1947 1309 1714 600
Q 1481 -109 1013 -844
L 513 -844
Q 928 -128 1133 580
Q 1338 1288 1338 2009
Q 1338 2731 1133 3434
Q 928 4138 513 4856
z
" transform="scale(0.015625)"/>
      </defs>
      <use xlink:href="#DejaVuSans-72"/>
      <use xlink:href="#DejaVuSans-65" transform="translate(38.863281 0)"/>
      <use xlink:href="#DejaVuSans-74" transform="translate(100.386719 0)"/>
      <use xlink:href="#DejaVuSans-61" transform="translate(139.595703 0)"/>
      <use xlink:href="#DejaVuSans-69" transform="translate(200.875 0)"/>
      <use xlink:href="#DejaVuSans-6e" transform="translate(228.658203 0)"/>
      <use xlink:href="#DejaVuSans-65" transform="translate(292.037109 0)"/>
      <use xlink:href="#DejaVuSans-64" transform="translate(353.560547 0)"/>
      <use xlink:href="#DejaVuSans-20" transform="translate(417.037109 0)"/>
      <use xlink:href="#DejaVuSans-6e" transform="translate(448.824219 0)"/>
      <use xlink:href="#DejaVuSans-6f" transform="translate(512.203125 0)"/>
      <use xlink:href="#DejaVuSans-72" transform="translate(573.384766 0)"/>
      <use xlink:href="#DejaVuSans-6d" transform="translate(612.748047 0)"/>
      <use xlink:href="#DejaVuSans-61" transform="translate(710.160156 0)"/>
      <use xlink:href="#DejaVuSans-6c" transform="translate(771.439453 0)"/>
      <use xlink:href="#DejaVuSans-69" transform="translate(799.222656 0)"/>
      <use xlink:href="#DejaVuSans-7a" transform="translate(827.005859 0)"/>
      <use xlink:href="#DejaVuSans-65" transform="translate(879.496094 0)"/>
      <use xlink:href="#DejaVuSans-64" transform="translate(941.019531 0)"/>
      <use xlink:href="#DejaVuSans-20" transform="translate(1004.496094 0)"/>
      <use xlink:href="#DejaVuSans-47" transform="translate(1036.283203 0)"/>
      <use xlink:href="#DejaVuSans-61" transform="translate(1113.773438 0)"/>
      <use xlink:href="#DejaVuSans-6d" transform="translate(1175.052734 0)"/>
      <use xlink:href="#DejaVuSans-6d" transform="translate(1272.464844 0)"/>
      <use xlink:href="#DejaVuSans-61" transform="translate(1369.876953 0)"/>
      <use xlink:href="#DejaVuSans-28" transform="translate(1431.15625 0)"/>
      <use xlink:href="#DejaVuSans-61" transform="translate(1470.169922 0)"/>
      <use xlink:href="#DejaVuSans-29" transform="translate(1531.449219 0)"/>
     </g>
    </g>
    <g id="line2d_23">
     <path d="M 484.81226 268.00976
L 492.81226 268.00976
L 500.81226 268.00976
" style="fill: none; stroke: #ff7f0e; stroke-width: 1.5; stroke-linecap: square"/>
    </g>
    <g id="text_20">
     <!-- constant coupling -->
     <g transform="translate(507.21226 270.80976) scale(0.08 -0.08)">
      <defs>
       <path id="DejaVuSans-75" d="M 544 1381
L 544 3500
L 1119 3500
L 1119 1403
Q 1119 906 1312 657
Q 1506 409 1894 409
Q 2359 409 2629 706
Q 2900 1003 2900 1516
L 2900 3500
L 3475 3500
L 3475 0
L 2900 0
L 2900 538
Q 2691 219 2414 64
Q 2138 -91 1772 -91
Q 1169 -91 856 284
Q 544 659 544 1381
z
M 1991 3584
L 1991 3584
z
" transform="scale(0.015625)"/>
      </defs>
      <use xlink:href="#DejaVuSans-63"/>
      <use xlink:href="#DejaVuSans-6f" transform="translate(54.980469 0)"/>
      <use xlink:href="#DejaVuSans-6e" transform="translate(116.162109 0)"/>
      <use xlink:href="#DejaVuSans-73" transform="translate(179.541016 0)"/>
      <use xlink:href="#DejaVuSans-74" transform="translate(231.640625 0)"/>
      <use xlink:href="#DejaVuSans-61" transform="translate(270.849609 0)"/>
      <use xlink:href="#DejaVuSans-6e" transform="translate(332.128906 0)"/>
      <use xlink:href="#DejaVuSans-74" transform="translate(395.507812 0)"/>
      <use xlink:href="#DejaVuSans-20" transform="translate(434.716797 0)"/>
      <use xlink:href="#DejaVuSans-63" transform="translate(466.503906 0)"/>
      <use xlink:href="#DejaVuSans-6f" transform="translate(521.484375 0)"/>
      <use xlink:href="#DejaVuSans-75" transform="translate(582.666016 0)"/>
      <use xlink:href="#DejaVuSans-70" transform="translate(646.044922 0)"/>
      <use xlink:href="#DejaVuSans-6c" transform="translate(709.521484 0)"/>
      <use xlink:href="#DejaVuSans-69" transform="translate(737.304688 0)"/>
      <use xlink:href="#DejaVuSans-6e" transform="translate(765.087891 0)"/>
      <use xlink:href="#DejaVuSans-67" transform="translate(828.466797 0)"/>
     </g>
    </g>
    <g id="line2d_24">
     <path d="M 484.81226 279.75226
L 492.81226 279.75226
L 500.81226 279.75226
" style="fill: none; stroke: #2ca02c; stroke-width: 1.5; stroke-linecap: square"/>
    </g>
    <g id="text_21">
     <!-- power-law coupling -->
     <g transform="translate(507.21226 282.55226) scale(0.08 -0.08)">
      <defs>
       <path id="DejaVuSans-77" d="M 269 3500
L 844 3500
L 1563 769
L 2278 3500
L 2956 3500
L 3675 769
L 4391 3500
L 4966 3500
L 4050 0
L 3372 0
L 2619 2869
L 1863 0
L 1184 0
L 269 3500
z
" transform="scale(0.015625)"/>
       <path id="DejaVuSans-2d" d="M 313 2009
L 1997 2009
L 1997 1497
L 313 1497
L 313 2009
z
" transform="scale(0.015625)"/>
      </defs>
      <use xlink:href="#DejaVuSans-70"/>
      <use xlink:href="#DejaVuSans-6f" transform="translate(63.476562 0)"/>
      <use xlink:href="#DejaVuSans-77" transform="translate(124.658203 0)"/>
      <use xlink:href="#DejaVuSans-65" transform="translate(206.445312 0)"/>
      <use xlink:href="#DejaVuSans-72" transform="translate(267.96875 0)"/>
      <use xlink:href="#DejaVuSans-2d" transform="translate(302.707031 0)"/>
      <use xlink:href="#DejaVuSans-6c" transform="translate(338.791016 0)"/>
      <use xlink:href="#DejaVuSans-61" transform="translate(366.574219 0)"/>
      <use xlink:href="#DejaVuSans-77" transform="translate(427.853516 0)"/>
      <use xlink:href="#DejaVuSans-20" transform="translate(509.640625 0)"/>
      <use xlink:href="#DejaVuSans-63" transform="translate(541.427734 0)"/>
      <use xlink:href="#DejaVuSans-6f" transform="translate(596.408203 0)"/>
      <use xlink:href="#DejaVuSans-75" transform="translate(657.589844 0)"/>
      <use xlink:href="#DejaVuSans-70" transform="translate(720.96875 0)"/>
      <use xlink:href="#DejaVuSans-6c" transform="translate(784.445312 0)"/>
      <use xlink:href="#DejaVuSans-69" transform="translate(812.228516 0)"/>
      <use xlink:href="#DejaVuSans-6e" transform="translate(840.011719 0)"/>
      <use xlink:href="#DejaVuSans-67" transform="translate(903.390625 0)"/>
     </g>
    </g>
    <g id="line2d_25">
     <path d="M 484.81226 291.49476
L 492.81226 291.49476
L 500.81226 291.49476
" style="fill: none; stroke: #d62728; stroke-width: 1.5; stroke-linecap: square"/>
    </g>
    <g id="text_22">
     <!-- logistic transition-rate pulse -->
     <g transform="translate(507.21226 294.29476) scale(0.08 -0.08)">
      <use xlink:href="#DejaVuSans-6c"/>
      <use xlink:href="#DejaVuSans-6f" transform="translate(27.783203 0)"/>
      <use xlink:href="#DejaVuSans-67" transform="translate(88.964844 0)"/>
      <use xlink:href="#DejaVuSans-69" transform="translate(152.441406 0)"/>
      <use xlink:href="#DejaVuSans-73" transform="translate(180.224609 0)"/>
      <use xlink:href="#DejaVuSans-74" transform="translate(232.324219 0)"/>
      <use xlink:href="#DejaVuSans-69" transform="translate(271.533203 0)"/>
      <use xlink:href="#DejaVuSans-63" transform="translate(299.316406 0)"/>
      <use xlink:href="#DejaVuSans-20" transform="translate(354.296875 0)"/>
      <use xlink:href="#DejaVuSans-74" transform="translate(386.083984 0)"/>
      <use xlink:href="#DejaVuSans-72" transform="translate(425.292969 0)"/>
      <use xlink:href="#DejaVuSans-61" transform="translate(466.40625 0)"/>
      <use xlink:href="#DejaVuSans-6e" transform="translate(527.685547 0)"/>
      <use xlink:href="#DejaVuSans-73" transform="translate(591.064453 0)"/>
      <use xlink:href="#DejaVuSans-69" transform="translate(643.164062 0)"/>
      <use xlink:href="#DejaVuSans-74" transform="translate(670.947266 0)"/>
      <use xlink:href="#DejaVuSans-69" transform="translate(710.15625 0)"/>
      <use xlink:href="#DejaVuSans-6f" transform="translate(737.939453 0)"/>
      <use xlink:href="#DejaVuSans-6e" transform="translate(799.121094 0)"/>
      <use xlink:href="#DejaVuSans-2d" transform="translate(862.5 0)"/>
      <use xlink:href="#DejaVuSans-72" transform="translate(898.583984 0)"/>
      <use xlink:href="#DejaVuSans-61" transform="translate(939.697266 0)"/>
      <use xlink:href="#DejaVuSans-74" transform="translate(1000.976562 0)"/>
      <use xlink:href="#DejaVuSans-65" transform="translate(1040.185547 0)"/>
      <use xlink:href="#DejaVuSans-20" transform="translate(1101.708984 0)"/>
      <use xlink:href="#DejaVuSans-70" transform="translate(1133.496094 0)"/>
      <use xlink:href="#DejaVuSans-75" transform="translate(1196.972656 0)"/>
      <use xlink:href="#DejaVuSans-6c" transform="translate(1260.351562 0)"/>
      <use xlink:href="#DejaVuSans-73" transform="translate(1288.134766 0)"/>
      <use xlink:href="#DejaVuSans-65" transform="translate(1340.234375 0)"/>
     </g>
    </g>
    <g id="line2d_26">
     <path d="M 484.81226 303.23726
L 492.81226 303.23726
L 500.81226 303.23726
" style="fill: none; stroke: #9467bd; stroke-width: 1.5; stroke-linecap: square"/>
    </g>
    <g id="text_23">
     <!-- Gaussian pulse in ln(a) -->
     <g transform="translate(507.21226 306.03726) scale(0.08 -0.08)">
      <use xlink:href="#DejaVuSans-47"/>
      <use xlink:href="#DejaVuSans-61" transform="translate(77.490234 0)"/>
      <use xlink:href="#DejaVuSans-75" transform="translate(138.769531 0)"/>
      <use xlink:href="#DejaVuSans-73" transform="translate(202.148438 0)"/>
      <use xlink:href="#DejaVuSans-73" transform="translate(254.248047 0)"/>
      <use xlink:href="#DejaVuSans-69" transform="translate(306.347656 0)"/>
      <use xlink:href="#DejaVuSans-61" transform="translate(334.130859 0)"/>
      <use xlink:href="#DejaVuSans-6e" transform="translate(395.410156 0)"/>
      <use xlink:href="#DejaVuSans-20" transform="translate(458.789062 0)"/>
      <use xlink:href="#DejaVuSans-70" transform="translate(490.576172 0)"/>
      <use xlink:href="#DejaVuSans-75" transform="translate(554.052734 0)"/>
      <use xlink:href="#DejaVuSans-6c" transform="translate(617.431641 0)"/>
      <use xlink:href="#DejaVuSans-73" transform="translate(645.214844 0)"/>
      <use xlink:href="#DejaVuSans-65" transform="translate(697.314453 0)"/>
      <use xlink:href="#DejaVuSans-20" transform="translate(758.837891 0)"/>
      <use xlink:href="#DejaVuSans-69" transform="translate(790.625 0)"/>
      <use xlink:href="#DejaVuSans-6e" transform="translate(818.408203 0)"/>
      <use xlink:href="#DejaVuSans-20" transform="translate(881.787109 0)"/>
      <use xlink:href="#DejaVuSans-6c" transform="translate(913.574219 0)"/>
      <use xlink:href="#DejaVuSans-6e" transform="translate(941.357422 0)"/>
      <use xlink:href="#DejaVuSans-28" transform="translate(1004.736328 0)"/>
      <use xlink:href="#DejaVuSans-61" transform="translate(1043.75 0)"/>
      <use xlink:href="#DejaVuSans-29" transform="translate(1105.029297 0)"/>
     </g>
    </g>
    <g id="line2d_27">
     <path d="M 484.81226 314.97976
L 492.81226 314.97976
L 500.81226 314.97976
" style="fill: none; stroke: #8c564b; stroke-width: 1.5; stroke-linecap: square"/>
    </g>
    <g id="text_24">
     <!-- eight-knot nonparametric proxy -->
     <g transform="translate(507.21226 317.77976) scale(0.08 -0.08)">
      <defs>
       <path id="DejaVuSans-6b" d="M 581 4863
L 1159 4863
L 1159 1991
L 2875 3500
L 3609 3500
L 1753 1863
L 3688 0
L 2938 0
L 1159 1709
L 1159 0
L 581 0
L 581 4863
z
" transform="scale(0.015625)"/>
       <path id="DejaVuSans-79" d="M 2059 -325
Q 1816 -950 1584 -1140
Q 1353 -1331 966 -1331
L 506 -1331
L 506 -850
L 844 -850
Q 1081 -850 1212 -737
Q 1344 -625 1503 -206
L 1606 56
L 191 3500
L 800 3500
L 1894 763
L 2988 3500
L 3597 3500
L 2059 -325
z
" transform="scale(0.015625)"/>
      </defs>
      <use xlink:href="#DejaVuSans-65"/>
      <use xlink:href="#DejaVuSans-69" transform="translate(61.523438 0)"/>
      <use xlink:href="#DejaVuSans-67" transform="translate(89.306641 0)"/>
      <use xlink:href="#DejaVuSans-68" transform="translate(152.783203 0)"/>
      <use xlink:href="#DejaVuSans-74" transform="translate(216.162109 0)"/>
      <use xlink:href="#DejaVuSans-2d" transform="translate(255.371094 0)"/>
      <use xlink:href="#DejaVuSans-6b" transform="translate(291.455078 0)"/>
      <use xlink:href="#DejaVuSans-6e" transform="translate(349.365234 0)"/>
      <use xlink:href="#DejaVuSans-6f" transform="translate(412.744141 0)"/>
      <use xlink:href="#DejaVuSans-74" transform="translate(473.925781 0)"/>
      <use xlink:href="#DejaVuSans-20" transform="translate(513.134766 0)"/>
      <use xlink:href="#DejaVuSans-6e" transform="translate(544.921875 0)"/>
      <use xlink:href="#DejaVuSans-6f" transform="translate(608.300781 0)"/>
      <use xlink:href="#DejaVuSans-6e" transform="translate(669.482422 0)"/>
      <use xlink:href="#DejaVuSans-70" transform="translate(732.861328 0)"/>
      <use xlink:href="#DejaVuSans-61" transform="translate(796.337891 0)"/>
      <use xlink:href="#DejaVuSans-72" transform="translate(857.617188 0)"/>
      <use xlink:href="#DejaVuSans-61" transform="translate(898.730469 0)"/>
      <use xlink:href="#DejaVuSans-6d" transform="translate(960.009766 0)"/>
      <use xlink:href="#DejaVuSans-65" transform="translate(1057.421875 0)"/>
      <use xlink:href="#DejaVuSans-74" transform="translate(1118.945312 0)"/>
      <use xlink:href="#DejaVuSans-72" transform="translate(1158.154297 0)"/>
      <use xlink:href="#DejaVuSans-69" transform="translate(1199.267578 0)"/>
      <use xlink:href="#DejaVuSans-63" transform="translate(1227.050781 0)"/>
      <use xlink:href="#DejaVuSans-20" transform="translate(1282.03125 0)"/>
      <use xlink:href="#DejaVuSans-70" transform="translate(1313.818359 0)"/>
      <use xlink:href="#DejaVuSans-72" transform="translate(1377.294922 0)"/>
      <use xlink:href="#DejaVuSans-6f" transform="translate(1416.158203 0)"/>
      <use xlink:href="#DejaVuSans-78" transform="translate(1474.214844 0)"/>
      <use xlink:href="#DejaVuSans-79" transform="translate(1533.394531 0)"/>
     </g>
    </g>
   </g>
  </g>
 </g>
 <defs>
  <clipPath id="p7f93a77866">
   <rect x="39.58149" y="18.118365" width="602.23702" height="308.525145"/>
  </clipPath>
 </defs>
</svg>
