<?xml version="1.0" encoding="utf-8" standalone="no"?>
<!DOCTYPE svg PUBLIC "-//W3C//DTD SVG 1.1//EN"
  "http://www.w3.org/Graphics/SVG/1.1/DTD/svg11.dtd">
<svg xmlns:xlink="http://www.w3.org/1999/xlink" width="648pt" height="360pt" viewBox="0 0 648 360" xmlns="http://www.w3.org/2000/svg" version="1.1">
 <metadata>
  <rdf:RDF xmlns:dc="http://purl.org/dc/elements/1.1/" xmlns:cc="http://creativecommons.org/ns#" xmlns:rdf="http://www.w3.org/1999/02/22-rdf-syntax-ns#">
   <cc:Work>
    <dc:type rdf:resource="http://purl.org/dc/dcmitype/StillImage"/>
    <dc:date>2026-06-13T14:27:32.871069</dc:date>
    <dc:format>image/svg+xml</dc:format>
    <dc:creator>
     <cc:Agent>
      <dc:title>Matplotlib v3.11.0, https://matplotlib.org/</dc:title>
     </cc:Agent>
    </dc:creator>
   </cc:Work>
  </rdf:RDF>
 </metadata>
 <defs>
  <style type="text/css">*{stroke-linejoin: round; stroke-linecap: butt}</style>
 </defs>
 <g id="figure_1">
  <g id="patch_1">
   <path d="M 0 360
L 648 360
L 648 0
L 0 0
z
" style="fill: #ffffff"/>
  </g>
  <g id="axes_1">
   <g id="patch_2">
    <path d="M 39.904146 325.99976
L 641.81851 325.99976
L 641.81851 18.118365
L 39.904146 18.118365
z
" style="fill: #ffffff"/>
   </g>
   <g id="matplotlib.axis_1">
    <g id="xtick_1">
     <g id="line2d_1">
      <defs>
       <path id="m6c23cf1c5c" d="M 0 0
L 0 3.5
" style="stroke: #000000; stroke-width: 0.8"/>
      </defs>
      <g>
       <use xlink:href="#m6c23cf1c5c" x="641.81851" y="325.99976" style="stroke: #000000; stroke-width: 0.8"/>
      </g>
     </g>
     <g id="text_1">
      <!-- 0 -->
      <g transform="translate(638.63726 340.597416) scale(0.1 -0.1)">
       <defs>
        <path id="DejaVuSans-13" d="M 2034 4250
Q 1547 4250 1301 3770
Q 1056 3291 1056 2328
Q 1056 1369 1301 889
Q 1547 409 2034 409
Q 2525 409 2770 889
Q 3016 1369 3016 2328
Q 3016 3291 2770 3770
Q 2525 4250 2034 4250
z
M 2034 4750
Q 2819 4750 3233 4129
Q 3647 3509 3647 2328
Q 3647 1150 3233 529
Q 2819 -91 2034 -91
Q 1250 -91 836 529
Q 422 1150 422 2328
Q 422 3509 836 4129
Q 1250 4750 2034 4750
z
" transform="scale(0.015625)"/>
       </defs>
       <use xlink:href="#DejaVuSans-13"/>
      </g>
     </g>
    </g>
    <g id="xtick_2">
     <g id="line2d_2">
      <g>
       <use xlink:href="#m6c23cf1c5c" x="566.579215" y="325.99976" style="stroke: #000000; stroke-width: 0.8"/>
      </g>
     </g>
     <g id="text_2">
      <!-- 1 -->
      <g transform="translate(563.397965 340.597416) scale(0.1 -0.1)">
       <defs>
        <path id="DejaVuSans-14" d="M 794 531
L 1825 531
L 1825 4091
L 703 3866
L 703 4441
L 1819 4666
L 2450 4666
L 2450 531
L 3481 531
L 3481 0
L 794 0
L 794 531
z
" transform="scale(0.015625)"/>
       </defs>
       <use xlink:href="#DejaVuSans-14"/>
      </g>
     </g>
    </g>
    <g id="xtick_3">
     <g id="line2d_3">
      <g>
       <use xlink:href="#m6c23cf1c5c" x="491.339919" y="325.99976" style="stroke: #000000; stroke-width: 0.8"/>
      </g>
     </g>
     <g id="text_3">
      <!-- 2 -->
      <g transform="translate(488.158669 340.597416) scale(0.1 -0.1)">
       <defs>
        <path id="DejaVuSans-15" d="M 1228 531
L 3431 531
L 3431 0
L 469 0
L 469 531
Q 828 903 1448 1529
Q 2069 2156 2228 2338
Q 2531 2678 2651 2914
Q 2772 3150 2772 3378
Q 2772 3750 2511 3984
Q 2250 4219 1831 4219
Q 1534 4219 1204 4116
Q 875 4013 500 3803
L 500 4441
Q 881 4594 1212 4672
Q 1544 4750 1819 4750
Q 2544 4750 2975 4387
Q 3406 4025 3406 3419
Q 3406 3131 3298 2873
Q 3191 2616 2906 2266
Q 2828 2175 2409 1742
Q 1991 1309 1228 531
z
" transform="scale(0.015625)"/>
       </defs>
       <use xlink:href="#DejaVuSans-15"/>
      </g>
     </g>
    </g>
    <g id="xtick_4">
     <g id="line2d_4">
      <g>
       <use xlink:href="#m6c23cf1c5c" x="416.100624" y="325.99976" style="stroke: #000000; stroke-width: 0.8"/>
      </g>
     </g>
     <g id="text_4">
      <!-- 3 -->
      <g transform="translate(412.919374 340.597416) scale(0.1 -0.1)">
       <defs>
        <path id="DejaVuSans-16" d="M 2597 2516
Q 3050 2419 3304 2112
Q 3559 1806 3559 1356
Q 3559 666 3084 287
Q 2609 -91 1734 -91
Q 1441 -91 1130 -33
Q 819 25 488 141
L 488 750
Q 750 597 1062 519
Q 1375 441 1716 441
Q 2309 441 2620 675
Q 2931 909 2931 1356
Q 2931 1769 2642 2001
Q 2353 2234 1838 2234
L 1294 2234
L 1294 2753
L 1863 2753
Q 2328 2753 2575 2939
Q 2822 3125 2822 3475
Q 2822 3834 2567 4026
Q 2313 4219 1838 4219
Q 1578 4219 1281 4162
Q 984 4106 628 3988
L 628 4550
Q 988 4650 1302 4700
Q 1616 4750 1894 4750
Q 2613 4750 3031 4423
Q 3450 4097 3450 3541
Q 3450 3153 3228 2886
Q 3006 2619 2597 2516
z
" transform="scale(0.015625)"/>
       </defs>
       <use xlink:href="#DejaVuSans-16"/>
      </g>
     </g>
    </g>
    <g id="xtick_5">
     <g id="line2d_5">
      <g>
       <use xlink:href="#m6c23cf1c5c" x="340.861328" y="325.99976" style="stroke: #000000; stroke-width: 0.8"/>
      </g>
     </g>
     <g id="text_5">
      <!-- 4 -->
      <g transform="translate(337.680078 340.597416) scale(0.1 -0.1)">
       <defs>
        <path id="DejaVuSans-17" d="M 2419 4116
L 825 1625
L 2419 1625
L 2419 4116
z
M 2253 4666
L 3047 4666
L 3047 1625
L 3713 1625
L 3713 1100
L 3047 1100
L 3047 0
L 2419 0
L 2419 1100
L 313 1100
L 313 1709
L 2253 4666
z
" transform="scale(0.015625)"/>
       </defs>
       <use xlink:href="#DejaVuSans-17"/>
      </g>
     </g>
    </g>
    <g id="xtick_6">
     <g id="line2d_6">
      <g>
       <use xlink:href="#m6c23cf1c5c" x="265.622033" y="325.99976" style="stroke: #000000; stroke-width: 0.8"/>
      </g>
     </g>
     <g id="text_6">
      <!-- 5 -->
      <g transform="translate(262.440783 340.597416) scale(0.1 -0.1)">
       <defs>
        <path id="DejaVuSans-18" d="M 691 4666
L 3169 4666
L 3169 4134
L 1269 4134
L 1269 2991
Q 1406 3038 1543 3061
Q 1681 3084 1819 3084
Q 2600 3084 3056 2656
Q 3513 2228 3513 1497
Q 3513 744 3044 326
Q 2575 -91 1722 -91
Q 1428 -91 1123 -41
Q 819 9 494 109
L 494 744
Q 775 591 1075 516
Q 1375 441 1709 441
Q 2250 441 2565 725
Q 2881 1009 2881 1497
Q 2881 1984 2565 2268
Q 2250 2553 1709 2553
Q 1456 2553 1204 2497
Q 953 2441 691 2322
L 691 4666
z
" transform="scale(0.015625)"/>
       </defs>
       <use xlink:href="#DejaVuSans-18"/>
      </g>
     </g>
    </g>
    <g id="xtick_7">
     <g id="line2d_7">
      <g>
       <use xlink:href="#m6c23cf1c5c" x="190.382737" y="325.99976" style="stroke: #000000; stroke-width: 0.8"/>
      </g>
     </g>
     <g id="text_7">
      <!-- 6 -->
      <g transform="translate(187.201487 340.597416) scale(0.1 -0.1)">
       <defs>
        <path id="DejaVuSans-19" d="M 2113 2584
Q 1688 2584 1439 2293
Q 1191 2003 1191 1497
Q 1191 994 1439 701
Q 1688 409 2113 409
Q 2538 409 2786 701
Q 3034 994 3034 1497
Q 3034 2003 2786 2293
Q 2538 2584 2113 2584
z
M 3366 4563
L 3366 3988
Q 3128 4100 2886 4159
Q 2644 4219 2406 4219
Q 1781 4219 1451 3797
Q 1122 3375 1075 2522
Q 1259 2794 1537 2939
Q 1816 3084 2150 3084
Q 2853 3084 3261 2657
Q 3669 2231 3669 1497
Q 3669 778 3244 343
Q 2819 -91 2113 -91
Q 1303 -91 875 529
Q 447 1150 447 2328
Q 447 3434 972 4092
Q 1497 4750 2381 4750
Q 2619 4750 2861 4703
Q 3103 4656 3366 4563
z
" transform="scale(0.015625)"/>
       </defs>
       <use xlink:href="#DejaVuSans-19"/>
      </g>
     </g>
    </g>
    <g id="xtick_8">
     <g id="line2d_8">
      <g>
       <use xlink:href="#m6c23cf1c5c" x="115.143442" y="325.99976" style="stroke: #000000; stroke-width: 0.8"/>
      </g>
     </g>
     <g id="text_8">
      <!-- 7 -->
      <g transform="translate(111.962192 340.597416) scale(0.1 -0.1)">
       <defs>
        <path id="DejaVuSans-1a" d="M 525 4666
L 3525 4666
L 3525 4397
L 1831 0
L 1172 0
L 2766 4134
L 525 4134
L 525 4666
z
" transform="scale(0.015625)"/>
       </defs>
       <use xlink:href="#DejaVuSans-1a"/>
      </g>
     </g>
    </g>
    <g id="xtick_9">
     <g id="line2d_9">
      <g>
       <use xlink:href="#m6c23cf1c5c" x="39.904146" y="325.99976" style="stroke: #000000; stroke-width: 0.8"/>
      </g>
     </g>
     <g id="text_9">
      <!-- 8 -->
      <g transform="translate(36.722896 340.597416) scale(0.1 -0.1)">
       <defs>
        <path id="DejaVuSans-1b" d="M 2034 2216
Q 1584 2216 1326 1975
Q 1069 1734 1069 1313
Q 1069 891 1326 650
Q 1584 409 2034 409
Q 2484 409 2743 651
Q 3003 894 3003 1313
Q 3003 1734 2745 1975
Q 2488 2216 2034 2216
z
M 1403 2484
Q 997 2584 770 2862
Q 544 3141 544 3541
Q 544 4100 942 4425
Q 1341 4750 2034 4750
Q 2731 4750 3128 4425
Q 3525 4100 3525 3541
Q 3525 3141 3298 2862
Q 3072 2584 2669 2484
Q 3125 2378 3379 2068
Q 3634 1759 3634 1313
Q 3634 634 3220 271
Q 2806 -91 2034 -91
Q 1263 -91 848 271
Q 434 634 434 1313
Q 434 1759 690 2068
Q 947 2378 1403 2484
z
M 1172 3481
Q 1172 3119 1398 2916
Q 1625 2713 2034 2713
Q 2441 2713 2670 2916
Q 2900 3119 2900 3481
Q 2900 3844 2670 4047
Q 2441 4250 2034 4250
Q 1625 4250 1398 4047
Q 1172 3844 1172 3481
z
" transform="scale(0.015625)"/>
       </defs>
       <use xlink:href="#DejaVuSans-1b"/>
      </g>
     </g>
    </g>
    <g id="text_10">
     <!-- z -->
     <g transform="translate(338.237109 354.597416) scale(0.1 -0.1)">
      <defs>
       <path id="DejaVuSans-5d" d="M 353 3500
L 3084 3500
L 3084 2975
L 922 459
L 3084 459
L 3084 0
L 275 0
L 275 525
L 2438 3041
L 353 3041
L 353 3500
z
" transform="scale(0.015625)"/>
      </defs>
      <use xlink:href="#DejaVuSans-5d"/>
     </g>
    </g>
   </g>
   <g id="matplotlib.axis_2">
    <g id="ytick_1">
     <g id="line2d_10">
      <defs>
       <path id="m6d32a38988" d="M 0 0
L -3.5 0
" style="stroke: #000000; stroke-width: 0.8"/>
      </defs>
      <g>
       <use xlink:href="#m6d32a38988" x="39.904146" y="317.678641" style="stroke: #000000; stroke-width: 0.8"/>
      </g>
     </g>
     <g id="text_11">
      <!-- 0.0 -->
      <g transform="translate(17.001021 321.477469) scale(0.1 -0.1)">
       <defs>
        <path id="DejaVuSans-11" d="M 684 794
L 1344 794
L 1344 0
L 684 0
L 684 794
z
" transform="scale(0.015625)"/>
       </defs>
       <use xlink:href="#DejaVuSans-13"/>
       <use xlink:href="#DejaVuSans-11" transform="translate(63.625 0)"/>
       <use xlink:href="#DejaVuSans-13" transform="translate(95.40625 0)"/>
      </g>
     </g>
    </g>
    <g id="ytick_2">
     <g id="line2d_11">
      <g>
       <use xlink:href="#m6d32a38988" x="39.904146" y="262.204516" style="stroke: #000000; stroke-width: 0.8"/>
      </g>
     </g>
     <g id="text_12">
      <!-- 0.2 -->
      <g transform="translate(17.001021 266.003344) scale(0.1 -0.1)">
       <use xlink:href="#DejaVuSans-13"/>
       <use xlink:href="#DejaVuSans-11" transform="translate(63.625 0)"/>
       <use xlink:href="#DejaVuSans-15" transform="translate(95.40625 0)"/>
      </g>
     </g>
    </g>
    <g id="ytick_3">
     <g id="line2d_12">
      <g>
       <use xlink:href="#m6d32a38988" x="39.904146" y="206.730391" style="stroke: #000000; stroke-width: 0.8"/>
      </g>
     </g>
     <g id="text_13">
      <!-- 0.4 -->
      <g transform="translate(17.001021 210.529219) scale(0.1 -0.1)">
       <use xlink:href="#DejaVuSans-13"/>
       <use xlink:href="#DejaVuSans-11" transform="translate(63.625 0)"/>
       <use xlink:href="#DejaVuSans-17" transform="translate(95.40625 0)"/>
      </g>
     </g>
    </g>
    <g id="ytick_4">
     <g id="line2d_13">
      <g>
       <use xlink:href="#m6d32a38988" x="39.904146" y="151.256266" style="stroke: #000000; stroke-width: 0.8"/>
      </g>
     </g>
     <g id="text_14">
      <!-- 0.6 -->
      <g transform="translate(17.001021 155.055094) scale(0.1 -0.1)">
       <use xlink:href="#DejaVuSans-13"/>
       <use xlink:href="#DejaVuSans-11" transform="translate(63.625 0)"/>
       <use xlink:href="#DejaVuSans-19" transform="translate(95.40625 0)"/>
      </g>
     </g>
    </g>
    <g id="ytick_5">
     <g id="line2d_14">
      <g>
       <use xlink:href="#m6d32a38988" x="39.904146" y="95.78214" style="stroke: #000000; stroke-width: 0.8"/>
      </g>
     </g>
     <g id="text_15">
      <!-- 0.8 -->
      <g transform="translate(17.001021 99.580968) scale(0.1 -0.1)">
       <use xlink:href="#DejaVuSans-13"/>
       <use xlink:href="#DejaVuSans-11" transform="translate(63.625 0)"/>
       <use xlink:href="#DejaVuSans-1b" transform="translate(95.40625 0)"/>
      </g>
     </g>
    </g>
    <g id="ytick_6">
     <g id="line2d_15">
      <g>
       <use xlink:href="#m6d32a38988" x="39.904146" y="40.308015" style="stroke: #000000; stroke-width: 0.8"/>
      </g>
     </g>
     <g id="text_16">
      <!-- 1.0 -->
      <g transform="translate(17.001021 44.106843) scale(0.1 -0.1)">
       <use xlink:href="#DejaVuSans-14"/>
       <use xlink:href="#DejaVuSans-11" transform="translate(63.625 0)"/>
       <use xlink:href="#DejaVuSans-13" transform="translate(95.40625 0)"/>
      </g>
     </g>
    </g>
    <g id="text_17">
     <!-- normalized timing shape -->
     <g transform="translate(10.598678 234.060625) rotate(-90) scale(0.1 -0.1)">
      <defs>
       <path id="DejaVuSans-51" d="M 3513 2113
L 3513 0
L 2938 0
L 2938 2094
Q 2938 2591 2744 2837
Q 2550 3084 2163 3084
Q 1697 3084 1428 2787
Q 1159 2491 1159 1978
L 1159 0
L 581 0
L 581 3500
L 1159 3500
L 1159 2956
Q 1366 3272 1645 3428
Q 1925 3584 2291 3584
Q 2894 3584 3203 3211
Q 3513 2838 3513 2113
z
" transform="scale(0.015625)"/>
       <path id="DejaVuSans-52" d="M 1959 3097
Q 1497 3097 1228 2736
Q 959 2375 959 1747
Q 959 1119 1226 758
Q 1494 397 1959 397
Q 2419 397 2687 759
Q 2956 1122 2956 1747
Q 2956 2369 2687 2733
Q 2419 3097 1959 3097
z
M 1959 3584
Q 2709 3584 3137 3096
Q 3566 2609 3566 1747
Q 3566 888 3137 398
Q 2709 -91 1959 -91
Q 1206 -91 779 398
Q 353 888 353 1747
Q 353 2609 779 3096
Q 1206 3584 1959 3584
z
" transform="scale(0.015625)"/>
       <path id="DejaVuSans-55" d="M 2631 2963
Q 2534 3019 2420 3045
Q 2306 3072 2169 3072
Q 1681 3072 1420 2755
Q 1159 2438 1159 1844
L 1159 0
L 581 0
L 581 3500
L 1159 3500
L 1159 2956
Q 1341 3275 1631 3429
Q 1922 3584 2338 3584
Q 2397 3584 2469 3576
Q 2541 3569 2628 3553
L 2631 2963
z
" transform="scale(0.015625)"/>
       <path id="DejaVuSans-50" d="M 3328 2828
Q 3544 3216 3844 3400
Q 4144 3584 4550 3584
Q 5097 3584 5394 3201
Q 5691 2819 5691 2113
L 5691 0
L 5113 0
L 5113 2094
Q 5113 2597 4934 2840
Q 4756 3084 4391 3084
Q 3944 3084 3684 2787
Q 3425 2491 3425 1978
L 3425 0
L 2847 0
L 2847 2094
Q 2847 2600 2669 2842
Q 2491 3084 2119 3084
Q 1678 3084 1418 2786
Q 1159 2488 1159 1978
L 1159 0
L 581 0
L 581 3500
L 1159 3500
L 1159 2956
Q 1356 3278 1631 3431
Q 1906 3584 2284 3584
Q 2666 3584 2933 3390
Q 3200 3197 3328 2828
z
" transform="scale(0.015625)"/>
       <path id="DejaVuSans-44" d="M 2194 1759
Q 1497 1759 1228 1600
Q 959 1441 959 1056
Q 959 750 1161 570
Q 1363 391 1709 391
Q 2188 391 2477 730
Q 2766 1069 2766 1631
L 2766 1759
L 2194 1759
z
M 3341 1997
L 3341 0
L 2766 0
L 2766 531
Q 2569 213 2275 61
Q 1981 -91 1556 -91
Q 1019 -91 701 211
Q 384 513 384 1019
Q 384 1609 779 1909
Q 1175 2209 1959 2209
L 2766 2209
L 2766 2266
Q 2766 2663 2505 2880
Q 2244 3097 1772 3097
Q 1472 3097 1187 3025
Q 903 2953 641 2809
L 641 3341
Q 956 3463 1253 3523
Q 1550 3584 1831 3584
Q 2591 3584 2966 3190
Q 3341 2797 3341 1997
z
" transform="scale(0.015625)"/>
       <path id="DejaVuSans-4f" d="M 603 4863
L 1178 4863
L 1178 0
L 603 0
L 603 4863
z
" transform="scale(0.015625)"/>
       <path id="DejaVuSans-4c" d="M 603 3500
L 1178 3500
L 1178 0
L 603 0
L 603 3500
z
M 603 4863
L 1178 4863
L 1178 4134
L 603 4134
L 603 4863
z
" transform="scale(0.015625)"/>
       <path id="DejaVuSans-48" d="M 3597 1894
L 3597 1613
L 953 1613
Q 991 1019 1311 708
Q 1631 397 2203 397
Q 2534 397 2845 478
Q 3156 559 3463 722
L 3463 178
Q 3153 47 2828 -22
Q 2503 -91 2169 -91
Q 1331 -91 842 396
Q 353 884 353 1716
Q 353 2575 817 3079
Q 1281 3584 2069 3584
Q 2775 3584 3186 3129
Q 3597 2675 3597 1894
z
M 3022 2063
Q 3016 2534 2758 2815
Q 2500 3097 2075 3097
Q 1594 3097 1305 2825
Q 1016 2553 972 2059
L 3022 2063
z
" transform="scale(0.015625)"/>
       <path id="DejaVuSans-47" d="M 2906 2969
L 2906 4863
L 3481 4863
L 3481 0
L 2906 0
L 2906 525
Q 2725 213 2448 61
Q 2172 -91 1784 -91
Q 1150 -91 751 415
Q 353 922 353 1747
Q 353 2572 751 3078
Q 1150 3584 1784 3584
Q 2172 3584 2448 3432
Q 2725 3281 2906 2969
z
M 947 1747
Q 947 1113 1208 752
Q 1469 391 1925 391
Q 2381 391 2643 752
Q 2906 1113 2906 1747
Q 2906 2381 2643 2742
Q 2381 3103 1925 3103
Q 1469 3103 1208 2742
Q 947 2381 947 1747
z
" transform="scale(0.015625)"/>
       <path id="DejaVuSans-3" transform="scale(0.015625)"/>
       <path id="DejaVuSans-57" d="M 1172 4494
L 1172 3500
L 2356 3500
L 2356 3053
L 1172 3053
L 1172 1153
Q 1172 725 1289 603
Q 1406 481 1766 481
L 2356 481
L 2356 0
L 1766 0
Q 1100 0 847 248
Q 594 497 594 1153
L 594 3053
L 172 3053
L 172 3500
L 594 3500
L 594 4494
L 1172 4494
z
" transform="scale(0.015625)"/>
       <path id="DejaVuSans-4a" d="M 2906 1791
Q 2906 2416 2648 2759
Q 2391 3103 1925 3103
Q 1463 3103 1205 2759
Q 947 2416 947 1791
Q 947 1169 1205 825
Q 1463 481 1925 481
Q 2391 481 2648 825
Q 2906 1169 2906 1791
z
M 3481 434
Q 3481 -459 3084 -895
Q 2688 -1331 1869 -1331
Q 1566 -1331 1297 -1286
Q 1028 -1241 775 -1147
L 775 -588
Q 1028 -725 1275 -790
Q 1522 -856 1778 -856
Q 2344 -856 2625 -561
Q 2906 -266 2906 331
L 2906 616
Q 2728 306 2450 153
Q 2172 0 1784 0
Q 1141 0 747 490
Q 353 981 353 1791
Q 353 2603 747 3093
Q 1141 3584 1784 3584
Q 2172 3584 2450 3431
Q 2728 3278 2906 2969
L 2906 3500
L 3481 3500
L 3481 434
z
" transform="scale(0.015625)"/>
       <path id="DejaVuSans-56" d="M 2834 3397
L 2834 2853
Q 2591 2978 2328 3040
Q 2066 3103 1784 3103
Q 1356 3103 1142 2972
Q 928 2841 928 2578
Q 928 2378 1081 2264
Q 1234 2150 1697 2047
L 1894 2003
Q 2506 1872 2764 1633
Q 3022 1394 3022 966
Q 3022 478 2636 193
Q 2250 -91 1575 -91
Q 1294 -91 989 -36
Q 684 19 347 128
L 347 722
Q 666 556 975 473
Q 1284 391 1588 391
Q 1994 391 2212 530
Q 2431 669 2431 922
Q 2431 1156 2273 1281
Q 2116 1406 1581 1522
L 1381 1569
Q 847 1681 609 1914
Q 372 2147 372 2553
Q 372 3047 722 3315
Q 1072 3584 1716 3584
Q 2034 3584 2315 3537
Q 2597 3491 2834 3397
z
" transform="scale(0.015625)"/>
       <path id="DejaVuSans-4b" d="M 3513 2113
L 3513 0
L 2938 0
L 2938 2094
Q 2938 2591 2744 2837
Q 2550 3084 2163 3084
Q 1697 3084 1428 2787
Q 1159 2491 1159 1978
L 1159 0
L 581 0
L 581 4863
L 1159 4863
L 1159 2956
Q 1366 3272 1645 3428
Q 1925 3584 2291 3584
Q 2894 3584 3203 3211
Q 3513 2838 3513 2113
z
" transform="scale(0.015625)"/>
       <path id="DejaVuSans-53" d="M 1159 525
L 1159 -1331
L 581 -1331
L 581 3500
L 1159 3500
L 1159 2969
Q 1341 3281 1617 3432
Q 1894 3584 2278 3584
Q 2916 3584 3314 3078
Q 3713 2572 3713 1747
Q 3713 922 3314 415
Q 2916 -91 2278 -91
Q 1894 -91 1617 61
Q 1341 213 1159 525
z
M 3116 1747
Q 3116 2381 2855 2742
Q 2594 3103 2138 3103
Q 1681 3103 1420 2742
Q 1159 2381 1159 1747
Q 1159 1113 1420 752
Q 1681 391 2138 391
Q 2594 391 2855 752
Q 3116 1113 3116 1747
z
" transform="scale(0.015625)"/>
      </defs>
      <use xlink:href="#DejaVuSans-51"/>
      <use xlink:href="#DejaVuSans-52" transform="translate(63.375 0)"/>
      <use xlink:href="#DejaVuSans-55" transform="translate(124.5625 0)"/>
      <use xlink:href="#DejaVuSans-50" transform="translate(163.921875 0)"/>
      <use xlink:href="#DejaVuSans-44" transform="translate(261.328125 0)"/>
      <use xlink:href="#DejaVuSans-4f" transform="translate(322.609375 0)"/>
      <use xlink:href="#DejaVuSans-4c" transform="translate(350.390625 0)"/>
      <use xlink:href="#DejaVuSans-5d" transform="translate(378.171875 0)"/>
      <use xlink:href="#DejaVuSans-48" transform="translate(430.65625 0)"/>
      <use xlink:href="#DejaVuSans-47" transform="translate(492.1875 0)"/>
      <use xlink:href="#DejaVuSans-3" transform="translate(555.671875 0)"/>
      <use xlink:href="#DejaVuSans-57" transform="translate(587.453125 0)"/>
      <use xlink:href="#DejaVuSans-4c" transform="translate(626.65625 0)"/>
      <use xlink:href="#DejaVuSans-50" transform="translate(654.4375 0)"/>
      <use xlink:href="#DejaVuSans-4c" transform="translate(751.84375 0)"/>
      <use xlink:href="#DejaVuSans-51" transform="translate(779.625 0)"/>
      <use xlink:href="#DejaVuSans-4a" transform="translate(843 0)"/>
      <use xlink:href="#DejaVuSans-3" transform="translate(906.484375 0)"/>
      <use xlink:href="#DejaVuSans-56" transform="translate(938.265625 0)"/>
      <use xlink:href="#DejaVuSans-4b" transform="translate(990.359375 0)"/>
      <use xlink:href="#DejaVuSans-44" transform="translate(1053.734375 0)"/>
      <use xlink:href="#DejaVuSans-53" transform="translate(1115.015625 0)"/>
      <use xlink:href="#DejaVuSans-48" transform="translate(1178.5 0)"/>
     </g>
    </g>
   </g>
   <g id="line2d_16">
    <path d="M -1 310.692475
L 13.57461 309.175267
L 24.299883 307.878942
L 34.86164 306.438813
L 45.262372 304.846624
L 55.504536 303.094546
L 65.590547 301.175278
L 75.522788 299.082143
L 85.303603 296.809181
L 94.935299 294.351234
L 104.420151 291.704025
L 113.760398 288.864219
L 122.958243 285.82949
L 132.015859 282.598559
L 140.935382 279.171234
L 149.718919 275.54843
L 158.368543 271.732183
L 166.886294 267.725643
L 175.274185 263.533067
L 183.534194 259.159794
L 191.668271 254.612207
L 199.678337 249.897691
L 207.566281 245.02458
L 215.333966 240.002092
L 222.983226 234.840268
L 230.515865 229.54989
L 237.933661 224.142406
L 248.84885 215.838062
L 259.515374 207.340031
L 269.938898 198.69279
L 280.124958 189.94202
L 290.078964 181.13397
L 302.999118 169.380576
L 318.600922 154.824525
L 367.380533 108.92351
L 377.961583 99.398974
L 388.222455 90.495895
L 395.713833 84.254994
L 403.034546 78.40632
L 410.188481 72.962883
L 417.179438 67.934735
L 424.011131 63.329098
L 430.687188 59.150529
L 437.211153 55.401085
L 443.586492 52.080509
L 449.816592 49.186415
L 455.90476 46.71448
L 459.886287 45.298127
L 463.807113 44.064547
L 467.668162 43.011267
L 471.470345 42.135557
L 475.214561 41.434451
L 478.901692 40.90477
L 482.532609 40.543142
L 486.10817 40.346028
L 489.629218 40.309736
L 493.096584 40.430444
L 496.511087 40.704218
L 499.873533 41.127027
L 503.184714 41.694761
L 508.057074 42.808951
L 512.818434 44.225533
L 517.471322 45.930068
L 522.018211 47.908048
L 526.461514 50.144979
L 530.803593 52.626443
L 535.046752 55.33816
L 539.193245 58.26604
L 543.245274 61.396218
L 547.204993 64.715095
L 551.074502 68.209362
L 554.855858 71.86602
L 559.764004 76.972322
L 564.523631 82.315742
L 569.139235 87.868289
L 573.615173 93.603079
L 577.955671 99.494343
L 583.197064 107.040984
L 588.24096 114.747853
L 593.094801 122.571773
L 598.678602 132.058012
L 604.010886 141.589238
L 609.92908 152.686284
L 615.537447 163.677652
L 621.588396 176.013915
L 628.647457 190.960155
L 636.432803 208.018064
L 641.81851 220.093208
L 641.81851 220.093208
" clip-path="url(#p00b92f7d92)" style="fill: none; stroke: #1f77b4; stroke-width: 2.4; stroke-linecap: square"/>
   </g>
   <g id="line2d_17">
    <path d="M -1 40.308015
L 641.81851 40.308015
L 641.81851 40.308015
" clip-path="url(#p00b92f7d92)" style="fill: none; stroke: #ff7f0e; stroke-width: 1.5; stroke-linecap: square"/>
   </g>
   <g id="line2d_18">
    <path d="M -1 211.341876
L 40.08198 208.646164
L 80.431979 205.76097
L 118.376984 202.799428
L 149.718919 200.143864
L 179.420052 197.426913
L 207.566281 194.647157
L 234.239008 191.803143
L 259.515374 188.893387
L 283.46848 185.916369
L 306.167601 182.870533
L 327.678386 179.75429
L 348.063045 176.566011
L 367.380533 173.304031
L 385.686719 169.966646
L 403.034546 166.552115
L 419.474185 163.058652
L 432.878569 160.000051
L 445.679165 156.880947
L 457.90317 153.700143
L 469.576555 150.456417
L 480.724124 147.148527
L 491.36956 143.775201
L 501.535482 140.335146
L 511.24349 136.827043
L 520.514209 133.249544
L 529.367337 129.601277
L 537.821684 125.880842
L 545.895213 122.086812
L 553.605076 118.21773
L 560.967656 114.272113
L 567.998595 110.248446
L 574.712832 106.145185
L 581.124633 101.960756
L 587.247619 97.693552
L 593.094801 93.341938
L 598.678602 88.904242
L 604.010886 84.378763
L 609.102982 79.763763
L 613.965709 75.057473
L 618.609399 70.258085
L 623.043918 65.363758
L 627.278689 60.372615
L 631.322707 55.28274
L 635.184567 50.09218
L 638.872473 44.798943
L 641.81851 40.308015
L 641.81851 40.308015
" clip-path="url(#p00b92f7d92)" style="fill: none; stroke: #2ca02c; stroke-width: 1.5; stroke-linecap: square"/>
   </g>
   <g id="line2d_19">
    <path d="M -1 276.115492
L 18.957844 273.301952
L 34.86164 270.87306
L 50.403123 268.325382
L 65.590547 265.654763
L 80.431979 262.857107
L 94.935299 259.928403
L 109.108212 256.864762
L 122.958243 253.66245
L 136.49275 250.317935
L 149.718919 246.827933
L 162.643776 243.189451
L 175.274185 239.399849
L 187.616853 235.456894
L 199.678337 231.35882
L 211.465041 227.104403
L 222.983226 222.69302
L 234.239008 218.12473
L 245.238367 213.400348
L 255.987143 208.521522
L 266.491046 203.490817
L 276.755653 198.311792
L 286.786417 192.989082
L 296.588664 187.528479
L 306.167601 181.937006
L 315.528315 176.222987
L 324.675778 170.396118
L 333.614847 164.467519
L 342.35027 158.449786
L 350.886687 152.357022
L 361.966832 144.143866
L 372.711697 135.866592
L 383.131429 127.57127
L 395.713833 117.254315
L 412.536724 103.104364
L 437.211153 82.292108
L 447.755824 73.719453
L 455.90476 67.384408
L 461.85423 62.980391
L 467.668162 58.90288
L 473.349643 55.176468
L 478.901692 51.824165
L 484.327256 48.867104
L 489.629218 46.324269
L 493.096584 44.867466
L 496.511087 43.606459
L 499.873533 42.544975
L 503.184714 41.68617
L 506.445414 41.03261
L 509.656401 40.586259
L 512.818434 40.348459
L 515.932258 40.319929
L 518.998609 40.500753
L 522.018211 40.890387
L 524.991776 41.487657
L 527.920006 42.290768
L 530.803593 43.297316
L 533.643216 44.504305
L 536.439547 45.90816
L 539.193245 47.504756
L 541.90496 49.28944
L 544.575332 51.257059
L 547.204993 53.401994
L 549.794561 55.71819
L 553.605076 59.499382
L 557.328782 63.628037
L 560.967656 68.079347
L 564.523631 72.827267
L 567.998595 77.844813
L 571.394395 83.104372
L 574.712832 88.577987
L 579.020116 96.160715
L 583.197064 104.008468
L 587.247619 112.057154
L 592.13889 122.307083
L 596.845856 132.662106
L 602.260694 145.082278
L 609.102982 161.378779
L 619.362752 186.522303
L 630.661581 214.126957
L 637.049766 229.187456
L 641.81851 239.984494
L 641.81851 239.984494
" clip-path="url(#p00b92f7d92)" style="fill: none; stroke: #d62728; stroke-width: 1.5; stroke-linecap: square"/>
   </g>
   <g id="line2d_20">
    <path d="M -1 285.521951
L 13.57461 283.221217
L 29.601045 280.485376
L 45.262372 277.58951
L 60.566911 274.529732
L 75.522788 271.302583
L 90.137948 267.905083
L 104.420151 264.33479
L 118.376984 260.589844
L 132.015859 256.669032
L 145.344019 252.571828
L 158.368543 248.298454
L 171.096348 243.849922
L 183.534194 239.228084
L 195.688687 234.43567
L 207.566281 229.476334
L 219.173286 224.354682
L 230.515865 219.076306
L 241.600042 213.647807
L 252.431705 208.076813
L 263.016606 202.371992
L 273.360366 196.543056
L 283.46848 190.600759
L 293.346315 184.556888
L 302.999118 178.424241
L 312.432015 172.216605
L 324.675778 163.848715
L 336.549051 155.411247
L 348.063045 146.94427
L 359.228631 138.490229
L 372.711697 128.00883
L 390.738788 113.658808
L 424.011131 87.052927
L 435.053181 78.538467
L 443.586492 72.202061
L 451.86159 66.335609
L 459.886287 60.980396
L 465.745052 57.322647
L 471.470345 53.988983
L 477.065207 50.993113
L 482.532609 48.347459
L 487.875456 46.063072
L 493.096584 44.149551
L 498.198767 42.614981
L 501.535482 41.805744
L 504.821326 41.169388
L 508.057074 40.707118
L 511.24349 40.419812
L 514.381326 40.308015
L 517.471322 40.37194
L 520.514209 40.611465
L 523.510704 41.026135
L 526.461514 41.615164
L 529.367337 42.377433
L 532.228858 43.311502
L 535.046752 44.415605
L 537.821684 45.687663
L 540.55431 47.125285
L 543.245274 48.725781
L 545.895213 50.486164
L 548.50475 52.403167
L 552.344649 55.564506
L 556.097069 59.057145
L 559.764004 62.866784
L 563.3474 66.977978
L 566.84916 71.374242
L 570.271146 76.038161
L 573.615173 80.951502
L 576.883017 86.095339
L 580.076416 91.450163
L 584.2214 98.883586
L 588.24096 106.608404
L 592.13889 114.575914
L 596.845856 124.802374
L 601.375464 135.237857
L 606.58627 147.907671
L 611.56236 160.595972
L 617.850237 177.301793
L 625.888729 199.385048
L 639.470767 236.781177
L 641.81851 243.02319
L 641.81851 243.02319
" clip-path="url(#p00b92f7d92)" style="fill: none; stroke: #9467bd; stroke-width: 1.5; stroke-linecap: square"/>
   </g>
   <g id="line2d_21">
    <path d="M -1 304.669209
L 45.262372 301.156164
L 75.522788 298.724605
L 80.431979 297.322864
L 99.69594 288.72646
L 118.376984 280.130056
L 136.49275 271.533651
L 154.060342 262.937247
L 171.096348 254.340842
L 187.616853 245.744438
L 203.637457 237.148033
L 219.173286 228.551629
L 234.239008 219.955224
L 248.84885 211.35882
L 263.016606 202.762416
L 269.938898 198.397152
L 283.46848 187.923043
L 296.588664 177.448934
L 309.311838 166.974825
L 321.650016 156.500716
L 333.614847 146.026606
L 345.217628 135.552497
L 356.469316 125.078388
L 367.380533 114.604279
L 377.961583 104.13017
L 388.222455 93.656061
L 398.172839 83.181951
L 403.034546 77.944897
L 405.437532 76.6254
L 419.474185 71.826092
L 432.878569 67.026785
L 445.679165 62.227477
L 457.90317 57.428169
L 469.576555 52.628862
L 480.724124 47.829554
L 491.36956 43.030246
L 496.511087 40.630593
L 498.198767 40.308015
L 508.057074 45.532155
L 517.471322 50.756295
L 526.461514 55.980436
L 535.046752 61.204576
L 543.245274 66.428716
L 551.074502 71.652856
L 558.55107 76.876996
L 563.3474 80.359756
L 565.690862 83.326389
L 572.509048 92.509037
L 579.020116 101.691686
L 585.237899 110.874335
L 591.175607 120.056983
L 596.845856 129.239632
L 602.260694 138.42228
L 607.431626 147.604929
L 617.085222 165.405813
L 622.318952 175.699869
L 627.278689 185.993925
L 631.978774 196.287981
L 636.432803 206.582037
L 640.653656 216.876093
L 641.81851 219.817252
L 641.81851 219.817252
" clip-path="url(#p00b92f7d92)" style="fill: none; stroke: #8c564b; stroke-width: 1.5; stroke-linecap: square"/>
   </g>
   <g id="patch_3">
    <path d="M 39.904146 325.99976
L 39.904146 18.118365
" style="fill: none; stroke: #000000; stroke-width: 0.8; stroke-linejoin: miter; stroke-linecap: square"/>
   </g>
   <g id="patch_4">
    <path d="M 641.81851 325.99976
L 641.81851 18.118365
" style="fill: none; stroke: #000000; stroke-width: 0.8; stroke-linejoin: miter; stroke-linecap: square"/>
   </g>
   <g id="patch_5">
    <path d="M 39.904146 325.99976
L 641.81851 325.99976
" style="fill: none; stroke: #000000; stroke-width: 0.8; stroke-linejoin: miter; stroke-linecap: square"/>
   </g>
   <g id="patch_6">
    <path d="M 39.904146 18.118365
L 641.81851 18.118365
" style="fill: none; stroke: #000000; stroke-width: 0.8; stroke-linejoin: miter; stroke-linecap: square"/>
   </g>
   <g id="text_18">
    <!-- Exp 005 retained timing prior vs reference families -->
    <g transform="translate(187.882891 12.118365) scale(0.12 -0.12)">
     <defs>
      <path id="DejaVuSans-28" d="M 628 4666
L 3578 4666
L 3578 4134
L 1259 4134
L 1259 2753
L 3481 2753
L 3481 2222
L 1259 2222
L 1259 531
L 3634 531
L 3634 0
L 628 0
L 628 4666
z
" transform="scale(0.015625)"/>
      <path id="DejaVuSans-5b" d="M 3513 3500
L 2247 1797
L 3578 0
L 2900 0
L 1881 1375
L 863 0
L 184 0
L 1544 1831
L 300 3500
L 978 3500
L 1906 2253
L 2834 3500
L 3513 3500
z
" transform="scale(0.015625)"/>
      <path id="DejaVuSans-59" d="M 191 3500
L 800 3500
L 1894 563
L 2988 3500
L 3597 3500
L 2284 0
L 1503 0
L 191 3500
z
" transform="scale(0.015625)"/>
      <path id="DejaVuSans-49" d="M 2375 4863
L 2375 4384
L 1825 4384
Q 1516 4384 1395 4259
Q 1275 4134 1275 3809
L 1275 3500
L 2222 3500
L 2222 3053
L 1275 3053
L 1275 0
L 697 0
L 697 3053
L 147 3053
L 147 3500
L 697 3500
L 697 3744
Q 697 4328 969 4595
Q 1241 4863 1831 4863
L 2375 4863
z
" transform="scale(0.015625)"/>
      <path id="DejaVuSans-46" d="M 3122 3366
L 3122 2828
Q 2878 2963 2633 3030
Q 2388 3097 2138 3097
Q 1578 3097 1268 2742
Q 959 2388 959 1747
Q 959 1106 1268 751
Q 1578 397 2138 397
Q 2388 397 2633 464
Q 2878 531 3122 666
L 3122 134
Q 2881 22 2623 -34
Q 2366 -91 2075 -91
Q 1284 -91 818 406
Q 353 903 353 1747
Q 353 2603 823 3093
Q 1294 3584 2113 3584
Q 2378 3584 2631 3529
Q 2884 3475 3122 3366
z
" transform="scale(0.015625)"/>
     </defs>
     <use xlink:href="#DejaVuSans-28"/>
     <use xlink:href="#DejaVuSans-5b" transform="translate(63.1875 0)"/>
     <use xlink:href="#DejaVuSans-53" transform="translate(122.375 0)"/>
     <use xlink:href="#DejaVuSans-3" transform="translate(185.859375 0)"/>
     <use xlink:href="#DejaVuSans-13" transform="translate(217.640625 0)"/>
     <use xlink:href="#DejaVuSans-13" transform="translate(281.265625 0)"/>
     <use xlink:href="#DejaVuSans-18" transform="translate(344.890625 0)"/>
     <use xlink:href="#DejaVuSans-3" transform="translate(408.515625 0)"/>
     <use xlink:href="#DejaVuSans-55" transform="translate(440.296875 0)"/>
     <use xlink:href="#DejaVuSans-48" transform="translate(479.203125 0)"/>
     <use xlink:href="#DejaVuSans-57" transform="translate(540.734375 0)"/>
     <use xlink:href="#DejaVuSans-44" transform="translate(579.9375 0)"/>
     <use xlink:href="#DejaVuSans-4c" transform="translate(641.21875 0)"/>
     <use xlink:href="#DejaVuSans-51" transform="translate(669 0)"/>
     <use xlink:href="#DejaVuSans-48" transform="translate(732.375 0)"/>
     <use xlink:href="#DejaVuSans-47" transform="translate(793.90625 0)"/>
     <use xlink:href="#DejaVuSans-3" transform="translate(857.390625 0)"/>
     <use xlink:href="#DejaVuSans-57" transform="translate(889.171875 0)"/>
     <use xlink:href="#DejaVuSans-4c" transform="translate(928.375 0)"/>
     <use xlink:href="#DejaVuSans-50" transform="translate(956.15625 0)"/>
     <use xlink:href="#DejaVuSans-4c" transform="translate(1053.5625 0)"/>
     <use xlink:href="#DejaVuSans-51" transform="translate(1081.34375 0)"/>
     <use xlink:href="#DejaVuSans-4a" transform="translate(1144.71875 0)"/>
     <use xlink:href="#DejaVuSans-3" transform="translate(1208.203125 0)"/>
     <use xlink:href="#DejaVuSans-53" transform="translate(1239.984375 0)"/>
     <use xlink:href="#DejaVuSans-55" transform="translate(1303.46875 0)"/>
     <use xlink:href="#DejaVuSans-4c" transform="translate(1344.578125 0)"/>
     <use xlink:href="#DejaVuSans-52" transform="translate(1372.359375 0)"/>
     <use xlink:href="#DejaVuSans-55" transform="translate(1433.546875 0)"/>
     <use xlink:href="#DejaVuSans-3" transform="translate(1474.65625 0)"/>
     <use xlink:href="#DejaVuSans-59" transform="translate(1506.4375 0)"/>
     <use xlink:href="#DejaVuSans-56" transform="translate(1565.625 0)"/>
     <use xlink:href="#DejaVuSans-3" transform="translate(1617.71875 0)"/>
     <use xlink:href="#DejaVuSans-55" transform="translate(1649.5 0)"/>
     <use xlink:href="#DejaVuSans-48" transform="translate(1688.40625 0)"/>
     <use xlink:href="#DejaVuSans-49" transform="translate(1749.9375 0)"/>
     <use xlink:href="#DejaVuSans-48" transform="translate(1785.140625 0)"/>
     <use xlink:href="#DejaVuSans-55" transform="translate(1846.671875 0)"/>
     <use xlink:href="#DejaVuSans-48" transform="translate(1885.578125 0)"/>
     <use xlink:href="#DejaVuSans-51" transform="translate(1947.109375 0)"/>
     <use xlink:href="#DejaVuSans-46" transform="translate(2010.484375 0)"/>
     <use xlink:href="#DejaVuSans-48" transform="translate(2065.46875 0)"/>
     <use xlink:href="#DejaVuSans-3" transform="translate(2127 0)"/>
     <use xlink:href="#DejaVuSans-49" transform="translate(2158.78125 0)"/>
     <use xlink:href="#DejaVuSans-44" transform="translate(2193.984375 0)"/>
     <use xlink:href="#DejaVuSans-50" transform="translate(2255.265625 0)"/>
     <use xlink:href="#DejaVuSans-4c" transform="translate(2352.671875 0)"/>
     <use xlink:href="#DejaVuSans-4f" transform="translate(2380.453125 0)"/>
     <use xlink:href="#DejaVuSans-4c" transform="translate(2408.234375 0)"/>
     <use xlink:href="#DejaVuSans-48" transform="translate(2436.015625 0)"/>
     <use xlink:href="#DejaVuSans-56" transform="translate(2497.546875 0)"/>
    </g>
   </g>
   <g id="legend_1">
    <g id="line2d_22">
     <path d="M 484.80476 254.07476
L 492.80476 254.07476
L 500.80476 254.07476
" style="fill: none; stroke: #1f77b4; stroke-width: 2.4; stroke-linecap: square"/>
    </g>
    <g id="text_19">
     <!-- retained normalized Gamma(a) -->
     <g transform="translate(507.20476 256.87476) scale(0.08 -0.08)">
      <defs>
       <path id="DejaVuSans-2a" d="M 3809 666
L 3809 1919
L 2778 1919
L 2778 2438
L 4434 2438
L 4434 434
Q 4069 175 3628 42
Q 3188 -91 2688 -91
Q 1594 -91 976 548
Q 359 1188 359 2328
Q 359 3472 976 4111
Q 1594 4750 2688 4750
Q 3144 4750 3555 4637
Q 3966 4525 4313 4306
L 4313 3634
Q 3963 3931 3569 4081
Q 3175 4231 2741 4231
Q 1884 4231 1454 3753
Q 1025 3275 1025 2328
Q 1025 1384 1454 906
Q 1884 428 2741 428
Q 3075 428 3337 486
Q 3600 544 3809 666
z
" transform="scale(0.015625)"/>
       <path id="DejaVuSans-b" d="M 1984 4856
Q 1566 4138 1362 3434
Q 1159 2731 1159 2009
Q 1159 1288 1364 580
Q 1569 -128 1984 -844
L 1484 -844
Q 1016 -109 783 600
Q 550 1309 550 2009
Q 550 2706 781 3412
Q 1013 4119 1484 4856
L 1984 4856
z
" transform="scale(0.015625)"/>
       <path id="DejaVuSans-c" d="M 513 4856
L 1013 4856
Q 1481 4119 1714 3412
Q 1947 2706 1947 2009
Q 1947 1309 1714 600
Q 1481 -109 1013 -844
L 513 -844
Q 928 -128 1133 580
Q 1338 1288 1338 2009
Q 1338 2731 1133 3434
Q 928 4138 513 4856
z
" transform="scale(0.015625)"/>
      </defs>
      <use xlink:href="#DejaVuSans-55"/>
      <use xlink:href="#DejaVuSans-48" transform="translate(38.90625 0)"/>
      <use xlink:href="#DejaVuSans-57" transform="translate(100.4375 0)"/>
      <use xlink:href="#DejaVuSans-44" transform="translate(139.640625 0)"/>
      <use xlink:href="#DejaVuSans-4c" transform="translate(200.921875 0)"/>
      <use xlink:href="#DejaVuSans-51" transform="translate(228.703125 0)"/>
      <use xlink:href="#DejaVuSans-48" transform="translate(292.078125 0)"/>
      <use xlink:href="#DejaVuSans-47" transform="translate(353.609375 0)"/>
      <use xlink:href="#DejaVuSans-3" transform="translate(417.09375 0)"/>
      <use xlink:href="#DejaVuSans-51" transform="translate(448.875 0)"/>
      <use xlink:href="#DejaVuSans-52" transform="translate(512.25 0)"/>
      <use xlink:href="#DejaVuSans-55" transform="translate(573.4375 0)"/>
      <use xlink:href="#DejaVuSans-50" transform="translate(612.796875 0)"/>
      <use xlink:href="#DejaVuSans-44" transform="translate(710.203125 0)"/>
      <use xlink:href="#DejaVuSans-4f" transform="translate(771.484375 0)"/>
      <use xlink:href="#DejaVuSans-4c" transform="translate(799.265625 0)"/>
      <use xlink:href="#DejaVuSans-5d" transform="translate(827.046875 0)"/>
      <use xlink:href="#DejaVuSans-48" transform="translate(879.53125 0)"/>
      <use xlink:href="#DejaVuSans-47" transform="translate(941.0625 0)"/>
      <use xlink:href="#DejaVuSans-3" transform="translate(1004.546875 0)"/>
      <use xlink:href="#DejaVuSans-2a" transform="translate(1036.328125 0)"/>
      <use xlink:href="#DejaVuSans-44" transform="translate(1113.8125 0)"/>
      <use xlink:href="#DejaVuSans-50" transform="translate(1175.09375 0)"/>
      <use xlink:href="#DejaVuSans-50" transform="translate(1272.5 0)"/>
      <use xlink:href="#DejaVuSans-44" transform="translate(1369.90625 0)"/>
      <use xlink:href="#DejaVuSans-b" transform="translate(1431.1875 0)"/>
      <use xlink:href="#DejaVuSans-44" transform="translate(1470.203125 0)"/>
      <use xlink:href="#DejaVuSans-c" transform="translate(1531.484375 0)"/>
     </g>
    </g>
    <g id="line2d_23">
     <path d="M 484.80476 266.075385
L 492.80476 266.075385
L 500.80476 266.075385
" style="fill: none; stroke: #ff7f0e; stroke-width: 1.5; stroke-linecap: square"/>
    </g>
    <g id="text_20">
     <!-- constant coupling -->
     <g transform="translate(507.20476 268.875385) scale(0.08 -0.08)">
      <defs>
       <path id="DejaVuSans-58" d="M 544 1381
L 544 3500
L 1119 3500
L 1119 1403
Q 1119 906 1312 657
Q 1506 409 1894 409
Q 2359 409 2629 706
Q 2900 1003 2900 1516
L 2900 3500
L 3475 3500
L 3475 0
L 2900 0
L 2900 538
Q 2691 219 2414 64
Q 2138 -91 1772 -91
Q 1169 -91 856 284
Q 544 659 544 1381
z
M 1991 3584
L 1991 3584
z
" transform="scale(0.015625)"/>
      </defs>
      <use xlink:href="#DejaVuSans-46"/>
      <use xlink:href="#DejaVuSans-52" transform="translate(54.984375 0)"/>
      <use xlink:href="#DejaVuSans-51" transform="translate(116.171875 0)"/>
      <use xlink:href="#DejaVuSans-56" transform="translate(179.546875 0)"/>
      <use xlink:href="#DejaVuSans-57" transform="translate(231.640625 0)"/>
      <use xlink:href="#DejaVuSans-44" transform="translate(270.84375 0)"/>
      <use xlink:href="#DejaVuSans-51" transform="translate(332.125 0)"/>
      <use xlink:href="#DejaVuSans-57" transform="translate(395.5 0)"/>
      <use xlink:href="#DejaVuSans-3" transform="translate(434.703125 0)"/>
      <use xlink:href="#DejaVuSans-46" transform="translate(466.484375 0)"/>
      <use xlink:href="#DejaVuSans-52" transform="translate(521.46875 0)"/>
      <use xlink:href="#DejaVuSans-58" transform="translate(582.65625 0)"/>
      <use xlink:href="#DejaVuSans-53" transform="translate(646.03125 0)"/>
      <use xlink:href="#DejaVuSans-4f" transform="translate(709.515625 0)"/>
      <use xlink:href="#DejaVuSans-4c" transform="translate(737.296875 0)"/>
      <use xlink:href="#DejaVuSans-51" transform="translate(765.078125 0)"/>
      <use xlink:href="#DejaVuSans-4a" transform="translate(828.453125 0)"/>
     </g>
    </g>
    <g id="line2d_24">
     <path d="M 484.80476 278.07601
L 492.80476 278.07601
L 500.80476 278.07601
" style="fill: none; stroke: #2ca02c; stroke-width: 1.5; stroke-linecap: square"/>
    </g>
    <g id="text_21">
     <!-- power-law coupling -->
     <g transform="translate(507.20476 280.87601) scale(0.08 -0.08)">
      <defs>
       <path id="DejaVuSans-5a" d="M 269 3500
L 844 3500
L 1563 769
L 2278 3500
L 2956 3500
L 3675 769
L 4391 3500
L 4966 3500
L 4050 0
L 3372 0
L 2619 2869
L 1863 0
L 1184 0
L 269 3500
z
" transform="scale(0.015625)"/>
       <path id="DejaVuSans-10" d="M 313 2009
L 1997 2009
L 1997 1497
L 313 1497
L 313 2009
z
" transform="scale(0.015625)"/>
      </defs>
      <use xlink:href="#DejaVuSans-53"/>
      <use xlink:href="#DejaVuSans-52" transform="translate(63.484375 0)"/>
      <use xlink:href="#DejaVuSans-5a" transform="translate(124.671875 0)"/>
      <use xlink:href="#DejaVuSans-48" transform="translate(206.453125 0)"/>
      <use xlink:href="#DejaVuSans-55" transform="translate(267.984375 0)"/>
      <use xlink:href="#DejaVuSans-10" transform="translate(302.703125 0)"/>
      <use xlink:href="#DejaVuSans-4f" transform="translate(338.78125 0)"/>
      <use xlink:href="#DejaVuSans-44" transform="translate(366.5625 0)"/>
      <use xlink:href="#DejaVuSans-5a" transform="translate(427.84375 0)"/>
      <use xlink:href="#DejaVuSans-3" transform="translate(509.625 0)"/>
      <use xlink:href="#DejaVuSans-46" transform="translate(541.40625 0)"/>
      <use xlink:href="#DejaVuSans-52" transform="translate(596.390625 0)"/>
      <use xlink:href="#DejaVuSans-58" transform="translate(657.578125 0)"/>
      <use xlink:href="#DejaVuSans-53" transform="translate(720.953125 0)"/>
      <use xlink:href="#DejaVuSans-4f" transform="translate(784.4375 0)"/>
      <use xlink:href="#DejaVuSans-4c" transform="translate(812.21875 0)"/>
      <use xlink:href="#DejaVuSans-51" transform="translate(840 0)"/>
      <use xlink:href="#DejaVuSans-4a" transform="translate(903.375 0)"/>
     </g>
    </g>
    <g id="line2d_25">
     <path d="M 484.80476 290.076635
L 492.80476 290.076635
L 500.80476 290.076635
" style="fill: none; stroke: #d62728; stroke-width: 1.5; stroke-linecap: square"/>
    </g>
    <g id="text_22">
     <!-- logistic transition-rate pulse -->
     <g transform="translate(507.20476 292.876635) scale(0.08 -0.08)">
      <use xlink:href="#DejaVuSans-4f"/>
      <use xlink:href="#DejaVuSans-52" transform="translate(27.78125 0)"/>
      <use xlink:href="#DejaVuSans-4a" transform="translate(88.96875 0)"/>
      <use xlink:href="#DejaVuSans-4c" transform="translate(152.453125 0)"/>
      <use xlink:href="#DejaVuSans-56" transform="translate(180.234375 0)"/>
      <use xlink:href="#DejaVuSans-57" transform="translate(232.328125 0)"/>
      <use xlink:href="#DejaVuSans-4c" transform="translate(271.53125 0)"/>
      <use xlink:href="#DejaVuSans-46" transform="translate(299.3125 0)"/>
      <use xlink:href="#DejaVuSans-3" transform="translate(354.296875 0)"/>
      <use xlink:href="#DejaVuSans-57" transform="translate(386.078125 0)"/>
      <use xlink:href="#DejaVuSans-55" transform="translate(425.28125 0)"/>
      <use xlink:href="#DejaVuSans-44" transform="translate(466.390625 0)"/>
      <use xlink:href="#DejaVuSans-51" transform="translate(527.671875 0)"/>
      <use xlink:href="#DejaVuSans-56" transform="translate(591.046875 0)"/>
      <use xlink:href="#DejaVuSans-4c" transform="translate(643.140625 0)"/>
      <use xlink:href="#DejaVuSans-57" transform="translate(670.921875 0)"/>
      <use xlink:href="#DejaVuSans-4c" transform="translate(710.125 0)"/>
      <use xlink:href="#DejaVuSans-52" transform="translate(737.90625 0)"/>
      <use xlink:href="#DejaVuSans-51" transform="translate(799.09375 0)"/>
      <use xlink:href="#DejaVuSans-10" transform="translate(862.46875 0)"/>
      <use xlink:href="#DejaVuSans-55" transform="translate(898.546875 0)"/>
      <use xlink:href="#DejaVuSans-44" transform="translate(939.65625 0)"/>
      <use xlink:href="#DejaVuSans-57" transform="translate(1000.9375 0)"/>
      <use xlink:href="#DejaVuSans-48" transform="translate(1040.140625 0)"/>
      <use xlink:href="#DejaVuSans-3" transform="translate(1101.671875 0)"/>
      <use xlink:href="#DejaVuSans-53" transform="translate(1133.453125 0)"/>
      <use xlink:href="#DejaVuSans-58" transform="translate(1196.9375 0)"/>
      <use xlink:href="#DejaVuSans-4f" transform="translate(1260.3125 0)"/>
      <use xlink:href="#DejaVuSans-56" transform="translate(1288.09375 0)"/>
      <use xlink:href="#DejaVuSans-48" transform="translate(1340.1875 0)"/>
     </g>
    </g>
    <g id="line2d_26">
     <path d="M 484.80476 302.07726
L 492.80476 302.07726
L 500.80476 302.07726
" style="fill: none; stroke: #9467bd; stroke-width: 1.5; stroke-linecap: square"/>
    </g>
    <g id="text_23">
     <!-- Gaussian pulse in ln(a) -->
     <g transform="translate(507.20476 304.87726) scale(0.08 -0.08)">
      <use xlink:href="#DejaVuSans-2a"/>
      <use xlink:href="#DejaVuSans-44" transform="translate(77.484375 0)"/>
      <use xlink:href="#DejaVuSans-58" transform="translate(138.765625 0)"/>
      <use xlink:href="#DejaVuSans-56" transform="translate(202.140625 0)"/>
      <use xlink:href="#DejaVuSans-56" transform="translate(254.234375 0)"/>
      <use xlink:href="#DejaVuSans-4c" transform="translate(306.328125 0)"/>
      <use xlink:href="#DejaVuSans-44" transform="translate(334.109375 0)"/>
      <use xlink:href="#DejaVuSans-51" transform="translate(395.390625 0)"/>
      <use xlink:href="#DejaVuSans-3" transform="translate(458.765625 0)"/>
      <use xlink:href="#DejaVuSans-53" transform="translate(490.546875 0)"/>
      <use xlink:href="#DejaVuSans-58" transform="translate(554.03125 0)"/>
      <use xlink:href="#DejaVuSans-4f" transform="translate(617.40625 0)"/>
      <use xlink:href="#DejaVuSans-56" transform="translate(645.1875 0)"/>
      <use xlink:href="#DejaVuSans-48" transform="translate(697.28125 0)"/>
      <use xlink:href="#DejaVuSans-3" transform="translate(758.8125 0)"/>
      <use xlink:href="#DejaVuSans-4c" transform="translate(790.59375 0)"/>
      <use xlink:href="#DejaVuSans-51" transform="translate(818.375 0)"/>
      <use xlink:href="#DejaVuSans-3" transform="translate(881.75 0)"/>
      <use xlink:href="#DejaVuSans-4f" transform="translate(913.53125 0)"/>
      <use xlink:href="#DejaVuSans-51" transform="translate(941.3125 0)"/>
      <use xlink:href="#DejaVuSans-b" transform="translate(1004.6875 0)"/>
      <use xlink:href="#DejaVuSans-44" transform="translate(1043.703125 0)"/>
      <use xlink:href="#DejaVuSans-c" transform="translate(1104.984375 0)"/>
     </g>
    </g>
    <g id="line2d_27">
     <path d="M 484.80476 314.077885
L 492.80476 314.077885
L 500.80476 314.077885
" style="fill: none; stroke: #8c564b; stroke-width: 1.5; stroke-linecap: square"/>
    </g>
    <g id="text_24">
     <!-- eight-knot nonparametric proxy -->
     <g transform="translate(507.20476 316.877885) scale(0.08 -0.08)">
      <defs>
       <path id="DejaVuSans-4e" d="M 581 4863
L 1159 4863
L 1159 1991
L 2875 3500
L 3609 3500
L 1753 1863
L 3688 0
L 2938 0
L 1159 1709
L 1159 0
L 581 0
L 581 4863
z
" transform="scale(0.015625)"/>
       <path id="DejaVuSans-5c" d="M 2059 -325
Q 1816 -950 1584 -1140
Q 1353 -1331 966 -1331
L 506 -1331
L 506 -850
L 844 -850
Q 1081 -850 1212 -737
Q 1344 -625 1503 -206
L 1606 56
L 191 3500
L 800 3500
L 1894 763
L 2988 3500
L 3597 3500
L 2059 -325
z
" transform="scale(0.015625)"/>
      </defs>
      <use xlink:href="#DejaVuSans-48"/>
      <use xlink:href="#DejaVuSans-4c" transform="translate(61.53125 0)"/>
      <use xlink:href="#DejaVuSans-4a" transform="translate(89.3125 0)"/>
      <use xlink:href="#DejaVuSans-4b" transform="translate(152.796875 0)"/>
      <use xlink:href="#DejaVuSans-57" transform="translate(216.171875 0)"/>
      <use xlink:href="#DejaVuSans-10" transform="translate(255.375 0)"/>
      <use xlink:href="#DejaVuSans-4e" transform="translate(291.453125 0)"/>
      <use xlink:href="#DejaVuSans-51" transform="translate(349.359375 0)"/>
      <use xlink:href="#DejaVuSans-52" transform="translate(412.734375 0)"/>
      <use xlink:href="#DejaVuSans-57" transform="translate(473.921875 0)"/>
      <use xlink:href="#DejaVuSans-3" transform="translate(513.125 0)"/>
      <use xlink:href="#DejaVuSans-51" transform="translate(544.90625 0)"/>
      <use xlink:href="#DejaVuSans-52" transform="translate(608.28125 0)"/>
      <use xlink:href="#DejaVuSans-51" transform="translate(669.46875 0)"/>
      <use xlink:href="#DejaVuSans-53" transform="translate(732.84375 0)"/>
      <use xlink:href="#DejaVuSans-44" transform="translate(796.328125 0)"/>
      <use xlink:href="#DejaVuSans-55" transform="translate(857.609375 0)"/>
      <use xlink:href="#DejaVuSans-44" transform="translate(898.71875 0)"/>
      <use xlink:href="#DejaVuSans-50" transform="translate(960 0)"/>
      <use xlink:href="#DejaVuSans-48" transform="translate(1057.40625 0)"/>
      <use xlink:href="#DejaVuSans-57" transform="translate(1118.9375 0)"/>
      <use xlink:href="#DejaVuSans-55" transform="translate(1158.140625 0)"/>
      <use xlink:href="#DejaVuSans-4c" transform="translate(1199.25 0)"/>
      <use xlink:href="#DejaVuSans-46" transform="translate(1227.03125 0)"/>
      <use xlink:href="#DejaVuSans-3" transform="translate(1282.015625 0)"/>
      <use xlink:href="#DejaVuSans-53" transform="translate(1313.796875 0)"/>
      <use xlink:href="#DejaVuSans-55" transform="translate(1377.28125 0)"/>
      <use xlink:href="#DejaVuSans-52" transform="translate(1416.1875 0)"/>
      <use xlink:href="#DejaVuSans-5b" transform="translate(1474.296875 0)"/>
      <use xlink:href="#DejaVuSans-5c" transform="translate(1533.484375 0)"/>
     </g>
    </g>
   </g>
  </g>
 </g>
 <defs>
  <clipPath id="p00b92f7d92">
   <rect x="39.904146" y="18.118365" width="601.914364" height="307.881395"/>
  </clipPath>
 </defs>
</svg>
