<?xml version="1.0" encoding="utf-8" standalone="no"?>
<!DOCTYPE svg PUBLIC "-//W3C//DTD SVG 1.1//EN"
  "http://www.w3.org/Graphics/SVG/1.1/DTD/svg11.dtd">
<svg xmlns:xlink="http://www.w3.org/1999/xlink" width="720pt" height="345.6pt" viewBox="0 0 720 345.6" xmlns="http://www.w3.org/2000/svg" version="1.1">
 <metadata>
  <rdf:RDF xmlns:dc="http://purl.org/dc/elements/1.1/" xmlns:cc="http://creativecommons.org/ns#" xmlns:rdf="http://www.w3.org/1999/02/22-rdf-syntax-ns#">
   <cc:Work>
    <dc:type rdf:resource="http://purl.org/dc/dcmitype/StillImage"/>
    <dc:date>2026-06-13T14:24:08.450202</dc:date>
    <dc:format>image/svg+xml</dc:format>
    <dc:creator>
     <cc:Agent>
      <dc:title>Matplotlib v3.11.0, https://matplotlib.org/</dc:title>
     </cc:Agent>
    </dc:creator>
   </cc:Work>
  </rdf:RDF>
 </metadata>
 <defs>
  <style type="text/css">*{stroke-linejoin: round; stroke-linecap: butt}</style>
 </defs>
 <g id="figure_1">
  <g id="patch_1">
   <path d="M 0 345.6
L 720 345.6
L 720 0
L 0 0
z
" style="fill: #ffffff"/>
  </g>
  <g id="axes_1">
   <g id="patch_2">
    <path d="M 47.501021 305.29351
L 716.99976 305.29351
L 716.99976 18.118365
L 47.501021 18.118365
z
" style="fill: #ffffff"/>
   </g>
   <g id="patch_3">
    <path d="M 77.932782 23799.569294
L 140.356907 23799.569294
L 140.356907 292.240095
L 77.932782 292.240095
z
" clip-path="url(#pccaa6e6401)" style="fill: #2f6f9f"/>
   </g>
   <g id="patch_4">
    <path d="M 155.962938 23799.569294
L 218.387063 23799.569294
L 218.387063 277.96533
L 155.962938 277.96533
z
" clip-path="url(#pccaa6e6401)" style="fill: #b84a4a"/>
   </g>
   <g id="patch_5">
    <path d="M 233.993094 23799.569294
L 296.417219 23799.569294
L 296.417219 291.866604
L 233.993094 291.866604
z
" clip-path="url(#pccaa6e6401)" style="fill: #2f6f9f"/>
   </g>
   <g id="patch_6">
    <path d="M 312.02325 23799.569294
L 374.447375 23799.569294
L 374.447375 31.171781
L 312.02325 31.171781
z
" clip-path="url(#pccaa6e6401)" style="fill: #b84a4a"/>
   </g>
   <g id="patch_7">
    <path d="M 390.053406 23799.569294
L 452.477531 23799.569294
L 452.477531 292.14639
L 390.053406 292.14639
z
" clip-path="url(#pccaa6e6401)" style="fill: #2f6f9f"/>
   </g>
   <g id="patch_8">
    <path d="M 468.083562 23799.569294
L 530.507687 23799.569294
L 530.507687 252.159916
L 468.083562 252.159916
z
" clip-path="url(#pccaa6e6401)" style="fill: #b84a4a"/>
   </g>
   <g id="patch_9">
    <path d="M 546.113718 23799.569294
L 608.537843 23799.569294
L 608.537843 292.052907
L 546.113718 292.052907
z
" clip-path="url(#pccaa6e6401)" style="fill: #2f6f9f"/>
   </g>
   <g id="patch_10">
    <path d="M 624.143874 23799.569294
L 686.567999 23799.569294
L 686.567999 56.382345
L 624.143874 56.382345
z
" clip-path="url(#pccaa6e6401)" style="fill: #b84a4a"/>
   </g>
   <g id="patch_11">
    <path clip-path="url(#pccaa6e6401)" style="fill: #2f6f9f"/>
   </g>
   <g id="patch_12">
    <path clip-path="url(#pccaa6e6401)" style="fill: #b84a4a"/>
   </g>
   <g id="matplotlib.axis_1">
    <g id="xtick_1">
     <g id="line2d_1">
      <defs>
       <path id="m269e513e11" d="M 0 0
L 0 3.5
" style="stroke: #000000; stroke-width: 0.8"/>
      </defs>
      <g>
       <use xlink:href="#m269e513e11" x="109.144845" y="305.29351" style="stroke: #000000; stroke-width: 0.8"/>
      </g>
     </g>
     <g id="text_1">
      <!-- R0 P1 -->
      <g transform="translate(99.752425 336.678162) rotate(-40) scale(0.1 -0.1)">
       <defs>
        <path id="DejaVuSans-35" d="M 2841 2188
Q 3044 2119 3236 1894
Q 3428 1669 3622 1275
L 4263 0
L 3584 0
L 2988 1197
Q 2756 1666 2539 1819
Q 2322 1972 1947 1972
L 1259 1972
L 1259 0
L 628 0
L 628 4666
L 2053 4666
Q 2853 4666 3247 4331
Q 3641 3997 3641 3322
Q 3641 2881 3436 2590
Q 3231 2300 2841 2188
z
M 1259 4147
L 1259 2491
L 2053 2491
Q 2509 2491 2742 2702
Q 2975 2913 2975 3322
Q 2975 3731 2742 3939
Q 2509 4147 2053 4147
L 1259 4147
z
" transform="scale(0.015625)"/>
        <path id="DejaVuSans-13" d="M 2034 4250
Q 1547 4250 1301 3770
Q 1056 3291 1056 2328
Q 1056 1369 1301 889
Q 1547 409 2034 409
Q 2525 409 2770 889
Q 3016 1369 3016 2328
Q 3016 3291 2770 3770
Q 2525 4250 2034 4250
z
M 2034 4750
Q 2819 4750 3233 4129
Q 3647 3509 3647 2328
Q 3647 1150 3233 529
Q 2819 -91 2034 -91
Q 1250 -91 836 529
Q 422 1150 422 2328
Q 422 3509 836 4129
Q 1250 4750 2034 4750
z
" transform="scale(0.015625)"/>
        <path id="DejaVuSans-3" transform="scale(0.015625)"/>
        <path id="DejaVuSans-33" d="M 1259 4147
L 1259 2394
L 2053 2394
Q 2494 2394 2734 2622
Q 2975 2850 2975 3272
Q 2975 3691 2734 3919
Q 2494 4147 2053 4147
L 1259 4147
z
M 628 4666
L 2053 4666
Q 2838 4666 3239 4311
Q 3641 3956 3641 3272
Q 3641 2581 3239 2228
Q 2838 1875 2053 1875
L 1259 1875
L 1259 0
L 628 0
L 628 4666
z
" transform="scale(0.015625)"/>
        <path id="DejaVuSans-14" d="M 794 531
L 1825 531
L 1825 4091
L 703 3866
L 703 4441
L 1819 4666
L 2450 4666
L 2450 531
L 3481 531
L 3481 0
L 794 0
L 794 531
z
" transform="scale(0.015625)"/>
       </defs>
       <use xlink:href="#DejaVuSans-35"/>
       <use xlink:href="#DejaVuSans-13" transform="translate(69.484375 0)"/>
       <use xlink:href="#DejaVuSans-3" transform="translate(133.109375 0)"/>
       <use xlink:href="#DejaVuSans-33" transform="translate(164.890625 0)"/>
       <use xlink:href="#DejaVuSans-14" transform="translate(225.1875 0)"/>
      </g>
     </g>
    </g>
    <g id="xtick_2">
     <g id="line2d_2">
      <g>
       <use xlink:href="#m269e513e11" x="187.175001" y="305.29351" style="stroke: #000000; stroke-width: 0.8"/>
      </g>
     </g>
     <g id="text_2">
      <!-- R0 P2 -->
      <g transform="translate(177.782581 336.678162) rotate(-40) scale(0.1 -0.1)">
       <defs>
        <path id="DejaVuSans-15" d="M 1228 531
L 3431 531
L 3431 0
L 469 0
L 469 531
Q 828 903 1448 1529
Q 2069 2156 2228 2338
Q 2531 2678 2651 2914
Q 2772 3150 2772 3378
Q 2772 3750 2511 3984
Q 2250 4219 1831 4219
Q 1534 4219 1204 4116
Q 875 4013 500 3803
L 500 4441
Q 881 4594 1212 4672
Q 1544 4750 1819 4750
Q 2544 4750 2975 4387
Q 3406 4025 3406 3419
Q 3406 3131 3298 2873
Q 3191 2616 2906 2266
Q 2828 2175 2409 1742
Q 1991 1309 1228 531
z
" transform="scale(0.015625)"/>
       </defs>
       <use xlink:href="#DejaVuSans-35"/>
       <use xlink:href="#DejaVuSans-13" transform="translate(69.484375 0)"/>
       <use xlink:href="#DejaVuSans-3" transform="translate(133.109375 0)"/>
       <use xlink:href="#DejaVuSans-33" transform="translate(164.890625 0)"/>
       <use xlink:href="#DejaVuSans-15" transform="translate(225.1875 0)"/>
      </g>
     </g>
    </g>
    <g id="xtick_3">
     <g id="line2d_3">
      <g>
       <use xlink:href="#m269e513e11" x="265.205157" y="305.29351" style="stroke: #000000; stroke-width: 0.8"/>
      </g>
     </g>
     <g id="text_3">
      <!-- R1 P1 -->
      <g transform="translate(255.812737 336.678162) rotate(-40) scale(0.1 -0.1)">
       <use xlink:href="#DejaVuSans-35"/>
       <use xlink:href="#DejaVuSans-14" transform="translate(69.484375 0)"/>
       <use xlink:href="#DejaVuSans-3" transform="translate(133.109375 0)"/>
       <use xlink:href="#DejaVuSans-33" transform="translate(164.890625 0)"/>
       <use xlink:href="#DejaVuSans-14" transform="translate(225.1875 0)"/>
      </g>
     </g>
    </g>
    <g id="xtick_4">
     <g id="line2d_4">
      <g>
       <use xlink:href="#m269e513e11" x="343.235313" y="305.29351" style="stroke: #000000; stroke-width: 0.8"/>
      </g>
     </g>
     <g id="text_4">
      <!-- R1 P2 -->
      <g transform="translate(333.842893 336.678162) rotate(-40) scale(0.1 -0.1)">
       <use xlink:href="#DejaVuSans-35"/>
       <use xlink:href="#DejaVuSans-14" transform="translate(69.484375 0)"/>
       <use xlink:href="#DejaVuSans-3" transform="translate(133.109375 0)"/>
       <use xlink:href="#DejaVuSans-33" transform="translate(164.890625 0)"/>
       <use xlink:href="#DejaVuSans-15" transform="translate(225.1875 0)"/>
      </g>
     </g>
    </g>
    <g id="xtick_5">
     <g id="line2d_5">
      <g>
       <use xlink:href="#m269e513e11" x="421.265469" y="305.29351" style="stroke: #000000; stroke-width: 0.8"/>
      </g>
     </g>
     <g id="text_5">
      <!-- R2a P1 -->
      <g transform="translate(409.525841 340.617245) rotate(-40) scale(0.1 -0.1)">
       <defs>
        <path id="DejaVuSans-44" d="M 2194 1759
Q 1497 1759 1228 1600
Q 959 1441 959 1056
Q 959 750 1161 570
Q 1363 391 1709 391
Q 2188 391 2477 730
Q 2766 1069 2766 1631
L 2766 1759
L 2194 1759
z
M 3341 1997
L 3341 0
L 2766 0
L 2766 531
Q 2569 213 2275 61
Q 1981 -91 1556 -91
Q 1019 -91 701 211
Q 384 513 384 1019
Q 384 1609 779 1909
Q 1175 2209 1959 2209
L 2766 2209
L 2766 2266
Q 2766 2663 2505 2880
Q 2244 3097 1772 3097
Q 1472 3097 1187 3025
Q 903 2953 641 2809
L 641 3341
Q 956 3463 1253 3523
Q 1550 3584 1831 3584
Q 2591 3584 2966 3190
Q 3341 2797 3341 1997
z
" transform="scale(0.015625)"/>
       </defs>
       <use xlink:href="#DejaVuSans-35"/>
       <use xlink:href="#DejaVuSans-15" transform="translate(69.484375 0)"/>
       <use xlink:href="#DejaVuSans-44" transform="translate(133.109375 0)"/>
       <use xlink:href="#DejaVuSans-3" transform="translate(194.390625 0)"/>
       <use xlink:href="#DejaVuSans-33" transform="translate(226.171875 0)"/>
       <use xlink:href="#DejaVuSans-14" transform="translate(286.46875 0)"/>
      </g>
     </g>
    </g>
    <g id="xtick_6">
     <g id="line2d_6">
      <g>
       <use xlink:href="#m269e513e11" x="499.295625" y="305.29351" style="stroke: #000000; stroke-width: 0.8"/>
      </g>
     </g>
     <g id="text_6">
      <!-- R2a P2 -->
      <g transform="translate(487.555997 340.617245) rotate(-40) scale(0.1 -0.1)">
       <use xlink:href="#DejaVuSans-35"/>
       <use xlink:href="#DejaVuSans-15" transform="translate(69.484375 0)"/>
       <use xlink:href="#DejaVuSans-44" transform="translate(133.109375 0)"/>
       <use xlink:href="#DejaVuSans-3" transform="translate(194.390625 0)"/>
       <use xlink:href="#DejaVuSans-33" transform="translate(226.171875 0)"/>
       <use xlink:href="#DejaVuSans-15" transform="translate(286.46875 0)"/>
      </g>
     </g>
    </g>
    <g id="xtick_7">
     <g id="line2d_7">
      <g>
       <use xlink:href="#m269e513e11" x="577.325781" y="305.29351" style="stroke: #000000; stroke-width: 0.8"/>
      </g>
     </g>
     <g id="text_7">
      <!-- R2b P1 -->
      <g transform="translate(565.50202 340.759458) rotate(-40) scale(0.1 -0.1)">
       <defs>
        <path id="DejaVuSans-45" d="M 3116 1747
Q 3116 2381 2855 2742
Q 2594 3103 2138 3103
Q 1681 3103 1420 2742
Q 1159 2381 1159 1747
Q 1159 1113 1420 752
Q 1681 391 2138 391
Q 2594 391 2855 752
Q 3116 1113 3116 1747
z
M 1159 2969
Q 1341 3281 1617 3432
Q 1894 3584 2278 3584
Q 2916 3584 3314 3078
Q 3713 2572 3713 1747
Q 3713 922 3314 415
Q 2916 -91 2278 -91
Q 1894 -91 1617 61
Q 1341 213 1159 525
L 1159 0
L 581 0
L 581 4863
L 1159 4863
L 1159 2969
z
" transform="scale(0.015625)"/>
       </defs>
       <use xlink:href="#DejaVuSans-35"/>
       <use xlink:href="#DejaVuSans-15" transform="translate(69.484375 0)"/>
       <use xlink:href="#DejaVuSans-45" transform="translate(133.109375 0)"/>
       <use xlink:href="#DejaVuSans-3" transform="translate(196.59375 0)"/>
       <use xlink:href="#DejaVuSans-33" transform="translate(228.375 0)"/>
       <use xlink:href="#DejaVuSans-14" transform="translate(288.671875 0)"/>
      </g>
     </g>
    </g>
    <g id="xtick_8">
     <g id="line2d_8">
      <g>
       <use xlink:href="#m269e513e11" x="655.355937" y="305.29351" style="stroke: #000000; stroke-width: 0.8"/>
      </g>
     </g>
     <g id="text_8">
      <!-- R2b P2 -->
      <g transform="translate(643.532176 340.759458) rotate(-40) scale(0.1 -0.1)">
       <use xlink:href="#DejaVuSans-35"/>
       <use xlink:href="#DejaVuSans-15" transform="translate(69.484375 0)"/>
       <use xlink:href="#DejaVuSans-45" transform="translate(133.109375 0)"/>
       <use xlink:href="#DejaVuSans-3" transform="translate(196.59375 0)"/>
       <use xlink:href="#DejaVuSans-33" transform="translate(228.375 0)"/>
       <use xlink:href="#DejaVuSans-15" transform="translate(288.671875 0)"/>
      </g>
     </g>
    </g>
   </g>
   <g id="matplotlib.axis_2">
    <g id="ytick_1">
     <g id="line2d_9">
      <defs>
       <path id="mbaefb25aa1" d="M 0 0
L -3.5 0
" style="stroke: #000000; stroke-width: 0.8"/>
      </defs>
      <g>
       <use xlink:href="#mbaefb25aa1" x="47.501021" y="289.904687" style="stroke: #000000; stroke-width: 0.8"/>
      </g>
     </g>
     <g id="text_9">
      <!-- $\mathdefault{10^{-2}}$ -->
      <g transform="translate(17.001021 294.604687) scale(0.1 -0.1)">
       <defs>
        <path id="DejaVuSans-c9c" d="M 678 2272
L 4684 2272
L 4684 1741
L 678 1741
L 678 2272
z
" transform="scale(0.015625)"/>
       </defs>
       <use xlink:href="#DejaVuSans-14" transform="translate(0 0.746875)"/>
       <use xlink:href="#DejaVuSans-13" transform="translate(63.623047 0.746875)"/>
       <use xlink:href="#DejaVuSans-c9c" transform="translate(128.203125 42.046875) scale(0.7)"/>
       <use xlink:href="#DejaVuSans-15" transform="translate(186.855469 42.046875) scale(0.7)"/>
      </g>
     </g>
    </g>
    <g id="ytick_2">
     <g id="line2d_10">
      <g>
       <use xlink:href="#mbaefb25aa1" x="47.501021" y="242.791131" style="stroke: #000000; stroke-width: 0.8"/>
      </g>
     </g>
     <g id="text_10">
      <!-- $\mathdefault{10^{0}}$ -->
      <g transform="translate(22.901021 247.491131) scale(0.1 -0.1)">
       <use xlink:href="#DejaVuSans-14" transform="translate(0 0.746875)"/>
       <use xlink:href="#DejaVuSans-13" transform="translate(63.623047 0.746875)"/>
       <use xlink:href="#DejaVuSans-13" transform="translate(128.203125 42.046875) scale(0.7)"/>
      </g>
     </g>
    </g>
    <g id="ytick_3">
     <g id="line2d_11">
      <g>
       <use xlink:href="#mbaefb25aa1" x="47.501021" y="195.677575" style="stroke: #000000; stroke-width: 0.8"/>
      </g>
     </g>
     <g id="text_11">
      <!-- $\mathdefault{10^{2}}$ -->
      <g transform="translate(22.901021 200.377575) scale(0.1 -0.1)">
       <use xlink:href="#DejaVuSans-14" transform="translate(0 0.746875)"/>
       <use xlink:href="#DejaVuSans-13" transform="translate(63.623047 0.746875)"/>
       <use xlink:href="#DejaVuSans-15" transform="translate(128.203125 42.046875) scale(0.7)"/>
      </g>
     </g>
    </g>
    <g id="ytick_4">
     <g id="line2d_12">
      <g>
       <use xlink:href="#mbaefb25aa1" x="47.501021" y="148.564018" style="stroke: #000000; stroke-width: 0.8"/>
      </g>
     </g>
     <g id="text_12">
      <!-- $\mathdefault{10^{4}}$ -->
      <g transform="translate(22.901021 153.214018) scale(0.1 -0.1)">
       <defs>
        <path id="DejaVuSans-17" d="M 2419 4116
L 825 1625
L 2419 1625
L 2419 4116
z
M 2253 4666
L 3047 4666
L 3047 1625
L 3713 1625
L 3713 1100
L 3047 1100
L 3047 0
L 2419 0
L 2419 1100
L 313 1100
L 313 1709
L 2253 4666
z
" transform="scale(0.015625)"/>
       </defs>
       <use xlink:href="#DejaVuSans-14" transform="translate(0 0.665625)"/>
       <use xlink:href="#DejaVuSans-13" transform="translate(63.623047 0.665625)"/>
       <use xlink:href="#DejaVuSans-17" transform="translate(128.203125 41.965625) scale(0.7)"/>
      </g>
     </g>
    </g>
    <g id="ytick_5">
     <g id="line2d_13">
      <g>
       <use xlink:href="#mbaefb25aa1" x="47.501021" y="101.450462" style="stroke: #000000; stroke-width: 0.8"/>
      </g>
     </g>
     <g id="text_13">
      <!-- $\mathdefault{10^{6}}$ -->
      <g transform="translate(22.901021 106.150462) scale(0.1 -0.1)">
       <defs>
        <path id="DejaVuSans-19" d="M 2113 2584
Q 1688 2584 1439 2293
Q 1191 2003 1191 1497
Q 1191 994 1439 701
Q 1688 409 2113 409
Q 2538 409 2786 701
Q 3034 994 3034 1497
Q 3034 2003 2786 2293
Q 2538 2584 2113 2584
z
M 3366 4563
L 3366 3988
Q 3128 4100 2886 4159
Q 2644 4219 2406 4219
Q 1781 4219 1451 3797
Q 1122 3375 1075 2522
Q 1259 2794 1537 2939
Q 1816 3084 2150 3084
Q 2853 3084 3261 2657
Q 3669 2231 3669 1497
Q 3669 778 3244 343
Q 2819 -91 2113 -91
Q 1303 -91 875 529
Q 447 1150 447 2328
Q 447 3434 972 4092
Q 1497 4750 2381 4750
Q 2619 4750 2861 4703
Q 3103 4656 3366 4563
z
" transform="scale(0.015625)"/>
       </defs>
       <use xlink:href="#DejaVuSans-14" transform="translate(0 0.746875)"/>
       <use xlink:href="#DejaVuSans-13" transform="translate(63.623047 0.746875)"/>
       <use xlink:href="#DejaVuSans-19" transform="translate(128.203125 42.046875) scale(0.7)"/>
      </g>
     </g>
    </g>
    <g id="ytick_6">
     <g id="line2d_14">
      <g>
       <use xlink:href="#mbaefb25aa1" x="47.501021" y="54.336906" style="stroke: #000000; stroke-width: 0.8"/>
      </g>
     </g>
     <g id="text_14">
      <!-- $\mathdefault{10^{8}}$ -->
      <g transform="translate(22.901021 59.036906) scale(0.1 -0.1)">
       <defs>
        <path id="DejaVuSans-1b" d="M 2034 2216
Q 1584 2216 1326 1975
Q 1069 1734 1069 1313
Q 1069 891 1326 650
Q 1584 409 2034 409
Q 2484 409 2743 651
Q 3003 894 3003 1313
Q 3003 1734 2745 1975
Q 2488 2216 2034 2216
z
M 1403 2484
Q 997 2584 770 2862
Q 544 3141 544 3541
Q 544 4100 942 4425
Q 1341 4750 2034 4750
Q 2731 4750 3128 4425
Q 3525 4100 3525 3541
Q 3525 3141 3298 2862
Q 3072 2584 2669 2484
Q 3125 2378 3379 2068
Q 3634 1759 3634 1313
Q 3634 634 3220 271
Q 2806 -91 2034 -91
Q 1263 -91 848 271
Q 434 634 434 1313
Q 434 1759 690 2068
Q 947 2378 1403 2484
z
M 1172 3481
Q 1172 3119 1398 2916
Q 1625 2713 2034 2713
Q 2441 2713 2670 2916
Q 2900 3119 2900 3481
Q 2900 3844 2670 4047
Q 2441 4250 2034 4250
Q 1625 4250 1398 4047
Q 1172 3844 1172 3481
z
" transform="scale(0.015625)"/>
       </defs>
       <use xlink:href="#DejaVuSans-14" transform="translate(0 0.746875)"/>
       <use xlink:href="#DejaVuSans-13" transform="translate(63.623047 0.746875)"/>
       <use xlink:href="#DejaVuSans-1b" transform="translate(128.203125 42.046875) scale(0.7)"/>
      </g>
     </g>
    </g>
    <g id="text_15">
     <!-- max absolute perturbation -->
     <g transform="translate(10.598678 228.580938) rotate(-90) scale(0.1 -0.1)">
      <defs>
       <path id="DejaVuSans-50" d="M 3328 2828
Q 3544 3216 3844 3400
Q 4144 3584 4550 3584
Q 5097 3584 5394 3201
Q 5691 2819 5691 2113
L 5691 0
L 5113 0
L 5113 2094
Q 5113 2597 4934 2840
Q 4756 3084 4391 3084
Q 3944 3084 3684 2787
Q 3425 2491 3425 1978
L 3425 0
L 2847 0
L 2847 2094
Q 2847 2600 2669 2842
Q 2491 3084 2119 3084
Q 1678 3084 1418 2786
Q 1159 2488 1159 1978
L 1159 0
L 581 0
L 581 3500
L 1159 3500
L 1159 2956
Q 1356 3278 1631 3431
Q 1906 3584 2284 3584
Q 2666 3584 2933 3390
Q 3200 3197 3328 2828
z
" transform="scale(0.015625)"/>
       <path id="DejaVuSans-5b" d="M 3513 3500
L 2247 1797
L 3578 0
L 2900 0
L 1881 1375
L 863 0
L 184 0
L 1544 1831
L 300 3500
L 978 3500
L 1906 2253
L 2834 3500
L 3513 3500
z
" transform="scale(0.015625)"/>
       <path id="DejaVuSans-56" d="M 2834 3397
L 2834 2853
Q 2591 2978 2328 3040
Q 2066 3103 1784 3103
Q 1356 3103 1142 2972
Q 928 2841 928 2578
Q 928 2378 1081 2264
Q 1234 2150 1697 2047
L 1894 2003
Q 2506 1872 2764 1633
Q 3022 1394 3022 966
Q 3022 478 2636 193
Q 2250 -91 1575 -91
Q 1294 -91 989 -36
Q 684 19 347 128
L 347 722
Q 666 556 975 473
Q 1284 391 1588 391
Q 1994 391 2212 530
Q 2431 669 2431 922
Q 2431 1156 2273 1281
Q 2116 1406 1581 1522
L 1381 1569
Q 847 1681 609 1914
Q 372 2147 372 2553
Q 372 3047 722 3315
Q 1072 3584 1716 3584
Q 2034 3584 2315 3537
Q 2597 3491 2834 3397
z
" transform="scale(0.015625)"/>
       <path id="DejaVuSans-52" d="M 1959 3097
Q 1497 3097 1228 2736
Q 959 2375 959 1747
Q 959 1119 1226 758
Q 1494 397 1959 397
Q 2419 397 2687 759
Q 2956 1122 2956 1747
Q 2956 2369 2687 2733
Q 2419 3097 1959 3097
z
M 1959 3584
Q 2709 3584 3137 3096
Q 3566 2609 3566 1747
Q 3566 888 3137 398
Q 2709 -91 1959 -91
Q 1206 -91 779 398
Q 353 888 353 1747
Q 353 2609 779 3096
Q 1206 3584 1959 3584
z
" transform="scale(0.015625)"/>
       <path id="DejaVuSans-4f" d="M 603 4863
L 1178 4863
L 1178 0
L 603 0
L 603 4863
z
" transform="scale(0.015625)"/>
       <path id="DejaVuSans-58" d="M 544 1381
L 544 3500
L 1119 3500
L 1119 1403
Q 1119 906 1312 657
Q 1506 409 1894 409
Q 2359 409 2629 706
Q 2900 1003 2900 1516
L 2900 3500
L 3475 3500
L 3475 0
L 2900 0
L 2900 538
Q 2691 219 2414 64
Q 2138 -91 1772 -91
Q 1169 -91 856 284
Q 544 659 544 1381
z
M 1991 3584
L 1991 3584
z
" transform="scale(0.015625)"/>
       <path id="DejaVuSans-57" d="M 1172 4494
L 1172 3500
L 2356 3500
L 2356 3053
L 1172 3053
L 1172 1153
Q 1172 725 1289 603
Q 1406 481 1766 481
L 2356 481
L 2356 0
L 1766 0
Q 1100 0 847 248
Q 594 497 594 1153
L 594 3053
L 172 3053
L 172 3500
L 594 3500
L 594 4494
L 1172 4494
z
" transform="scale(0.015625)"/>
       <path id="DejaVuSans-48" d="M 3597 1894
L 3597 1613
L 953 1613
Q 991 1019 1311 708
Q 1631 397 2203 397
Q 2534 397 2845 478
Q 3156 559 3463 722
L 3463 178
Q 3153 47 2828 -22
Q 2503 -91 2169 -91
Q 1331 -91 842 396
Q 353 884 353 1716
Q 353 2575 817 3079
Q 1281 3584 2069 3584
Q 2775 3584 3186 3129
Q 3597 2675 3597 1894
z
M 3022 2063
Q 3016 2534 2758 2815
Q 2500 3097 2075 3097
Q 1594 3097 1305 2825
Q 1016 2553 972 2059
L 3022 2063
z
" transform="scale(0.015625)"/>
       <path id="DejaVuSans-53" d="M 1159 525
L 1159 -1331
L 581 -1331
L 581 3500
L 1159 3500
L 1159 2969
Q 1341 3281 1617 3432
Q 1894 3584 2278 3584
Q 2916 3584 3314 3078
Q 3713 2572 3713 1747
Q 3713 922 3314 415
Q 2916 -91 2278 -91
Q 1894 -91 1617 61
Q 1341 213 1159 525
z
M 3116 1747
Q 3116 2381 2855 2742
Q 2594 3103 2138 3103
Q 1681 3103 1420 2742
Q 1159 2381 1159 1747
Q 1159 1113 1420 752
Q 1681 391 2138 391
Q 2594 391 2855 752
Q 3116 1113 3116 1747
z
" transform="scale(0.015625)"/>
       <path id="DejaVuSans-55" d="M 2631 2963
Q 2534 3019 2420 3045
Q 2306 3072 2169 3072
Q 1681 3072 1420 2755
Q 1159 2438 1159 1844
L 1159 0
L 581 0
L 581 3500
L 1159 3500
L 1159 2956
Q 1341 3275 1631 3429
Q 1922 3584 2338 3584
Q 2397 3584 2469 3576
Q 2541 3569 2628 3553
L 2631 2963
z
" transform="scale(0.015625)"/>
       <path id="DejaVuSans-4c" d="M 603 3500
L 1178 3500
L 1178 0
L 603 0
L 603 3500
z
M 603 4863
L 1178 4863
L 1178 4134
L 603 4134
L 603 4863
z
" transform="scale(0.015625)"/>
       <path id="DejaVuSans-51" d="M 3513 2113
L 3513 0
L 2938 0
L 2938 2094
Q 2938 2591 2744 2837
Q 2550 3084 2163 3084
Q 1697 3084 1428 2787
Q 1159 2491 1159 1978
L 1159 0
L 581 0
L 581 3500
L 1159 3500
L 1159 2956
Q 1366 3272 1645 3428
Q 1925 3584 2291 3584
Q 2894 3584 3203 3211
Q 3513 2838 3513 2113
z
" transform="scale(0.015625)"/>
      </defs>
      <use xlink:href="#DejaVuSans-50"/>
      <use xlink:href="#DejaVuSans-44" transform="translate(97.40625 0)"/>
      <use xlink:href="#DejaVuSans-5b" transform="translate(158.6875 0)"/>
      <use xlink:href="#DejaVuSans-3" transform="translate(217.875 0)"/>
      <use xlink:href="#DejaVuSans-44" transform="translate(249.65625 0)"/>
      <use xlink:href="#DejaVuSans-45" transform="translate(310.9375 0)"/>
      <use xlink:href="#DejaVuSans-56" transform="translate(374.421875 0)"/>
      <use xlink:href="#DejaVuSans-52" transform="translate(426.515625 0)"/>
      <use xlink:href="#DejaVuSans-4f" transform="translate(487.703125 0)"/>
      <use xlink:href="#DejaVuSans-58" transform="translate(515.484375 0)"/>
      <use xlink:href="#DejaVuSans-57" transform="translate(578.859375 0)"/>
      <use xlink:href="#DejaVuSans-48" transform="translate(618.0625 0)"/>
      <use xlink:href="#DejaVuSans-3" transform="translate(679.59375 0)"/>
      <use xlink:href="#DejaVuSans-53" transform="translate(711.375 0)"/>
      <use xlink:href="#DejaVuSans-48" transform="translate(774.859375 0)"/>
      <use xlink:href="#DejaVuSans-55" transform="translate(836.390625 0)"/>
      <use xlink:href="#DejaVuSans-57" transform="translate(877.5 0)"/>
      <use xlink:href="#DejaVuSans-58" transform="translate(916.703125 0)"/>
      <use xlink:href="#DejaVuSans-55" transform="translate(980.078125 0)"/>
      <use xlink:href="#DejaVuSans-45" transform="translate(1021.1875 0)"/>
      <use xlink:href="#DejaVuSans-44" transform="translate(1084.671875 0)"/>
      <use xlink:href="#DejaVuSans-57" transform="translate(1145.953125 0)"/>
      <use xlink:href="#DejaVuSans-4c" transform="translate(1185.15625 0)"/>
      <use xlink:href="#DejaVuSans-52" transform="translate(1212.9375 0)"/>
      <use xlink:href="#DejaVuSans-51" transform="translate(1274.125 0)"/>
     </g>
    </g>
   </g>
   <g id="line2d_15">
    <path d="M 47.501021 54.336906
L 716.99976 54.336906
" clip-path="url(#pccaa6e6401)" style="fill: none; stroke-dasharray: 4.44,1.92; stroke-dashoffset: 0; stroke: #2b2b2b; stroke-width: 1.2"/>
   </g>
   <g id="patch_13">
    <path d="M 47.501021 305.29351
L 47.501021 18.118365
" style="fill: none; stroke: #000000; stroke-width: 0.8; stroke-linejoin: miter; stroke-linecap: square"/>
   </g>
   <g id="patch_14">
    <path d="M 716.99976 305.29351
L 716.99976 18.118365
" style="fill: none; stroke: #000000; stroke-width: 0.8; stroke-linejoin: miter; stroke-linecap: square"/>
   </g>
   <g id="patch_15">
    <path d="M 47.501021 305.29351
L 716.99976 305.29351
" style="fill: none; stroke: #000000; stroke-width: 0.8; stroke-linejoin: miter; stroke-linecap: square"/>
   </g>
   <g id="patch_16">
    <path d="M 47.501021 18.118365
L 716.99976 18.118365
" style="fill: none; stroke: #000000; stroke-width: 0.8; stroke-linejoin: miter; stroke-linecap: square"/>
   </g>
   <g id="text_16">
    <!-- Exp 003 stability diagnostic -->
    <g transform="translate(299.178516 12.118365) scale(0.12 -0.12)">
     <defs>
      <path id="DejaVuSans-28" d="M 628 4666
L 3578 4666
L 3578 4134
L 1259 4134
L 1259 2753
L 3481 2753
L 3481 2222
L 1259 2222
L 1259 531
L 3634 531
L 3634 0
L 628 0
L 628 4666
z
" transform="scale(0.015625)"/>
      <path id="DejaVuSans-16" d="M 2597 2516
Q 3050 2419 3304 2112
Q 3559 1806 3559 1356
Q 3559 666 3084 287
Q 2609 -91 1734 -91
Q 1441 -91 1130 -33
Q 819 25 488 141
L 488 750
Q 750 597 1062 519
Q 1375 441 1716 441
Q 2309 441 2620 675
Q 2931 909 2931 1356
Q 2931 1769 2642 2001
Q 2353 2234 1838 2234
L 1294 2234
L 1294 2753
L 1863 2753
Q 2328 2753 2575 2939
Q 2822 3125 2822 3475
Q 2822 3834 2567 4026
Q 2313 4219 1838 4219
Q 1578 4219 1281 4162
Q 984 4106 628 3988
L 628 4550
Q 988 4650 1302 4700
Q 1616 4750 1894 4750
Q 2613 4750 3031 4423
Q 3450 4097 3450 3541
Q 3450 3153 3228 2886
Q 3006 2619 2597 2516
z
" transform="scale(0.015625)"/>
      <path id="DejaVuSans-5c" d="M 2059 -325
Q 1816 -950 1584 -1140
Q 1353 -1331 966 -1331
L 506 -1331
L 506 -850
L 844 -850
Q 1081 -850 1212 -737
Q 1344 -625 1503 -206
L 1606 56
L 191 3500
L 800 3500
L 1894 763
L 2988 3500
L 3597 3500
L 2059 -325
z
" transform="scale(0.015625)"/>
      <path id="DejaVuSans-47" d="M 2906 2969
L 2906 4863
L 3481 4863
L 3481 0
L 2906 0
L 2906 525
Q 2725 213 2448 61
Q 2172 -91 1784 -91
Q 1150 -91 751 415
Q 353 922 353 1747
Q 353 2572 751 3078
Q 1150 3584 1784 3584
Q 2172 3584 2448 3432
Q 2725 3281 2906 2969
z
M 947 1747
Q 947 1113 1208 752
Q 1469 391 1925 391
Q 2381 391 2643 752
Q 2906 1113 2906 1747
Q 2906 2381 2643 2742
Q 2381 3103 1925 3103
Q 1469 3103 1208 2742
Q 947 2381 947 1747
z
" transform="scale(0.015625)"/>
      <path id="DejaVuSans-4a" d="M 2906 1791
Q 2906 2416 2648 2759
Q 2391 3103 1925 3103
Q 1463 3103 1205 2759
Q 947 2416 947 1791
Q 947 1169 1205 825
Q 1463 481 1925 481
Q 2391 481 2648 825
Q 2906 1169 2906 1791
z
M 3481 434
Q 3481 -459 3084 -895
Q 2688 -1331 1869 -1331
Q 1566 -1331 1297 -1286
Q 1028 -1241 775 -1147
L 775 -588
Q 1028 -725 1275 -790
Q 1522 -856 1778 -856
Q 2344 -856 2625 -561
Q 2906 -266 2906 331
L 2906 616
Q 2728 306 2450 153
Q 2172 0 1784 0
Q 1141 0 747 490
Q 353 981 353 1791
Q 353 2603 747 3093
Q 1141 3584 1784 3584
Q 2172 3584 2450 3431
Q 2728 3278 2906 2969
L 2906 3500
L 3481 3500
L 3481 434
z
" transform="scale(0.015625)"/>
      <path id="DejaVuSans-46" d="M 3122 3366
L 3122 2828
Q 2878 2963 2633 3030
Q 2388 3097 2138 3097
Q 1578 3097 1268 2742
Q 959 2388 959 1747
Q 959 1106 1268 751
Q 1578 397 2138 397
Q 2388 397 2633 464
Q 2878 531 3122 666
L 3122 134
Q 2881 22 2623 -34
Q 2366 -91 2075 -91
Q 1284 -91 818 406
Q 353 903 353 1747
Q 353 2603 823 3093
Q 1294 3584 2113 3584
Q 2378 3584 2631 3529
Q 2884 3475 3122 3366
z
" transform="scale(0.015625)"/>
     </defs>
     <use xlink:href="#DejaVuSans-28"/>
     <use xlink:href="#DejaVuSans-5b" transform="translate(63.1875 0)"/>
     <use xlink:href="#DejaVuSans-53" transform="translate(122.375 0)"/>
     <use xlink:href="#DejaVuSans-3" transform="translate(185.859375 0)"/>
     <use xlink:href="#DejaVuSans-13" transform="translate(217.640625 0)"/>
     <use xlink:href="#DejaVuSans-13" transform="translate(281.265625 0)"/>
     <use xlink:href="#DejaVuSans-16" transform="translate(344.890625 0)"/>
     <use xlink:href="#DejaVuSans-3" transform="translate(408.515625 0)"/>
     <use xlink:href="#DejaVuSans-56" transform="translate(440.296875 0)"/>
     <use xlink:href="#DejaVuSans-57" transform="translate(492.390625 0)"/>
     <use xlink:href="#DejaVuSans-44" transform="translate(531.59375 0)"/>
     <use xlink:href="#DejaVuSans-45" transform="translate(592.875 0)"/>
     <use xlink:href="#DejaVuSans-4c" transform="translate(656.359375 0)"/>
     <use xlink:href="#DejaVuSans-4f" transform="translate(684.140625 0)"/>
     <use xlink:href="#DejaVuSans-4c" transform="translate(711.921875 0)"/>
     <use xlink:href="#DejaVuSans-57" transform="translate(739.703125 0)"/>
     <use xlink:href="#DejaVuSans-5c" transform="translate(778.90625 0)"/>
     <use xlink:href="#DejaVuSans-3" transform="translate(838.09375 0)"/>
     <use xlink:href="#DejaVuSans-47" transform="translate(869.875 0)"/>
     <use xlink:href="#DejaVuSans-4c" transform="translate(933.359375 0)"/>
     <use xlink:href="#DejaVuSans-44" transform="translate(961.140625 0)"/>
     <use xlink:href="#DejaVuSans-4a" transform="translate(1022.421875 0)"/>
     <use xlink:href="#DejaVuSans-51" transform="translate(1085.90625 0)"/>
     <use xlink:href="#DejaVuSans-52" transform="translate(1149.28125 0)"/>
     <use xlink:href="#DejaVuSans-56" transform="translate(1210.46875 0)"/>
     <use xlink:href="#DejaVuSans-57" transform="translate(1262.5625 0)"/>
     <use xlink:href="#DejaVuSans-4c" transform="translate(1301.765625 0)"/>
     <use xlink:href="#DejaVuSans-46" transform="translate(1329.546875 0)"/>
    </g>
   </g>
   <g id="legend_1">
    <g id="line2d_16">
     <path d="M 56.501021 31.216802
L 66.501021 31.216802
L 76.501021 31.216802
" style="fill: none; stroke-dasharray: 4.44,1.92; stroke-dashoffset: 0; stroke: #2b2b2b; stroke-width: 1.2"/>
    </g>
    <g id="text_17">
     <!-- instability threshold -->
     <g transform="translate(84.501021 34.716802) scale(0.1 -0.1)">
      <defs>
       <path id="DejaVuSans-4b" d="M 3513 2113
L 3513 0
L 2938 0
L 2938 2094
Q 2938 2591 2744 2837
Q 2550 3084 2163 3084
Q 1697 3084 1428 2787
Q 1159 2491 1159 1978
L 1159 0
L 581 0
L 581 4863
L 1159 4863
L 1159 2956
Q 1366 3272 1645 3428
Q 1925 3584 2291 3584
Q 2894 3584 3203 3211
Q 3513 2838 3513 2113
z
" transform="scale(0.015625)"/>
      </defs>
      <use xlink:href="#DejaVuSans-4c"/>
      <use xlink:href="#DejaVuSans-51" transform="translate(27.78125 0)"/>
      <use xlink:href="#DejaVuSans-56" transform="translate(91.15625 0)"/>
      <use xlink:href="#DejaVuSans-57" transform="translate(143.25 0)"/>
      <use xlink:href="#DejaVuSans-44" transform="translate(182.453125 0)"/>
      <use xlink:href="#DejaVuSans-45" transform="translate(243.734375 0)"/>
      <use xlink:href="#DejaVuSans-4c" transform="translate(307.21875 0)"/>
      <use xlink:href="#DejaVuSans-4f" transform="translate(335 0)"/>
      <use xlink:href="#DejaVuSans-4c" transform="translate(362.78125 0)"/>
      <use xlink:href="#DejaVuSans-57" transform="translate(390.5625 0)"/>
      <use xlink:href="#DejaVuSans-5c" transform="translate(429.765625 0)"/>
      <use xlink:href="#DejaVuSans-3" transform="translate(488.953125 0)"/>
      <use xlink:href="#DejaVuSans-57" transform="translate(520.734375 0)"/>
      <use xlink:href="#DejaVuSans-4b" transform="translate(559.9375 0)"/>
      <use xlink:href="#DejaVuSans-55" transform="translate(623.3125 0)"/>
      <use xlink:href="#DejaVuSans-48" transform="translate(662.21875 0)"/>
      <use xlink:href="#DejaVuSans-56" transform="translate(723.75 0)"/>
      <use xlink:href="#DejaVuSans-4b" transform="translate(775.84375 0)"/>
      <use xlink:href="#DejaVuSans-52" transform="translate(839.21875 0)"/>
      <use xlink:href="#DejaVuSans-4f" transform="translate(900.40625 0)"/>
      <use xlink:href="#DejaVuSans-47" transform="translate(928.1875 0)"/>
     </g>
    </g>
   </g>
  </g>
 </g>
 <defs>
  <clipPath id="pccaa6e6401">
   <rect x="47.501021" y="18.118365" width="669.498739" height="287.175145"/>
  </clipPath>
 </defs>
</svg>
