<?xml version="1.0" encoding="utf-8" standalone="no"?>
<!DOCTYPE svg PUBLIC "-//W3C//DTD SVG 1.1//EN"
  "http://www.w3.org/Graphics/SVG/1.1/DTD/svg11.dtd">
<svg xmlns:xlink="http://www.w3.org/1999/xlink" width="864pt" height="345.6pt" viewBox="0 0 864 345.6" xmlns="http://www.w3.org/2000/svg" version="1.1">
 <metadata>
  <rdf:RDF xmlns:dc="http://purl.org/dc/elements/1.1/" xmlns:cc="http://creativecommons.org/ns#" xmlns:rdf="http://www.w3.org/1999/02/22-rdf-syntax-ns#">
   <cc:Work>
    <dc:type rdf:resource="http://purl.org/dc/dcmitype/StillImage"/>
    <dc:date>2026-06-13T14:27:43.928109</dc:date>
    <dc:format>image/svg+xml</dc:format>
    <dc:creator>
     <cc:Agent>
      <dc:title>Matplotlib v3.11.0, https://matplotlib.org/</dc:title>
     </cc:Agent>
    </dc:creator>
   </cc:Work>
  </rdf:RDF>
 </metadata>
 <defs>
  <style type="text/css">*{stroke-linejoin: round; stroke-linecap: butt}</style>
 </defs>
 <g id="figure_1">
  <g id="patch_1">
   <path d="M 0 345.6
L 864 345.6
L 864 0
L 0 0
z
" style="fill: #ffffff"/>
  </g>
  <g id="axes_1">
   <g id="patch_2">
    <path d="M 39.904146 298.663994
L 422.290937 298.663994
L 422.290937 18.118365
L 39.904146 18.118365
z
" style="fill: #ffffff"/>
   </g>
   <g id="matplotlib.axis_1">
    <g id="xtick_1">
     <g id="line2d_1">
      <defs>
       <path id="m74d44c413b" d="M 0 0
L 0 3.5
" style="stroke: #000000; stroke-width: 0.8"/>
      </defs>
      <g>
       <use xlink:href="#m74d44c413b" x="422.290937" y="298.663994" style="stroke: #000000; stroke-width: 0.8"/>
      </g>
     </g>
     <g id="text_1">
      <!-- 0 -->
      <g transform="translate(419.109687 313.26165) scale(0.1 -0.1)">
       <defs>
        <path id="DejaVuSans-13" d="M 2034 4250
Q 1547 4250 1301 3770
Q 1056 3291 1056 2328
Q 1056 1369 1301 889
Q 1547 409 2034 409
Q 2525 409 2770 889
Q 3016 1369 3016 2328
Q 3016 3291 2770 3770
Q 2525 4250 2034 4250
z
M 2034 4750
Q 2819 4750 3233 4129
Q 3647 3509 3647 2328
Q 3647 1150 3233 529
Q 2819 -91 2034 -91
Q 1250 -91 836 529
Q 422 1150 422 2328
Q 422 3509 836 4129
Q 1250 4750 2034 4750
z
" transform="scale(0.015625)"/>
       </defs>
       <use xlink:href="#DejaVuSans-13"/>
      </g>
     </g>
    </g>
    <g id="xtick_2">
     <g id="line2d_2">
      <g>
       <use xlink:href="#m74d44c413b" x="374.492589" y="298.663994" style="stroke: #000000; stroke-width: 0.8"/>
      </g>
     </g>
     <g id="text_2">
      <!-- 1 -->
      <g transform="translate(371.311339 313.26165) scale(0.1 -0.1)">
       <defs>
        <path id="DejaVuSans-14" d="M 794 531
L 1825 531
L 1825 4091
L 703 3866
L 703 4441
L 1819 4666
L 2450 4666
L 2450 531
L 3481 531
L 3481 0
L 794 0
L 794 531
z
" transform="scale(0.015625)"/>
       </defs>
       <use xlink:href="#DejaVuSans-14"/>
      </g>
     </g>
    </g>
    <g id="xtick_3">
     <g id="line2d_3">
      <g>
       <use xlink:href="#m74d44c413b" x="326.69424" y="298.663994" style="stroke: #000000; stroke-width: 0.8"/>
      </g>
     </g>
     <g id="text_3">
      <!-- 2 -->
      <g transform="translate(323.51299 313.26165) scale(0.1 -0.1)">
       <defs>
        <path id="DejaVuSans-15" d="M 1228 531
L 3431 531
L 3431 0
L 469 0
L 469 531
Q 828 903 1448 1529
Q 2069 2156 2228 2338
Q 2531 2678 2651 2914
Q 2772 3150 2772 3378
Q 2772 3750 2511 3984
Q 2250 4219 1831 4219
Q 1534 4219 1204 4116
Q 875 4013 500 3803
L 500 4441
Q 881 4594 1212 4672
Q 1544 4750 1819 4750
Q 2544 4750 2975 4387
Q 3406 4025 3406 3419
Q 3406 3131 3298 2873
Q 3191 2616 2906 2266
Q 2828 2175 2409 1742
Q 1991 1309 1228 531
z
" transform="scale(0.015625)"/>
       </defs>
       <use xlink:href="#DejaVuSans-15"/>
      </g>
     </g>
    </g>
    <g id="xtick_4">
     <g id="line2d_4">
      <g>
       <use xlink:href="#m74d44c413b" x="278.895891" y="298.663994" style="stroke: #000000; stroke-width: 0.8"/>
      </g>
     </g>
     <g id="text_4">
      <!-- 3 -->
      <g transform="translate(275.714641 313.26165) scale(0.1 -0.1)">
       <defs>
        <path id="DejaVuSans-16" d="M 2597 2516
Q 3050 2419 3304 2112
Q 3559 1806 3559 1356
Q 3559 666 3084 287
Q 2609 -91 1734 -91
Q 1441 -91 1130 -33
Q 819 25 488 141
L 488 750
Q 750 597 1062 519
Q 1375 441 1716 441
Q 2309 441 2620 675
Q 2931 909 2931 1356
Q 2931 1769 2642 2001
Q 2353 2234 1838 2234
L 1294 2234
L 1294 2753
L 1863 2753
Q 2328 2753 2575 2939
Q 2822 3125 2822 3475
Q 2822 3834 2567 4026
Q 2313 4219 1838 4219
Q 1578 4219 1281 4162
Q 984 4106 628 3988
L 628 4550
Q 988 4650 1302 4700
Q 1616 4750 1894 4750
Q 2613 4750 3031 4423
Q 3450 4097 3450 3541
Q 3450 3153 3228 2886
Q 3006 2619 2597 2516
z
" transform="scale(0.015625)"/>
       </defs>
       <use xlink:href="#DejaVuSans-16"/>
      </g>
     </g>
    </g>
    <g id="xtick_5">
     <g id="line2d_5">
      <g>
       <use xlink:href="#m74d44c413b" x="231.097542" y="298.663994" style="stroke: #000000; stroke-width: 0.8"/>
      </g>
     </g>
     <g id="text_5">
      <!-- 4 -->
      <g transform="translate(227.916292 313.26165) scale(0.1 -0.1)">
       <defs>
        <path id="DejaVuSans-17" d="M 2419 4116
L 825 1625
L 2419 1625
L 2419 4116
z
M 2253 4666
L 3047 4666
L 3047 1625
L 3713 1625
L 3713 1100
L 3047 1100
L 3047 0
L 2419 0
L 2419 1100
L 313 1100
L 313 1709
L 2253 4666
z
" transform="scale(0.015625)"/>
       </defs>
       <use xlink:href="#DejaVuSans-17"/>
      </g>
     </g>
    </g>
    <g id="xtick_6">
     <g id="line2d_6">
      <g>
       <use xlink:href="#m74d44c413b" x="183.299193" y="298.663994" style="stroke: #000000; stroke-width: 0.8"/>
      </g>
     </g>
     <g id="text_6">
      <!-- 5 -->
      <g transform="translate(180.117943 313.26165) scale(0.1 -0.1)">
       <defs>
        <path id="DejaVuSans-18" d="M 691 4666
L 3169 4666
L 3169 4134
L 1269 4134
L 1269 2991
Q 1406 3038 1543 3061
Q 1681 3084 1819 3084
Q 2600 3084 3056 2656
Q 3513 2228 3513 1497
Q 3513 744 3044 326
Q 2575 -91 1722 -91
Q 1428 -91 1123 -41
Q 819 9 494 109
L 494 744
Q 775 591 1075 516
Q 1375 441 1709 441
Q 2250 441 2565 725
Q 2881 1009 2881 1497
Q 2881 1984 2565 2268
Q 2250 2553 1709 2553
Q 1456 2553 1204 2497
Q 953 2441 691 2322
L 691 4666
z
" transform="scale(0.015625)"/>
       </defs>
       <use xlink:href="#DejaVuSans-18"/>
      </g>
     </g>
    </g>
    <g id="xtick_7">
     <g id="line2d_7">
      <g>
       <use xlink:href="#m74d44c413b" x="135.500844" y="298.663994" style="stroke: #000000; stroke-width: 0.8"/>
      </g>
     </g>
     <g id="text_7">
      <!-- 6 -->
      <g transform="translate(132.319594 313.26165) scale(0.1 -0.1)">
       <defs>
        <path id="DejaVuSans-19" d="M 2113 2584
Q 1688 2584 1439 2293
Q 1191 2003 1191 1497
Q 1191 994 1439 701
Q 1688 409 2113 409
Q 2538 409 2786 701
Q 3034 994 3034 1497
Q 3034 2003 2786 2293
Q 2538 2584 2113 2584
z
M 3366 4563
L 3366 3988
Q 3128 4100 2886 4159
Q 2644 4219 2406 4219
Q 1781 4219 1451 3797
Q 1122 3375 1075 2522
Q 1259 2794 1537 2939
Q 1816 3084 2150 3084
Q 2853 3084 3261 2657
Q 3669 2231 3669 1497
Q 3669 778 3244 343
Q 2819 -91 2113 -91
Q 1303 -91 875 529
Q 447 1150 447 2328
Q 447 3434 972 4092
Q 1497 4750 2381 4750
Q 2619 4750 2861 4703
Q 3103 4656 3366 4563
z
" transform="scale(0.015625)"/>
       </defs>
       <use xlink:href="#DejaVuSans-19"/>
      </g>
     </g>
    </g>
    <g id="xtick_8">
     <g id="line2d_8">
      <g>
       <use xlink:href="#m74d44c413b" x="87.702495" y="298.663994" style="stroke: #000000; stroke-width: 0.8"/>
      </g>
     </g>
     <g id="text_8">
      <!-- 7 -->
      <g transform="translate(84.521245 313.26165) scale(0.1 -0.1)">
       <defs>
        <path id="DejaVuSans-1a" d="M 525 4666
L 3525 4666
L 3525 4397
L 1831 0
L 1172 0
L 2766 4134
L 525 4134
L 525 4666
z
" transform="scale(0.015625)"/>
       </defs>
       <use xlink:href="#DejaVuSans-1a"/>
      </g>
     </g>
    </g>
    <g id="xtick_9">
     <g id="line2d_9">
      <g>
       <use xlink:href="#m74d44c413b" x="39.904146" y="298.663994" style="stroke: #000000; stroke-width: 0.8"/>
      </g>
     </g>
     <g id="text_9">
      <!-- 8 -->
      <g transform="translate(36.722896 313.26165) scale(0.1 -0.1)">
       <defs>
        <path id="DejaVuSans-1b" d="M 2034 2216
Q 1584 2216 1326 1975
Q 1069 1734 1069 1313
Q 1069 891 1326 650
Q 1584 409 2034 409
Q 2484 409 2743 651
Q 3003 894 3003 1313
Q 3003 1734 2745 1975
Q 2488 2216 2034 2216
z
M 1403 2484
Q 997 2584 770 2862
Q 544 3141 544 3541
Q 544 4100 942 4425
Q 1341 4750 2034 4750
Q 2731 4750 3128 4425
Q 3525 4100 3525 3541
Q 3525 3141 3298 2862
Q 3072 2584 2669 2484
Q 3125 2378 3379 2068
Q 3634 1759 3634 1313
Q 3634 634 3220 271
Q 2806 -91 2034 -91
Q 1263 -91 848 271
Q 434 634 434 1313
Q 434 1759 690 2068
Q 947 2378 1403 2484
z
M 1172 3481
Q 1172 3119 1398 2916
Q 1625 2713 2034 2713
Q 2441 2713 2670 2916
Q 2900 3119 2900 3481
Q 2900 3844 2670 4047
Q 2441 4250 2034 4250
Q 1625 4250 1398 4047
Q 1172 3844 1172 3481
z
" transform="scale(0.015625)"/>
       </defs>
       <use xlink:href="#DejaVuSans-1b"/>
      </g>
     </g>
    </g>
    <g id="text_10">
     <!-- z -->
     <g transform="translate(228.473323 327.26165) scale(0.1 -0.1)">
      <defs>
       <path id="DejaVuSans-5d" d="M 353 3500
L 3084 3500
L 3084 2975
L 922 459
L 3084 459
L 3084 0
L 275 0
L 275 525
L 2438 3041
L 353 3041
L 353 3500
z
" transform="scale(0.015625)"/>
      </defs>
      <use xlink:href="#DejaVuSans-5d"/>
     </g>
    </g>
   </g>
   <g id="matplotlib.axis_2">
    <g id="ytick_1">
     <g id="line2d_10">
      <defs>
       <path id="me957deb08a" d="M 0 0
L -3.5 0
" style="stroke: #000000; stroke-width: 0.8"/>
      </defs>
      <g>
       <use xlink:href="#me957deb08a" x="39.904146" y="285.91192" style="stroke: #000000; stroke-width: 0.8"/>
      </g>
     </g>
     <g id="text_11">
      <!-- 0.0 -->
      <g transform="translate(17.001021 289.710748) scale(0.1 -0.1)">
       <defs>
        <path id="DejaVuSans-11" d="M 684 794
L 1344 794
L 1344 0
L 684 0
L 684 794
z
" transform="scale(0.015625)"/>
       </defs>
       <use xlink:href="#DejaVuSans-13"/>
       <use xlink:href="#DejaVuSans-11" transform="translate(63.625 0)"/>
       <use xlink:href="#DejaVuSans-13" transform="translate(95.40625 0)"/>
      </g>
     </g>
    </g>
    <g id="ytick_2">
     <g id="line2d_11">
      <g>
       <use xlink:href="#me957deb08a" x="39.904146" y="234.903624" style="stroke: #000000; stroke-width: 0.8"/>
      </g>
     </g>
     <g id="text_12">
      <!-- 0.2 -->
      <g transform="translate(17.001021 238.702452) scale(0.1 -0.1)">
       <use xlink:href="#DejaVuSans-13"/>
       <use xlink:href="#DejaVuSans-11" transform="translate(63.625 0)"/>
       <use xlink:href="#DejaVuSans-15" transform="translate(95.40625 0)"/>
      </g>
     </g>
    </g>
    <g id="ytick_3">
     <g id="line2d_12">
      <g>
       <use xlink:href="#me957deb08a" x="39.904146" y="183.895328" style="stroke: #000000; stroke-width: 0.8"/>
      </g>
     </g>
     <g id="text_13">
      <!-- 0.4 -->
      <g transform="translate(17.001021 187.694156) scale(0.1 -0.1)">
       <use xlink:href="#DejaVuSans-13"/>
       <use xlink:href="#DejaVuSans-11" transform="translate(63.625 0)"/>
       <use xlink:href="#DejaVuSans-17" transform="translate(95.40625 0)"/>
      </g>
     </g>
    </g>
    <g id="ytick_4">
     <g id="line2d_13">
      <g>
       <use xlink:href="#me957deb08a" x="39.904146" y="132.887031" style="stroke: #000000; stroke-width: 0.8"/>
      </g>
     </g>
     <g id="text_14">
      <!-- 0.6 -->
      <g transform="translate(17.001021 136.68586) scale(0.1 -0.1)">
       <use xlink:href="#DejaVuSans-13"/>
       <use xlink:href="#DejaVuSans-11" transform="translate(63.625 0)"/>
       <use xlink:href="#DejaVuSans-19" transform="translate(95.40625 0)"/>
      </g>
     </g>
    </g>
    <g id="ytick_5">
     <g id="line2d_14">
      <g>
       <use xlink:href="#me957deb08a" x="39.904146" y="81.878735" style="stroke: #000000; stroke-width: 0.8"/>
      </g>
     </g>
     <g id="text_15">
      <!-- 0.8 -->
      <g transform="translate(17.001021 85.677563) scale(0.1 -0.1)">
       <use xlink:href="#DejaVuSans-13"/>
       <use xlink:href="#DejaVuSans-11" transform="translate(63.625 0)"/>
       <use xlink:href="#DejaVuSans-1b" transform="translate(95.40625 0)"/>
      </g>
     </g>
    </g>
    <g id="ytick_6">
     <g id="line2d_15">
      <g>
       <use xlink:href="#me957deb08a" x="39.904146" y="30.870439" style="stroke: #000000; stroke-width: 0.8"/>
      </g>
     </g>
     <g id="text_16">
      <!-- 1.0 -->
      <g transform="translate(17.001021 34.669267) scale(0.1 -0.1)">
       <use xlink:href="#DejaVuSans-14"/>
       <use xlink:href="#DejaVuSans-11" transform="translate(63.625 0)"/>
       <use xlink:href="#DejaVuSans-13" transform="translate(95.40625 0)"/>
      </g>
     </g>
    </g>
    <g id="text_17">
     <!-- normalized Gamma(a) -->
     <g transform="translate(10.598677 214.47243) rotate(-90) scale(0.1 -0.1)">
      <defs>
       <path id="DejaVuSans-51" d="M 3513 2113
L 3513 0
L 2938 0
L 2938 2094
Q 2938 2591 2744 2837
Q 2550 3084 2163 3084
Q 1697 3084 1428 2787
Q 1159 2491 1159 1978
L 1159 0
L 581 0
L 581 3500
L 1159 3500
L 1159 2956
Q 1366 3272 1645 3428
Q 1925 3584 2291 3584
Q 2894 3584 3203 3211
Q 3513 2838 3513 2113
z
" transform="scale(0.015625)"/>
       <path id="DejaVuSans-52" d="M 1959 3097
Q 1497 3097 1228 2736
Q 959 2375 959 1747
Q 959 1119 1226 758
Q 1494 397 1959 397
Q 2419 397 2687 759
Q 2956 1122 2956 1747
Q 2956 2369 2687 2733
Q 2419 3097 1959 3097
z
M 1959 3584
Q 2709 3584 3137 3096
Q 3566 2609 3566 1747
Q 3566 888 3137 398
Q 2709 -91 1959 -91
Q 1206 -91 779 398
Q 353 888 353 1747
Q 353 2609 779 3096
Q 1206 3584 1959 3584
z
" transform="scale(0.015625)"/>
       <path id="DejaVuSans-55" d="M 2631 2963
Q 2534 3019 2420 3045
Q 2306 3072 2169 3072
Q 1681 3072 1420 2755
Q 1159 2438 1159 1844
L 1159 0
L 581 0
L 581 3500
L 1159 3500
L 1159 2956
Q 1341 3275 1631 3429
Q 1922 3584 2338 3584
Q 2397 3584 2469 3576
Q 2541 3569 2628 3553
L 2631 2963
z
" transform="scale(0.015625)"/>
       <path id="DejaVuSans-50" d="M 3328 2828
Q 3544 3216 3844 3400
Q 4144 3584 4550 3584
Q 5097 3584 5394 3201
Q 5691 2819 5691 2113
L 5691 0
L 5113 0
L 5113 2094
Q 5113 2597 4934 2840
Q 4756 3084 4391 3084
Q 3944 3084 3684 2787
Q 3425 2491 3425 1978
L 3425 0
L 2847 0
L 2847 2094
Q 2847 2600 2669 2842
Q 2491 3084 2119 3084
Q 1678 3084 1418 2786
Q 1159 2488 1159 1978
L 1159 0
L 581 0
L 581 3500
L 1159 3500
L 1159 2956
Q 1356 3278 1631 3431
Q 1906 3584 2284 3584
Q 2666 3584 2933 3390
Q 3200 3197 3328 2828
z
" transform="scale(0.015625)"/>
       <path id="DejaVuSans-44" d="M 2194 1759
Q 1497 1759 1228 1600
Q 959 1441 959 1056
Q 959 750 1161 570
Q 1363 391 1709 391
Q 2188 391 2477 730
Q 2766 1069 2766 1631
L 2766 1759
L 2194 1759
z
M 3341 1997
L 3341 0
L 2766 0
L 2766 531
Q 2569 213 2275 61
Q 1981 -91 1556 -91
Q 1019 -91 701 211
Q 384 513 384 1019
Q 384 1609 779 1909
Q 1175 2209 1959 2209
L 2766 2209
L 2766 2266
Q 2766 2663 2505 2880
Q 2244 3097 1772 3097
Q 1472 3097 1187 3025
Q 903 2953 641 2809
L 641 3341
Q 956 3463 1253 3523
Q 1550 3584 1831 3584
Q 2591 3584 2966 3190
Q 3341 2797 3341 1997
z
" transform="scale(0.015625)"/>
       <path id="DejaVuSans-4f" d="M 603 4863
L 1178 4863
L 1178 0
L 603 0
L 603 4863
z
" transform="scale(0.015625)"/>
       <path id="DejaVuSans-4c" d="M 603 3500
L 1178 3500
L 1178 0
L 603 0
L 603 3500
z
M 603 4863
L 1178 4863
L 1178 4134
L 603 4134
L 603 4863
z
" transform="scale(0.015625)"/>
       <path id="DejaVuSans-48" d="M 3597 1894
L 3597 1613
L 953 1613
Q 991 1019 1311 708
Q 1631 397 2203 397
Q 2534 397 2845 478
Q 3156 559 3463 722
L 3463 178
Q 3153 47 2828 -22
Q 2503 -91 2169 -91
Q 1331 -91 842 396
Q 353 884 353 1716
Q 353 2575 817 3079
Q 1281 3584 2069 3584
Q 2775 3584 3186 3129
Q 3597 2675 3597 1894
z
M 3022 2063
Q 3016 2534 2758 2815
Q 2500 3097 2075 3097
Q 1594 3097 1305 2825
Q 1016 2553 972 2059
L 3022 2063
z
" transform="scale(0.015625)"/>
       <path id="DejaVuSans-47" d="M 2906 2969
L 2906 4863
L 3481 4863
L 3481 0
L 2906 0
L 2906 525
Q 2725 213 2448 61
Q 2172 -91 1784 -91
Q 1150 -91 751 415
Q 353 922 353 1747
Q 353 2572 751 3078
Q 1150 3584 1784 3584
Q 2172 3584 2448 3432
Q 2725 3281 2906 2969
z
M 947 1747
Q 947 1113 1208 752
Q 1469 391 1925 391
Q 2381 391 2643 752
Q 2906 1113 2906 1747
Q 2906 2381 2643 2742
Q 2381 3103 1925 3103
Q 1469 3103 1208 2742
Q 947 2381 947 1747
z
" transform="scale(0.015625)"/>
       <path id="DejaVuSans-3" transform="scale(0.015625)"/>
       <path id="DejaVuSans-2a" d="M 3809 666
L 3809 1919
L 2778 1919
L 2778 2438
L 4434 2438
L 4434 434
Q 4069 175 3628 42
Q 3188 -91 2688 -91
Q 1594 -91 976 548
Q 359 1188 359 2328
Q 359 3472 976 4111
Q 1594 4750 2688 4750
Q 3144 4750 3555 4637
Q 3966 4525 4313 4306
L 4313 3634
Q 3963 3931 3569 4081
Q 3175 4231 2741 4231
Q 1884 4231 1454 3753
Q 1025 3275 1025 2328
Q 1025 1384 1454 906
Q 1884 428 2741 428
Q 3075 428 3337 486
Q 3600 544 3809 666
z
" transform="scale(0.015625)"/>
       <path id="DejaVuSans-b" d="M 1984 4856
Q 1566 4138 1362 3434
Q 1159 2731 1159 2009
Q 1159 1288 1364 580
Q 1569 -128 1984 -844
L 1484 -844
Q 1016 -109 783 600
Q 550 1309 550 2009
Q 550 2706 781 3412
Q 1013 4119 1484 4856
L 1984 4856
z
" transform="scale(0.015625)"/>
       <path id="DejaVuSans-c" d="M 513 4856
L 1013 4856
Q 1481 4119 1714 3412
Q 1947 2706 1947 2009
Q 1947 1309 1714 600
Q 1481 -109 1013 -844
L 513 -844
Q 928 -128 1133 580
Q 1338 1288 1338 2009
Q 1338 2731 1133 3434
Q 928 4138 513 4856
z
" transform="scale(0.015625)"/>
      </defs>
      <use xlink:href="#DejaVuSans-51"/>
      <use xlink:href="#DejaVuSans-52" transform="translate(63.375 0)"/>
      <use xlink:href="#DejaVuSans-55" transform="translate(124.5625 0)"/>
      <use xlink:href="#DejaVuSans-50" transform="translate(163.921875 0)"/>
      <use xlink:href="#DejaVuSans-44" transform="translate(261.328125 0)"/>
      <use xlink:href="#DejaVuSans-4f" transform="translate(322.609375 0)"/>
      <use xlink:href="#DejaVuSans-4c" transform="translate(350.390625 0)"/>
      <use xlink:href="#DejaVuSans-5d" transform="translate(378.171875 0)"/>
      <use xlink:href="#DejaVuSans-48" transform="translate(430.65625 0)"/>
      <use xlink:href="#DejaVuSans-47" transform="translate(492.1875 0)"/>
      <use xlink:href="#DejaVuSans-3" transform="translate(555.671875 0)"/>
      <use xlink:href="#DejaVuSans-2a" transform="translate(587.453125 0)"/>
      <use xlink:href="#DejaVuSans-44" transform="translate(664.9375 0)"/>
      <use xlink:href="#DejaVuSans-50" transform="translate(726.21875 0)"/>
      <use xlink:href="#DejaVuSans-50" transform="translate(823.625 0)"/>
      <use xlink:href="#DejaVuSans-44" transform="translate(921.03125 0)"/>
      <use xlink:href="#DejaVuSans-b" transform="translate(982.3125 0)"/>
      <use xlink:href="#DejaVuSans-44" transform="translate(1021.328125 0)"/>
      <use xlink:href="#DejaVuSans-c" transform="translate(1082.609375 0)"/>
     </g>
    </g>
   </g>
   <g id="line2d_16">
    <path d="M -1 30.870439
L 422.290937 30.870439
L 422.290937 30.870439
" clip-path="url(#p0ed831e63e)" style="fill: none; stroke: #1f77b4; stroke-width: 1.5; stroke-linecap: square"/>
   </g>
   <g id="line2d_17">
    <path d="M -1 285.909177
L 247.944778 285.794296
L 290.936155 285.567131
L 312.868315 285.249516
L 327.810222 284.820554
L 338.330415 284.309502
L 346.183679 283.733104
L 352.670344 283.061004
L 357.959373 282.32214
L 363.010164 281.391787
L 367.044924 280.434777
L 370.927653 279.275147
L 373.928232 278.173021
L 376.838015 276.88787
L 379.659749 275.389303
L 382.396099 273.641879
L 384.393885 272.143386
L 386.346159 270.461887
L 388.253957 268.575033
L 390.118292 266.457745
L 391.940155 264.08188
L 393.720513 261.415861
L 395.460312 258.42425
L 397.160475 255.067286
L 398.821906 251.300348
L 400.445487 247.073368
L 402.032081 242.330163
L 403.582529 237.007689
L 405.097656 231.035201
L 406.578266 224.333316
L 408.025145 216.812956
L 409.439062 208.374162
L 410.820768 198.90477
L 412.170996 188.278918
L 413.490465 176.355371
L 414.779873 162.975646
L 416.039907 147.961907
L 417.271236 131.114596
L 418.474512 112.209788
L 419.650377 90.996207
L 421.176632 58.627786
L 422.290937 30.870439
L 422.290937 30.870439
" clip-path="url(#p0ed831e63e)" style="fill: none; stroke: #ff7f0e; stroke-width: 1.5; stroke-linecap: square"/>
   </g>
   <g id="line2d_18">
    <path d="M -1 30.925076
L 92.667117 31.14517
L 148.894102 31.480659
L 188.215236 31.924473
L 216.955853 32.457697
L 239.246585 33.07888
L 257.951076 33.821671
L 273.636693 34.678654
L 286.759621 35.632225
L 297.686676 36.654091
L 306.712239 37.706049
L 315.265299 38.927911
L 322.239205 40.128612
L 328.898978 41.488293
L 335.258767 43.024702
L 340.339204 44.453616
L 345.22821 46.029745
L 349.932998 47.764835
L 354.460508 49.670834
L 358.81742 51.759714
L 363.010164 54.043261
L 367.044924 56.53282
L 370.927653 59.239014
L 374.664081 62.171416
L 378.259719 65.338207
L 381.719874 68.745808
L 385.049649 72.398517
L 388.253957 76.298148
L 391.337527 80.443717
L 394.304907 84.831164
L 397.160475 89.453163
L 399.908446 94.299011
L 402.552872 99.354632
L 405.594989 105.673658
L 408.500076 112.23401
L 411.724373 120.137842
L 414.779873 128.242128
L 418.076497 137.651078
L 421.550924 148.284302
L 422.290937 150.638693
L 422.290937 150.638693
" clip-path="url(#p0ed831e63e)" style="fill: none; stroke: #2ca02c; stroke-width: 1.5; stroke-linecap: square"/>
   </g>
   <g id="line2d_19">
    <path d="M -1 283.831424
L 23.177403 283.20801
L 46.573982 282.379727
L 65.650845 281.472297
L 80.890156 280.542276
L 95.555248 279.41996
L 106.88845 278.357958
L 117.878715 277.125303
L 128.536421 275.695665
L 138.871631 274.039041
L 146.417281 272.627291
L 153.79103 271.05282
L 160.996793 269.298179
L 168.038398 267.344379
L 174.919584 265.170846
L 181.644006 262.755392
L 188.215236 260.074234
L 192.512675 258.126732
L 196.744595 256.042045
L 200.911996 253.812044
L 205.015861 251.42837
L 209.057159 248.882469
L 213.036843 246.165641
L 216.955853 243.269099
L 220.815115 240.18404
L 224.615538 236.90173
L 228.358019 233.4136
L 232.043444 229.711367
L 235.67268 225.787163
L 239.246585 221.633688
L 242.766003 217.24438
L 246.231763 212.613607
L 249.644685 207.736878
L 253.005574 202.611072
L 256.315222 197.23469
L 259.574412 191.608116
L 262.783913 185.733903
L 265.944481 179.617059
L 270.595216 170.004661
L 275.139999 159.903849
L 279.581245 149.371472
L 283.921313 138.483729
L 289.554657 123.584547
L 296.357234 104.764274
L 306.712239 75.926401
L 310.434221 66.116417
L 314.07141 57.160101
L 316.450051 51.759748
L 318.792428 46.880114
L 321.099094 42.572444
L 323.370591 38.883342
L 325.607458 35.853742
L 327.810222 33.517959
L 328.898978 32.618963
L 329.979402 31.902887
L 331.051559 31.371826
L 332.115511 31.027339
L 333.171322 30.870439
L 334.219053 30.901589
L 335.258767 31.120698
L 336.290525 31.527119
L 337.314387 32.119657
L 338.330415 32.896576
L 339.338667 33.855605
L 340.339204 34.99396
L 342.317368 37.795017
L 344.265373 41.26783
L 346.183679 45.37358
L 348.072739 50.067446
L 349.932998 55.299618
L 351.764895 61.016364
L 354.460508 70.375871
L 357.09471 80.501097
L 359.668901 91.194253
L 363.010164 106.005646
L 367.833446 128.577325
L 376.838015 171.090736
L 381.038434 189.671165
L 384.393885 203.477219
L 387.622903 215.722987
L 390.118292 224.424113
L 392.538172 232.199813
L 394.884828 239.108828
L 397.160475 245.217484
L 399.367263 250.595512
L 401.507274 255.312922
L 403.582529 259.437772
L 405.594989 263.034667
L 408.025145 266.879622
L 410.363733 270.100192
L 412.614202 272.79084
L 414.779873 275.03398
L 416.863942 276.900749
L 419.261429 278.72914
L 421.550924 280.190844
L 422.290937 280.609442
L 422.290937 280.609442
" clip-path="url(#p0ed831e63e)" style="fill: none; stroke: #d62728; stroke-width: 1.5; stroke-linecap: square"/>
   </g>
   <g id="line2d_20">
    <path d="M -1 285.826032
L 120.573921 285.629485
L 177.178298 285.34161
L 213.036843 284.954759
L 237.466496 284.49172
L 256.315222 283.931297
L 272.121795 283.23545
L 283.921313 282.510211
L 293.667515 281.720108
L 302.903488 280.751846
L 310.434221 279.751589
L 317.625738 278.564782
L 323.370591 277.410175
L 328.898978 276.082639
L 334.219053 274.558663
L 338.330415 273.180624
L 342.317368 271.645681
L 346.183679 269.938173
L 349.932998 268.041322
L 353.568863 265.937254
L 357.09471 263.607028
L 360.513866 261.030694
L 363.82956 258.187382
L 367.044924 255.055414
L 370.162992 251.612463
L 373.186709 247.835727
L 376.118929 243.702156
L 378.962423 239.1887
L 381.719874 234.272596
L 384.393885 228.931671
L 386.986983 223.144675
L 389.501615 216.891616
L 391.940155 210.1541
L 394.304907 202.915652
L 396.598102 195.162022
L 398.821906 186.881442
L 400.97842 178.064837
L 403.069678 168.705976
L 405.594989 156.240081
L 408.025145 142.921855
L 410.363733 128.758014
L 412.614202 113.761492
L 414.779873 97.950572
L 417.271236 77.934432
L 419.650377 56.822603
L 421.922352 34.662402
L 422.290937 30.870439
L 422.290937 30.870439
" clip-path="url(#p0ed831e63e)" style="fill: none; stroke: #9467bd; stroke-width: 1.5; stroke-linecap: square"/>
   </g>
   <g id="line2d_21">
    <path d="M -1 285.307002
L 36.700721 284.915021
L 65.650845 284.404048
L 86.823869 283.832262
L 104.087712 283.17333
L 120.573921 282.307108
L 133.743721 281.38119
L 143.92136 280.473774
L 153.79103 279.386992
L 163.362048 278.086435
L 170.349769 276.946591
L 177.178298 275.644175
L 183.851263 274.157085
L 190.372208 272.460555
L 196.744595 270.52694
L 202.97181 268.32553
L 207.044271 266.692525
L 211.054644 264.914613
L 215.003875 262.980261
L 218.892895 260.877279
L 222.722624 258.592841
L 226.493966 256.113518
L 230.207809 253.425324
L 233.865031 250.513793
L 237.466496 247.364072
L 241.013053 243.961049
L 244.505539 240.289515
L 247.944778 236.334359
L 251.331584 232.080815
L 254.666754 227.514747
L 257.951076 222.622998
L 261.185326 217.393787
L 264.370267 211.817167
L 267.50665 205.885543
L 270.595216 199.59425
L 273.636693 192.942183
L 276.631801 185.932476
L 279.581245 178.573218
L 282.485722 170.878178
L 286.759621 158.752104
L 290.936155 146.016364
L 295.01754 132.810149
L 300.315118 114.792102
L 312.868315 71.470515
L 316.450051 60.230928
L 318.792428 53.501
L 321.099094 47.494932
L 323.370591 42.302775
L 325.607458 38.005263
L 326.71307 36.214042
L 327.810222 34.671243
L 328.898978 33.383236
L 329.979402 32.35539
L 331.051559 31.592016
L 332.115511 31.096332
L 333.171322 30.870439
L 334.219053 30.915294
L 335.258767 31.230706
L 336.290525 31.815338
L 337.314387 32.666719
L 338.330415 33.781262
L 339.338667 35.154303
L 340.339204 36.780135
L 341.332085 38.652064
L 343.295112 43.102839
L 345.22821 48.435643
L 347.131837 54.568017
L 349.006441 61.408628
L 350.852464 68.860004
L 353.568863 80.961276
L 356.223379 93.868227
L 359.668901 111.767189
L 372.439467 179.815582
L 375.394299 194.06864
L 378.259719 206.892606
L 381.038434 218.283525
L 383.733065 228.293067
L 386.346159 237.009573
L 388.880182 244.542746
L 391.337527 251.012007
L 393.720513 256.538152
L 396.031392 261.237725
L 398.272345 265.219533
L 400.445487 268.582743
L 402.552872 271.416108
L 404.596488 273.797947
L 406.578266 275.79661
L 408.500076 277.471223
L 410.820768 279.185442
L 413.054016 280.555289
L 415.623118 281.839055
L 418.076497 282.817057
L 420.799453 283.666727
L 422.290937 284.043349
L 422.290937 284.043349
" clip-path="url(#p0ed831e63e)" style="fill: none; stroke: #8c564b; stroke-width: 1.5; stroke-linecap: square"/>
   </g>
   <g id="line2d_22">
    <path d="M -1 271.250556
L 16.258316 269.579278
L 33.358747 267.660599
L 46.573982 265.965658
L 59.389332 264.114551
L 71.816896 262.09326
L 83.868408 259.886614
L 95.555248 257.478238
L 104.087712 255.529007
L 112.425794 253.448484
L 120.573921 251.228329
L 128.536421 248.859782
L 136.317524 246.333662
L 143.92136 243.640385
L 151.35197 240.769975
L 158.613299 237.712099
L 165.709203 234.456106
L 172.643452 230.991086
L 179.419728 227.305951
L 186.04163 223.389529
L 192.512675 219.230698
L 198.836299 214.818542
L 205.015861 210.142554
L 211.054644 205.192874
L 216.955853 199.960584
L 222.722624 194.438055
L 228.358019 188.619359
L 233.865031 182.50075
L 239.246585 176.081211
L 244.505539 169.363083
L 249.644685 162.352761
L 254.666754 155.061452
L 259.574412 147.505992
L 264.370267 139.709689
L 269.056864 131.703163
L 275.139999 120.76898
L 281.039061 109.647349
L 288.162507 95.707312
L 302.903488 66.650023
L 307.962442 57.344534
L 311.655942 51.049668
L 315.265299 45.455767
L 317.625738 42.163843
L 319.950191 39.252587
L 322.239205 36.745606
L 324.49332 34.663517
L 326.71307 33.023537
L 328.898978 31.839123
L 331.051559 31.119694
L 332.115511 30.936139
L 333.171322 30.870439
L 334.219053 30.922564
L 335.258767 31.092214
L 336.290525 31.378818
L 338.330415 32.29928
L 340.339204 33.67417
L 342.317368 35.489774
L 344.265373 37.728756
L 346.183679 40.370534
L 348.072739 43.391704
L 349.932998 46.766514
L 351.764895 50.467344
L 354.460508 56.5662
L 357.09471 63.232042
L 359.668901 70.362656
L 363.010164 80.420384
L 366.250321 90.902063
L 370.162992 104.29362
L 376.118929 125.624522
L 386.986983 164.750366
L 391.940155 181.638099
L 396.031392 194.809799
L 399.908446 206.522038
L 403.582529 216.862072
L 407.064268 225.942178
L 410.363733 233.884436
L 413.490465 240.811109
L 416.453507 246.838961
L 419.261429 252.076195
L 421.922352 256.62109
L 422.290937 257.219104
L 422.290937 257.219104
" clip-path="url(#p0ed831e63e)" style="fill: none; stroke: #e377c2; stroke-width: 1.5; stroke-linecap: square"/>
   </g>
   <g id="patch_3">
    <path d="M 39.904146 298.663994
L 39.904146 18.118365
" style="fill: none; stroke: #000000; stroke-width: 0.8; stroke-linejoin: miter; stroke-linecap: square"/>
   </g>
   <g id="patch_4">
    <path d="M 422.290937 298.663994
L 422.290937 18.118365
" style="fill: none; stroke: #000000; stroke-width: 0.8; stroke-linejoin: miter; stroke-linecap: square"/>
   </g>
   <g id="patch_5">
    <path d="M 39.904146 298.663994
L 422.290937 298.663994
" style="fill: none; stroke: #000000; stroke-width: 0.8; stroke-linejoin: miter; stroke-linecap: square"/>
   </g>
   <g id="patch_6">
    <path d="M 39.904146 18.118365
L 422.290937 18.118365
" style="fill: none; stroke: #000000; stroke-width: 0.8; stroke-linejoin: miter; stroke-linecap: square"/>
   </g>
   <g id="text_18">
    <!-- Timing shapes -->
    <g transform="translate(187.689417 12.118365) scale(0.12 -0.12)">
     <defs>
      <path id="DejaVuSans-37" d="M -19 4666
L 3928 4666
L 3928 4134
L 2272 4134
L 2272 0
L 1638 0
L 1638 4134
L -19 4134
L -19 4666
z
" transform="scale(0.015625)"/>
      <path id="DejaVuSans-4a" d="M 2906 1791
Q 2906 2416 2648 2759
Q 2391 3103 1925 3103
Q 1463 3103 1205 2759
Q 947 2416 947 1791
Q 947 1169 1205 825
Q 1463 481 1925 481
Q 2391 481 2648 825
Q 2906 1169 2906 1791
z
M 3481 434
Q 3481 -459 3084 -895
Q 2688 -1331 1869 -1331
Q 1566 -1331 1297 -1286
Q 1028 -1241 775 -1147
L 775 -588
Q 1028 -725 1275 -790
Q 1522 -856 1778 -856
Q 2344 -856 2625 -561
Q 2906 -266 2906 331
L 2906 616
Q 2728 306 2450 153
Q 2172 0 1784 0
Q 1141 0 747 490
Q 353 981 353 1791
Q 353 2603 747 3093
Q 1141 3584 1784 3584
Q 2172 3584 2450 3431
Q 2728 3278 2906 2969
L 2906 3500
L 3481 3500
L 3481 434
z
" transform="scale(0.015625)"/>
      <path id="DejaVuSans-56" d="M 2834 3397
L 2834 2853
Q 2591 2978 2328 3040
Q 2066 3103 1784 3103
Q 1356 3103 1142 2972
Q 928 2841 928 2578
Q 928 2378 1081 2264
Q 1234 2150 1697 2047
L 1894 2003
Q 2506 1872 2764 1633
Q 3022 1394 3022 966
Q 3022 478 2636 193
Q 2250 -91 1575 -91
Q 1294 -91 989 -36
Q 684 19 347 128
L 347 722
Q 666 556 975 473
Q 1284 391 1588 391
Q 1994 391 2212 530
Q 2431 669 2431 922
Q 2431 1156 2273 1281
Q 2116 1406 1581 1522
L 1381 1569
Q 847 1681 609 1914
Q 372 2147 372 2553
Q 372 3047 722 3315
Q 1072 3584 1716 3584
Q 2034 3584 2315 3537
Q 2597 3491 2834 3397
z
" transform="scale(0.015625)"/>
      <path id="DejaVuSans-4b" d="M 3513 2113
L 3513 0
L 2938 0
L 2938 2094
Q 2938 2591 2744 2837
Q 2550 3084 2163 3084
Q 1697 3084 1428 2787
Q 1159 2491 1159 1978
L 1159 0
L 581 0
L 581 4863
L 1159 4863
L 1159 2956
Q 1366 3272 1645 3428
Q 1925 3584 2291 3584
Q 2894 3584 3203 3211
Q 3513 2838 3513 2113
z
" transform="scale(0.015625)"/>
      <path id="DejaVuSans-53" d="M 1159 525
L 1159 -1331
L 581 -1331
L 581 3500
L 1159 3500
L 1159 2969
Q 1341 3281 1617 3432
Q 1894 3584 2278 3584
Q 2916 3584 3314 3078
Q 3713 2572 3713 1747
Q 3713 922 3314 415
Q 2916 -91 2278 -91
Q 1894 -91 1617 61
Q 1341 213 1159 525
z
M 3116 1747
Q 3116 2381 2855 2742
Q 2594 3103 2138 3103
Q 1681 3103 1420 2742
Q 1159 2381 1159 1747
Q 1159 1113 1420 752
Q 1681 391 2138 391
Q 2594 391 2855 752
Q 3116 1113 3116 1747
z
" transform="scale(0.015625)"/>
     </defs>
     <use xlink:href="#DejaVuSans-37"/>
     <use xlink:href="#DejaVuSans-4c" transform="translate(58 0)"/>
     <use xlink:href="#DejaVuSans-50" transform="translate(85.78125 0)"/>
     <use xlink:href="#DejaVuSans-4c" transform="translate(183.1875 0)"/>
     <use xlink:href="#DejaVuSans-51" transform="translate(210.96875 0)"/>
     <use xlink:href="#DejaVuSans-4a" transform="translate(274.34375 0)"/>
     <use xlink:href="#DejaVuSans-3" transform="translate(337.828125 0)"/>
     <use xlink:href="#DejaVuSans-56" transform="translate(369.609375 0)"/>
     <use xlink:href="#DejaVuSans-4b" transform="translate(421.703125 0)"/>
     <use xlink:href="#DejaVuSans-44" transform="translate(485.078125 0)"/>
     <use xlink:href="#DejaVuSans-53" transform="translate(546.359375 0)"/>
     <use xlink:href="#DejaVuSans-48" transform="translate(609.84375 0)"/>
     <use xlink:href="#DejaVuSans-56" transform="translate(671.375 0)"/>
    </g>
   </g>
   <g id="legend_1">
    <g id="line2d_23">
     <path d="M 47.104146 121.667742
L 55.104146 121.667742
L 63.104146 121.667742
" style="fill: none; stroke: #1f77b4; stroke-width: 1.5; stroke-linecap: square"/>
    </g>
    <g id="text_19">
     <!-- constant -->
     <g transform="translate(69.504146 124.467742) scale(0.08 -0.08)">
      <defs>
       <path id="DejaVuSans-46" d="M 3122 3366
L 3122 2828
Q 2878 2963 2633 3030
Q 2388 3097 2138 3097
Q 1578 3097 1268 2742
Q 959 2388 959 1747
Q 959 1106 1268 751
Q 1578 397 2138 397
Q 2388 397 2633 464
Q 2878 531 3122 666
L 3122 134
Q 2881 22 2623 -34
Q 2366 -91 2075 -91
Q 1284 -91 818 406
Q 353 903 353 1747
Q 353 2603 823 3093
Q 1294 3584 2113 3584
Q 2378 3584 2631 3529
Q 2884 3475 3122 3366
z
" transform="scale(0.015625)"/>
       <path id="DejaVuSans-57" d="M 1172 4494
L 1172 3500
L 2356 3500
L 2356 3053
L 1172 3053
L 1172 1153
Q 1172 725 1289 603
Q 1406 481 1766 481
L 2356 481
L 2356 0
L 1766 0
Q 1100 0 847 248
Q 594 497 594 1153
L 594 3053
L 172 3053
L 172 3500
L 594 3500
L 594 4494
L 1172 4494
z
" transform="scale(0.015625)"/>
      </defs>
      <use xlink:href="#DejaVuSans-46"/>
      <use xlink:href="#DejaVuSans-52" transform="translate(54.984375 0)"/>
      <use xlink:href="#DejaVuSans-51" transform="translate(116.171875 0)"/>
      <use xlink:href="#DejaVuSans-56" transform="translate(179.546875 0)"/>
      <use xlink:href="#DejaVuSans-57" transform="translate(231.640625 0)"/>
      <use xlink:href="#DejaVuSans-44" transform="translate(270.84375 0)"/>
      <use xlink:href="#DejaVuSans-51" transform="translate(332.125 0)"/>
      <use xlink:href="#DejaVuSans-57" transform="translate(395.5 0)"/>
     </g>
    </g>
    <g id="line2d_24">
     <path d="M 47.104146 133.668367
L 55.104146 133.668367
L 63.104146 133.668367
" style="fill: none; stroke: #ff7f0e; stroke-width: 1.5; stroke-linecap: square"/>
    </g>
    <g id="text_20">
     <!-- powerlaw -->
     <g transform="translate(69.504146 136.468367) scale(0.08 -0.08)">
      <defs>
       <path id="DejaVuSans-5a" d="M 269 3500
L 844 3500
L 1563 769
L 2278 3500
L 2956 3500
L 3675 769
L 4391 3500
L 4966 3500
L 4050 0
L 3372 0
L 2619 2869
L 1863 0
L 1184 0
L 269 3500
z
" transform="scale(0.015625)"/>
      </defs>
      <use xlink:href="#DejaVuSans-53"/>
      <use xlink:href="#DejaVuSans-52" transform="translate(63.484375 0)"/>
      <use xlink:href="#DejaVuSans-5a" transform="translate(124.671875 0)"/>
      <use xlink:href="#DejaVuSans-48" transform="translate(206.453125 0)"/>
      <use xlink:href="#DejaVuSans-55" transform="translate(267.984375 0)"/>
      <use xlink:href="#DejaVuSans-4f" transform="translate(309.09375 0)"/>
      <use xlink:href="#DejaVuSans-44" transform="translate(336.875 0)"/>
      <use xlink:href="#DejaVuSans-5a" transform="translate(398.15625 0)"/>
     </g>
    </g>
    <g id="line2d_25">
     <path d="M 47.104146 145.668992
L 55.104146 145.668992
L 63.104146 145.668992
" style="fill: none; stroke: #2ca02c; stroke-width: 1.5; stroke-linecap: square"/>
    </g>
    <g id="text_21">
     <!-- growth -->
     <g transform="translate(69.504146 148.468992) scale(0.08 -0.08)">
      <use xlink:href="#DejaVuSans-4a"/>
      <use xlink:href="#DejaVuSans-55" transform="translate(63.484375 0)"/>
      <use xlink:href="#DejaVuSans-52" transform="translate(102.390625 0)"/>
      <use xlink:href="#DejaVuSans-5a" transform="translate(163.578125 0)"/>
      <use xlink:href="#DejaVuSans-57" transform="translate(245.359375 0)"/>
      <use xlink:href="#DejaVuSans-4b" transform="translate(284.5625 0)"/>
     </g>
    </g>
    <g id="line2d_26">
     <path d="M 47.104146 157.669617
L 55.104146 157.669617
L 63.104146 157.669617
" style="fill: none; stroke: #d62728; stroke-width: 1.5; stroke-linecap: square"/>
    </g>
    <g id="text_22">
     <!-- collapsed -->
     <g transform="translate(69.504146 160.469617) scale(0.08 -0.08)">
      <use xlink:href="#DejaVuSans-46"/>
      <use xlink:href="#DejaVuSans-52" transform="translate(54.984375 0)"/>
      <use xlink:href="#DejaVuSans-4f" transform="translate(116.171875 0)"/>
      <use xlink:href="#DejaVuSans-4f" transform="translate(143.953125 0)"/>
      <use xlink:href="#DejaVuSans-44" transform="translate(171.734375 0)"/>
      <use xlink:href="#DejaVuSans-53" transform="translate(233.015625 0)"/>
      <use xlink:href="#DejaVuSans-56" transform="translate(296.5 0)"/>
      <use xlink:href="#DejaVuSans-48" transform="translate(348.59375 0)"/>
      <use xlink:href="#DejaVuSans-47" transform="translate(410.125 0)"/>
     </g>
    </g>
    <g id="line2d_27">
     <path d="M 47.104146 169.670242
L 55.104146 169.670242
L 63.104146 169.670242
" style="fill: none; stroke: #9467bd; stroke-width: 1.5; stroke-linecap: square"/>
    </g>
    <g id="text_23">
     <!-- horizon -->
     <g transform="translate(69.504146 172.470242) scale(0.08 -0.08)">
      <use xlink:href="#DejaVuSans-4b"/>
      <use xlink:href="#DejaVuSans-52" transform="translate(63.375 0)"/>
      <use xlink:href="#DejaVuSans-55" transform="translate(124.5625 0)"/>
      <use xlink:href="#DejaVuSans-4c" transform="translate(165.671875 0)"/>
      <use xlink:href="#DejaVuSans-5d" transform="translate(193.453125 0)"/>
      <use xlink:href="#DejaVuSans-52" transform="translate(245.9375 0)"/>
      <use xlink:href="#DejaVuSans-51" transform="translate(307.125 0)"/>
     </g>
    </g>
    <g id="line2d_28">
     <path d="M 47.104146 181.670867
L 55.104146 181.670867
L 63.104146 181.670867
" style="fill: none; stroke: #8c564b; stroke-width: 1.5; stroke-linecap: square"/>
    </g>
    <g id="text_24">
     <!-- BH proxy -->
     <g transform="translate(69.504146 184.470867) scale(0.08 -0.08)">
      <defs>
       <path id="DejaVuSans-25" d="M 1259 2228
L 1259 519
L 2272 519
Q 2781 519 3026 730
Q 3272 941 3272 1375
Q 3272 1813 3026 2020
Q 2781 2228 2272 2228
L 1259 2228
z
M 1259 4147
L 1259 2741
L 2194 2741
Q 2656 2741 2882 2914
Q 3109 3088 3109 3444
Q 3109 3797 2882 3972
Q 2656 4147 2194 4147
L 1259 4147
z
M 628 4666
L 2241 4666
Q 2963 4666 3353 4366
Q 3744 4066 3744 3513
Q 3744 3084 3544 2831
Q 3344 2578 2956 2516
Q 3422 2416 3680 2098
Q 3938 1781 3938 1306
Q 3938 681 3513 340
Q 3088 0 2303 0
L 628 0
L 628 4666
z
" transform="scale(0.015625)"/>
       <path id="DejaVuSans-2b" d="M 628 4666
L 1259 4666
L 1259 2753
L 3553 2753
L 3553 4666
L 4184 4666
L 4184 0
L 3553 0
L 3553 2222
L 1259 2222
L 1259 0
L 628 0
L 628 4666
z
" transform="scale(0.015625)"/>
       <path id="DejaVuSans-5b" d="M 3513 3500
L 2247 1797
L 3578 0
L 2900 0
L 1881 1375
L 863 0
L 184 0
L 1544 1831
L 300 3500
L 978 3500
L 1906 2253
L 2834 3500
L 3513 3500
z
" transform="scale(0.015625)"/>
       <path id="DejaVuSans-5c" d="M 2059 -325
Q 1816 -950 1584 -1140
Q 1353 -1331 966 -1331
L 506 -1331
L 506 -850
L 844 -850
Q 1081 -850 1212 -737
Q 1344 -625 1503 -206
L 1606 56
L 191 3500
L 800 3500
L 1894 763
L 2988 3500
L 3597 3500
L 2059 -325
z
" transform="scale(0.015625)"/>
      </defs>
      <use xlink:href="#DejaVuSans-25"/>
      <use xlink:href="#DejaVuSans-2b" transform="translate(68.609375 0)"/>
      <use xlink:href="#DejaVuSans-3" transform="translate(143.8125 0)"/>
      <use xlink:href="#DejaVuSans-53" transform="translate(175.59375 0)"/>
      <use xlink:href="#DejaVuSans-55" transform="translate(239.078125 0)"/>
      <use xlink:href="#DejaVuSans-52" transform="translate(277.984375 0)"/>
      <use xlink:href="#DejaVuSans-5b" transform="translate(336.09375 0)"/>
      <use xlink:href="#DejaVuSans-5c" transform="translate(395.28125 0)"/>
     </g>
    </g>
    <g id="line2d_29">
     <path d="M 47.104146 193.671492
L 55.104146 193.671492
L 63.104146 193.671492
" style="fill: none; stroke: #e377c2; stroke-width: 1.5; stroke-linecap: square"/>
    </g>
    <g id="text_25">
     <!-- SFR proxy -->
     <g transform="translate(69.504146 196.471492) scale(0.08 -0.08)">
      <defs>
       <path id="DejaVuSans-36" d="M 3425 4513
L 3425 3897
Q 3066 4069 2747 4153
Q 2428 4238 2131 4238
Q 1616 4238 1336 4038
Q 1056 3838 1056 3469
Q 1056 3159 1242 3001
Q 1428 2844 1947 2747
L 2328 2669
Q 3034 2534 3370 2195
Q 3706 1856 3706 1288
Q 3706 609 3251 259
Q 2797 -91 1919 -91
Q 1588 -91 1214 -16
Q 841 59 441 206
L 441 856
Q 825 641 1194 531
Q 1563 422 1919 422
Q 2459 422 2753 634
Q 3047 847 3047 1241
Q 3047 1584 2836 1778
Q 2625 1972 2144 2069
L 1759 2144
Q 1053 2284 737 2584
Q 422 2884 422 3419
Q 422 4038 858 4394
Q 1294 4750 2059 4750
Q 2388 4750 2728 4690
Q 3069 4631 3425 4513
z
" transform="scale(0.015625)"/>
       <path id="DejaVuSans-29" d="M 628 4666
L 3309 4666
L 3309 4134
L 1259 4134
L 1259 2759
L 3109 2759
L 3109 2228
L 1259 2228
L 1259 0
L 628 0
L 628 4666
z
" transform="scale(0.015625)"/>
       <path id="DejaVuSans-35" d="M 2841 2188
Q 3044 2119 3236 1894
Q 3428 1669 3622 1275
L 4263 0
L 3584 0
L 2988 1197
Q 2756 1666 2539 1819
Q 2322 1972 1947 1972
L 1259 1972
L 1259 0
L 628 0
L 628 4666
L 2053 4666
Q 2853 4666 3247 4331
Q 3641 3997 3641 3322
Q 3641 2881 3436 2590
Q 3231 2300 2841 2188
z
M 1259 4147
L 1259 2491
L 2053 2491
Q 2509 2491 2742 2702
Q 2975 2913 2975 3322
Q 2975 3731 2742 3939
Q 2509 4147 2053 4147
L 1259 4147
z
" transform="scale(0.015625)"/>
      </defs>
      <use xlink:href="#DejaVuSans-36"/>
      <use xlink:href="#DejaVuSans-29" transform="translate(63.484375 0)"/>
      <use xlink:href="#DejaVuSans-35" transform="translate(121 0)"/>
      <use xlink:href="#DejaVuSans-3" transform="translate(190.484375 0)"/>
      <use xlink:href="#DejaVuSans-53" transform="translate(222.265625 0)"/>
      <use xlink:href="#DejaVuSans-55" transform="translate(285.75 0)"/>
      <use xlink:href="#DejaVuSans-52" transform="translate(324.65625 0)"/>
      <use xlink:href="#DejaVuSans-5b" transform="translate(382.765625 0)"/>
      <use xlink:href="#DejaVuSans-5c" transform="translate(441.953125 0)"/>
     </g>
    </g>
   </g>
  </g>
  <g id="axes_2">
   <g id="patch_7">
    <path d="M 478.612969 298.663994
L 860.99976 298.663994
L 860.99976 18.118365
L 478.612969 18.118365
z
" style="fill: #ffffff"/>
   </g>
   <g id="patch_8">
    <path d="M 495.994187 21393.59801
L 514.61692 21393.59801
L 514.61692 256.294503
L 495.994187 256.294503
z
" clip-path="url(#pb91f720319)" style="fill: #b84a4a"/>
   </g>
   <g id="patch_9">
    <path d="M 547.724001 21393.59801
L 566.346735 21393.59801
L 566.346735 278.63466
L 547.724001 278.63466
z
" clip-path="url(#pb91f720319)" style="fill: #2f6f9f"/>
   </g>
   <g id="patch_10">
    <path d="M 599.453816 21393.59801
L 618.07655 21393.59801
L 618.07655 256.816523
L 599.453816 256.816523
z
" clip-path="url(#pb91f720319)" style="fill: #b84a4a"/>
   </g>
   <g id="patch_11">
    <path d="M 651.183631 21393.59801
L 669.806364 21393.59801
L 669.806364 265.879718
L 651.183631 265.879718
z
" clip-path="url(#pb91f720319)" style="fill: #2f6f9f"/>
   </g>
   <g id="patch_12">
    <path d="M 702.913446 21393.59801
L 721.536179 21393.59801
L 721.536179 285.91192
L 702.913446 285.91192
z
" clip-path="url(#pb91f720319)" style="fill: #2f6f9f"/>
   </g>
   <g id="patch_13">
    <path d="M 754.643261 21393.59801
L 773.265994 21393.59801
L 773.265994 267.537155
L 754.643261 267.537155
z
" clip-path="url(#pb91f720319)" style="fill: #2f6f9f"/>
   </g>
   <g id="patch_14">
    <path d="M 806.373076 21393.59801
L 824.995809 21393.59801
L 824.995809 284.298042
L 806.373076 284.298042
z
" clip-path="url(#pb91f720319)" style="fill: #2f6f9f"/>
   </g>
   <g id="patch_15">
    <path d="M 514.61692 21393.59801
L 533.239653 21393.59801
L 533.239653 30.870439
L 514.61692 30.870439
z
" clip-path="url(#pb91f720319)" style="fill: #7a7a7a"/>
   </g>
   <g id="patch_16">
    <path d="M 566.346735 21393.59801
L 584.969468 21393.59801
L 584.969468 21393.59801
L 566.346735 21393.59801
z
" clip-path="url(#pb91f720319)" style="fill: #7a7a7a"/>
   </g>
   <g id="patch_17">
    <path d="M 618.07655 21393.59801
L 636.699283 21393.59801
L 636.699283 36.683492
L 618.07655 36.683492
z
" clip-path="url(#pb91f720319)" style="fill: #7a7a7a"/>
   </g>
   <g id="patch_18">
    <path d="M 669.806364 21393.59801
L 688.429098 21393.59801
L 688.429098 21393.59801
L 669.806364 21393.59801
z
" clip-path="url(#pb91f720319)" style="fill: #7a7a7a"/>
   </g>
   <g id="patch_19">
    <path d="M 721.536179 21393.59801
L 740.158913 21393.59801
L 740.158913 21393.59801
L 721.536179 21393.59801
z
" clip-path="url(#pb91f720319)" style="fill: #7a7a7a"/>
   </g>
   <g id="patch_20">
    <path d="M 773.265994 21393.59801
L 791.888727 21393.59801
L 791.888727 21393.59801
L 773.265994 21393.59801
z
" clip-path="url(#pb91f720319)" style="fill: #7a7a7a"/>
   </g>
   <g id="patch_21">
    <path d="M 824.995809 21393.59801
L 843.618542 21393.59801
L 843.618542 21393.59801
L 824.995809 21393.59801
z
" clip-path="url(#pb91f720319)" style="fill: #7a7a7a"/>
   </g>
   <g id="matplotlib.axis_3">
    <g id="xtick_10">
     <g id="line2d_30">
      <g>
       <use xlink:href="#m74d44c413b" x="514.61692" y="298.663994" style="stroke: #000000; stroke-width: 0.8"/>
      </g>
     </g>
     <g id="text_26">
      <!-- constant -->
      <g transform="translate(477.630197 336.821177) rotate(-35) scale(0.1 -0.1)">
       <use xlink:href="#DejaVuSans-46"/>
       <use xlink:href="#DejaVuSans-52" transform="translate(54.984375 0)"/>
       <use xlink:href="#DejaVuSans-51" transform="translate(116.171875 0)"/>
       <use xlink:href="#DejaVuSans-56" transform="translate(179.546875 0)"/>
       <use xlink:href="#DejaVuSans-57" transform="translate(231.640625 0)"/>
       <use xlink:href="#DejaVuSans-44" transform="translate(270.84375 0)"/>
       <use xlink:href="#DejaVuSans-51" transform="translate(332.125 0)"/>
       <use xlink:href="#DejaVuSans-57" transform="translate(395.5 0)"/>
      </g>
     </g>
    </g>
    <g id="xtick_11">
     <g id="line2d_31">
      <g>
       <use xlink:href="#m74d44c413b" x="566.346735" y="298.663994" style="stroke: #000000; stroke-width: 0.8"/>
      </g>
     </g>
     <g id="text_27">
      <!-- powerlaw -->
      <g transform="translate(525.654629 339.416354) rotate(-35) scale(0.1 -0.1)">
       <use xlink:href="#DejaVuSans-53"/>
       <use xlink:href="#DejaVuSans-52" transform="translate(63.484375 0)"/>
       <use xlink:href="#DejaVuSans-5a" transform="translate(124.671875 0)"/>
       <use xlink:href="#DejaVuSans-48" transform="translate(206.453125 0)"/>
       <use xlink:href="#DejaVuSans-55" transform="translate(267.984375 0)"/>
       <use xlink:href="#DejaVuSans-4f" transform="translate(309.09375 0)"/>
       <use xlink:href="#DejaVuSans-44" transform="translate(336.875 0)"/>
       <use xlink:href="#DejaVuSans-5a" transform="translate(398.15625 0)"/>
      </g>
     </g>
    </g>
    <g id="xtick_12">
     <g id="line2d_32">
      <g>
       <use xlink:href="#m74d44c413b" x="618.07655" y="298.663994" style="stroke: #000000; stroke-width: 0.8"/>
      </g>
     </g>
     <g id="text_28">
      <!-- growth -->
      <g transform="translate(588.19725 331.845145) rotate(-35) scale(0.1 -0.1)">
       <use xlink:href="#DejaVuSans-4a"/>
       <use xlink:href="#DejaVuSans-55" transform="translate(63.484375 0)"/>
       <use xlink:href="#DejaVuSans-52" transform="translate(102.390625 0)"/>
       <use xlink:href="#DejaVuSans-5a" transform="translate(163.578125 0)"/>
       <use xlink:href="#DejaVuSans-57" transform="translate(245.359375 0)"/>
       <use xlink:href="#DejaVuSans-4b" transform="translate(284.5625 0)"/>
      </g>
     </g>
    </g>
    <g id="xtick_13">
     <g id="line2d_33">
      <g>
       <use xlink:href="#m74d44c413b" x="669.806364" y="298.663994" style="stroke: #000000; stroke-width: 0.8"/>
      </g>
     </g>
     <g id="text_29">
      <!-- collapsed -->
      <g transform="translate(629.632628 339.053388) rotate(-35) scale(0.1 -0.1)">
       <use xlink:href="#DejaVuSans-46"/>
       <use xlink:href="#DejaVuSans-52" transform="translate(54.984375 0)"/>
       <use xlink:href="#DejaVuSans-4f" transform="translate(116.171875 0)"/>
       <use xlink:href="#DejaVuSans-4f" transform="translate(143.953125 0)"/>
       <use xlink:href="#DejaVuSans-44" transform="translate(171.734375 0)"/>
       <use xlink:href="#DejaVuSans-53" transform="translate(233.015625 0)"/>
       <use xlink:href="#DejaVuSans-56" transform="translate(296.5 0)"/>
       <use xlink:href="#DejaVuSans-48" transform="translate(348.59375 0)"/>
       <use xlink:href="#DejaVuSans-47" transform="translate(410.125 0)"/>
      </g>
     </g>
    </g>
    <g id="xtick_14">
     <g id="line2d_34">
      <g>
       <use xlink:href="#m74d44c413b" x="721.536179" y="298.663994" style="stroke: #000000; stroke-width: 0.8"/>
      </g>
     </g>
     <g id="text_30">
      <!-- horizon -->
      <g transform="translate(689.808668 333.139277) rotate(-35) scale(0.1 -0.1)">
       <use xlink:href="#DejaVuSans-4b"/>
       <use xlink:href="#DejaVuSans-52" transform="translate(63.375 0)"/>
       <use xlink:href="#DejaVuSans-55" transform="translate(124.5625 0)"/>
       <use xlink:href="#DejaVuSans-4c" transform="translate(165.671875 0)"/>
       <use xlink:href="#DejaVuSans-5d" transform="translate(193.453125 0)"/>
       <use xlink:href="#DejaVuSans-52" transform="translate(245.9375 0)"/>
       <use xlink:href="#DejaVuSans-51" transform="translate(307.125 0)"/>
      </g>
     </g>
    </g>
    <g id="xtick_15">
     <g id="line2d_35">
      <g>
       <use xlink:href="#m74d44c413b" x="773.265994" y="298.663994" style="stroke: #000000; stroke-width: 0.8"/>
      </g>
     </g>
     <g id="text_31">
      <!-- BH proxy -->
      <g transform="translate(734.660166 337.954886) rotate(-35) scale(0.1 -0.1)">
       <use xlink:href="#DejaVuSans-25"/>
       <use xlink:href="#DejaVuSans-2b" transform="translate(68.609375 0)"/>
       <use xlink:href="#DejaVuSans-3" transform="translate(143.8125 0)"/>
       <use xlink:href="#DejaVuSans-53" transform="translate(175.59375 0)"/>
       <use xlink:href="#DejaVuSans-55" transform="translate(239.078125 0)"/>
       <use xlink:href="#DejaVuSans-52" transform="translate(277.984375 0)"/>
       <use xlink:href="#DejaVuSans-5b" transform="translate(336.09375 0)"/>
       <use xlink:href="#DejaVuSans-5c" transform="translate(395.28125 0)"/>
      </g>
     </g>
    </g>
    <g id="xtick_16">
     <g id="line2d_36">
      <g>
       <use xlink:href="#m74d44c413b" x="824.995809" y="298.663994" style="stroke: #000000; stroke-width: 0.8"/>
      </g>
     </g>
     <g id="text_32">
      <!-- SFR proxy -->
      <g transform="translate(782.566844 340.631875) rotate(-35) scale(0.1 -0.1)">
       <use xlink:href="#DejaVuSans-36"/>
       <use xlink:href="#DejaVuSans-29" transform="translate(63.484375 0)"/>
       <use xlink:href="#DejaVuSans-35" transform="translate(121 0)"/>
       <use xlink:href="#DejaVuSans-3" transform="translate(190.484375 0)"/>
       <use xlink:href="#DejaVuSans-53" transform="translate(222.265625 0)"/>
       <use xlink:href="#DejaVuSans-55" transform="translate(285.75 0)"/>
       <use xlink:href="#DejaVuSans-52" transform="translate(324.65625 0)"/>
       <use xlink:href="#DejaVuSans-5b" transform="translate(382.765625 0)"/>
       <use xlink:href="#DejaVuSans-5c" transform="translate(441.953125 0)"/>
      </g>
     </g>
    </g>
   </g>
   <g id="matplotlib.axis_4">
    <g id="ytick_7">
     <g id="line2d_37">
      <g>
       <use xlink:href="#me957deb08a" x="478.612969" y="284.612627" style="stroke: #000000; stroke-width: 0.8"/>
      </g>
     </g>
     <g id="text_33">
      <!-- $\mathdefault{10^{-3}}$ -->
      <g transform="translate(448.112969 289.312627) scale(0.1 -0.1)">
       <defs>
        <path id="DejaVuSans-c9c" d="M 678 2272
L 4684 2272
L 4684 1741
L 678 1741
L 678 2272
z
" transform="scale(0.015625)"/>
       </defs>
       <use xlink:href="#DejaVuSans-14" transform="translate(0 0.746875)"/>
       <use xlink:href="#DejaVuSans-13" transform="translate(63.623047 0.746875)"/>
       <use xlink:href="#DejaVuSans-c9c" transform="translate(128.203125 42.046875) scale(0.7)"/>
       <use xlink:href="#DejaVuSans-16" transform="translate(186.855469 42.046875) scale(0.7)"/>
      </g>
     </g>
    </g>
    <g id="ytick_8">
     <g id="line2d_38">
      <g>
       <use xlink:href="#me957deb08a" x="478.612969" y="242.267621" style="stroke: #000000; stroke-width: 0.8"/>
      </g>
     </g>
     <g id="text_34">
      <!-- $\mathdefault{10^{-1}}$ -->
      <g transform="translate(448.112969 246.917621) scale(0.1 -0.1)">
       <use xlink:href="#DejaVuSans-14" transform="translate(0 0.665625)"/>
       <use xlink:href="#DejaVuSans-13" transform="translate(63.623047 0.665625)"/>
       <use xlink:href="#DejaVuSans-c9c" transform="translate(128.203125 41.965625) scale(0.7)"/>
       <use xlink:href="#DejaVuSans-14" transform="translate(186.855469 41.965625) scale(0.7)"/>
      </g>
     </g>
    </g>
    <g id="ytick_9">
     <g id="line2d_39">
      <g>
       <use xlink:href="#me957deb08a" x="478.612969" y="199.922615" style="stroke: #000000; stroke-width: 0.8"/>
      </g>
     </g>
     <g id="text_35">
      <!-- $\mathdefault{10^{1}}$ -->
      <g transform="translate(454.012969 204.572615) scale(0.1 -0.1)">
       <use xlink:href="#DejaVuSans-14" transform="translate(0 0.665625)"/>
       <use xlink:href="#DejaVuSans-13" transform="translate(63.623047 0.665625)"/>
       <use xlink:href="#DejaVuSans-14" transform="translate(128.203125 41.965625) scale(0.7)"/>
      </g>
     </g>
    </g>
    <g id="ytick_10">
     <g id="line2d_40">
      <g>
       <use xlink:href="#me957deb08a" x="478.612969" y="157.577609" style="stroke: #000000; stroke-width: 0.8"/>
      </g>
     </g>
     <g id="text_36">
      <!-- $\mathdefault{10^{3}}$ -->
      <g transform="translate(454.012969 162.277609) scale(0.1 -0.1)">
       <use xlink:href="#DejaVuSans-14" transform="translate(0 0.746875)"/>
       <use xlink:href="#DejaVuSans-13" transform="translate(63.623047 0.746875)"/>
       <use xlink:href="#DejaVuSans-16" transform="translate(128.203125 42.046875) scale(0.7)"/>
      </g>
     </g>
    </g>
    <g id="ytick_11">
     <g id="line2d_41">
      <g>
       <use xlink:href="#me957deb08a" x="478.612969" y="115.232604" style="stroke: #000000; stroke-width: 0.8"/>
      </g>
     </g>
     <g id="text_37">
      <!-- $\mathdefault{10^{5}}$ -->
      <g transform="translate(454.012969 119.882604) scale(0.1 -0.1)">
       <use xlink:href="#DejaVuSans-14" transform="translate(0 0.665625)"/>
       <use xlink:href="#DejaVuSans-13" transform="translate(63.623047 0.665625)"/>
       <use xlink:href="#DejaVuSans-18" transform="translate(128.203125 41.965625) scale(0.7)"/>
      </g>
     </g>
    </g>
    <g id="ytick_12">
     <g id="line2d_42">
      <g>
       <use xlink:href="#me957deb08a" x="478.612969" y="72.887598" style="stroke: #000000; stroke-width: 0.8"/>
      </g>
     </g>
     <g id="text_38">
      <!-- $\mathdefault{10^{7}}$ -->
      <g transform="translate(454.012969 77.537598) scale(0.1 -0.1)">
       <use xlink:href="#DejaVuSans-14" transform="translate(0 0.665625)"/>
       <use xlink:href="#DejaVuSans-13" transform="translate(63.623047 0.665625)"/>
       <use xlink:href="#DejaVuSans-1a" transform="translate(128.203125 41.965625) scale(0.7)"/>
      </g>
     </g>
    </g>
    <g id="ytick_13">
     <g id="line2d_43">
      <g>
       <use xlink:href="#me957deb08a" x="478.612969" y="30.542592" style="stroke: #000000; stroke-width: 0.8"/>
      </g>
     </g>
     <g id="text_39">
      <!-- $\mathdefault{10^{9}}$ -->
      <g transform="translate(454.012969 35.242592) scale(0.1 -0.1)">
       <defs>
        <path id="DejaVuSans-1c" d="M 703 97
L 703 672
Q 941 559 1184 500
Q 1428 441 1663 441
Q 2288 441 2617 861
Q 2947 1281 2994 2138
Q 2813 1869 2534 1725
Q 2256 1581 1919 1581
Q 1219 1581 811 2004
Q 403 2428 403 3163
Q 403 3881 828 4315
Q 1253 4750 1959 4750
Q 2769 4750 3195 4129
Q 3622 3509 3622 2328
Q 3622 1225 3098 567
Q 2575 -91 1691 -91
Q 1453 -91 1209 -44
Q 966 3 703 97
z
M 1959 2075
Q 2384 2075 2632 2365
Q 2881 2656 2881 3163
Q 2881 3666 2632 3958
Q 2384 4250 1959 4250
Q 1534 4250 1286 3958
Q 1038 3666 1038 3163
Q 1038 2656 1286 2365
Q 1534 2075 1959 2075
z
" transform="scale(0.015625)"/>
       </defs>
       <use xlink:href="#DejaVuSans-14" transform="translate(0 0.746875)"/>
       <use xlink:href="#DejaVuSans-13" transform="translate(63.623047 0.746875)"/>
       <use xlink:href="#DejaVuSans-1c" transform="translate(128.203125 42.046875) scale(0.7)"/>
      </g>
     </g>
    </g>
    <g id="text_40">
     <!-- failure pressure -->
     <g transform="translate(441.710625 197.369305) rotate(-90) scale(0.1 -0.1)">
      <defs>
       <path id="DejaVuSans-49" d="M 2375 4863
L 2375 4384
L 1825 4384
Q 1516 4384 1395 4259
Q 1275 4134 1275 3809
L 1275 3500
L 2222 3500
L 2222 3053
L 1275 3053
L 1275 0
L 697 0
L 697 3053
L 147 3053
L 147 3500
L 697 3500
L 697 3744
Q 697 4328 969 4595
Q 1241 4863 1831 4863
L 2375 4863
z
" transform="scale(0.015625)"/>
       <path id="DejaVuSans-58" d="M 544 1381
L 544 3500
L 1119 3500
L 1119 1403
Q 1119 906 1312 657
Q 1506 409 1894 409
Q 2359 409 2629 706
Q 2900 1003 2900 1516
L 2900 3500
L 3475 3500
L 3475 0
L 2900 0
L 2900 538
Q 2691 219 2414 64
Q 2138 -91 1772 -91
Q 1169 -91 856 284
Q 544 659 544 1381
z
M 1991 3584
L 1991 3584
z
" transform="scale(0.015625)"/>
      </defs>
      <use xlink:href="#DejaVuSans-49"/>
      <use xlink:href="#DejaVuSans-44" transform="translate(35.203125 0)"/>
      <use xlink:href="#DejaVuSans-4c" transform="translate(96.484375 0)"/>
      <use xlink:href="#DejaVuSans-4f" transform="translate(124.265625 0)"/>
      <use xlink:href="#DejaVuSans-58" transform="translate(152.046875 0)"/>
      <use xlink:href="#DejaVuSans-55" transform="translate(215.421875 0)"/>
      <use xlink:href="#DejaVuSans-48" transform="translate(254.328125 0)"/>
      <use xlink:href="#DejaVuSans-3" transform="translate(315.859375 0)"/>
      <use xlink:href="#DejaVuSans-53" transform="translate(347.640625 0)"/>
      <use xlink:href="#DejaVuSans-55" transform="translate(411.125 0)"/>
      <use xlink:href="#DejaVuSans-48" transform="translate(450.03125 0)"/>
      <use xlink:href="#DejaVuSans-56" transform="translate(511.5625 0)"/>
      <use xlink:href="#DejaVuSans-56" transform="translate(563.65625 0)"/>
      <use xlink:href="#DejaVuSans-58" transform="translate(615.75 0)"/>
      <use xlink:href="#DejaVuSans-55" transform="translate(679.125 0)"/>
      <use xlink:href="#DejaVuSans-48" transform="translate(718.03125 0)"/>
     </g>
    </g>
   </g>
   <g id="patch_22">
    <path d="M 478.612969 298.663994
L 478.612969 18.118365
" style="fill: none; stroke: #000000; stroke-width: 0.8; stroke-linejoin: miter; stroke-linecap: square"/>
   </g>
   <g id="patch_23">
    <path d="M 860.99976 298.663994
L 860.99976 18.118365
" style="fill: none; stroke: #000000; stroke-width: 0.8; stroke-linejoin: miter; stroke-linecap: square"/>
   </g>
   <g id="patch_24">
    <path d="M 478.612969 298.663994
L 860.99976 298.663994
" style="fill: none; stroke: #000000; stroke-width: 0.8; stroke-linejoin: miter; stroke-linecap: square"/>
   </g>
   <g id="patch_25">
    <path d="M 478.612969 18.118365
L 860.99976 18.118365
" style="fill: none; stroke: #000000; stroke-width: 0.8; stroke-linejoin: miter; stroke-linecap: square"/>
   </g>
   <g id="text_41">
    <!-- Background-screening pressure -->
    <g transform="translate(574.800114 12.118365) scale(0.12 -0.12)">
     <defs>
      <path id="DejaVuSans-4e" d="M 581 4863
L 1159 4863
L 1159 1991
L 2875 3500
L 3609 3500
L 1753 1863
L 3688 0
L 2938 0
L 1159 1709
L 1159 0
L 581 0
L 581 4863
z
" transform="scale(0.015625)"/>
      <path id="DejaVuSans-10" d="M 313 2009
L 1997 2009
L 1997 1497
L 313 1497
L 313 2009
z
" transform="scale(0.015625)"/>
     </defs>
     <use xlink:href="#DejaVuSans-25"/>
     <use xlink:href="#DejaVuSans-44" transform="translate(68.609375 0)"/>
     <use xlink:href="#DejaVuSans-46" transform="translate(129.890625 0)"/>
     <use xlink:href="#DejaVuSans-4e" transform="translate(184.875 0)"/>
     <use xlink:href="#DejaVuSans-4a" transform="translate(242.78125 0)"/>
     <use xlink:href="#DejaVuSans-55" transform="translate(306.265625 0)"/>
     <use xlink:href="#DejaVuSans-52" transform="translate(345.171875 0)"/>
     <use xlink:href="#DejaVuSans-58" transform="translate(406.359375 0)"/>
     <use xlink:href="#DejaVuSans-51" transform="translate(469.734375 0)"/>
     <use xlink:href="#DejaVuSans-47" transform="translate(533.109375 0)"/>
     <use xlink:href="#DejaVuSans-10" transform="translate(596.59375 0)"/>
     <use xlink:href="#DejaVuSans-56" transform="translate(632.671875 0)"/>
     <use xlink:href="#DejaVuSans-46" transform="translate(684.765625 0)"/>
     <use xlink:href="#DejaVuSans-55" transform="translate(739.75 0)"/>
     <use xlink:href="#DejaVuSans-48" transform="translate(778.65625 0)"/>
     <use xlink:href="#DejaVuSans-48" transform="translate(840.1875 0)"/>
     <use xlink:href="#DejaVuSans-51" transform="translate(901.71875 0)"/>
     <use xlink:href="#DejaVuSans-4c" transform="translate(965.09375 0)"/>
     <use xlink:href="#DejaVuSans-51" transform="translate(992.875 0)"/>
     <use xlink:href="#DejaVuSans-4a" transform="translate(1056.25 0)"/>
     <use xlink:href="#DejaVuSans-3" transform="translate(1119.734375 0)"/>
     <use xlink:href="#DejaVuSans-53" transform="translate(1151.515625 0)"/>
     <use xlink:href="#DejaVuSans-55" transform="translate(1215 0)"/>
     <use xlink:href="#DejaVuSans-48" transform="translate(1253.90625 0)"/>
     <use xlink:href="#DejaVuSans-56" transform="translate(1315.4375 0)"/>
     <use xlink:href="#DejaVuSans-56" transform="translate(1367.53125 0)"/>
     <use xlink:href="#DejaVuSans-58" transform="translate(1419.625 0)"/>
     <use xlink:href="#DejaVuSans-55" transform="translate(1483 0)"/>
     <use xlink:href="#DejaVuSans-48" transform="translate(1521.90625 0)"/>
    </g>
   </g>
   <g id="legend_2">
    <g id="patch_26">
     <path d="M 745.43601 31.432115
L 761.43601 31.432115
L 761.43601 25.832115
L 745.43601 25.832115
z
" style="fill: #b84a4a"/>
    </g>
    <g id="text_42">
     <!-- early |H/H_LCDM-1| -->
     <g transform="translate(767.83601 31.432115) scale(0.08 -0.08)">
      <defs>
       <path id="DejaVuSans-5f" d="M 1344 4891
L 1344 -1509
L 813 -1509
L 813 4891
L 1344 4891
z
" transform="scale(0.015625)"/>
       <path id="DejaVuSans-12" d="M 1625 4666
L 2156 4666
L 531 -594
L 0 -594
L 1625 4666
z
" transform="scale(0.015625)"/>
       <path id="DejaVuSans-42" d="M 3263 -1063
L 3263 -1509
L -63 -1509
L -63 -1063
L 3263 -1063
z
" transform="scale(0.015625)"/>
       <path id="DejaVuSans-2f" d="M 628 4666
L 1259 4666
L 1259 531
L 3531 531
L 3531 0
L 628 0
L 628 4666
z
" transform="scale(0.015625)"/>
       <path id="DejaVuSans-26" d="M 4122 4306
L 4122 3641
Q 3803 3938 3442 4084
Q 3081 4231 2675 4231
Q 1875 4231 1450 3742
Q 1025 3253 1025 2328
Q 1025 1406 1450 917
Q 1875 428 2675 428
Q 3081 428 3442 575
Q 3803 722 4122 1019
L 4122 359
Q 3791 134 3420 21
Q 3050 -91 2638 -91
Q 1578 -91 968 557
Q 359 1206 359 2328
Q 359 3453 968 4101
Q 1578 4750 2638 4750
Q 3056 4750 3426 4639
Q 3797 4528 4122 4306
z
" transform="scale(0.015625)"/>
       <path id="DejaVuSans-27" d="M 1259 4147
L 1259 519
L 2022 519
Q 2988 519 3436 956
Q 3884 1394 3884 2338
Q 3884 3275 3436 3711
Q 2988 4147 2022 4147
L 1259 4147
z
M 628 4666
L 1925 4666
Q 3281 4666 3915 4102
Q 4550 3538 4550 2338
Q 4550 1131 3912 565
Q 3275 0 1925 0
L 628 0
L 628 4666
z
" transform="scale(0.015625)"/>
       <path id="DejaVuSans-30" d="M 628 4666
L 1569 4666
L 2759 1491
L 3956 4666
L 4897 4666
L 4897 0
L 4281 0
L 4281 4097
L 3078 897
L 2444 897
L 1241 4097
L 1241 0
L 628 0
L 628 4666
z
" transform="scale(0.015625)"/>
      </defs>
      <use xlink:href="#DejaVuSans-48"/>
      <use xlink:href="#DejaVuSans-44" transform="translate(61.53125 0)"/>
      <use xlink:href="#DejaVuSans-55" transform="translate(122.8125 0)"/>
      <use xlink:href="#DejaVuSans-4f" transform="translate(163.921875 0)"/>
      <use xlink:href="#DejaVuSans-5c" transform="translate(191.703125 0)"/>
      <use xlink:href="#DejaVuSans-3" transform="translate(250.890625 0)"/>
      <use xlink:href="#DejaVuSans-5f" transform="translate(282.671875 0)"/>
      <use xlink:href="#DejaVuSans-2b" transform="translate(316.359375 0)"/>
      <use xlink:href="#DejaVuSans-12" transform="translate(391.5625 0)"/>
      <use xlink:href="#DejaVuSans-2b" transform="translate(425.25 0)"/>
      <use xlink:href="#DejaVuSans-42" transform="translate(500.453125 0)"/>
      <use xlink:href="#DejaVuSans-2f" transform="translate(550.453125 0)"/>
      <use xlink:href="#DejaVuSans-26" transform="translate(606.171875 0)"/>
      <use xlink:href="#DejaVuSans-27" transform="translate(676 0)"/>
      <use xlink:href="#DejaVuSans-30" transform="translate(753 0)"/>
      <use xlink:href="#DejaVuSans-10" transform="translate(839.28125 0)"/>
      <use xlink:href="#DejaVuSans-14" transform="translate(875.359375 0)"/>
      <use xlink:href="#DejaVuSans-5f" transform="translate(938.984375 0)"/>
     </g>
    </g>
    <g id="patch_27">
     <path d="M 745.43601 43.43274
L 761.43601 43.43274
L 761.43601 37.83274
L 745.43601 37.83274
z
" style="fill: #7a7a7a"/>
    </g>
    <g id="text_43">
     <!-- negative rho_B depth -->
     <g transform="translate(767.83601 43.43274) scale(0.08 -0.08)">
      <defs>
       <path id="DejaVuSans-59" d="M 191 3500
L 800 3500
L 1894 563
L 2988 3500
L 3597 3500
L 2284 0
L 1503 0
L 191 3500
z
" transform="scale(0.015625)"/>
      </defs>
      <use xlink:href="#DejaVuSans-51"/>
      <use xlink:href="#DejaVuSans-48" transform="translate(63.375 0)"/>
      <use xlink:href="#DejaVuSans-4a" transform="translate(124.90625 0)"/>
      <use xlink:href="#DejaVuSans-44" transform="translate(188.390625 0)"/>
      <use xlink:href="#DejaVuSans-57" transform="translate(249.671875 0)"/>
      <use xlink:href="#DejaVuSans-4c" transform="translate(288.875 0)"/>
      <use xlink:href="#DejaVuSans-59" transform="translate(316.65625 0)"/>
      <use xlink:href="#DejaVuSans-48" transform="translate(375.84375 0)"/>
      <use xlink:href="#DejaVuSans-3" transform="translate(437.375 0)"/>
      <use xlink:href="#DejaVuSans-55" transform="translate(469.15625 0)"/>
      <use xlink:href="#DejaVuSans-4b" transform="translate(508.515625 0)"/>
      <use xlink:href="#DejaVuSans-52" transform="translate(571.890625 0)"/>
      <use xlink:href="#DejaVuSans-42" transform="translate(633.078125 0)"/>
      <use xlink:href="#DejaVuSans-25" transform="translate(683.078125 0)"/>
      <use xlink:href="#DejaVuSans-3" transform="translate(751.6875 0)"/>
      <use xlink:href="#DejaVuSans-47" transform="translate(783.46875 0)"/>
      <use xlink:href="#DejaVuSans-48" transform="translate(846.953125 0)"/>
      <use xlink:href="#DejaVuSans-53" transform="translate(908.484375 0)"/>
      <use xlink:href="#DejaVuSans-57" transform="translate(971.96875 0)"/>
      <use xlink:href="#DejaVuSans-4b" transform="translate(1011.171875 0)"/>
     </g>
    </g>
   </g>
  </g>
 </g>
 <defs>
  <clipPath id="p0ed831e63e">
   <rect x="39.904146" y="18.118365" width="382.386791" height="280.545629"/>
  </clipPath>
  <clipPath id="pb91f720319">
   <rect x="478.612969" y="18.118365" width="382.386791" height="280.545629"/>
  </clipPath>
 </defs>
</svg>
