<?xml version="1.0" encoding="utf-8" standalone="no"?>
<!DOCTYPE svg PUBLIC "-//W3C//DTD SVG 1.1//EN"
  "http://www.w3.org/Graphics/SVG/1.1/DTD/svg11.dtd">
<svg xmlns:xlink="http://www.w3.org/1999/xlink" width="1080pt" height="424.8pt" viewBox="0 0 1080 424.8" xmlns="http://www.w3.org/2000/svg" version="1.1">
 <metadata>
  <rdf:RDF xmlns:dc="http://purl.org/dc/elements/1.1/" xmlns:cc="http://creativecommons.org/ns#" xmlns:rdf="http://www.w3.org/1999/02/22-rdf-syntax-ns#">
   <cc:Work>
    <dc:type rdf:resource="http://purl.org/dc/dcmitype/StillImage"/>
    <dc:date>2026-06-12T15:50:26.129072</dc:date>
    <dc:format>image/svg+xml</dc:format>
    <dc:creator>
     <cc:Agent>
      <dc:title>Matplotlib v3.10.9, https://matplotlib.org/</dc:title>
     </cc:Agent>
    </dc:creator>
   </cc:Work>
  </rdf:RDF>
 </metadata>
 <defs>
  <style type="text/css">*{stroke-linejoin: round; stroke-linecap: butt}</style>
 </defs>
 <g id="figure_1">
  <g id="patch_1">
   <path d="M 0 424.8 
L 1080 424.8 
L 1080 0 
L 0 0 
z
" style="fill: #ffffff"/>
  </g>
  <g id="axes_1">
   <g id="patch_2">
    <path d="M 54.12125 379.528 
L 536.175 379.528 
L 536.175 50.64 
L 54.12125 50.64 
z
" style="fill: #ffffff"/>
   </g>
   <g id="matplotlib.axis_1">
    <g id="xtick_1">
     <g id="line2d_1">
      <path d="M 54.12125 379.528 
L 54.12125 50.64 
" clip-path="url(#p06fb981967)" style="fill: none; stroke: #b0b0b0; stroke-opacity: 0.3; stroke-width: 0.8; stroke-linecap: square"/>
     </g>
     <g id="line2d_2">
      <defs>
       <path id="me0a73af738" d="M 0 0 
L 0 3.5 
" style="stroke: #000000; stroke-width: 0.8"/>
      </defs>
      <g>
       <use xlink:href="#me0a73af738" x="54.12125" y="379.528" style="stroke: #000000; stroke-width: 0.8"/>
      </g>
     </g>
     <g id="text_1">
      <!-- 0 -->
      <g transform="translate(50.94 394.126438) scale(0.1 -0.1)">
       <defs>
        <path id="DejaVuSans-30" d="M 2034 4250 
Q 1547 4250 1301 3770 
Q 1056 3291 1056 2328 
Q 1056 1369 1301 889 
Q 1547 409 2034 409 
Q 2525 409 2770 889 
Q 3016 1369 3016 2328 
Q 3016 3291 2770 3770 
Q 2525 4250 2034 4250 
z
M 2034 4750 
Q 2819 4750 3233 4129 
Q 3647 3509 3647 2328 
Q 3647 1150 3233 529 
Q 2819 -91 2034 -91 
Q 1250 -91 836 529 
Q 422 1150 422 2328 
Q 422 3509 836 4129 
Q 1250 4750 2034 4750 
z
" transform="scale(0.015625)"/>
       </defs>
       <use xlink:href="#DejaVuSans-30"/>
      </g>
     </g>
    </g>
    <g id="xtick_2">
     <g id="line2d_3">
      <path d="M 150.532 379.528 
L 150.532 50.64 
" clip-path="url(#p06fb981967)" style="fill: none; stroke: #b0b0b0; stroke-opacity: 0.3; stroke-width: 0.8; stroke-linecap: square"/>
     </g>
     <g id="line2d_4">
      <g>
       <use xlink:href="#me0a73af738" x="150.532" y="379.528" style="stroke: #000000; stroke-width: 0.8"/>
      </g>
     </g>
     <g id="text_2">
      <!-- 1 -->
      <g transform="translate(147.35075 394.126438) scale(0.1 -0.1)">
       <defs>
        <path id="DejaVuSans-31" d="M 794 531 
L 1825 531 
L 1825 4091 
L 703 3866 
L 703 4441 
L 1819 4666 
L 2450 4666 
L 2450 531 
L 3481 531 
L 3481 0 
L 794 0 
L 794 531 
z
" transform="scale(0.015625)"/>
       </defs>
       <use xlink:href="#DejaVuSans-31"/>
      </g>
     </g>
    </g>
    <g id="xtick_3">
     <g id="line2d_5">
      <path d="M 246.94275 379.528 
L 246.94275 50.64 
" clip-path="url(#p06fb981967)" style="fill: none; stroke: #b0b0b0; stroke-opacity: 0.3; stroke-width: 0.8; stroke-linecap: square"/>
     </g>
     <g id="line2d_6">
      <g>
       <use xlink:href="#me0a73af738" x="246.94275" y="379.528" style="stroke: #000000; stroke-width: 0.8"/>
      </g>
     </g>
     <g id="text_3">
      <!-- 2 -->
      <g transform="translate(243.7615 394.126438) scale(0.1 -0.1)">
       <defs>
        <path id="DejaVuSans-32" d="M 1228 531 
L 3431 531 
L 3431 0 
L 469 0 
L 469 531 
Q 828 903 1448 1529 
Q 2069 2156 2228 2338 
Q 2531 2678 2651 2914 
Q 2772 3150 2772 3378 
Q 2772 3750 2511 3984 
Q 2250 4219 1831 4219 
Q 1534 4219 1204 4116 
Q 875 4013 500 3803 
L 500 4441 
Q 881 4594 1212 4672 
Q 1544 4750 1819 4750 
Q 2544 4750 2975 4387 
Q 3406 4025 3406 3419 
Q 3406 3131 3298 2873 
Q 3191 2616 2906 2266 
Q 2828 2175 2409 1742 
Q 1991 1309 1228 531 
z
" transform="scale(0.015625)"/>
       </defs>
       <use xlink:href="#DejaVuSans-32"/>
      </g>
     </g>
    </g>
    <g id="xtick_4">
     <g id="line2d_7">
      <path d="M 343.3535 379.528 
L 343.3535 50.64 
" clip-path="url(#p06fb981967)" style="fill: none; stroke: #b0b0b0; stroke-opacity: 0.3; stroke-width: 0.8; stroke-linecap: square"/>
     </g>
     <g id="line2d_8">
      <g>
       <use xlink:href="#me0a73af738" x="343.3535" y="379.528" style="stroke: #000000; stroke-width: 0.8"/>
      </g>
     </g>
     <g id="text_4">
      <!-- 3 -->
      <g transform="translate(340.17225 394.126438) scale(0.1 -0.1)">
       <defs>
        <path id="DejaVuSans-33" d="M 2597 2516 
Q 3050 2419 3304 2112 
Q 3559 1806 3559 1356 
Q 3559 666 3084 287 
Q 2609 -91 1734 -91 
Q 1441 -91 1130 -33 
Q 819 25 488 141 
L 488 750 
Q 750 597 1062 519 
Q 1375 441 1716 441 
Q 2309 441 2620 675 
Q 2931 909 2931 1356 
Q 2931 1769 2642 2001 
Q 2353 2234 1838 2234 
L 1294 2234 
L 1294 2753 
L 1863 2753 
Q 2328 2753 2575 2939 
Q 2822 3125 2822 3475 
Q 2822 3834 2567 4026 
Q 2313 4219 1838 4219 
Q 1578 4219 1281 4162 
Q 984 4106 628 3988 
L 628 4550 
Q 988 4650 1302 4700 
Q 1616 4750 1894 4750 
Q 2613 4750 3031 4423 
Q 3450 4097 3450 3541 
Q 3450 3153 3228 2886 
Q 3006 2619 2597 2516 
z
" transform="scale(0.015625)"/>
       </defs>
       <use xlink:href="#DejaVuSans-33"/>
      </g>
     </g>
    </g>
    <g id="xtick_5">
     <g id="line2d_9">
      <path d="M 439.76425 379.528 
L 439.76425 50.64 
" clip-path="url(#p06fb981967)" style="fill: none; stroke: #b0b0b0; stroke-opacity: 0.3; stroke-width: 0.8; stroke-linecap: square"/>
     </g>
     <g id="line2d_10">
      <g>
       <use xlink:href="#me0a73af738" x="439.76425" y="379.528" style="stroke: #000000; stroke-width: 0.8"/>
      </g>
     </g>
     <g id="text_5">
      <!-- 4 -->
      <g transform="translate(436.583 394.126438) scale(0.1 -0.1)">
       <defs>
        <path id="DejaVuSans-34" d="M 2419 4116 
L 825 1625 
L 2419 1625 
L 2419 4116 
z
M 2253 4666 
L 3047 4666 
L 3047 1625 
L 3713 1625 
L 3713 1100 
L 3047 1100 
L 3047 0 
L 2419 0 
L 2419 1100 
L 313 1100 
L 313 1709 
L 2253 4666 
z
" transform="scale(0.015625)"/>
       </defs>
       <use xlink:href="#DejaVuSans-34"/>
      </g>
     </g>
    </g>
    <g id="xtick_6">
     <g id="line2d_11">
      <path d="M 536.175 379.528 
L 536.175 50.64 
" clip-path="url(#p06fb981967)" style="fill: none; stroke: #b0b0b0; stroke-opacity: 0.3; stroke-width: 0.8; stroke-linecap: square"/>
     </g>
     <g id="line2d_12">
      <g>
       <use xlink:href="#me0a73af738" x="536.175" y="379.528" style="stroke: #000000; stroke-width: 0.8"/>
      </g>
     </g>
     <g id="text_6">
      <!-- 5 -->
      <g transform="translate(532.99375 394.126438) scale(0.1 -0.1)">
       <defs>
        <path id="DejaVuSans-35" d="M 691 4666 
L 3169 4666 
L 3169 4134 
L 1269 4134 
L 1269 2991 
Q 1406 3038 1543 3061 
Q 1681 3084 1819 3084 
Q 2600 3084 3056 2656 
Q 3513 2228 3513 1497 
Q 3513 744 3044 326 
Q 2575 -91 1722 -91 
Q 1428 -91 1123 -41 
Q 819 9 494 109 
L 494 744 
Q 775 591 1075 516 
Q 1375 441 1709 441 
Q 2250 441 2565 725 
Q 2881 1009 2881 1497 
Q 2881 1984 2565 2268 
Q 2250 2553 1709 2553 
Q 1456 2553 1204 2497 
Q 953 2441 691 2322 
L 691 4666 
z
" transform="scale(0.015625)"/>
       </defs>
       <use xlink:href="#DejaVuSans-35"/>
      </g>
     </g>
    </g>
    <g id="text_7">
     <!-- redshift z -->
     <g transform="translate(271.945781 407.804562) scale(0.1 -0.1)">
      <defs>
       <path id="DejaVuSans-72" d="M 2631 2963 
Q 2534 3019 2420 3045 
Q 2306 3072 2169 3072 
Q 1681 3072 1420 2755 
Q 1159 2438 1159 1844 
L 1159 0 
L 581 0 
L 581 3500 
L 1159 3500 
L 1159 2956 
Q 1341 3275 1631 3429 
Q 1922 3584 2338 3584 
Q 2397 3584 2469 3576 
Q 2541 3569 2628 3553 
L 2631 2963 
z
" transform="scale(0.015625)"/>
       <path id="DejaVuSans-65" d="M 3597 1894 
L 3597 1613 
L 953 1613 
Q 991 1019 1311 708 
Q 1631 397 2203 397 
Q 2534 397 2845 478 
Q 3156 559 3463 722 
L 3463 178 
Q 3153 47 2828 -22 
Q 2503 -91 2169 -91 
Q 1331 -91 842 396 
Q 353 884 353 1716 
Q 353 2575 817 3079 
Q 1281 3584 2069 3584 
Q 2775 3584 3186 3129 
Q 3597 2675 3597 1894 
z
M 3022 2063 
Q 3016 2534 2758 2815 
Q 2500 3097 2075 3097 
Q 1594 3097 1305 2825 
Q 1016 2553 972 2059 
L 3022 2063 
z
" transform="scale(0.015625)"/>
       <path id="DejaVuSans-64" d="M 2906 2969 
L 2906 4863 
L 3481 4863 
L 3481 0 
L 2906 0 
L 2906 525 
Q 2725 213 2448 61 
Q 2172 -91 1784 -91 
Q 1150 -91 751 415 
Q 353 922 353 1747 
Q 353 2572 751 3078 
Q 1150 3584 1784 3584 
Q 2172 3584 2448 3432 
Q 2725 3281 2906 2969 
z
M 947 1747 
Q 947 1113 1208 752 
Q 1469 391 1925 391 
Q 2381 391 2643 752 
Q 2906 1113 2906 1747 
Q 2906 2381 2643 2742 
Q 2381 3103 1925 3103 
Q 1469 3103 1208 2742 
Q 947 2381 947 1747 
z
" transform="scale(0.015625)"/>
       <path id="DejaVuSans-73" d="M 2834 3397 
L 2834 2853 
Q 2591 2978 2328 3040 
Q 2066 3103 1784 3103 
Q 1356 3103 1142 2972 
Q 928 2841 928 2578 
Q 928 2378 1081 2264 
Q 1234 2150 1697 2047 
L 1894 2003 
Q 2506 1872 2764 1633 
Q 3022 1394 3022 966 
Q 3022 478 2636 193 
Q 2250 -91 1575 -91 
Q 1294 -91 989 -36 
Q 684 19 347 128 
L 347 722 
Q 666 556 975 473 
Q 1284 391 1588 391 
Q 1994 391 2212 530 
Q 2431 669 2431 922 
Q 2431 1156 2273 1281 
Q 2116 1406 1581 1522 
L 1381 1569 
Q 847 1681 609 1914 
Q 372 2147 372 2553 
Q 372 3047 722 3315 
Q 1072 3584 1716 3584 
Q 2034 3584 2315 3537 
Q 2597 3491 2834 3397 
z
" transform="scale(0.015625)"/>
       <path id="DejaVuSans-68" d="M 3513 2113 
L 3513 0 
L 2938 0 
L 2938 2094 
Q 2938 2591 2744 2837 
Q 2550 3084 2163 3084 
Q 1697 3084 1428 2787 
Q 1159 2491 1159 1978 
L 1159 0 
L 581 0 
L 581 4863 
L 1159 4863 
L 1159 2956 
Q 1366 3272 1645 3428 
Q 1925 3584 2291 3584 
Q 2894 3584 3203 3211 
Q 3513 2838 3513 2113 
z
" transform="scale(0.015625)"/>
       <path id="DejaVuSans-69" d="M 603 3500 
L 1178 3500 
L 1178 0 
L 603 0 
L 603 3500 
z
M 603 4863 
L 1178 4863 
L 1178 4134 
L 603 4134 
L 603 4863 
z
" transform="scale(0.015625)"/>
       <path id="DejaVuSans-66" d="M 2375 4863 
L 2375 4384 
L 1825 4384 
Q 1516 4384 1395 4259 
Q 1275 4134 1275 3809 
L 1275 3500 
L 2222 3500 
L 2222 3053 
L 1275 3053 
L 1275 0 
L 697 0 
L 697 3053 
L 147 3053 
L 147 3500 
L 697 3500 
L 697 3744 
Q 697 4328 969 4595 
Q 1241 4863 1831 4863 
L 2375 4863 
z
" transform="scale(0.015625)"/>
       <path id="DejaVuSans-74" d="M 1172 4494 
L 1172 3500 
L 2356 3500 
L 2356 3053 
L 1172 3053 
L 1172 1153 
Q 1172 725 1289 603 
Q 1406 481 1766 481 
L 2356 481 
L 2356 0 
L 1766 0 
Q 1100 0 847 248 
Q 594 497 594 1153 
L 594 3053 
L 172 3053 
L 172 3500 
L 594 3500 
L 594 4494 
L 1172 4494 
z
" transform="scale(0.015625)"/>
       <path id="DejaVuSans-20" transform="scale(0.015625)"/>
       <path id="DejaVuSans-7a" d="M 353 3500 
L 3084 3500 
L 3084 2975 
L 922 459 
L 3084 459 
L 3084 0 
L 275 0 
L 275 525 
L 2438 3041 
L 353 3041 
L 353 3500 
z
" transform="scale(0.015625)"/>
      </defs>
      <use xlink:href="#DejaVuSans-72"/>
      <use xlink:href="#DejaVuSans-65" transform="translate(38.863281 0)"/>
      <use xlink:href="#DejaVuSans-64" transform="translate(100.386719 0)"/>
      <use xlink:href="#DejaVuSans-73" transform="translate(163.863281 0)"/>
      <use xlink:href="#DejaVuSans-68" transform="translate(215.962891 0)"/>
      <use xlink:href="#DejaVuSans-69" transform="translate(279.341797 0)"/>
      <use xlink:href="#DejaVuSans-66" transform="translate(307.125 0)"/>
      <use xlink:href="#DejaVuSans-74" transform="translate(340.580078 0)"/>
      <use xlink:href="#DejaVuSans-20" transform="translate(379.789062 0)"/>
      <use xlink:href="#DejaVuSans-7a" transform="translate(411.576172 0)"/>
     </g>
    </g>
   </g>
   <g id="matplotlib.axis_2">
    <g id="ytick_1">
     <g id="line2d_13">
      <path d="M 54.12125 365.530744 
L 536.175 365.530744 
" clip-path="url(#p06fb981967)" style="fill: none; stroke: #b0b0b0; stroke-opacity: 0.3; stroke-width: 0.8; stroke-linecap: square"/>
     </g>
     <g id="line2d_14">
      <defs>
       <path id="m87499ebd5c" d="M 0 0 
L -3.5 0 
" style="stroke: #000000; stroke-width: 0.8"/>
      </defs>
      <g>
       <use xlink:href="#m87499ebd5c" x="54.12125" y="365.530744" style="stroke: #000000; stroke-width: 0.8"/>
      </g>
     </g>
     <g id="text_8">
      <!-- 0.00 -->
      <g transform="translate(24.855625 369.329963) scale(0.1 -0.1)">
       <defs>
        <path id="DejaVuSans-2e" d="M 684 794 
L 1344 794 
L 1344 0 
L 684 0 
L 684 794 
z
" transform="scale(0.015625)"/>
       </defs>
       <use xlink:href="#DejaVuSans-30"/>
       <use xlink:href="#DejaVuSans-2e" transform="translate(63.623047 0)"/>
       <use xlink:href="#DejaVuSans-30" transform="translate(95.410156 0)"/>
       <use xlink:href="#DejaVuSans-30" transform="translate(159.033203 0)"/>
      </g>
     </g>
    </g>
    <g id="ytick_2">
     <g id="line2d_15">
      <path d="M 54.12125 320.678916 
L 536.175 320.678916 
" clip-path="url(#p06fb981967)" style="fill: none; stroke: #b0b0b0; stroke-opacity: 0.3; stroke-width: 0.8; stroke-linecap: square"/>
     </g>
     <g id="line2d_16">
      <g>
       <use xlink:href="#m87499ebd5c" x="54.12125" y="320.678916" style="stroke: #000000; stroke-width: 0.8"/>
      </g>
     </g>
     <g id="text_9">
      <!-- 0.05 -->
      <g transform="translate(24.855625 324.478135) scale(0.1 -0.1)">
       <use xlink:href="#DejaVuSans-30"/>
       <use xlink:href="#DejaVuSans-2e" transform="translate(63.623047 0)"/>
       <use xlink:href="#DejaVuSans-30" transform="translate(95.410156 0)"/>
       <use xlink:href="#DejaVuSans-35" transform="translate(159.033203 0)"/>
      </g>
     </g>
    </g>
    <g id="ytick_3">
     <g id="line2d_17">
      <path d="M 54.12125 275.827089 
L 536.175 275.827089 
" clip-path="url(#p06fb981967)" style="fill: none; stroke: #b0b0b0; stroke-opacity: 0.3; stroke-width: 0.8; stroke-linecap: square"/>
     </g>
     <g id="line2d_18">
      <g>
       <use xlink:href="#m87499ebd5c" x="54.12125" y="275.827089" style="stroke: #000000; stroke-width: 0.8"/>
      </g>
     </g>
     <g id="text_10">
      <!-- 0.10 -->
      <g transform="translate(24.855625 279.626308) scale(0.1 -0.1)">
       <use xlink:href="#DejaVuSans-30"/>
       <use xlink:href="#DejaVuSans-2e" transform="translate(63.623047 0)"/>
       <use xlink:href="#DejaVuSans-31" transform="translate(95.410156 0)"/>
       <use xlink:href="#DejaVuSans-30" transform="translate(159.033203 0)"/>
      </g>
     </g>
    </g>
    <g id="ytick_4">
     <g id="line2d_19">
      <path d="M 54.12125 230.975262 
L 536.175 230.975262 
" clip-path="url(#p06fb981967)" style="fill: none; stroke: #b0b0b0; stroke-opacity: 0.3; stroke-width: 0.8; stroke-linecap: square"/>
     </g>
     <g id="line2d_20">
      <g>
       <use xlink:href="#m87499ebd5c" x="54.12125" y="230.975262" style="stroke: #000000; stroke-width: 0.8"/>
      </g>
     </g>
     <g id="text_11">
      <!-- 0.15 -->
      <g transform="translate(24.855625 234.77448) scale(0.1 -0.1)">
       <use xlink:href="#DejaVuSans-30"/>
       <use xlink:href="#DejaVuSans-2e" transform="translate(63.623047 0)"/>
       <use xlink:href="#DejaVuSans-31" transform="translate(95.410156 0)"/>
       <use xlink:href="#DejaVuSans-35" transform="translate(159.033203 0)"/>
      </g>
     </g>
    </g>
    <g id="ytick_5">
     <g id="line2d_21">
      <path d="M 54.12125 186.123434 
L 536.175 186.123434 
" clip-path="url(#p06fb981967)" style="fill: none; stroke: #b0b0b0; stroke-opacity: 0.3; stroke-width: 0.8; stroke-linecap: square"/>
     </g>
     <g id="line2d_22">
      <g>
       <use xlink:href="#m87499ebd5c" x="54.12125" y="186.123434" style="stroke: #000000; stroke-width: 0.8"/>
      </g>
     </g>
     <g id="text_12">
      <!-- 0.20 -->
      <g transform="translate(24.855625 189.922653) scale(0.1 -0.1)">
       <use xlink:href="#DejaVuSans-30"/>
       <use xlink:href="#DejaVuSans-2e" transform="translate(63.623047 0)"/>
       <use xlink:href="#DejaVuSans-32" transform="translate(95.410156 0)"/>
       <use xlink:href="#DejaVuSans-30" transform="translate(159.033203 0)"/>
      </g>
     </g>
    </g>
    <g id="ytick_6">
     <g id="line2d_23">
      <path d="M 54.12125 141.271607 
L 536.175 141.271607 
" clip-path="url(#p06fb981967)" style="fill: none; stroke: #b0b0b0; stroke-opacity: 0.3; stroke-width: 0.8; stroke-linecap: square"/>
     </g>
     <g id="line2d_24">
      <g>
       <use xlink:href="#m87499ebd5c" x="54.12125" y="141.271607" style="stroke: #000000; stroke-width: 0.8"/>
      </g>
     </g>
     <g id="text_13">
      <!-- 0.25 -->
      <g transform="translate(24.855625 145.070826) scale(0.1 -0.1)">
       <use xlink:href="#DejaVuSans-30"/>
       <use xlink:href="#DejaVuSans-2e" transform="translate(63.623047 0)"/>
       <use xlink:href="#DejaVuSans-32" transform="translate(95.410156 0)"/>
       <use xlink:href="#DejaVuSans-35" transform="translate(159.033203 0)"/>
      </g>
     </g>
    </g>
    <g id="ytick_7">
     <g id="line2d_25">
      <path d="M 54.12125 96.41978 
L 536.175 96.41978 
" clip-path="url(#p06fb981967)" style="fill: none; stroke: #b0b0b0; stroke-opacity: 0.3; stroke-width: 0.8; stroke-linecap: square"/>
     </g>
     <g id="line2d_26">
      <g>
       <use xlink:href="#m87499ebd5c" x="54.12125" y="96.41978" style="stroke: #000000; stroke-width: 0.8"/>
      </g>
     </g>
     <g id="text_14">
      <!-- 0.30 -->
      <g transform="translate(24.855625 100.218998) scale(0.1 -0.1)">
       <use xlink:href="#DejaVuSans-30"/>
       <use xlink:href="#DejaVuSans-2e" transform="translate(63.623047 0)"/>
       <use xlink:href="#DejaVuSans-33" transform="translate(95.410156 0)"/>
       <use xlink:href="#DejaVuSans-30" transform="translate(159.033203 0)"/>
      </g>
     </g>
    </g>
    <g id="ytick_8">
     <g id="line2d_27">
      <path d="M 54.12125 51.567952 
L 536.175 51.567952 
" clip-path="url(#p06fb981967)" style="fill: none; stroke: #b0b0b0; stroke-opacity: 0.3; stroke-width: 0.8; stroke-linecap: square"/>
     </g>
     <g id="line2d_28">
      <g>
       <use xlink:href="#m87499ebd5c" x="54.12125" y="51.567952" style="stroke: #000000; stroke-width: 0.8"/>
      </g>
     </g>
     <g id="text_15">
      <!-- 0.35 -->
      <g transform="translate(24.855625 55.367171) scale(0.1 -0.1)">
       <use xlink:href="#DejaVuSans-30"/>
       <use xlink:href="#DejaVuSans-2e" transform="translate(63.623047 0)"/>
       <use xlink:href="#DejaVuSans-33" transform="translate(95.410156 0)"/>
       <use xlink:href="#DejaVuSans-35" transform="translate(159.033203 0)"/>
      </g>
     </g>
    </g>
    <g id="text_16">
     <!-- g_ISW = −d(D/a)/dlna   (&gt;0: potential decays) -->
     <g transform="translate(18.497813 330.835563) rotate(-90) scale(0.1 -0.1)">
      <defs>
       <path id="DejaVuSans-67" d="M 2906 1791 
Q 2906 2416 2648 2759 
Q 2391 3103 1925 3103 
Q 1463 3103 1205 2759 
Q 947 2416 947 1791 
Q 947 1169 1205 825 
Q 1463 481 1925 481 
Q 2391 481 2648 825 
Q 2906 1169 2906 1791 
z
M 3481 434 
Q 3481 -459 3084 -895 
Q 2688 -1331 1869 -1331 
Q 1566 -1331 1297 -1286 
Q 1028 -1241 775 -1147 
L 775 -588 
Q 1028 -725 1275 -790 
Q 1522 -856 1778 -856 
Q 2344 -856 2625 -561 
Q 2906 -266 2906 331 
L 2906 616 
Q 2728 306 2450 153 
Q 2172 0 1784 0 
Q 1141 0 747 490 
Q 353 981 353 1791 
Q 353 2603 747 3093 
Q 1141 3584 1784 3584 
Q 2172 3584 2450 3431 
Q 2728 3278 2906 2969 
L 2906 3500 
L 3481 3500 
L 3481 434 
z
" transform="scale(0.015625)"/>
       <path id="DejaVuSans-5f" d="M 3263 -1063 
L 3263 -1509 
L -63 -1509 
L -63 -1063 
L 3263 -1063 
z
" transform="scale(0.015625)"/>
       <path id="DejaVuSans-49" d="M 628 4666 
L 1259 4666 
L 1259 0 
L 628 0 
L 628 4666 
z
" transform="scale(0.015625)"/>
       <path id="DejaVuSans-53" d="M 3425 4513 
L 3425 3897 
Q 3066 4069 2747 4153 
Q 2428 4238 2131 4238 
Q 1616 4238 1336 4038 
Q 1056 3838 1056 3469 
Q 1056 3159 1242 3001 
Q 1428 2844 1947 2747 
L 2328 2669 
Q 3034 2534 3370 2195 
Q 3706 1856 3706 1288 
Q 3706 609 3251 259 
Q 2797 -91 1919 -91 
Q 1588 -91 1214 -16 
Q 841 59 441 206 
L 441 856 
Q 825 641 1194 531 
Q 1563 422 1919 422 
Q 2459 422 2753 634 
Q 3047 847 3047 1241 
Q 3047 1584 2836 1778 
Q 2625 1972 2144 2069 
L 1759 2144 
Q 1053 2284 737 2584 
Q 422 2884 422 3419 
Q 422 4038 858 4394 
Q 1294 4750 2059 4750 
Q 2388 4750 2728 4690 
Q 3069 4631 3425 4513 
z
" transform="scale(0.015625)"/>
       <path id="DejaVuSans-57" d="M 213 4666 
L 850 4666 
L 1831 722 
L 2809 4666 
L 3519 4666 
L 4500 722 
L 5478 4666 
L 6119 4666 
L 4947 0 
L 4153 0 
L 3169 4050 
L 2175 0 
L 1381 0 
L 213 4666 
z
" transform="scale(0.015625)"/>
       <path id="DejaVuSans-3d" d="M 678 2906 
L 4684 2906 
L 4684 2381 
L 678 2381 
L 678 2906 
z
M 678 1631 
L 4684 1631 
L 4684 1100 
L 678 1100 
L 678 1631 
z
" transform="scale(0.015625)"/>
       <path id="DejaVuSans-2212" d="M 678 2272 
L 4684 2272 
L 4684 1741 
L 678 1741 
L 678 2272 
z
" transform="scale(0.015625)"/>
       <path id="DejaVuSans-28" d="M 1984 4856 
Q 1566 4138 1362 3434 
Q 1159 2731 1159 2009 
Q 1159 1288 1364 580 
Q 1569 -128 1984 -844 
L 1484 -844 
Q 1016 -109 783 600 
Q 550 1309 550 2009 
Q 550 2706 781 3412 
Q 1013 4119 1484 4856 
L 1984 4856 
z
" transform="scale(0.015625)"/>
       <path id="DejaVuSans-44" d="M 1259 4147 
L 1259 519 
L 2022 519 
Q 2988 519 3436 956 
Q 3884 1394 3884 2338 
Q 3884 3275 3436 3711 
Q 2988 4147 2022 4147 
L 1259 4147 
z
M 628 4666 
L 1925 4666 
Q 3281 4666 3915 4102 
Q 4550 3538 4550 2338 
Q 4550 1131 3912 565 
Q 3275 0 1925 0 
L 628 0 
L 628 4666 
z
" transform="scale(0.015625)"/>
       <path id="DejaVuSans-2f" d="M 1625 4666 
L 2156 4666 
L 531 -594 
L 0 -594 
L 1625 4666 
z
" transform="scale(0.015625)"/>
       <path id="DejaVuSans-61" d="M 2194 1759 
Q 1497 1759 1228 1600 
Q 959 1441 959 1056 
Q 959 750 1161 570 
Q 1363 391 1709 391 
Q 2188 391 2477 730 
Q 2766 1069 2766 1631 
L 2766 1759 
L 2194 1759 
z
M 3341 1997 
L 3341 0 
L 2766 0 
L 2766 531 
Q 2569 213 2275 61 
Q 1981 -91 1556 -91 
Q 1019 -91 701 211 
Q 384 513 384 1019 
Q 384 1609 779 1909 
Q 1175 2209 1959 2209 
L 2766 2209 
L 2766 2266 
Q 2766 2663 2505 2880 
Q 2244 3097 1772 3097 
Q 1472 3097 1187 3025 
Q 903 2953 641 2809 
L 641 3341 
Q 956 3463 1253 3523 
Q 1550 3584 1831 3584 
Q 2591 3584 2966 3190 
Q 3341 2797 3341 1997 
z
" transform="scale(0.015625)"/>
       <path id="DejaVuSans-29" d="M 513 4856 
L 1013 4856 
Q 1481 4119 1714 3412 
Q 1947 2706 1947 2009 
Q 1947 1309 1714 600 
Q 1481 -109 1013 -844 
L 513 -844 
Q 928 -128 1133 580 
Q 1338 1288 1338 2009 
Q 1338 2731 1133 3434 
Q 928 4138 513 4856 
z
" transform="scale(0.015625)"/>
       <path id="DejaVuSans-6c" d="M 603 4863 
L 1178 4863 
L 1178 0 
L 603 0 
L 603 4863 
z
" transform="scale(0.015625)"/>
       <path id="DejaVuSans-6e" d="M 3513 2113 
L 3513 0 
L 2938 0 
L 2938 2094 
Q 2938 2591 2744 2837 
Q 2550 3084 2163 3084 
Q 1697 3084 1428 2787 
Q 1159 2491 1159 1978 
L 1159 0 
L 581 0 
L 581 3500 
L 1159 3500 
L 1159 2956 
Q 1366 3272 1645 3428 
Q 1925 3584 2291 3584 
Q 2894 3584 3203 3211 
Q 3513 2838 3513 2113 
z
" transform="scale(0.015625)"/>
       <path id="DejaVuSans-3e" d="M 678 3150 
L 678 3719 
L 4684 2266 
L 4684 1747 
L 678 294 
L 678 863 
L 3897 2003 
L 678 3150 
z
" transform="scale(0.015625)"/>
       <path id="DejaVuSans-3a" d="M 750 794 
L 1409 794 
L 1409 0 
L 750 0 
L 750 794 
z
M 750 3309 
L 1409 3309 
L 1409 2516 
L 750 2516 
L 750 3309 
z
" transform="scale(0.015625)"/>
       <path id="DejaVuSans-70" d="M 1159 525 
L 1159 -1331 
L 581 -1331 
L 581 3500 
L 1159 3500 
L 1159 2969 
Q 1341 3281 1617 3432 
Q 1894 3584 2278 3584 
Q 2916 3584 3314 3078 
Q 3713 2572 3713 1747 
Q 3713 922 3314 415 
Q 2916 -91 2278 -91 
Q 1894 -91 1617 61 
Q 1341 213 1159 525 
z
M 3116 1747 
Q 3116 2381 2855 2742 
Q 2594 3103 2138 3103 
Q 1681 3103 1420 2742 
Q 1159 2381 1159 1747 
Q 1159 1113 1420 752 
Q 1681 391 2138 391 
Q 2594 391 2855 752 
Q 3116 1113 3116 1747 
z
" transform="scale(0.015625)"/>
       <path id="DejaVuSans-6f" d="M 1959 3097 
Q 1497 3097 1228 2736 
Q 959 2375 959 1747 
Q 959 1119 1226 758 
Q 1494 397 1959 397 
Q 2419 397 2687 759 
Q 2956 1122 2956 1747 
Q 2956 2369 2687 2733 
Q 2419 3097 1959 3097 
z
M 1959 3584 
Q 2709 3584 3137 3096 
Q 3566 2609 3566 1747 
Q 3566 888 3137 398 
Q 2709 -91 1959 -91 
Q 1206 -91 779 398 
Q 353 888 353 1747 
Q 353 2609 779 3096 
Q 1206 3584 1959 3584 
z
" transform="scale(0.015625)"/>
       <path id="DejaVuSans-63" d="M 3122 3366 
L 3122 2828 
Q 2878 2963 2633 3030 
Q 2388 3097 2138 3097 
Q 1578 3097 1268 2742 
Q 959 2388 959 1747 
Q 959 1106 1268 751 
Q 1578 397 2138 397 
Q 2388 397 2633 464 
Q 2878 531 3122 666 
L 3122 134 
Q 2881 22 2623 -34 
Q 2366 -91 2075 -91 
Q 1284 -91 818 406 
Q 353 903 353 1747 
Q 353 2603 823 3093 
Q 1294 3584 2113 3584 
Q 2378 3584 2631 3529 
Q 2884 3475 3122 3366 
z
" transform="scale(0.015625)"/>
       <path id="DejaVuSans-79" d="M 2059 -325 
Q 1816 -950 1584 -1140 
Q 1353 -1331 966 -1331 
L 506 -1331 
L 506 -850 
L 844 -850 
Q 1081 -850 1212 -737 
Q 1344 -625 1503 -206 
L 1606 56 
L 191 3500 
L 800 3500 
L 1894 763 
L 2988 3500 
L 3597 3500 
L 2059 -325 
z
" transform="scale(0.015625)"/>
      </defs>
      <use xlink:href="#DejaVuSans-67"/>
      <use xlink:href="#DejaVuSans-5f" transform="translate(63.476562 0)"/>
      <use xlink:href="#DejaVuSans-49" transform="translate(113.476562 0)"/>
      <use xlink:href="#DejaVuSans-53" transform="translate(142.96875 0)"/>
      <use xlink:href="#DejaVuSans-57" transform="translate(206.445312 0)"/>
      <use xlink:href="#DejaVuSans-20" transform="translate(305.322266 0)"/>
      <use xlink:href="#DejaVuSans-3d" transform="translate(337.109375 0)"/>
      <use xlink:href="#DejaVuSans-20" transform="translate(420.898438 0)"/>
      <use xlink:href="#DejaVuSans-2212" transform="translate(452.685547 0)"/>
      <use xlink:href="#DejaVuSans-64" transform="translate(536.474609 0)"/>
      <use xlink:href="#DejaVuSans-28" transform="translate(599.951172 0)"/>
      <use xlink:href="#DejaVuSans-44" transform="translate(638.964844 0)"/>
      <use xlink:href="#DejaVuSans-2f" transform="translate(715.966797 0)"/>
      <use xlink:href="#DejaVuSans-61" transform="translate(749.658203 0)"/>
      <use xlink:href="#DejaVuSans-29" transform="translate(810.9375 0)"/>
      <use xlink:href="#DejaVuSans-2f" transform="translate(849.951172 0)"/>
      <use xlink:href="#DejaVuSans-64" transform="translate(883.642578 0)"/>
      <use xlink:href="#DejaVuSans-6c" transform="translate(947.119141 0)"/>
      <use xlink:href="#DejaVuSans-6e" transform="translate(974.902344 0)"/>
      <use xlink:href="#DejaVuSans-61" transform="translate(1038.28125 0)"/>
      <use xlink:href="#DejaVuSans-20" transform="translate(1099.560547 0)"/>
      <use xlink:href="#DejaVuSans-20" transform="translate(1131.347656 0)"/>
      <use xlink:href="#DejaVuSans-20" transform="translate(1163.134766 0)"/>
      <use xlink:href="#DejaVuSans-28" transform="translate(1194.921875 0)"/>
      <use xlink:href="#DejaVuSans-3e" transform="translate(1233.935547 0)"/>
      <use xlink:href="#DejaVuSans-30" transform="translate(1317.724609 0)"/>
      <use xlink:href="#DejaVuSans-3a" transform="translate(1381.347656 0)"/>
      <use xlink:href="#DejaVuSans-20" transform="translate(1415.039062 0)"/>
      <use xlink:href="#DejaVuSans-70" transform="translate(1446.826172 0)"/>
      <use xlink:href="#DejaVuSans-6f" transform="translate(1510.302734 0)"/>
      <use xlink:href="#DejaVuSans-74" transform="translate(1571.484375 0)"/>
      <use xlink:href="#DejaVuSans-65" transform="translate(1610.693359 0)"/>
      <use xlink:href="#DejaVuSans-6e" transform="translate(1672.216797 0)"/>
      <use xlink:href="#DejaVuSans-74" transform="translate(1735.595703 0)"/>
      <use xlink:href="#DejaVuSans-69" transform="translate(1774.804688 0)"/>
      <use xlink:href="#DejaVuSans-61" transform="translate(1802.587891 0)"/>
      <use xlink:href="#DejaVuSans-6c" transform="translate(1863.867188 0)"/>
      <use xlink:href="#DejaVuSans-20" transform="translate(1891.650391 0)"/>
      <use xlink:href="#DejaVuSans-64" transform="translate(1923.4375 0)"/>
      <use xlink:href="#DejaVuSans-65" transform="translate(1986.914062 0)"/>
      <use xlink:href="#DejaVuSans-63" transform="translate(2048.4375 0)"/>
      <use xlink:href="#DejaVuSans-61" transform="translate(2103.417969 0)"/>
      <use xlink:href="#DejaVuSans-79" transform="translate(2164.697266 0)"/>
      <use xlink:href="#DejaVuSans-73" transform="translate(2223.876953 0)"/>
      <use xlink:href="#DejaVuSans-29" transform="translate(2275.976562 0)"/>
     </g>
    </g>
   </g>
   <g id="line2d_29">
    <path d="M 533.706257 360.164696 
L 495.19903 359.211613 
L 465.083631 358.242004 
L 436.655593 357.083252 
L 415.06435 355.998255 
L 394.446458 354.752199 
L 374.758038 353.323541 
L 355.957188 351.688153 
L 342.41488 350.309859 
L 329.333076 348.787744 
L 316.696116 347.108388 
L 304.488874 345.257362 
L 292.696737 343.219206 
L 281.305589 340.977435 
L 270.301796 338.514564 
L 259.672184 335.812135 
L 252.787354 333.867899 
L 246.0595 331.802669 
L 239.485044 329.610364 
L 233.060487 327.28479 
L 226.782413 324.819657 
L 220.647481 322.208617 
L 214.652427 319.445293 
L 208.794063 316.523325 
L 203.069271 313.436414 
L 197.475007 310.178379 
L 192.008294 306.743209 
L 186.666224 303.12513 
L 181.445954 299.318685 
L 176.344709 295.318796 
L 171.359774 291.120855 
L 166.488497 286.720817 
L 161.728287 282.115284 
L 157.076611 277.301598 
L 152.530995 272.277962 
L 148.089021 267.043507 
L 143.748325 261.598435 
L 139.506599 255.944074 
L 135.361585 250.083005 
L 131.31108 244.019132 
L 127.352927 237.757777 
L 123.485021 231.305742 
L 119.705305 224.67137 
L 116.011768 217.86459 
L 110.628761 207.356826 
L 105.428803 196.533195 
L 100.405668 185.447406 
L 95.553344 174.160722 
L 90.866023 162.741269 
L 84.863261 147.437441 
L 79.131109 132.217504 
L 71.013738 109.97529 
L 58.67271 76.090594 
L 55.239508 67.045921 
L 54.12125 65.589455 
L 54.12125 65.589455 
" clip-path="url(#p06fb981967)" style="fill: none; stroke: #1f77b4; stroke-width: 2.2; stroke-linecap: square"/>
   </g>
   <g id="line2d_30">
    <path d="M 533.706257 364.423194 
L 312.580021 364.556843 
L 285.058935 364.38122 
L 273.92751 364.139689 
L 266.717653 363.843234 
L 259.672184 363.362844 
L 252.787354 362.611904 
L 246.0595 361.515699 
L 239.485044 360.06508 
L 233.060487 358.33153 
L 226.782413 356.412674 
L 217.63267 353.33291 
L 208.794063 350.095595 
L 200.256011 346.721876 
L 192.008294 343.204399 
L 184.041039 339.528341 
L 176.344709 335.677742 
L 168.910092 331.637423 
L 161.728287 327.393711 
L 154.790698 322.934896 
L 148.089021 318.251606 
L 141.615233 313.337192 
L 135.361585 308.188068 
L 129.320592 302.804122 
L 123.485021 297.188992 
L 117.847888 291.350352 
L 112.402444 285.300141 
L 107.142172 279.054638 
L 102.060775 272.634453 
L 97.152169 266.06443 
L 92.41048 259.373368 
L 87.830031 252.593611 
L 81.964134 243.477523 
L 76.362677 234.357185 
L 69.714614 223.095142 
L 59.843761 205.831836 
L 55.239508 197.7386 
L 54.12125 196.754416 
L 54.12125 196.754416 
" clip-path="url(#p06fb981967)" style="fill: none; stroke: #9467bd; stroke-width: 2.2; stroke-linecap: square"/>
   </g>
   <g id="line2d_31">
    <path d="M 246.94275 379.528 
L 246.94275 50.64 
" clip-path="url(#p06fb981967)" style="fill: none; stroke-dasharray: 1.5,2.475; stroke-dashoffset: 0; stroke: #808080; stroke-width: 1.5"/>
   </g>
   <g id="line2d_32">
    <path d="M 54.12125 365.530744 
L 536.175 365.530744 
" clip-path="url(#p06fb981967)" style="fill: none; stroke: #000000; stroke-width: 0.7; stroke-linecap: square"/>
   </g>
   <g id="patch_3">
    <path d="M 54.12125 379.528 
L 54.12125 50.64 
" style="fill: none; stroke: #000000; stroke-width: 0.8; stroke-linejoin: miter; stroke-linecap: square"/>
   </g>
   <g id="patch_4">
    <path d="M 536.175 379.528 
L 536.175 50.64 
" style="fill: none; stroke: #000000; stroke-width: 0.8; stroke-linejoin: miter; stroke-linecap: square"/>
   </g>
   <g id="patch_5">
    <path d="M 54.12125 379.528 
L 536.175 379.528 
" style="fill: none; stroke: #000000; stroke-width: 0.8; stroke-linejoin: miter; stroke-linecap: square"/>
   </g>
   <g id="patch_6">
    <path d="M 54.12125 50.64 
L 536.175 50.64 
" style="fill: none; stroke: #000000; stroke-width: 0.8; stroke-linejoin: miter; stroke-linecap: square"/>
   </g>
   <g id="patch_7">
    <path d="M 310.483037 347.235787 
Q 279.688259 354.23256 249.983728 360.981622 
" style="fill: none; stroke: #808080; stroke-linecap: round"/>
    <path d="M 253.675878 361.886069 
L 249.983728 360.981622 
L 252.922575 358.57057 
" style="fill: none; stroke: #808080; stroke-linecap: round"/>
   </g>
   <g id="text_17">
    <!-- z≈2 w-transition -->
    <g transform="translate(314.430275 335.949867) scale(0.085 -0.085)">
     <defs>
      <path id="DejaVuSans-2248" d="M 4684 1947 
L 4684 1388 
Q 4356 1144 4076 1036 
Q 3797 928 3494 928 
Q 3150 928 2694 1113 
Q 2663 1125 2641 1134 
Q 2622 1141 2575 1159 
Q 2091 1350 1797 1350 
Q 1522 1350 1253 1231 
Q 984 1113 678 850 
L 678 1409 
Q 1006 1653 1286 1761 
Q 1566 1869 1869 1869 
Q 2213 1869 2672 1684 
Q 2706 1669 2722 1663 
Q 2741 1656 2788 1638 
Q 3272 1447 3566 1447 
Q 3834 1447 4098 1564 
Q 4363 1681 4684 1947 
z
M 4684 3163 
L 4684 2606 
Q 4356 2359 4076 2251 
Q 3797 2144 3494 2144 
Q 3150 2144 2694 2328 
Q 2663 2341 2641 2350 
Q 2622 2356 2575 2375 
Q 2091 2566 1797 2566 
Q 1522 2566 1253 2447 
Q 984 2328 678 2069 
L 678 2625 
Q 1006 2869 1286 2976 
Q 1566 3084 1869 3084 
Q 2213 3084 2672 2900 
Q 2703 2888 2719 2881 
Q 2741 2872 2788 2853 
Q 3272 2663 3566 2663 
Q 3834 2663 4098 2780 
Q 4363 2897 4684 3163 
z
" transform="scale(0.015625)"/>
      <path id="DejaVuSans-77" d="M 269 3500 
L 844 3500 
L 1563 769 
L 2278 3500 
L 2956 3500 
L 3675 769 
L 4391 3500 
L 4966 3500 
L 4050 0 
L 3372 0 
L 2619 2869 
L 1863 0 
L 1184 0 
L 269 3500 
z
" transform="scale(0.015625)"/>
      <path id="DejaVuSans-2d" d="M 313 2009 
L 1997 2009 
L 1997 1497 
L 313 1497 
L 313 2009 
z
" transform="scale(0.015625)"/>
     </defs>
     <use xlink:href="#DejaVuSans-7a"/>
     <use xlink:href="#DejaVuSans-2248" transform="translate(52.490234 0)"/>
     <use xlink:href="#DejaVuSans-32" transform="translate(136.279297 0)"/>
     <use xlink:href="#DejaVuSans-20" transform="translate(199.902344 0)"/>
     <use xlink:href="#DejaVuSans-77" transform="translate(231.689453 0)"/>
     <use xlink:href="#DejaVuSans-2d" transform="translate(313.476562 0)"/>
     <use xlink:href="#DejaVuSans-74" transform="translate(349.560547 0)"/>
     <use xlink:href="#DejaVuSans-72" transform="translate(388.769531 0)"/>
     <use xlink:href="#DejaVuSans-61" transform="translate(429.882812 0)"/>
     <use xlink:href="#DejaVuSans-6e" transform="translate(491.162109 0)"/>
     <use xlink:href="#DejaVuSans-73" transform="translate(554.541016 0)"/>
     <use xlink:href="#DejaVuSans-69" transform="translate(606.640625 0)"/>
     <use xlink:href="#DejaVuSans-74" transform="translate(634.423828 0)"/>
     <use xlink:href="#DejaVuSans-69" transform="translate(673.632812 0)"/>
     <use xlink:href="#DejaVuSans-6f" transform="translate(701.416016 0)"/>
     <use xlink:href="#DejaVuSans-6e" transform="translate(762.597656 0)"/>
    </g>
    <!-- (w: 0 → −1) -->
    <g transform="translate(314.430275 345.468007) scale(0.085 -0.085)">
     <defs>
      <path id="DejaVuSans-2192" d="M 5050 2147 
L 5050 1866 
L 3822 638 
L 3447 1013 
L 4175 1741 
L 366 1741 
L 366 2272 
L 4175 2272 
L 3447 3000 
L 3822 3375 
L 5050 2147 
z
" transform="scale(0.015625)"/>
     </defs>
     <use xlink:href="#DejaVuSans-28"/>
     <use xlink:href="#DejaVuSans-77" transform="translate(39.013672 0)"/>
     <use xlink:href="#DejaVuSans-3a" transform="translate(115.300781 0)"/>
     <use xlink:href="#DejaVuSans-20" transform="translate(148.992188 0)"/>
     <use xlink:href="#DejaVuSans-30" transform="translate(180.779297 0)"/>
     <use xlink:href="#DejaVuSans-20" transform="translate(244.402344 0)"/>
     <use xlink:href="#DejaVuSans-2192" transform="translate(276.189453 0)"/>
     <use xlink:href="#DejaVuSans-20" transform="translate(359.978516 0)"/>
     <use xlink:href="#DejaVuSans-2212" transform="translate(391.765625 0)"/>
     <use xlink:href="#DejaVuSans-31" transform="translate(475.554688 0)"/>
     <use xlink:href="#DejaVuSans-29" transform="translate(539.177734 0)"/>
    </g>
   </g>
   <g id="text_18">
    <!-- (a) ISW source: potential-decay rate g_ISW(z) -->
    <g transform="translate(158.57875 44.64) scale(0.12 -0.12)">
     <defs>
      <path id="DejaVuSans-75" d="M 544 1381 
L 544 3500 
L 1119 3500 
L 1119 1403 
Q 1119 906 1312 657 
Q 1506 409 1894 409 
Q 2359 409 2629 706 
Q 2900 1003 2900 1516 
L 2900 3500 
L 3475 3500 
L 3475 0 
L 2900 0 
L 2900 538 
Q 2691 219 2414 64 
Q 2138 -91 1772 -91 
Q 1169 -91 856 284 
Q 544 659 544 1381 
z
M 1991 3584 
L 1991 3584 
z
" transform="scale(0.015625)"/>
     </defs>
     <use xlink:href="#DejaVuSans-28"/>
     <use xlink:href="#DejaVuSans-61" transform="translate(39.013672 0)"/>
     <use xlink:href="#DejaVuSans-29" transform="translate(100.292969 0)"/>
     <use xlink:href="#DejaVuSans-20" transform="translate(139.306641 0)"/>
     <use xlink:href="#DejaVuSans-49" transform="translate(171.09375 0)"/>
     <use xlink:href="#DejaVuSans-53" transform="translate(200.585938 0)"/>
     <use xlink:href="#DejaVuSans-57" transform="translate(264.0625 0)"/>
     <use xlink:href="#DejaVuSans-20" transform="translate(362.939453 0)"/>
     <use xlink:href="#DejaVuSans-73" transform="translate(394.726562 0)"/>
     <use xlink:href="#DejaVuSans-6f" transform="translate(446.826172 0)"/>
     <use xlink:href="#DejaVuSans-75" transform="translate(508.007812 0)"/>
     <use xlink:href="#DejaVuSans-72" transform="translate(571.386719 0)"/>
     <use xlink:href="#DejaVuSans-63" transform="translate(610.25 0)"/>
     <use xlink:href="#DejaVuSans-65" transform="translate(665.230469 0)"/>
     <use xlink:href="#DejaVuSans-3a" transform="translate(726.753906 0)"/>
     <use xlink:href="#DejaVuSans-20" transform="translate(760.445312 0)"/>
     <use xlink:href="#DejaVuSans-70" transform="translate(792.232422 0)"/>
     <use xlink:href="#DejaVuSans-6f" transform="translate(855.708984 0)"/>
     <use xlink:href="#DejaVuSans-74" transform="translate(916.890625 0)"/>
     <use xlink:href="#DejaVuSans-65" transform="translate(956.099609 0)"/>
     <use xlink:href="#DejaVuSans-6e" transform="translate(1017.623047 0)"/>
     <use xlink:href="#DejaVuSans-74" transform="translate(1081.001953 0)"/>
     <use xlink:href="#DejaVuSans-69" transform="translate(1120.210938 0)"/>
     <use xlink:href="#DejaVuSans-61" transform="translate(1147.994141 0)"/>
     <use xlink:href="#DejaVuSans-6c" transform="translate(1209.273438 0)"/>
     <use xlink:href="#DejaVuSans-2d" transform="translate(1237.056641 0)"/>
     <use xlink:href="#DejaVuSans-64" transform="translate(1273.140625 0)"/>
     <use xlink:href="#DejaVuSans-65" transform="translate(1336.617188 0)"/>
     <use xlink:href="#DejaVuSans-63" transform="translate(1398.140625 0)"/>
     <use xlink:href="#DejaVuSans-61" transform="translate(1453.121094 0)"/>
     <use xlink:href="#DejaVuSans-79" transform="translate(1514.400391 0)"/>
     <use xlink:href="#DejaVuSans-20" transform="translate(1573.580078 0)"/>
     <use xlink:href="#DejaVuSans-72" transform="translate(1605.367188 0)"/>
     <use xlink:href="#DejaVuSans-61" transform="translate(1646.480469 0)"/>
     <use xlink:href="#DejaVuSans-74" transform="translate(1707.759766 0)"/>
     <use xlink:href="#DejaVuSans-65" transform="translate(1746.96875 0)"/>
     <use xlink:href="#DejaVuSans-20" transform="translate(1808.492188 0)"/>
     <use xlink:href="#DejaVuSans-67" transform="translate(1840.279297 0)"/>
     <use xlink:href="#DejaVuSans-5f" transform="translate(1903.755859 0)"/>
     <use xlink:href="#DejaVuSans-49" transform="translate(1953.755859 0)"/>
     <use xlink:href="#DejaVuSans-53" transform="translate(1983.248047 0)"/>
     <use xlink:href="#DejaVuSans-57" transform="translate(2046.724609 0)"/>
     <use xlink:href="#DejaVuSans-28" transform="translate(2145.601562 0)"/>
     <use xlink:href="#DejaVuSans-7a" transform="translate(2184.615234 0)"/>
     <use xlink:href="#DejaVuSans-29" transform="translate(2237.105469 0)"/>
    </g>
   </g>
   <g id="legend_1">
    <g id="patch_8">
     <path d="M 391.535156 84.260625 
L 529.875 84.260625 
Q 531.675 84.260625 531.675 82.460625 
L 531.675 56.94 
Q 531.675 55.14 529.875 55.14 
L 391.535156 55.14 
Q 389.735156 55.14 389.735156 56.94 
L 389.735156 82.460625 
Q 389.735156 84.260625 391.535156 84.260625 
z
" style="fill: #ffffff; opacity: 0.8; stroke: #cccccc; stroke-linejoin: miter"/>
    </g>
    <g id="line2d_33">
     <path d="M 393.335156 62.428594 
L 402.335156 62.428594 
L 411.335156 62.428594 
" style="fill: none; stroke: #1f77b4; stroke-width: 2.2; stroke-linecap: square"/>
    </g>
    <g id="text_19">
     <!-- ΛCDM -->
     <g transform="translate(418.535156 65.578594) scale(0.09 -0.09)">
      <defs>
       <path id="DejaVuSans-39b" d="M 716 0 
L 50 0 
L 1831 4666 
L 2547 4666 
L 4325 0 
L 3669 0 
L 2188 4044 
L 716 0 
z
" transform="scale(0.015625)"/>
       <path id="DejaVuSans-43" d="M 4122 4306 
L 4122 3641 
Q 3803 3938 3442 4084 
Q 3081 4231 2675 4231 
Q 1875 4231 1450 3742 
Q 1025 3253 1025 2328 
Q 1025 1406 1450 917 
Q 1875 428 2675 428 
Q 3081 428 3442 575 
Q 3803 722 4122 1019 
L 4122 359 
Q 3791 134 3420 21 
Q 3050 -91 2638 -91 
Q 1578 -91 968 557 
Q 359 1206 359 2328 
Q 359 3453 968 4101 
Q 1578 4750 2638 4750 
Q 3056 4750 3426 4639 
Q 3797 4528 4122 4306 
z
" transform="scale(0.015625)"/>
       <path id="DejaVuSans-4d" d="M 628 4666 
L 1569 4666 
L 2759 1491 
L 3956 4666 
L 4897 4666 
L 4897 0 
L 4281 0 
L 4281 4097 
L 3078 897 
L 2444 897 
L 1241 4097 
L 1241 0 
L 628 0 
L 628 4666 
z
" transform="scale(0.015625)"/>
      </defs>
      <use xlink:href="#DejaVuSans-39b"/>
      <use xlink:href="#DejaVuSans-43" transform="translate(68.408203 0)"/>
      <use xlink:href="#DejaVuSans-44" transform="translate(138.232422 0)"/>
      <use xlink:href="#DejaVuSans-4d" transform="translate(215.234375 0)"/>
     </g>
    </g>
    <g id="line2d_34">
     <path d="M 393.335156 75.638906 
L 402.335156 75.638906 
L 411.335156 75.638906 
" style="fill: none; stroke: #9467bd; stroke-width: 2.2; stroke-linecap: square"/>
    </g>
    <g id="text_20">
     <!-- QFUDS (k=0.015 Mpc⁻¹) -->
     <g transform="translate(418.535156 78.788906) scale(0.09 -0.09)">
      <defs>
       <path id="DejaVuSans-51" d="M 2522 4238 
Q 1834 4238 1429 3725 
Q 1025 3213 1025 2328 
Q 1025 1447 1429 934 
Q 1834 422 2522 422 
Q 3209 422 3611 934 
Q 4013 1447 4013 2328 
Q 4013 3213 3611 3725 
Q 3209 4238 2522 4238 
z
M 3406 84 
L 4238 -825 
L 3475 -825 
L 2784 -78 
Q 2681 -84 2626 -87 
Q 2572 -91 2522 -91 
Q 1538 -91 948 567 
Q 359 1225 359 2328 
Q 359 3434 948 4092 
Q 1538 4750 2522 4750 
Q 3503 4750 4090 4092 
Q 4678 3434 4678 2328 
Q 4678 1516 4351 937 
Q 4025 359 3406 84 
z
" transform="scale(0.015625)"/>
       <path id="DejaVuSans-46" d="M 628 4666 
L 3309 4666 
L 3309 4134 
L 1259 4134 
L 1259 2759 
L 3109 2759 
L 3109 2228 
L 1259 2228 
L 1259 0 
L 628 0 
L 628 4666 
z
" transform="scale(0.015625)"/>
       <path id="DejaVuSans-55" d="M 556 4666 
L 1191 4666 
L 1191 1831 
Q 1191 1081 1462 751 
Q 1734 422 2344 422 
Q 2950 422 3222 751 
Q 3494 1081 3494 1831 
L 3494 4666 
L 4128 4666 
L 4128 1753 
Q 4128 841 3676 375 
Q 3225 -91 2344 -91 
Q 1459 -91 1007 375 
Q 556 841 556 1753 
L 556 4666 
z
" transform="scale(0.015625)"/>
       <path id="DejaVuSans-6b" d="M 581 4863 
L 1159 4863 
L 1159 1991 
L 2875 3500 
L 3609 3500 
L 1753 1863 
L 3688 0 
L 2938 0 
L 1159 1709 
L 1159 0 
L 581 0 
L 581 4863 
z
" transform="scale(0.015625)"/>
       <path id="DejaVuSans-207b" d="M 428 3359 
L 2950 3359 
L 2950 3063 
L 428 3063 
L 428 3359 
z
" transform="scale(0.015625)"/>
       <path id="DejaVuSans-b9" d="M 488 2431 
L 1125 2431 
L 1125 4341 
L 428 4213 
L 428 4575 
L 1147 4697 
L 1575 4697 
L 1575 2431 
L 2216 2431 
L 2216 2088 
L 488 2088 
L 488 2431 
z
" transform="scale(0.015625)"/>
      </defs>
      <use xlink:href="#DejaVuSans-51"/>
      <use xlink:href="#DejaVuSans-46" transform="translate(78.710938 0)"/>
      <use xlink:href="#DejaVuSans-55" transform="translate(136.230469 0)"/>
      <use xlink:href="#DejaVuSans-44" transform="translate(209.423828 0)"/>
      <use xlink:href="#DejaVuSans-53" transform="translate(286.425781 0)"/>
      <use xlink:href="#DejaVuSans-20" transform="translate(349.902344 0)"/>
      <use xlink:href="#DejaVuSans-28" transform="translate(381.689453 0)"/>
      <use xlink:href="#DejaVuSans-6b" transform="translate(420.703125 0)"/>
      <use xlink:href="#DejaVuSans-3d" transform="translate(478.613281 0)"/>
      <use xlink:href="#DejaVuSans-30" transform="translate(562.402344 0)"/>
      <use xlink:href="#DejaVuSans-2e" transform="translate(626.025391 0)"/>
      <use xlink:href="#DejaVuSans-30" transform="translate(657.8125 0)"/>
      <use xlink:href="#DejaVuSans-31" transform="translate(721.435547 0)"/>
      <use xlink:href="#DejaVuSans-35" transform="translate(785.058594 0)"/>
      <use xlink:href="#DejaVuSans-20" transform="translate(848.681641 0)"/>
      <use xlink:href="#DejaVuSans-4d" transform="translate(880.46875 0)"/>
      <use xlink:href="#DejaVuSans-70" transform="translate(966.748047 0)"/>
      <use xlink:href="#DejaVuSans-63" transform="translate(1030.224609 0)"/>
      <use xlink:href="#DejaVuSans-207b" transform="translate(1085.205078 0)"/>
      <use xlink:href="#DejaVuSans-b9" transform="translate(1137.988281 0)"/>
      <use xlink:href="#DejaVuSans-29" transform="translate(1178.076172 0)"/>
     </g>
    </g>
   </g>
  </g>
  <g id="axes_2">
   <g id="patch_9">
    <path d="M 587.14625 379.528 
L 1069.2 379.528 
L 1069.2 50.64 
L 587.14625 50.64 
z
" style="fill: #ffffff"/>
   </g>
   <g id="matplotlib.axis_3">
    <g id="xtick_7">
     <g id="line2d_35">
      <path d="M 759.107358 379.528 
L 759.107358 50.64 
" clip-path="url(#p563697f576)" style="fill: none; stroke: #b0b0b0; stroke-opacity: 0.3; stroke-width: 0.8; stroke-linecap: square"/>
     </g>
     <g id="line2d_36">
      <g>
       <use xlink:href="#me0a73af738" x="759.107358" y="379.528" style="stroke: #000000; stroke-width: 0.8"/>
      </g>
     </g>
     <g id="text_21">
      <!-- $\mathdefault{10^{1}}$ -->
      <g transform="translate(750.307358 394.126438) scale(0.1 -0.1)">
       <use xlink:href="#DejaVuSans-31" transform="translate(0 0.684375)"/>
       <use xlink:href="#DejaVuSans-30" transform="translate(63.623047 0.684375)"/>
       <use xlink:href="#DejaVuSans-31" transform="translate(128.203125 38.965625) scale(0.7)"/>
      </g>
     </g>
    </g>
    <g id="xtick_8">
     <g id="line2d_37">
      <path d="M 973.779765 379.528 
L 973.779765 50.64 
" clip-path="url(#p563697f576)" style="fill: none; stroke: #b0b0b0; stroke-opacity: 0.3; stroke-width: 0.8; stroke-linecap: square"/>
     </g>
     <g id="line2d_38">
      <g>
       <use xlink:href="#me0a73af738" x="973.779765" y="379.528" style="stroke: #000000; stroke-width: 0.8"/>
      </g>
     </g>
     <g id="text_22">
      <!-- $\mathdefault{10^{2}}$ -->
      <g transform="translate(964.979765 394.126438) scale(0.1 -0.1)">
       <use xlink:href="#DejaVuSans-31" transform="translate(0 0.765625)"/>
       <use xlink:href="#DejaVuSans-30" transform="translate(63.623047 0.765625)"/>
       <use xlink:href="#DejaVuSans-32" transform="translate(128.203125 39.046875) scale(0.7)"/>
      </g>
     </g>
    </g>
    <g id="xtick_9">
     <g id="line2d_39">
      <defs>
       <path id="m4288e4d80e" d="M 0 0 
L 0 2 
" style="stroke: #000000; stroke-width: 0.6"/>
      </defs>
      <g>
       <use xlink:href="#m4288e4d80e" x="609.057784" y="379.528" style="stroke: #000000; stroke-width: 0.6"/>
      </g>
     </g>
    </g>
    <g id="xtick_10">
     <g id="line2d_40">
      <g>
       <use xlink:href="#m4288e4d80e" x="646.859719" y="379.528" style="stroke: #000000; stroke-width: 0.6"/>
      </g>
     </g>
    </g>
    <g id="xtick_11">
     <g id="line2d_41">
      <g>
       <use xlink:href="#m4288e4d80e" x="673.680618" y="379.528" style="stroke: #000000; stroke-width: 0.6"/>
      </g>
     </g>
    </g>
    <g id="xtick_12">
     <g id="line2d_42">
      <g>
       <use xlink:href="#m4288e4d80e" x="694.484524" y="379.528" style="stroke: #000000; stroke-width: 0.6"/>
      </g>
     </g>
    </g>
    <g id="xtick_13">
     <g id="line2d_43">
      <g>
       <use xlink:href="#m4288e4d80e" x="711.482552" y="379.528" style="stroke: #000000; stroke-width: 0.6"/>
      </g>
     </g>
    </g>
    <g id="xtick_14">
     <g id="line2d_44">
      <g>
       <use xlink:href="#m4288e4d80e" x="725.854181" y="379.528" style="stroke: #000000; stroke-width: 0.6"/>
      </g>
     </g>
    </g>
    <g id="xtick_15">
     <g id="line2d_45">
      <g>
       <use xlink:href="#m4288e4d80e" x="738.303452" y="379.528" style="stroke: #000000; stroke-width: 0.6"/>
      </g>
     </g>
    </g>
    <g id="xtick_16">
     <g id="line2d_46">
      <g>
       <use xlink:href="#m4288e4d80e" x="749.284487" y="379.528" style="stroke: #000000; stroke-width: 0.6"/>
      </g>
     </g>
    </g>
    <g id="xtick_17">
     <g id="line2d_47">
      <g>
       <use xlink:href="#m4288e4d80e" x="823.730191" y="379.528" style="stroke: #000000; stroke-width: 0.6"/>
      </g>
     </g>
    </g>
    <g id="xtick_18">
     <g id="line2d_48">
      <g>
       <use xlink:href="#m4288e4d80e" x="861.532126" y="379.528" style="stroke: #000000; stroke-width: 0.6"/>
      </g>
     </g>
    </g>
    <g id="xtick_19">
     <g id="line2d_49">
      <g>
       <use xlink:href="#m4288e4d80e" x="888.353025" y="379.528" style="stroke: #000000; stroke-width: 0.6"/>
      </g>
     </g>
    </g>
    <g id="xtick_20">
     <g id="line2d_50">
      <g>
       <use xlink:href="#m4288e4d80e" x="909.156931" y="379.528" style="stroke: #000000; stroke-width: 0.6"/>
      </g>
     </g>
    </g>
    <g id="xtick_21">
     <g id="line2d_51">
      <g>
       <use xlink:href="#m4288e4d80e" x="926.15496" y="379.528" style="stroke: #000000; stroke-width: 0.6"/>
      </g>
     </g>
    </g>
    <g id="xtick_22">
     <g id="line2d_52">
      <g>
       <use xlink:href="#m4288e4d80e" x="940.526588" y="379.528" style="stroke: #000000; stroke-width: 0.6"/>
      </g>
     </g>
    </g>
    <g id="xtick_23">
     <g id="line2d_53">
      <g>
       <use xlink:href="#m4288e4d80e" x="952.975859" y="379.528" style="stroke: #000000; stroke-width: 0.6"/>
      </g>
     </g>
    </g>
    <g id="xtick_24">
     <g id="line2d_54">
      <g>
       <use xlink:href="#m4288e4d80e" x="963.956894" y="379.528" style="stroke: #000000; stroke-width: 0.6"/>
      </g>
     </g>
    </g>
    <g id="xtick_25">
     <g id="line2d_55">
      <g>
       <use xlink:href="#m4288e4d80e" x="1038.402599" y="379.528" style="stroke: #000000; stroke-width: 0.6"/>
      </g>
     </g>
    </g>
    <g id="text_23">
     <!-- multipole ℓ -->
     <g transform="translate(801.041875 407.804562) scale(0.1 -0.1)">
      <defs>
       <path id="DejaVuSans-6d" d="M 3328 2828 
Q 3544 3216 3844 3400 
Q 4144 3584 4550 3584 
Q 5097 3584 5394 3201 
Q 5691 2819 5691 2113 
L 5691 0 
L 5113 0 
L 5113 2094 
Q 5113 2597 4934 2840 
Q 4756 3084 4391 3084 
Q 3944 3084 3684 2787 
Q 3425 2491 3425 1978 
L 3425 0 
L 2847 0 
L 2847 2094 
Q 2847 2600 2669 2842 
Q 2491 3084 2119 3084 
Q 1678 3084 1418 2786 
Q 1159 2488 1159 1978 
L 1159 0 
L 581 0 
L 581 3500 
L 1159 3500 
L 1159 2956 
Q 1356 3278 1631 3431 
Q 1906 3584 2284 3584 
Q 2666 3584 2933 3390 
Q 3200 3197 3328 2828 
z
" transform="scale(0.015625)"/>
       <path id="DejaVuSans-2113" d="M 950 838 
Q 1078 213 1350 213 
Q 1531 213 1766 572 
L 2181 572 
Q 1994 253 1775 88 
Q 1538 -91 1319 -91 
Q 831 -91 634 344 
L 400 0 
L -88 0 
Q 250 459 500 888 
Q 469 1131 469 1397 
Q 469 1872 566 2347 
Q 931 4131 1256 4497 
Q 1481 4750 1866 4750 
Q 2256 4750 2256 4209 
Q 2253 3966 2197 3675 
Q 1972 2484 950 838 
z
M 947 1656 
Q 1531 2744 1709 3613 
Q 1803 4072 1803 4191 
Q 1803 4406 1725 4406 
Q 1384 4134 1081 2516 
Q 997 2063 947 1656 
z
" transform="scale(0.015625)"/>
      </defs>
      <use xlink:href="#DejaVuSans-6d"/>
      <use xlink:href="#DejaVuSans-75" transform="translate(97.412109 0)"/>
      <use xlink:href="#DejaVuSans-6c" transform="translate(160.791016 0)"/>
      <use xlink:href="#DejaVuSans-74" transform="translate(188.574219 0)"/>
      <use xlink:href="#DejaVuSans-69" transform="translate(227.783203 0)"/>
      <use xlink:href="#DejaVuSans-70" transform="translate(255.566406 0)"/>
      <use xlink:href="#DejaVuSans-6f" transform="translate(319.042969 0)"/>
      <use xlink:href="#DejaVuSans-6c" transform="translate(380.224609 0)"/>
      <use xlink:href="#DejaVuSans-65" transform="translate(408.007812 0)"/>
      <use xlink:href="#DejaVuSans-20" transform="translate(469.53125 0)"/>
      <use xlink:href="#DejaVuSans-2113" transform="translate(501.318359 0)"/>
     </g>
    </g>
   </g>
   <g id="matplotlib.axis_4">
    <g id="ytick_9">
     <g id="line2d_56">
      <path d="M 587.14625 341.548314 
L 1069.2 341.548314 
" clip-path="url(#p563697f576)" style="fill: none; stroke: #b0b0b0; stroke-opacity: 0.3; stroke-width: 0.8; stroke-linecap: square"/>
     </g>
     <g id="line2d_57">
      <g>
       <use xlink:href="#m87499ebd5c" x="587.14625" y="341.548314" style="stroke: #000000; stroke-width: 0.8"/>
      </g>
     </g>
     <g id="text_24">
      <!-- 0.4 -->
      <g transform="translate(564.243125 345.347533) scale(0.1 -0.1)">
       <use xlink:href="#DejaVuSans-30"/>
       <use xlink:href="#DejaVuSans-2e" transform="translate(63.623047 0)"/>
       <use xlink:href="#DejaVuSans-34" transform="translate(95.410156 0)"/>
      </g>
     </g>
    </g>
    <g id="ytick_10">
     <g id="line2d_58">
      <path d="M 587.14625 295.555171 
L 1069.2 295.555171 
" clip-path="url(#p563697f576)" style="fill: none; stroke: #b0b0b0; stroke-opacity: 0.3; stroke-width: 0.8; stroke-linecap: square"/>
     </g>
     <g id="line2d_59">
      <g>
       <use xlink:href="#m87499ebd5c" x="587.14625" y="295.555171" style="stroke: #000000; stroke-width: 0.8"/>
      </g>
     </g>
     <g id="text_25">
      <!-- 0.5 -->
      <g transform="translate(564.243125 299.35439) scale(0.1 -0.1)">
       <use xlink:href="#DejaVuSans-30"/>
       <use xlink:href="#DejaVuSans-2e" transform="translate(63.623047 0)"/>
       <use xlink:href="#DejaVuSans-35" transform="translate(95.410156 0)"/>
      </g>
     </g>
    </g>
    <g id="ytick_11">
     <g id="line2d_60">
      <path d="M 587.14625 249.562028 
L 1069.2 249.562028 
" clip-path="url(#p563697f576)" style="fill: none; stroke: #b0b0b0; stroke-opacity: 0.3; stroke-width: 0.8; stroke-linecap: square"/>
     </g>
     <g id="line2d_61">
      <g>
       <use xlink:href="#m87499ebd5c" x="587.14625" y="249.562028" style="stroke: #000000; stroke-width: 0.8"/>
      </g>
     </g>
     <g id="text_26">
      <!-- 0.6 -->
      <g transform="translate(564.243125 253.361246) scale(0.1 -0.1)">
       <defs>
        <path id="DejaVuSans-36" d="M 2113 2584 
Q 1688 2584 1439 2293 
Q 1191 2003 1191 1497 
Q 1191 994 1439 701 
Q 1688 409 2113 409 
Q 2538 409 2786 701 
Q 3034 994 3034 1497 
Q 3034 2003 2786 2293 
Q 2538 2584 2113 2584 
z
M 3366 4563 
L 3366 3988 
Q 3128 4100 2886 4159 
Q 2644 4219 2406 4219 
Q 1781 4219 1451 3797 
Q 1122 3375 1075 2522 
Q 1259 2794 1537 2939 
Q 1816 3084 2150 3084 
Q 2853 3084 3261 2657 
Q 3669 2231 3669 1497 
Q 3669 778 3244 343 
Q 2819 -91 2113 -91 
Q 1303 -91 875 529 
Q 447 1150 447 2328 
Q 447 3434 972 4092 
Q 1497 4750 2381 4750 
Q 2619 4750 2861 4703 
Q 3103 4656 3366 4563 
z
" transform="scale(0.015625)"/>
       </defs>
       <use xlink:href="#DejaVuSans-30"/>
       <use xlink:href="#DejaVuSans-2e" transform="translate(63.623047 0)"/>
       <use xlink:href="#DejaVuSans-36" transform="translate(95.410156 0)"/>
      </g>
     </g>
    </g>
    <g id="ytick_12">
     <g id="line2d_62">
      <path d="M 587.14625 203.568884 
L 1069.2 203.568884 
" clip-path="url(#p563697f576)" style="fill: none; stroke: #b0b0b0; stroke-opacity: 0.3; stroke-width: 0.8; stroke-linecap: square"/>
     </g>
     <g id="line2d_63">
      <g>
       <use xlink:href="#m87499ebd5c" x="587.14625" y="203.568884" style="stroke: #000000; stroke-width: 0.8"/>
      </g>
     </g>
     <g id="text_27">
      <!-- 0.7 -->
      <g transform="translate(564.243125 207.368103) scale(0.1 -0.1)">
       <defs>
        <path id="DejaVuSans-37" d="M 525 4666 
L 3525 4666 
L 3525 4397 
L 1831 0 
L 1172 0 
L 2766 4134 
L 525 4134 
L 525 4666 
z
" transform="scale(0.015625)"/>
       </defs>
       <use xlink:href="#DejaVuSans-30"/>
       <use xlink:href="#DejaVuSans-2e" transform="translate(63.623047 0)"/>
       <use xlink:href="#DejaVuSans-37" transform="translate(95.410156 0)"/>
      </g>
     </g>
    </g>
    <g id="ytick_13">
     <g id="line2d_64">
      <path d="M 587.14625 157.575741 
L 1069.2 157.575741 
" clip-path="url(#p563697f576)" style="fill: none; stroke: #b0b0b0; stroke-opacity: 0.3; stroke-width: 0.8; stroke-linecap: square"/>
     </g>
     <g id="line2d_65">
      <g>
       <use xlink:href="#m87499ebd5c" x="587.14625" y="157.575741" style="stroke: #000000; stroke-width: 0.8"/>
      </g>
     </g>
     <g id="text_28">
      <!-- 0.8 -->
      <g transform="translate(564.243125 161.37496) scale(0.1 -0.1)">
       <defs>
        <path id="DejaVuSans-38" d="M 2034 2216 
Q 1584 2216 1326 1975 
Q 1069 1734 1069 1313 
Q 1069 891 1326 650 
Q 1584 409 2034 409 
Q 2484 409 2743 651 
Q 3003 894 3003 1313 
Q 3003 1734 2745 1975 
Q 2488 2216 2034 2216 
z
M 1403 2484 
Q 997 2584 770 2862 
Q 544 3141 544 3541 
Q 544 4100 942 4425 
Q 1341 4750 2034 4750 
Q 2731 4750 3128 4425 
Q 3525 4100 3525 3541 
Q 3525 3141 3298 2862 
Q 3072 2584 2669 2484 
Q 3125 2378 3379 2068 
Q 3634 1759 3634 1313 
Q 3634 634 3220 271 
Q 2806 -91 2034 -91 
Q 1263 -91 848 271 
Q 434 634 434 1313 
Q 434 1759 690 2068 
Q 947 2378 1403 2484 
z
M 1172 3481 
Q 1172 3119 1398 2916 
Q 1625 2713 2034 2713 
Q 2441 2713 2670 2916 
Q 2900 3119 2900 3481 
Q 2900 3844 2670 4047 
Q 2441 4250 2034 4250 
Q 1625 4250 1398 4047 
Q 1172 3844 1172 3481 
z
" transform="scale(0.015625)"/>
       </defs>
       <use xlink:href="#DejaVuSans-30"/>
       <use xlink:href="#DejaVuSans-2e" transform="translate(63.623047 0)"/>
       <use xlink:href="#DejaVuSans-38" transform="translate(95.410156 0)"/>
      </g>
     </g>
    </g>
    <g id="ytick_14">
     <g id="line2d_66">
      <path d="M 587.14625 111.582598 
L 1069.2 111.582598 
" clip-path="url(#p563697f576)" style="fill: none; stroke: #b0b0b0; stroke-opacity: 0.3; stroke-width: 0.8; stroke-linecap: square"/>
     </g>
     <g id="line2d_67">
      <g>
       <use xlink:href="#m87499ebd5c" x="587.14625" y="111.582598" style="stroke: #000000; stroke-width: 0.8"/>
      </g>
     </g>
     <g id="text_29">
      <!-- 0.9 -->
      <g transform="translate(564.243125 115.381817) scale(0.1 -0.1)">
       <defs>
        <path id="DejaVuSans-39" d="M 703 97 
L 703 672 
Q 941 559 1184 500 
Q 1428 441 1663 441 
Q 2288 441 2617 861 
Q 2947 1281 2994 2138 
Q 2813 1869 2534 1725 
Q 2256 1581 1919 1581 
Q 1219 1581 811 2004 
Q 403 2428 403 3163 
Q 403 3881 828 4315 
Q 1253 4750 1959 4750 
Q 2769 4750 3195 4129 
Q 3622 3509 3622 2328 
Q 3622 1225 3098 567 
Q 2575 -91 1691 -91 
Q 1453 -91 1209 -44 
Q 966 3 703 97 
z
M 1959 2075 
Q 2384 2075 2632 2365 
Q 2881 2656 2881 3163 
Q 2881 3666 2632 3958 
Q 2384 4250 1959 4250 
Q 1534 4250 1286 3958 
Q 1038 3666 1038 3163 
Q 1038 2656 1286 2365 
Q 1534 2075 1959 2075 
z
" transform="scale(0.015625)"/>
       </defs>
       <use xlink:href="#DejaVuSans-30"/>
       <use xlink:href="#DejaVuSans-2e" transform="translate(63.623047 0)"/>
       <use xlink:href="#DejaVuSans-39" transform="translate(95.410156 0)"/>
      </g>
     </g>
    </g>
    <g id="ytick_15">
     <g id="line2d_68">
      <path d="M 587.14625 65.589455 
L 1069.2 65.589455 
" clip-path="url(#p563697f576)" style="fill: none; stroke: #b0b0b0; stroke-opacity: 0.3; stroke-width: 0.8; stroke-linecap: square"/>
     </g>
     <g id="line2d_69">
      <g>
       <use xlink:href="#m87499ebd5c" x="587.14625" y="65.589455" style="stroke: #000000; stroke-width: 0.8"/>
      </g>
     </g>
     <g id="text_30">
      <!-- 1.0 -->
      <g transform="translate(564.243125 69.388673) scale(0.1 -0.1)">
       <use xlink:href="#DejaVuSans-31"/>
       <use xlink:href="#DejaVuSans-2e" transform="translate(63.623047 0)"/>
       <use xlink:href="#DejaVuSans-30" transform="translate(95.410156 0)"/>
      </g>
     </g>
    </g>
    <g id="text_31">
     <!-- crude C_ℓ^ISW  /  C_{ℓ=2}^ΛCDM -->
     <g transform="translate(557.885312 301.834) rotate(-90) scale(0.1 -0.1)">
      <defs>
       <path id="DejaVuSans-5e" d="M 2988 4666 
L 4684 2925 
L 4056 2925 
L 2681 4159 
L 1306 2925 
L 678 2925 
L 2375 4666 
L 2988 4666 
z
" transform="scale(0.015625)"/>
       <path id="DejaVuSans-7b" d="M 3272 -594 
L 3272 -1044 
L 3078 -1044 
Q 2300 -1044 2036 -812 
Q 1772 -581 1772 109 
L 1772 856 
Q 1772 1328 1603 1509 
Q 1434 1691 991 1691 
L 800 1691 
L 800 2138 
L 991 2138 
Q 1438 2138 1605 2317 
Q 1772 2497 1772 2963 
L 1772 3713 
Q 1772 4403 2036 4633 
Q 2300 4863 3078 4863 
L 3272 4863 
L 3272 4416 
L 3059 4416 
Q 2619 4416 2484 4278 
Q 2350 4141 2350 3700 
L 2350 2925 
Q 2350 2434 2208 2212 
Q 2066 1991 1722 1913 
Q 2069 1828 2209 1606 
Q 2350 1384 2350 897 
L 2350 122 
Q 2350 -319 2484 -456 
Q 2619 -594 3059 -594 
L 3272 -594 
z
" transform="scale(0.015625)"/>
       <path id="DejaVuSans-7d" d="M 800 -594 
L 1019 -594 
Q 1456 -594 1589 -459 
Q 1722 -325 1722 122 
L 1722 897 
Q 1722 1384 1862 1606 
Q 2003 1828 2350 1913 
Q 2003 1991 1862 2212 
Q 1722 2434 1722 2925 
L 1722 3700 
Q 1722 4144 1589 4280 
Q 1456 4416 1019 4416 
L 800 4416 
L 800 4863 
L 997 4863 
Q 1775 4863 2036 4633 
Q 2297 4403 2297 3713 
L 2297 2963 
Q 2297 2497 2465 2317 
Q 2634 2138 3078 2138 
L 3272 2138 
L 3272 1691 
L 3078 1691 
Q 2634 1691 2465 1509 
Q 2297 1328 2297 856 
L 2297 109 
Q 2297 -581 2036 -812 
Q 1775 -1044 997 -1044 
L 800 -1044 
L 800 -594 
z
" transform="scale(0.015625)"/>
      </defs>
      <use xlink:href="#DejaVuSans-63"/>
      <use xlink:href="#DejaVuSans-72" transform="translate(54.980469 0)"/>
      <use xlink:href="#DejaVuSans-75" transform="translate(96.09375 0)"/>
      <use xlink:href="#DejaVuSans-64" transform="translate(159.472656 0)"/>
      <use xlink:href="#DejaVuSans-65" transform="translate(222.949219 0)"/>
      <use xlink:href="#DejaVuSans-20" transform="translate(284.472656 0)"/>
      <use xlink:href="#DejaVuSans-43" transform="translate(316.259766 0)"/>
      <use xlink:href="#DejaVuSans-5f" transform="translate(386.083984 0)"/>
      <use xlink:href="#DejaVuSans-2113" transform="translate(436.083984 0)"/>
      <use xlink:href="#DejaVuSans-5e" transform="translate(477.392578 0)"/>
      <use xlink:href="#DejaVuSans-49" transform="translate(561.181641 0)"/>
      <use xlink:href="#DejaVuSans-53" transform="translate(590.673828 0)"/>
      <use xlink:href="#DejaVuSans-57" transform="translate(654.150391 0)"/>
      <use xlink:href="#DejaVuSans-20" transform="translate(753.027344 0)"/>
      <use xlink:href="#DejaVuSans-20" transform="translate(784.814453 0)"/>
      <use xlink:href="#DejaVuSans-2f" transform="translate(816.601562 0)"/>
      <use xlink:href="#DejaVuSans-20" transform="translate(850.292969 0)"/>
      <use xlink:href="#DejaVuSans-20" transform="translate(882.080078 0)"/>
      <use xlink:href="#DejaVuSans-43" transform="translate(913.867188 0)"/>
      <use xlink:href="#DejaVuSans-5f" transform="translate(983.691406 0)"/>
      <use xlink:href="#DejaVuSans-7b" transform="translate(1033.691406 0)"/>
      <use xlink:href="#DejaVuSans-2113" transform="translate(1097.314453 0)"/>
      <use xlink:href="#DejaVuSans-3d" transform="translate(1138.623047 0)"/>
      <use xlink:href="#DejaVuSans-32" transform="translate(1222.412109 0)"/>
      <use xlink:href="#DejaVuSans-7d" transform="translate(1286.035156 0)"/>
      <use xlink:href="#DejaVuSans-5e" transform="translate(1349.658203 0)"/>
      <use xlink:href="#DejaVuSans-39b" transform="translate(1433.447266 0)"/>
      <use xlink:href="#DejaVuSans-43" transform="translate(1501.855469 0)"/>
      <use xlink:href="#DejaVuSans-44" transform="translate(1571.679688 0)"/>
      <use xlink:href="#DejaVuSans-4d" transform="translate(1648.681641 0)"/>
     </g>
    </g>
   </g>
   <g id="line2d_70">
    <path d="M 609.057784 65.589455 
L 646.859719 65.589455 
L 673.680618 65.589455 
L 694.484524 65.589455 
L 711.482552 65.589455 
L 738.303452 65.589455 
L 759.107358 65.589455 
L 776.105386 65.589455 
L 796.909292 65.589455 
L 818.948064 65.589455 
L 836.760343 65.589455 
L 858.371449 65.589455 
L 881.084589 65.589455 
L 901.383177 65.589455 
L 921.372832 65.589455 
L 943.152988 65.589455 
L 963.956894 65.589455 
L 984.345516 65.589455 
L 1005.812991 65.589455 
L 1026.48456 65.589455 
L 1047.288466 65.589455 
" clip-path="url(#p563697f576)" style="fill: none; stroke: #1f77b4; stroke-width: 2.2; stroke-linecap: square"/>
   </g>
   <g id="line2d_71">
    <path d="M 609.057784 364.578545 
L 646.859719 337.860006 
L 673.680618 316.458744 
L 694.484524 294.391357 
L 711.482552 274.820533 
L 738.303452 240.971573 
L 759.107358 222.308131 
L 776.105386 209.770704 
L 796.909292 193.398014 
L 818.948064 179.435104 
L 836.760343 173.600194 
L 858.371449 166.890743 
L 881.084589 160.891855 
L 901.383177 157.34464 
L 921.372832 154.443036 
L 943.152988 152.129592 
L 963.956894 150.53273 
L 984.345516 149.402239 
L 1005.812991 148.551961 
L 1026.48456 147.994713 
L 1047.288466 147.61822 
" clip-path="url(#p563697f576)" style="fill: none; stroke: #9467bd; stroke-width: 2.2; stroke-linecap: square"/>
   </g>
   <g id="line2d_72">
    <path d="M 609.057784 131.203815 
L 646.859719 131.203815 
L 673.680618 131.203815 
L 694.484524 131.203815 
L 711.482552 131.203815 
L 738.303452 131.203815 
L 759.107358 131.203815 
L 776.105386 131.203815 
L 796.909292 131.203815 
L 818.948064 131.203815 
L 836.760343 131.203815 
L 858.371449 131.203815 
L 881.084589 131.203815 
L 901.383177 131.203815 
L 921.372832 131.203815 
L 943.152988 131.203815 
L 963.956894 131.203815 
L 984.345516 131.203815 
L 1005.812991 131.203815 
L 1026.48456 131.203815 
L 1047.288466 131.203815 
" clip-path="url(#p563697f576)" style="fill: none; stroke-dasharray: 7.4,3.2; stroke-dashoffset: 0; stroke: #d62728; stroke-width: 2"/>
   </g>
   <g id="patch_10">
    <path d="M 587.14625 379.528 
L 587.14625 50.64 
" style="fill: none; stroke: #000000; stroke-width: 0.8; stroke-linejoin: miter; stroke-linecap: square"/>
   </g>
   <g id="patch_11">
    <path d="M 1069.2 379.528 
L 1069.2 50.64 
" style="fill: none; stroke: #000000; stroke-width: 0.8; stroke-linejoin: miter; stroke-linecap: square"/>
   </g>
   <g id="patch_12">
    <path d="M 587.14625 379.528 
L 1069.2 379.528 
" style="fill: none; stroke: #000000; stroke-width: 0.8; stroke-linejoin: miter; stroke-linecap: square"/>
   </g>
   <g id="patch_13">
    <path d="M 587.14625 50.64 
L 1069.2 50.64 
" style="fill: none; stroke: #000000; stroke-width: 0.8; stroke-linejoin: miter; stroke-linecap: square"/>
   </g>
   <g id="text_32">
    <!-- (b) ISW auto-power proxy  (total ℓ≤30: QFUDS/ΛCDM=0.68) -->
    <g transform="translate(648.712188 44.64) scale(0.12 -0.12)">
     <defs>
      <path id="DejaVuSans-62" d="M 3116 1747 
Q 3116 2381 2855 2742 
Q 2594 3103 2138 3103 
Q 1681 3103 1420 2742 
Q 1159 2381 1159 1747 
Q 1159 1113 1420 752 
Q 1681 391 2138 391 
Q 2594 391 2855 752 
Q 3116 1113 3116 1747 
z
M 1159 2969 
Q 1341 3281 1617 3432 
Q 1894 3584 2278 3584 
Q 2916 3584 3314 3078 
Q 3713 2572 3713 1747 
Q 3713 922 3314 415 
Q 2916 -91 2278 -91 
Q 1894 -91 1617 61 
Q 1341 213 1159 525 
L 1159 0 
L 581 0 
L 581 4863 
L 1159 4863 
L 1159 2969 
z
" transform="scale(0.015625)"/>
      <path id="DejaVuSans-78" d="M 3513 3500 
L 2247 1797 
L 3578 0 
L 2900 0 
L 1881 1375 
L 863 0 
L 184 0 
L 1544 1831 
L 300 3500 
L 978 3500 
L 1906 2253 
L 2834 3500 
L 3513 3500 
z
" transform="scale(0.015625)"/>
      <path id="DejaVuSans-2264" d="M 4684 3175 
L 1684 2309 
L 4684 1453 
L 4684 897 
L 678 2047 
L 678 2578 
L 4684 3725 
L 4684 3175 
z
M 678 531 
L 4684 531 
L 4684 0 
L 678 0 
L 678 531 
z
" transform="scale(0.015625)"/>
     </defs>
     <use xlink:href="#DejaVuSans-28"/>
     <use xlink:href="#DejaVuSans-62" transform="translate(39.013672 0)"/>
     <use xlink:href="#DejaVuSans-29" transform="translate(102.490234 0)"/>
     <use xlink:href="#DejaVuSans-20" transform="translate(141.503906 0)"/>
     <use xlink:href="#DejaVuSans-49" transform="translate(173.291016 0)"/>
     <use xlink:href="#DejaVuSans-53" transform="translate(202.783203 0)"/>
     <use xlink:href="#DejaVuSans-57" transform="translate(266.259766 0)"/>
     <use xlink:href="#DejaVuSans-20" transform="translate(365.136719 0)"/>
     <use xlink:href="#DejaVuSans-61" transform="translate(396.923828 0)"/>
     <use xlink:href="#DejaVuSans-75" transform="translate(458.203125 0)"/>
     <use xlink:href="#DejaVuSans-74" transform="translate(521.582031 0)"/>
     <use xlink:href="#DejaVuSans-6f" transform="translate(560.791016 0)"/>
     <use xlink:href="#DejaVuSans-2d" transform="translate(623.847656 0)"/>
     <use xlink:href="#DejaVuSans-70" transform="translate(659.931641 0)"/>
     <use xlink:href="#DejaVuSans-6f" transform="translate(723.408203 0)"/>
     <use xlink:href="#DejaVuSans-77" transform="translate(784.589844 0)"/>
     <use xlink:href="#DejaVuSans-65" transform="translate(866.376953 0)"/>
     <use xlink:href="#DejaVuSans-72" transform="translate(927.900391 0)"/>
     <use xlink:href="#DejaVuSans-20" transform="translate(969.013672 0)"/>
     <use xlink:href="#DejaVuSans-70" transform="translate(1000.800781 0)"/>
     <use xlink:href="#DejaVuSans-72" transform="translate(1064.277344 0)"/>
     <use xlink:href="#DejaVuSans-6f" transform="translate(1103.140625 0)"/>
     <use xlink:href="#DejaVuSans-78" transform="translate(1161.197266 0)"/>
     <use xlink:href="#DejaVuSans-79" transform="translate(1220.376953 0)"/>
     <use xlink:href="#DejaVuSans-20" transform="translate(1279.556641 0)"/>
     <use xlink:href="#DejaVuSans-20" transform="translate(1311.34375 0)"/>
     <use xlink:href="#DejaVuSans-28" transform="translate(1343.130859 0)"/>
     <use xlink:href="#DejaVuSans-74" transform="translate(1382.144531 0)"/>
     <use xlink:href="#DejaVuSans-6f" transform="translate(1421.353516 0)"/>
     <use xlink:href="#DejaVuSans-74" transform="translate(1482.535156 0)"/>
     <use xlink:href="#DejaVuSans-61" transform="translate(1521.744141 0)"/>
     <use xlink:href="#DejaVuSans-6c" transform="translate(1583.023438 0)"/>
     <use xlink:href="#DejaVuSans-20" transform="translate(1610.806641 0)"/>
     <use xlink:href="#DejaVuSans-2113" transform="translate(1642.59375 0)"/>
     <use xlink:href="#DejaVuSans-2264" transform="translate(1683.902344 0)"/>
     <use xlink:href="#DejaVuSans-33" transform="translate(1767.691406 0)"/>
     <use xlink:href="#DejaVuSans-30" transform="translate(1831.314453 0)"/>
     <use xlink:href="#DejaVuSans-3a" transform="translate(1894.9375 0)"/>
     <use xlink:href="#DejaVuSans-20" transform="translate(1928.628906 0)"/>
     <use xlink:href="#DejaVuSans-51" transform="translate(1960.416016 0)"/>
     <use xlink:href="#DejaVuSans-46" transform="translate(2039.126953 0)"/>
     <use xlink:href="#DejaVuSans-55" transform="translate(2096.646484 0)"/>
     <use xlink:href="#DejaVuSans-44" transform="translate(2169.839844 0)"/>
     <use xlink:href="#DejaVuSans-53" transform="translate(2246.841797 0)"/>
     <use xlink:href="#DejaVuSans-2f" transform="translate(2310.318359 0)"/>
     <use xlink:href="#DejaVuSans-39b" transform="translate(2344.009766 0)"/>
     <use xlink:href="#DejaVuSans-43" transform="translate(2412.417969 0)"/>
     <use xlink:href="#DejaVuSans-44" transform="translate(2482.242188 0)"/>
     <use xlink:href="#DejaVuSans-4d" transform="translate(2559.244141 0)"/>
     <use xlink:href="#DejaVuSans-3d" transform="translate(2645.523438 0)"/>
     <use xlink:href="#DejaVuSans-30" transform="translate(2729.3125 0)"/>
     <use xlink:href="#DejaVuSans-2e" transform="translate(2792.935547 0)"/>
     <use xlink:href="#DejaVuSans-36" transform="translate(2824.722656 0)"/>
     <use xlink:href="#DejaVuSans-38" transform="translate(2888.345703 0)"/>
     <use xlink:href="#DejaVuSans-29" transform="translate(2951.96875 0)"/>
    </g>
   </g>
   <g id="legend_2">
    <g id="patch_14">
     <path d="M 881.342031 94.869219 
L 1063.25 94.869219 
Q 1064.95 94.869219 1064.95 93.169219 
L 1064.95 56.59 
Q 1064.95 54.89 1063.25 54.89 
L 881.342031 54.89 
Q 879.642031 54.89 879.642031 56.59 
L 879.642031 93.169219 
Q 879.642031 94.869219 881.342031 94.869219 
z
" style="fill: #ffffff; opacity: 0.8; stroke: #cccccc; stroke-linejoin: miter"/>
    </g>
    <g id="line2d_73">
     <path d="M 883.042031 61.773672 
L 891.542031 61.773672 
L 900.042031 61.773672 
" style="fill: none; stroke: #1f77b4; stroke-width: 2.2; stroke-linecap: square"/>
    </g>
    <g id="text_33">
     <!-- ΛCDM -->
     <g transform="translate(906.842031 64.748672) scale(0.085 -0.085)">
      <use xlink:href="#DejaVuSans-39b"/>
      <use xlink:href="#DejaVuSans-43" transform="translate(68.408203 0)"/>
      <use xlink:href="#DejaVuSans-44" transform="translate(138.232422 0)"/>
      <use xlink:href="#DejaVuSans-4d" transform="translate(215.234375 0)"/>
     </g>
    </g>
    <g id="line2d_74">
     <path d="M 883.042031 74.250078 
L 891.542031 74.250078 
L 900.042031 74.250078 
" style="fill: none; stroke: #9467bd; stroke-width: 2.2; stroke-linecap: square"/>
    </g>
    <g id="text_34">
     <!-- QFUDS (scale-dep) -->
     <g transform="translate(906.842031 77.225078) scale(0.085 -0.085)">
      <use xlink:href="#DejaVuSans-51"/>
      <use xlink:href="#DejaVuSans-46" transform="translate(78.710938 0)"/>
      <use xlink:href="#DejaVuSans-55" transform="translate(136.230469 0)"/>
      <use xlink:href="#DejaVuSans-44" transform="translate(209.423828 0)"/>
      <use xlink:href="#DejaVuSans-53" transform="translate(286.425781 0)"/>
      <use xlink:href="#DejaVuSans-20" transform="translate(349.902344 0)"/>
      <use xlink:href="#DejaVuSans-28" transform="translate(381.689453 0)"/>
      <use xlink:href="#DejaVuSans-73" transform="translate(420.703125 0)"/>
      <use xlink:href="#DejaVuSans-63" transform="translate(472.802734 0)"/>
      <use xlink:href="#DejaVuSans-61" transform="translate(527.783203 0)"/>
      <use xlink:href="#DejaVuSans-6c" transform="translate(589.0625 0)"/>
      <use xlink:href="#DejaVuSans-65" transform="translate(616.845703 0)"/>
      <use xlink:href="#DejaVuSans-2d" transform="translate(678.369141 0)"/>
      <use xlink:href="#DejaVuSans-64" transform="translate(714.453125 0)"/>
      <use xlink:href="#DejaVuSans-65" transform="translate(777.929688 0)"/>
      <use xlink:href="#DejaVuSans-70" transform="translate(839.453125 0)"/>
      <use xlink:href="#DejaVuSans-29" transform="translate(902.929688 0)"/>
     </g>
    </g>
    <g id="line2d_75">
     <path d="M 883.042031 86.726484 
L 891.542031 86.726484 
L 900.042031 86.726484 
" style="fill: none; stroke-dasharray: 7.4,3.2; stroke-dashoffset: 0; stroke: #d62728; stroke-width: 2"/>
    </g>
    <g id="text_35">
     <!-- uniform low-σ8 (0.75) — FLAT shape -->
     <g transform="translate(906.842031 89.701484) scale(0.085 -0.085)">
      <defs>
       <path id="DejaVuSans-3c3" d="M 1959 3044 
Q 1484 3044 1228 2700 
Q 959 2341 959 1747 
Q 959 1119 1226 758 
Q 1494 397 1959 397 
Q 2419 397 2687 759 
Q 2956 1122 2956 1747 
Q 2956 2319 2688 2700 
Q 2441 3044 1959 3044 
z
M 1959 3500 
L 3869 3500 
L 3869 2925 
L 3225 2925 
Q 3566 2438 3566 1747 
Q 3566 888 3138 400 
Q 2709 -91 1959 -91 
Q 1206 -91 781 400 
Q 353 888 353 1747 
Q 353 2613 781 3097 
Q 1134 3500 1959 3500 
z
" transform="scale(0.015625)"/>
       <path id="DejaVuSans-2014" d="M 313 1978 
L 6088 1978 
L 6088 1528 
L 313 1528 
L 313 1978 
z
" transform="scale(0.015625)"/>
       <path id="DejaVuSans-4c" d="M 628 4666 
L 1259 4666 
L 1259 531 
L 3531 531 
L 3531 0 
L 628 0 
L 628 4666 
z
" transform="scale(0.015625)"/>
       <path id="DejaVuSans-41" d="M 2188 4044 
L 1331 1722 
L 3047 1722 
L 2188 4044 
z
M 1831 4666 
L 2547 4666 
L 4325 0 
L 3669 0 
L 3244 1197 
L 1141 1197 
L 716 0 
L 50 0 
L 1831 4666 
z
" transform="scale(0.015625)"/>
       <path id="DejaVuSans-54" d="M -19 4666 
L 3928 4666 
L 3928 4134 
L 2272 4134 
L 2272 0 
L 1638 0 
L 1638 4134 
L -19 4134 
L -19 4666 
z
" transform="scale(0.015625)"/>
      </defs>
      <use xlink:href="#DejaVuSans-75"/>
      <use xlink:href="#DejaVuSans-6e" transform="translate(63.378906 0)"/>
      <use xlink:href="#DejaVuSans-69" transform="translate(126.757812 0)"/>
      <use xlink:href="#DejaVuSans-66" transform="translate(154.541016 0)"/>
      <use xlink:href="#DejaVuSans-6f" transform="translate(189.746094 0)"/>
      <use xlink:href="#DejaVuSans-72" transform="translate(250.927734 0)"/>
      <use xlink:href="#DejaVuSans-6d" transform="translate(290.291016 0)"/>
      <use xlink:href="#DejaVuSans-20" transform="translate(387.703125 0)"/>
      <use xlink:href="#DejaVuSans-6c" transform="translate(419.490234 0)"/>
      <use xlink:href="#DejaVuSans-6f" transform="translate(447.273438 0)"/>
      <use xlink:href="#DejaVuSans-77" transform="translate(508.455078 0)"/>
      <use xlink:href="#DejaVuSans-2d" transform="translate(590.242188 0)"/>
      <use xlink:href="#DejaVuSans-3c3" transform="translate(626.326172 0)"/>
      <use xlink:href="#DejaVuSans-38" transform="translate(689.705078 0)"/>
      <use xlink:href="#DejaVuSans-20" transform="translate(753.328125 0)"/>
      <use xlink:href="#DejaVuSans-28" transform="translate(785.115234 0)"/>
      <use xlink:href="#DejaVuSans-30" transform="translate(824.128906 0)"/>
      <use xlink:href="#DejaVuSans-2e" transform="translate(887.751953 0)"/>
      <use xlink:href="#DejaVuSans-37" transform="translate(919.539062 0)"/>
      <use xlink:href="#DejaVuSans-35" transform="translate(983.162109 0)"/>
      <use xlink:href="#DejaVuSans-29" transform="translate(1046.785156 0)"/>
      <use xlink:href="#DejaVuSans-20" transform="translate(1085.798828 0)"/>
      <use xlink:href="#DejaVuSans-2014" transform="translate(1117.585938 0)"/>
      <use xlink:href="#DejaVuSans-20" transform="translate(1217.585938 0)"/>
      <use xlink:href="#DejaVuSans-46" transform="translate(1249.373047 0)"/>
      <use xlink:href="#DejaVuSans-4c" transform="translate(1306.892578 0)"/>
      <use xlink:href="#DejaVuSans-41" transform="translate(1364.855469 0)"/>
      <use xlink:href="#DejaVuSans-54" transform="translate(1425.513672 0)"/>
      <use xlink:href="#DejaVuSans-20" transform="translate(1486.597656 0)"/>
      <use xlink:href="#DejaVuSans-73" transform="translate(1518.384766 0)"/>
      <use xlink:href="#DejaVuSans-68" transform="translate(1570.484375 0)"/>
      <use xlink:href="#DejaVuSans-61" transform="translate(1633.863281 0)"/>
      <use xlink:href="#DejaVuSans-70" transform="translate(1695.142578 0)"/>
      <use xlink:href="#DejaVuSans-65" transform="translate(1758.619141 0)"/>
     </g>
    </g>
   </g>
  </g>
  <g id="text_36">
   <!-- CP13: late-time ISW as a 3rd falsifiable signal — parametrize-not-derive (exploratory) -->
   <g transform="translate(249.2475 17.614125) scale(0.12 -0.12)">
    <defs>
     <path id="DejaVuSans-Bold-43" d="M 4288 256 
Q 3956 84 3597 -3 
Q 3238 -91 2847 -91 
Q 1681 -91 1000 561 
Q 319 1213 319 2328 
Q 319 3447 1000 4098 
Q 1681 4750 2847 4750 
Q 3238 4750 3597 4662 
Q 3956 4575 4288 4403 
L 4288 3438 
Q 3953 3666 3628 3772 
Q 3303 3878 2944 3878 
Q 2300 3878 1931 3465 
Q 1563 3053 1563 2328 
Q 1563 1606 1931 1193 
Q 2300 781 2944 781 
Q 3303 781 3628 887 
Q 3953 994 4288 1222 
L 4288 256 
z
" transform="scale(0.015625)"/>
     <path id="DejaVuSans-Bold-50" d="M 588 4666 
L 2584 4666 
Q 3475 4666 3951 4270 
Q 4428 3875 4428 3144 
Q 4428 2409 3951 2014 
Q 3475 1619 2584 1619 
L 1791 1619 
L 1791 0 
L 588 0 
L 588 4666 
z
M 1791 3794 
L 1791 2491 
L 2456 2491 
Q 2806 2491 2997 2661 
Q 3188 2831 3188 3144 
Q 3188 3456 2997 3625 
Q 2806 3794 2456 3794 
L 1791 3794 
z
" transform="scale(0.015625)"/>
     <path id="DejaVuSans-Bold-31" d="M 750 831 
L 1813 831 
L 1813 3847 
L 722 3622 
L 722 4441 
L 1806 4666 
L 2950 4666 
L 2950 831 
L 4013 831 
L 4013 0 
L 750 0 
L 750 831 
z
" transform="scale(0.015625)"/>
     <path id="DejaVuSans-Bold-33" d="M 2981 2516 
Q 3453 2394 3698 2092 
Q 3944 1791 3944 1325 
Q 3944 631 3412 270 
Q 2881 -91 1863 -91 
Q 1503 -91 1142 -33 
Q 781 25 428 141 
L 428 1069 
Q 766 900 1098 814 
Q 1431 728 1753 728 
Q 2231 728 2486 893 
Q 2741 1059 2741 1369 
Q 2741 1688 2480 1852 
Q 2219 2016 1709 2016 
L 1228 2016 
L 1228 2791 
L 1734 2791 
Q 2188 2791 2409 2933 
Q 2631 3075 2631 3366 
Q 2631 3634 2415 3781 
Q 2200 3928 1806 3928 
Q 1516 3928 1219 3862 
Q 922 3797 628 3669 
L 628 4550 
Q 984 4650 1334 4700 
Q 1684 4750 2022 4750 
Q 2931 4750 3382 4451 
Q 3834 4153 3834 3553 
Q 3834 3144 3618 2883 
Q 3403 2622 2981 2516 
z
" transform="scale(0.015625)"/>
     <path id="DejaVuSans-Bold-3a" d="M 716 3500 
L 1844 3500 
L 1844 2291 
L 716 2291 
L 716 3500 
z
M 716 1209 
L 1844 1209 
L 1844 0 
L 716 0 
L 716 1209 
z
" transform="scale(0.015625)"/>
     <path id="DejaVuSans-Bold-20" transform="scale(0.015625)"/>
     <path id="DejaVuSans-Bold-6c" d="M 538 4863 
L 1656 4863 
L 1656 0 
L 538 0 
L 538 4863 
z
" transform="scale(0.015625)"/>
     <path id="DejaVuSans-Bold-61" d="M 2106 1575 
Q 1756 1575 1579 1456 
Q 1403 1338 1403 1106 
Q 1403 894 1545 773 
Q 1688 653 1941 653 
Q 2256 653 2472 879 
Q 2688 1106 2688 1447 
L 2688 1575 
L 2106 1575 
z
M 3816 1997 
L 3816 0 
L 2688 0 
L 2688 519 
Q 2463 200 2181 54 
Q 1900 -91 1497 -91 
Q 953 -91 614 226 
Q 275 544 275 1050 
Q 275 1666 698 1953 
Q 1122 2241 2028 2241 
L 2688 2241 
L 2688 2328 
Q 2688 2594 2478 2717 
Q 2269 2841 1825 2841 
Q 1466 2841 1156 2769 
Q 847 2697 581 2553 
L 581 3406 
Q 941 3494 1303 3539 
Q 1666 3584 2028 3584 
Q 2975 3584 3395 3211 
Q 3816 2838 3816 1997 
z
" transform="scale(0.015625)"/>
     <path id="DejaVuSans-Bold-74" d="M 1759 4494 
L 1759 3500 
L 2913 3500 
L 2913 2700 
L 1759 2700 
L 1759 1216 
Q 1759 972 1856 886 
Q 1953 800 2241 800 
L 2816 800 
L 2816 0 
L 1856 0 
Q 1194 0 917 276 
Q 641 553 641 1216 
L 641 2700 
L 84 2700 
L 84 3500 
L 641 3500 
L 641 4494 
L 1759 4494 
z
" transform="scale(0.015625)"/>
     <path id="DejaVuSans-Bold-65" d="M 4031 1759 
L 4031 1441 
L 1416 1441 
Q 1456 1047 1700 850 
Q 1944 653 2381 653 
Q 2734 653 3104 758 
Q 3475 863 3866 1075 
L 3866 213 
Q 3469 63 3072 -14 
Q 2675 -91 2278 -91 
Q 1328 -91 801 392 
Q 275 875 275 1747 
Q 275 2603 792 3093 
Q 1309 3584 2216 3584 
Q 3041 3584 3536 3087 
Q 4031 2591 4031 1759 
z
M 2881 2131 
Q 2881 2450 2695 2645 
Q 2509 2841 2209 2841 
Q 1884 2841 1681 2658 
Q 1478 2475 1428 2131 
L 2881 2131 
z
" transform="scale(0.015625)"/>
     <path id="DejaVuSans-Bold-2d" d="M 347 2297 
L 2309 2297 
L 2309 1388 
L 347 1388 
L 347 2297 
z
" transform="scale(0.015625)"/>
     <path id="DejaVuSans-Bold-69" d="M 538 3500 
L 1656 3500 
L 1656 0 
L 538 0 
L 538 3500 
z
M 538 4863 
L 1656 4863 
L 1656 3950 
L 538 3950 
L 538 4863 
z
" transform="scale(0.015625)"/>
     <path id="DejaVuSans-Bold-6d" d="M 3781 2919 
Q 3994 3244 4286 3414 
Q 4578 3584 4928 3584 
Q 5531 3584 5847 3212 
Q 6163 2841 6163 2131 
L 6163 0 
L 5038 0 
L 5038 1825 
Q 5041 1866 5042 1909 
Q 5044 1953 5044 2034 
Q 5044 2406 4934 2573 
Q 4825 2741 4581 2741 
Q 4263 2741 4089 2478 
Q 3916 2216 3909 1719 
L 3909 0 
L 2784 0 
L 2784 1825 
Q 2784 2406 2684 2573 
Q 2584 2741 2328 2741 
Q 2006 2741 1831 2477 
Q 1656 2213 1656 1722 
L 1656 0 
L 531 0 
L 531 3500 
L 1656 3500 
L 1656 2988 
Q 1863 3284 2130 3434 
Q 2397 3584 2719 3584 
Q 3081 3584 3359 3409 
Q 3638 3234 3781 2919 
z
" transform="scale(0.015625)"/>
     <path id="DejaVuSans-Bold-49" d="M 588 4666 
L 1791 4666 
L 1791 0 
L 588 0 
L 588 4666 
z
" transform="scale(0.015625)"/>
     <path id="DejaVuSans-Bold-53" d="M 3834 4519 
L 3834 3531 
Q 3450 3703 3084 3790 
Q 2719 3878 2394 3878 
Q 1963 3878 1756 3759 
Q 1550 3641 1550 3391 
Q 1550 3203 1689 3098 
Q 1828 2994 2194 2919 
L 2706 2816 
Q 3484 2659 3812 2340 
Q 4141 2022 4141 1434 
Q 4141 663 3683 286 
Q 3225 -91 2284 -91 
Q 1841 -91 1394 -6 
Q 947 78 500 244 
L 500 1259 
Q 947 1022 1364 901 
Q 1781 781 2169 781 
Q 2563 781 2772 912 
Q 2981 1044 2981 1288 
Q 2981 1506 2839 1625 
Q 2697 1744 2272 1838 
L 1806 1941 
Q 1106 2091 782 2419 
Q 459 2747 459 3303 
Q 459 4000 909 4375 
Q 1359 4750 2203 4750 
Q 2588 4750 2994 4692 
Q 3400 4634 3834 4519 
z
" transform="scale(0.015625)"/>
     <path id="DejaVuSans-Bold-57" d="M 191 4666 
L 1344 4666 
L 2150 1275 
L 2950 4666 
L 4109 4666 
L 4909 1275 
L 5716 4666 
L 6859 4666 
L 5759 0 
L 4372 0 
L 3525 3547 
L 2688 0 
L 1300 0 
L 191 4666 
z
" transform="scale(0.015625)"/>
     <path id="DejaVuSans-Bold-73" d="M 3272 3391 
L 3272 2541 
Q 2913 2691 2578 2766 
Q 2244 2841 1947 2841 
Q 1628 2841 1473 2761 
Q 1319 2681 1319 2516 
Q 1319 2381 1436 2309 
Q 1553 2238 1856 2203 
L 2053 2175 
Q 2913 2066 3209 1816 
Q 3506 1566 3506 1031 
Q 3506 472 3093 190 
Q 2681 -91 1863 -91 
Q 1516 -91 1145 -36 
Q 775 19 384 128 
L 384 978 
Q 719 816 1070 734 
Q 1422 653 1784 653 
Q 2113 653 2278 743 
Q 2444 834 2444 1013 
Q 2444 1163 2330 1236 
Q 2216 1309 1875 1350 
L 1678 1375 
Q 931 1469 631 1722 
Q 331 1975 331 2491 
Q 331 3047 712 3315 
Q 1094 3584 1881 3584 
Q 2191 3584 2531 3537 
Q 2872 3491 3272 3391 
z
" transform="scale(0.015625)"/>
     <path id="DejaVuSans-Bold-72" d="M 3138 2547 
Q 2991 2616 2845 2648 
Q 2700 2681 2553 2681 
Q 2122 2681 1889 2404 
Q 1656 2128 1656 1613 
L 1656 0 
L 538 0 
L 538 3500 
L 1656 3500 
L 1656 2925 
Q 1872 3269 2151 3426 
Q 2431 3584 2822 3584 
Q 2878 3584 2943 3579 
Q 3009 3575 3134 3559 
L 3138 2547 
z
" transform="scale(0.015625)"/>
     <path id="DejaVuSans-Bold-64" d="M 2919 2988 
L 2919 4863 
L 4044 4863 
L 4044 0 
L 2919 0 
L 2919 506 
Q 2688 197 2409 53 
Q 2131 -91 1766 -91 
Q 1119 -91 703 423 
Q 288 938 288 1747 
Q 288 2556 703 3070 
Q 1119 3584 1766 3584 
Q 2128 3584 2408 3439 
Q 2688 3294 2919 2988 
z
M 2181 722 
Q 2541 722 2730 984 
Q 2919 1247 2919 1747 
Q 2919 2247 2730 2509 
Q 2541 2772 2181 2772 
Q 1825 2772 1636 2509 
Q 1447 2247 1447 1747 
Q 1447 1247 1636 984 
Q 1825 722 2181 722 
z
" transform="scale(0.015625)"/>
     <path id="DejaVuSans-Bold-66" d="M 2841 4863 
L 2841 4128 
L 2222 4128 
Q 1984 4128 1890 4042 
Q 1797 3956 1797 3744 
L 1797 3500 
L 2753 3500 
L 2753 2700 
L 1797 2700 
L 1797 0 
L 678 0 
L 678 2700 
L 122 2700 
L 122 3500 
L 678 3500 
L 678 3744 
Q 678 4316 997 4589 
Q 1316 4863 1984 4863 
L 2841 4863 
z
" transform="scale(0.015625)"/>
     <path id="DejaVuSans-Bold-62" d="M 2400 722 
Q 2759 722 2948 984 
Q 3138 1247 3138 1747 
Q 3138 2247 2948 2509 
Q 2759 2772 2400 2772 
Q 2041 2772 1848 2508 
Q 1656 2244 1656 1747 
Q 1656 1250 1848 986 
Q 2041 722 2400 722 
z
M 1656 2988 
Q 1888 3294 2169 3439 
Q 2450 3584 2816 3584 
Q 3463 3584 3878 3070 
Q 4294 2556 4294 1747 
Q 4294 938 3878 423 
Q 3463 -91 2816 -91 
Q 2450 -91 2169 54 
Q 1888 200 1656 506 
L 1656 0 
L 538 0 
L 538 4863 
L 1656 4863 
L 1656 2988 
z
" transform="scale(0.015625)"/>
     <path id="DejaVuSans-Bold-67" d="M 2919 594 
Q 2688 288 2409 144 
Q 2131 0 1766 0 
Q 1125 0 706 504 
Q 288 1009 288 1791 
Q 288 2575 706 3076 
Q 1125 3578 1766 3578 
Q 2131 3578 2409 3434 
Q 2688 3291 2919 2981 
L 2919 3500 
L 4044 3500 
L 4044 353 
Q 4044 -491 3511 -936 
Q 2978 -1381 1966 -1381 
Q 1638 -1381 1331 -1331 
Q 1025 -1281 716 -1178 
L 716 -306 
Q 1009 -475 1290 -558 
Q 1572 -641 1856 -641 
Q 2406 -641 2662 -400 
Q 2919 -159 2919 353 
L 2919 594 
z
M 2181 2772 
Q 1834 2772 1640 2515 
Q 1447 2259 1447 1791 
Q 1447 1309 1634 1061 
Q 1822 813 2181 813 
Q 2531 813 2725 1069 
Q 2919 1325 2919 1791 
Q 2919 2259 2725 2515 
Q 2531 2772 2181 2772 
z
" transform="scale(0.015625)"/>
     <path id="DejaVuSans-Bold-6e" d="M 4056 2131 
L 4056 0 
L 2931 0 
L 2931 347 
L 2931 1631 
Q 2931 2084 2911 2256 
Q 2891 2428 2841 2509 
Q 2775 2619 2662 2680 
Q 2550 2741 2406 2741 
Q 2056 2741 1856 2470 
Q 1656 2200 1656 1722 
L 1656 0 
L 538 0 
L 538 3500 
L 1656 3500 
L 1656 2988 
Q 1909 3294 2193 3439 
Q 2478 3584 2822 3584 
Q 3428 3584 3742 3212 
Q 4056 2841 4056 2131 
z
" transform="scale(0.015625)"/>
     <path id="DejaVuSans-Bold-2014" d="M 344 2156 
L 6056 2156 
L 6056 1350 
L 344 1350 
L 344 2156 
z
" transform="scale(0.015625)"/>
     <path id="DejaVuSans-Bold-70" d="M 1656 506 
L 1656 -1331 
L 538 -1331 
L 538 3500 
L 1656 3500 
L 1656 2988 
Q 1888 3294 2169 3439 
Q 2450 3584 2816 3584 
Q 3463 3584 3878 3070 
Q 4294 2556 4294 1747 
Q 4294 938 3878 423 
Q 3463 -91 2816 -91 
Q 2450 -91 2169 54 
Q 1888 200 1656 506 
z
M 2400 2772 
Q 2041 2772 1848 2508 
Q 1656 2244 1656 1747 
Q 1656 1250 1848 986 
Q 2041 722 2400 722 
Q 2759 722 2948 984 
Q 3138 1247 3138 1747 
Q 3138 2247 2948 2509 
Q 2759 2772 2400 2772 
z
" transform="scale(0.015625)"/>
     <path id="DejaVuSans-Bold-7a" d="M 366 3500 
L 3419 3500 
L 3419 2719 
L 1575 800 
L 3419 800 
L 3419 0 
L 288 0 
L 288 781 
L 2131 2700 
L 366 2700 
L 366 3500 
z
" transform="scale(0.015625)"/>
     <path id="DejaVuSans-Bold-6f" d="M 2203 2784 
Q 1831 2784 1636 2517 
Q 1441 2250 1441 1747 
Q 1441 1244 1636 976 
Q 1831 709 2203 709 
Q 2569 709 2762 976 
Q 2956 1244 2956 1747 
Q 2956 2250 2762 2517 
Q 2569 2784 2203 2784 
z
M 2203 3584 
Q 3106 3584 3614 3096 
Q 4122 2609 4122 1747 
Q 4122 884 3614 396 
Q 3106 -91 2203 -91 
Q 1297 -91 786 396 
Q 275 884 275 1747 
Q 275 2609 786 3096 
Q 1297 3584 2203 3584 
z
" transform="scale(0.015625)"/>
     <path id="DejaVuSans-Bold-76" d="M 97 3500 
L 1216 3500 
L 2088 1081 
L 2956 3500 
L 4078 3500 
L 2700 0 
L 1472 0 
L 97 3500 
z
" transform="scale(0.015625)"/>
     <path id="DejaVuSans-Bold-28" d="M 2413 -844 
L 1484 -844 
Q 1006 -72 778 623 
Q 550 1319 550 2003 
Q 550 2688 779 3389 
Q 1009 4091 1484 4856 
L 2413 4856 
Q 2013 4116 1813 3408 
Q 1613 2700 1613 2009 
Q 1613 1319 1811 609 
Q 2009 -100 2413 -844 
z
" transform="scale(0.015625)"/>
     <path id="DejaVuSans-Bold-78" d="M 1422 1791 
L 159 3500 
L 1344 3500 
L 2059 2463 
L 2784 3500 
L 3969 3500 
L 2706 1797 
L 4031 0 
L 2847 0 
L 2059 1106 
L 1281 0 
L 97 0 
L 1422 1791 
z
" transform="scale(0.015625)"/>
     <path id="DejaVuSans-Bold-79" d="M 78 3500 
L 1197 3500 
L 2138 1125 
L 2938 3500 
L 4056 3500 
L 2584 -331 
Q 2363 -916 2067 -1148 
Q 1772 -1381 1288 -1381 
L 641 -1381 
L 641 -647 
L 991 -647 
Q 1275 -647 1404 -556 
Q 1534 -466 1606 -231 
L 1638 -134 
L 78 3500 
z
" transform="scale(0.015625)"/>
     <path id="DejaVuSans-Bold-29" d="M 513 -844 
Q 913 -100 1113 609 
Q 1313 1319 1313 2009 
Q 1313 2700 1113 3408 
Q 913 4116 513 4856 
L 1441 4856 
Q 1916 4091 2145 3389 
Q 2375 2688 2375 2003 
Q 2375 1319 2147 623 
Q 1919 -72 1441 -844 
L 513 -844 
z
" transform="scale(0.015625)"/>
    </defs>
    <use xlink:href="#DejaVuSans-Bold-43"/>
    <use xlink:href="#DejaVuSans-Bold-50" transform="translate(73.388672 0)"/>
    <use xlink:href="#DejaVuSans-Bold-31" transform="translate(146.679688 0)"/>
    <use xlink:href="#DejaVuSans-Bold-33" transform="translate(216.259766 0)"/>
    <use xlink:href="#DejaVuSans-Bold-3a" transform="translate(285.839844 0)"/>
    <use xlink:href="#DejaVuSans-Bold-20" transform="translate(325.830078 0)"/>
    <use xlink:href="#DejaVuSans-Bold-6c" transform="translate(360.644531 0)"/>
    <use xlink:href="#DejaVuSans-Bold-61" transform="translate(394.921875 0)"/>
    <use xlink:href="#DejaVuSans-Bold-74" transform="translate(462.402344 0)"/>
    <use xlink:href="#DejaVuSans-Bold-65" transform="translate(510.205078 0)"/>
    <use xlink:href="#DejaVuSans-Bold-2d" transform="translate(578.027344 0)"/>
    <use xlink:href="#DejaVuSans-Bold-74" transform="translate(619.53125 0)"/>
    <use xlink:href="#DejaVuSans-Bold-69" transform="translate(667.333984 0)"/>
    <use xlink:href="#DejaVuSans-Bold-6d" transform="translate(701.611328 0)"/>
    <use xlink:href="#DejaVuSans-Bold-65" transform="translate(805.810547 0)"/>
    <use xlink:href="#DejaVuSans-Bold-20" transform="translate(873.632812 0)"/>
    <use xlink:href="#DejaVuSans-Bold-49" transform="translate(908.447266 0)"/>
    <use xlink:href="#DejaVuSans-Bold-53" transform="translate(945.654297 0)"/>
    <use xlink:href="#DejaVuSans-Bold-57" transform="translate(1017.675781 0)"/>
    <use xlink:href="#DejaVuSans-Bold-20" transform="translate(1127.978516 0)"/>
    <use xlink:href="#DejaVuSans-Bold-61" transform="translate(1162.792969 0)"/>
    <use xlink:href="#DejaVuSans-Bold-73" transform="translate(1230.273438 0)"/>
    <use xlink:href="#DejaVuSans-Bold-20" transform="translate(1289.794922 0)"/>
    <use xlink:href="#DejaVuSans-Bold-61" transform="translate(1324.609375 0)"/>
    <use xlink:href="#DejaVuSans-Bold-20" transform="translate(1392.089844 0)"/>
    <use xlink:href="#DejaVuSans-Bold-33" transform="translate(1426.904297 0)"/>
    <use xlink:href="#DejaVuSans-Bold-72" transform="translate(1496.484375 0)"/>
    <use xlink:href="#DejaVuSans-Bold-64" transform="translate(1545.800781 0)"/>
    <use xlink:href="#DejaVuSans-Bold-20" transform="translate(1617.382812 0)"/>
    <use xlink:href="#DejaVuSans-Bold-66" transform="translate(1652.197266 0)"/>
    <use xlink:href="#DejaVuSans-Bold-61" transform="translate(1695.703125 0)"/>
    <use xlink:href="#DejaVuSans-Bold-6c" transform="translate(1763.183594 0)"/>
    <use xlink:href="#DejaVuSans-Bold-73" transform="translate(1797.460938 0)"/>
    <use xlink:href="#DejaVuSans-Bold-69" transform="translate(1856.982422 0)"/>
    <use xlink:href="#DejaVuSans-Bold-66" transform="translate(1891.259766 0)"/>
    <use xlink:href="#DejaVuSans-Bold-69" transform="translate(1934.765625 0)"/>
    <use xlink:href="#DejaVuSans-Bold-61" transform="translate(1969.042969 0)"/>
    <use xlink:href="#DejaVuSans-Bold-62" transform="translate(2036.523438 0)"/>
    <use xlink:href="#DejaVuSans-Bold-6c" transform="translate(2108.105469 0)"/>
    <use xlink:href="#DejaVuSans-Bold-65" transform="translate(2142.382812 0)"/>
    <use xlink:href="#DejaVuSans-Bold-20" transform="translate(2210.205078 0)"/>
    <use xlink:href="#DejaVuSans-Bold-73" transform="translate(2245.019531 0)"/>
    <use xlink:href="#DejaVuSans-Bold-69" transform="translate(2304.541016 0)"/>
    <use xlink:href="#DejaVuSans-Bold-67" transform="translate(2338.818359 0)"/>
    <use xlink:href="#DejaVuSans-Bold-6e" transform="translate(2410.400391 0)"/>
    <use xlink:href="#DejaVuSans-Bold-61" transform="translate(2481.591797 0)"/>
    <use xlink:href="#DejaVuSans-Bold-6c" transform="translate(2549.072266 0)"/>
    <use xlink:href="#DejaVuSans-Bold-20" transform="translate(2583.349609 0)"/>
    <use xlink:href="#DejaVuSans-Bold-2014" transform="translate(2618.164062 0)"/>
    <use xlink:href="#DejaVuSans-Bold-20" transform="translate(2718.164062 0)"/>
    <use xlink:href="#DejaVuSans-Bold-70" transform="translate(2752.978516 0)"/>
    <use xlink:href="#DejaVuSans-Bold-61" transform="translate(2824.560547 0)"/>
    <use xlink:href="#DejaVuSans-Bold-72" transform="translate(2892.041016 0)"/>
    <use xlink:href="#DejaVuSans-Bold-61" transform="translate(2941.357422 0)"/>
    <use xlink:href="#DejaVuSans-Bold-6d" transform="translate(3008.837891 0)"/>
    <use xlink:href="#DejaVuSans-Bold-65" transform="translate(3113.037109 0)"/>
    <use xlink:href="#DejaVuSans-Bold-74" transform="translate(3180.859375 0)"/>
    <use xlink:href="#DejaVuSans-Bold-72" transform="translate(3228.662109 0)"/>
    <use xlink:href="#DejaVuSans-Bold-69" transform="translate(3277.978516 0)"/>
    <use xlink:href="#DejaVuSans-Bold-7a" transform="translate(3312.255859 0)"/>
    <use xlink:href="#DejaVuSans-Bold-65" transform="translate(3370.458984 0)"/>
    <use xlink:href="#DejaVuSans-Bold-2d" transform="translate(3438.28125 0)"/>
    <use xlink:href="#DejaVuSans-Bold-6e" transform="translate(3479.785156 0)"/>
    <use xlink:href="#DejaVuSans-Bold-6f" transform="translate(3550.976562 0)"/>
    <use xlink:href="#DejaVuSans-Bold-74" transform="translate(3619.677734 0)"/>
    <use xlink:href="#DejaVuSans-Bold-2d" transform="translate(3667.480469 0)"/>
    <use xlink:href="#DejaVuSans-Bold-64" transform="translate(3708.984375 0)"/>
    <use xlink:href="#DejaVuSans-Bold-65" transform="translate(3780.566406 0)"/>
    <use xlink:href="#DejaVuSans-Bold-72" transform="translate(3848.388672 0)"/>
    <use xlink:href="#DejaVuSans-Bold-69" transform="translate(3897.705078 0)"/>
    <use xlink:href="#DejaVuSans-Bold-76" transform="translate(3931.982422 0)"/>
    <use xlink:href="#DejaVuSans-Bold-65" transform="translate(3997.167969 0)"/>
    <use xlink:href="#DejaVuSans-Bold-20" transform="translate(4064.990234 0)"/>
    <use xlink:href="#DejaVuSans-Bold-28" transform="translate(4099.804688 0)"/>
    <use xlink:href="#DejaVuSans-Bold-65" transform="translate(4145.507812 0)"/>
    <use xlink:href="#DejaVuSans-Bold-78" transform="translate(4213.330078 0)"/>
    <use xlink:href="#DejaVuSans-Bold-70" transform="translate(4277.832031 0)"/>
    <use xlink:href="#DejaVuSans-Bold-6c" transform="translate(4349.414062 0)"/>
    <use xlink:href="#DejaVuSans-Bold-6f" transform="translate(4383.691406 0)"/>
    <use xlink:href="#DejaVuSans-Bold-72" transform="translate(4452.392578 0)"/>
    <use xlink:href="#DejaVuSans-Bold-61" transform="translate(4501.708984 0)"/>
    <use xlink:href="#DejaVuSans-Bold-74" transform="translate(4569.189453 0)"/>
    <use xlink:href="#DejaVuSans-Bold-6f" transform="translate(4616.992188 0)"/>
    <use xlink:href="#DejaVuSans-Bold-72" transform="translate(4685.693359 0)"/>
    <use xlink:href="#DejaVuSans-Bold-79" transform="translate(4735.009766 0)"/>
    <use xlink:href="#DejaVuSans-Bold-29" transform="translate(4800.195312 0)"/>
   </g>
  </g>
 </g>
 <defs>
  <clipPath id="p06fb981967">
   <rect x="54.12125" y="50.64" width="482.05375" height="328.888"/>
  </clipPath>
  <clipPath id="p563697f576">
   <rect x="587.14625" y="50.64" width="482.05375" height="328.888"/>
  </clipPath>
 </defs>
</svg>
